<svg id="图层_1" data-name="图层 1" xmlns="http://www.w3.org/2000/svg" viewBox="0 0 24 24"><defs><style>.cls-1{fill:#dcb56d;}.cls-2{fill:#333;}</style></defs><title>yu</title><path class="cls-1" d="M15.36,7.89a1,1,0,0,1,.71.29,1,1,0,0,1,0,1.42,1,1,0,0,1-.71.29,1,1,0,0,1-1-1,1,1,0,0,1,.29-.71,1,1,0,0,1,.71-.29m0-2a3,3,0,0,0-2.12.88,3,3,0,0,0,0,4.24,3,3,0,0,0,4.24,0,3,3,0,0,0-2.12-5.12Z"/><path class="cls-2" d="M6.17,21.14a2,2,0,0,1-1.42-.58L3.69,19.5a2,2,0,0,1,0-2.83l5.76-5.76A6.25,6.25,0,0,1,16,2.67a6.33,6.33,0,0,1,4.63,2.85,6.25,6.25,0,0,1-7.29,9.28L7.58,20.56A2,2,0,0,1,6.17,21.14Zm9.18-17A4.75,4.75,0,0,0,11,10.8a.74.74,0,0,1-.16.83l-6.1,6.1a.52.52,0,0,0-.14.35.52.52,0,0,0,.14.36L5.81,19.5a.51.51,0,0,0,.71,0l6.1-6.1a.74.74,0,0,1,.83-.16,4.78,4.78,0,0,0,5.91-1.78,4.72,4.72,0,0,0,0-5.12,4.78,4.78,0,0,0-3.52-2.17A4.19,4.19,0,0,0,15.35,4.14Z"/><path class="cls-2" d="M7.93,13.53a.74.74,0,0,1-.53-.22L5.28,11.19a.75.75,0,0,1,1.06-1.06l2.12,2.12a.74.74,0,0,1,0,1.06A.71.71,0,0,1,7.93,13.53Z"/><path class="cls-2" d="M5.81,15.65a.74.74,0,0,1-.53-.22L3.16,13.31a.75.75,0,0,1,1.06-1.06l2.12,2.12a.74.74,0,0,1,0,1.06A.73.73,0,0,1,5.81,15.65Z"/></svg>