<svg id="图层_1" data-name="图层 1" xmlns="http://www.w3.org/2000/svg" viewBox="0 0 24 24"><defs><style>.cls-1{fill:#333;}.cls-2{fill:#dcb56d;}</style></defs><title>yu</title><circle class="cls-1" cx="4.5" cy="4.5" r="1.5"/><circle class="cls-1" cx="12" cy="4.5" r="1.5"/><circle class="cls-1" cx="19.5" cy="4.5" r="1.5"/><circle class="cls-1" cx="4.5" cy="12" r="1.5"/><circle class="cls-1" cx="19.5" cy="12" r="1.5"/><circle class="cls-1" cx="4.5" cy="19.5" r="1.5"/><circle class="cls-1" cx="12" cy="19.5" r="1.5"/><circle class="cls-1" cx="19.5" cy="19.5" r="1.5"/><path class="cls-1" d="M4.5,20a.43.43,0,0,1-.19,0A.5.5,0,0,1,4,19.5V4.5H5V18.29L19.15,4.15A.47.47,0,0,1,19.69,4,.5.5,0,0,1,20,4.5v15H19V5.71L4.85,19.85A.47.47,0,0,1,4.5,20Z"/><path class="cls-2" d="M12,10a2,2,0,1,0,2,2,2,2,0,0,0-2-2Z"/></svg>