<?xml version="1.0" encoding="UTF-8"?>
<svg width="45px" height="41px" viewBox="0 0 45 41" version="1.1" xmlns="http://www.w3.org/2000/svg" xmlns:xlink="http://www.w3.org/1999/xlink">
    <!-- Generator: Sketch 59 (86127) - https://sketch.com -->
    <title>微信支付</title>
    <desc>Created with Sketch.</desc>
    <g id="页面1" stroke="none" stroke-width="1" fill="none" fill-rule="evenodd">
        <g id="我的账本" transform="translate(-55.000000, -595.000000)" fill="#09BB07" fill-rule="nonzero">
            <g id="微信支付" transform="translate(55.000000, 595.833333)">
                <path d="M16.2363798,24.9912787 C16.0314255,25.0967271 15.8214723,25.1469407 15.5665291,25.1469407 C14.9966562,25.1469407 14.5317599,24.8356167 14.2718178,24.3686308 L14.1668412,24.1627553 L10.0827519,15.2247452 C10.032763,15.1192968 10.032763,15.0188697 10.032763,14.9134213 C10.032763,14.4966489 10.3426939,14.185325 10.7576014,14.185325 C10.9125668,14.185325 11.0675323,14.2355385 11.2224977,14.3409869 L16.0314255,17.7705717 C16.3913452,17.9764472 16.8062527,18.1321092 17.2711491,18.1321092 C17.5310911,18.1321092 17.7860343,18.0818956 18.0459763,17.9764472 L40.5959483,7.89858979 C36.5618478,3.11826081 29.8933347,0 22.3400189,0 C10.032763,0 0,8.36557571 0,18.6995222 C0,24.3083746 2.99933124,29.4000275 7.7032824,32.8296122 C8.06320215,33.0907227 8.32314419,33.5577086 8.32314419,34.0246945 C8.32314419,34.1803565 8.27315534,34.3360184 8.2181676,34.4916804 C7.85824785,35.8926382 7.23338717,38.1823756 7.23338717,38.2828027 C7.18339832,38.4384646 7.12841058,38.6443401 7.12841058,38.855237 C7.12841058,39.2720094 7.43834148,39.5833333 7.85324896,39.5833333 C8.00821441,39.5833333 8.16317986,39.5331198 8.26815645,39.4276714 L13.1270731,36.570521 C13.4869928,36.3646454 13.9019003,36.2089835 14.3168078,36.2089835 C14.5217621,36.2089835 14.7817041,36.259197 14.9866584,36.3144319 C17.2611513,36.9872933 19.7455973,37.3538522 22.2800322,37.3538522 C34.5872881,37.3538522 44.6200511,28.9882765 44.6200511,18.65433 C44.6200511,15.5360692 43.6902584,12.5784917 42.0856162,9.97743034 L16.3913452,24.8858303 L16.2363798,24.9912787 L16.2363798,24.9912787 Z" id="路径"></path>
            </g>
        </g>
    </g>
</svg>