<?xml version="1.0" encoding="UTF-8"?>
<svg width="40px" height="40px" viewBox="0 0 40 40" version="1.1" xmlns="http://www.w3.org/2000/svg" xmlns:xlink="http://www.w3.org/1999/xlink">
    <!-- Generator: Sketch 59 (86127) - https://sketch.com -->
    <title>编组 12</title>
    <desc>Created with Sketch.</desc>
    <g id="页面1" stroke="none" stroke-width="1" fill="none" fill-rule="evenodd">
        <g id="编组-12">
            <circle id="椭圆形" fill="#FFFFFF" cx="20" cy="20" r="20"></circle>
            <g id="支付宝" fill="#0F8DE8" fill-rule="nonzero">
                <path d="M8.99950266,22.5210028 C8.51952944,22.9009821 8.01955621,23.4609531 7.87956386,24.1609148 C7.67957456,25.1208613 7.83956615,26.3207963 8.7595141,27.2807466 C9.8794529,28.4206854 11.5993612,28.7406663 12.339319,28.8006624 C14.339212,28.9406548 16.4790895,27.9407083 18.0990132,26.8207695 L18.0990129,26.8207697 C19.1518579,26.0664915 20.0768941,25.1482092 20.8388637,24.1009189 C18.5189899,22.9009839 15.6191311,21.5810566 12.5393228,21.7010489 C10.9594069,21.7610459 9.81947201,22.0810283 8.99951403,22.521003 L8.99950266,22.5210028 Z M38.3978962,27.8206964 C39.4178388,25.4208265 39.9978083,22.780964 39.9978083,20.001117 C39.9978083,8.9817292 31.0183056,0.00218750255 19.9988787,0.00218750255 C8.97949092,0.00218750255 -5.07813091e-05,8.98169014 -5.07813091e-05,20.001117 C-5.07813091e-05,31.0205048 8.97945186,40.0000465 19.9988787,40.0000465 C26.6585349,40.0000465 32.5581902,36.7202263 36.1979992,31.7205057 C32.7581866,30.0205974 27.0984964,27.2007348 23.5986876,25.50085 C21.9387794,27.4007467 19.4789172,29.3006435 16.6990702,30.1205819 C14.9591658,30.6405552 13.3792499,30.8405437 11.7393379,30.5005613 C10.0994258,30.1605796 8.89949082,29.4006225 8.19952907,28.6406607 L8.19952918,28.6406608 C7.78050916,28.1978907 7.42390328,27.6999878 7.13958654,27.1607411 C7.15958547,27.2007388 7.17958425,27.2407369 7.17958425,27.2807346 C7.17958425,27.2807346 6.99959419,26.980751 6.87960069,26.5207767 C6.81960414,26.2807897 6.7596072,26.0608035 6.73960834,25.8208149 L6.73960838,25.8208152 C6.7195907,25.6547588 6.71959066,25.4868988 6.73960831,25.320842 L6.73960824,25.3208408 C6.72031642,25.0062487 6.74047204,24.6904768 6.79960518,24.3808905 C6.95959638,23.5809326 7.29957842,22.6609823 8.17952866,21.8210282 C10.0994254,19.9411315 12.6592995,19.8411353 13.9992229,19.8611353 C15.9591158,19.8811342 19.3989167,20.7410855 22.2787638,21.761032 C23.0787218,20.0611238 23.5986911,18.2412232 23.9186759,17.0212999 L11.919326,17.0212999 L11.919326,15.7213687 L18.0789816,15.7213687 L18.0789816,13.1215102 L10.6394026,13.1215102 L10.6394026,11.8015829 L18.0789816,11.8015829 L18.0789816,9.20172443 C18.0789816,8.84174394 18.1589774,8.56175884 18.7189472,8.56175884 L21.6387865,8.56175884 L21.6387865,11.8015829 L29.7383272,11.8015829 L29.7383272,13.1015141 L21.6387865,13.1015141 L21.6387865,15.7013726 L28.1184425,15.7013726 C28.1184425,15.7013726 27.4584769,19.3211776 25.4385878,22.9009904 C29.9383587,24.5009024 36.2980145,26.9807607 38.3978998,27.8207227 L38.3978962,27.8206964 Z" id="形状"></path>
            </g>
        </g>
    </g>
</svg>