<?xml version="1.0" encoding="UTF-8"?>
<svg width="23px" height="25px" viewBox="0 0 23 25" version="1.1" xmlns="http://www.w3.org/2000/svg" xmlns:xlink="http://www.w3.org/1999/xlink">
    <!-- Generator: Sketch 60 (88103) - https://sketch.com -->
    <title>路径</title>
    <desc>Created with Sketch.</desc>
    <g id="业务" stroke="none" stroke-width="1" fill="none" fill-rule="evenodd">
        <g id="02待确认订单" transform="translate(-394.000000, -610.000000)" fill="#666666" fill-rule="nonzero">
            <g id="编组备份" transform="translate(30.000000, 158.000000)">
                <g id="编组-2" transform="translate(31.000000, 22.000000)">
                    <g id="编组-3" transform="translate(298.000000, 412.000000)">
                        <g id="拨号" transform="translate(34.000000, 18.000000)">
                            <path d="M1.04470481,4.25209689 C1.04470481,4.25209689 0.0328493286,9.40643971 7.63701727,17.0265306 L7.95895953,17.3491182 C15.5631275,24.9688921 20.7066998,23.9552348 20.7066998,23.9552348 C21.0211383,23.9169748 21.6800015,23.7249262 21.9098864,23.5020794 C21.9098864,23.5020794 23.083058,22.5417497 23.7958562,21.3510538 C24.5161006,20.1679061 23.1594467,18.3709864 22.377821,17.5944945 C20.798786,16.012153 19.3575496,15.7052957 18.7211688,16.1426919 C18.4374353,16.3429803 17.2956299,17.5719361 17.2956299,17.5719361 C17.0732776,17.794754 16.6285729,17.9868027 16.3066019,17.9868027 C16.3066019,17.9868027 14.3210709,18.0093611 10.6187637,14.3607823 C6.97778028,10.6582708 7.00063651,8.66106274 7.00063651,8.66106274 C7.00848525,8.34631153 7.19231261,7.90064686 7.41463619,7.67030947 L8.8405201,6.2414398 C9.37699469,5.57333173 8.48790162,3.89871122 7.3992837,2.57715947 C6.69401799,1.7248103 6.12686718,1.22518417 5.06895423,1.02561605 C3.64309907,0.756961125 1.09041727,2.65405384 1.04470481,4.25209689 L1.04470481,4.25209689 Z" id="路径" transform="translate(12.500000, 12.500000) rotate(4.000000) translate(-12.500000, -12.500000) "></path>
                        </g>
                    </g>
                </g>
            </g>
        </g>
    </g>
</svg>