<?xml version="1.0" encoding="UTF-8"?>
<svg width="41px" height="17px" viewBox="0 0 41 17" version="1.1" xmlns="http://www.w3.org/2000/svg" xmlns:xlink="http://www.w3.org/1999/xlink">
    <!-- Generator: Sketch 60 (88103) - https://sketch.com -->
    <title>眼睛-闭着</title>
    <desc>Created with Sketch.</desc>
    <g id="首页&amp;登录" stroke="none" stroke-width="1" fill="none" fill-rule="evenodd">
        <g id="00登录01" transform="translate(-635.000000, -659.000000)" fill="#666666" fill-rule="nonzero">
            <g id="登录信息" transform="translate(65.000000, 515.000000)">
                <g id="用户名" transform="translate(16.000000, 0.000000)">
                    <g id="眼睛-闭着" transform="translate(554.000000, 144.000000)">
                        <path d="M40.5260662,2.52775128 C40.9613966,1.98204752 40.8145991,1.24298416 40.2375333,0.8047024 C39.5946617,0.38360816 38.7442489,0.5039208 38.2279268,1.04962456 C38.167183,1.10118712 30.2249347,9.14494648 20.789402,9.14494648 C11.6474642,9.14494648 3.35087728,1.04962456 3.26988558,0.9765776 C2.77381144,0.4824364 1.83734494,0.43087384 1.2602791,0.85196808 C0.678151276,1.27306232 0.617407503,2.08517264 1.11348165,2.57501696 C1.2602791,2.75118904 2.98135266,4.42267536 5.69457451,6.25314624 L2.06513409,9.51018128 C1.48300626,10.0043225 1.56905994,10.7949484 2.12587786,11.2332302 C2.27267531,11.4781523 2.621952,11.6027618 2.97629068,11.6027618 C3.33062935,11.6027618 3.67990605,11.4781523 3.97350095,11.2332302 L7.91172221,7.73127296 C9.77959322,8.839868 11.976493,9.87971296 14.4214299,10.6187763 L12.9281454,14.9844064 C12.7206042,15.6547197 13.1356867,16.3379236 13.9253557,16.5140957 L14.3606861,16.5140957 C15.0035577,16.5140957 15.5856855,16.144564 15.707173,15.5988602 L17.2004575,11.2332302 C18.3394032,11.4094022 19.5644026,11.5340118 20.7691541,11.5340118 C21.9739056,11.5340118 23.193843,11.4094022 24.3327888,11.2332302 L25.8260732,15.5258133 C25.9728706,16.071517 26.6157422,16.4410487 27.1725602,16.4410487 C27.3193576,16.4410487 27.4610931,16.4410487 27.5268988,16.3894862 C28.3165679,16.2133141 28.7518982,15.5258133 28.5241091,14.8597969 L27.0308247,10.5672138 C29.4555136,9.8281504 31.6777233,8.78830544 33.5405323,7.6797104 L37.3977619,11.1129175 C37.6862948,11.3578397 38.0406335,11.4824492 38.3949722,11.4824492 C38.7493108,11.4824492 39.0985875,11.3578397 39.3921824,11.1129175 C39.9743103,10.6187763 39.9743103,9.87971296 39.4529262,9.38986864 L35.8032379,6.1328336 C38.8100546,4.3066596 40.5260662,2.52775128 40.5260662,2.52775128 Z" id="路径"></path>
                    </g>
                </g>
            </g>
        </g>
    </g>
</svg>