<?xml version="1.0" encoding="UTF-8"?>
<svg width="41px" height="28px" viewBox="0 0 41 28" version="1.1" xmlns="http://www.w3.org/2000/svg" xmlns:xlink="http://www.w3.org/1999/xlink">
    <!-- Generator: Sketch 60 (88103) - https://sketch.com -->
    <title>眼睛-睁开</title>
    <desc>Created with Sketch.</desc>
    <g id="首页&amp;登录" stroke="none" stroke-width="1" fill="none" fill-rule="evenodd">
        <g id="00登录01" transform="translate(-635.000000, -689.000000)" fill="#666666" fill-rule="nonzero">
            <g id="登录信息" transform="translate(65.000000, 515.000000)">
                <g id="用户名" transform="translate(16.000000, 0.000000)">
                    <g id="眼睛-睁开" transform="translate(554.000000, 174.000000)">
                        <path d="M20.4765073,3.58305645 C27.9396851,3.58305645 34.3636238,7.85372548 37.3698682,14.0175998 L40.2993457,14.0175998 C37.1242844,6.37302063 29.4518581,0.975408882 20.4764632,0.975408882 C11.5025217,0.975408882 3.83009551,6.37302063 0.655078245,14.0175998 L3.58459972,14.0175998 C6.59075605,7.85372548 13.0146948,3.58301348 20.4765073,3.58301348 L20.4765073,3.58305645 Z" id="路径"></path>
                        <path d="M20.4765073,24.4521003 C13.0147388,24.4521003 6.59075605,20.1814312 3.58459972,14.0175569 L0.655078245,14.0175569 C3.83005147,21.6635111 11.5024777,27.0610799 20.4765073,27.0610799 C29.4518581,27.0610799 37.1243284,21.6634681 40.2993457,14.0175569 L37.3698242,14.0175569 C34.3635798,20.1814312 27.9396851,24.4521003 20.4764632,24.4521003 L20.4765073,24.4521003 Z" id="路径"></path>
                        <path d="M13.3471755,14.0182444 C13.3471755,17.8601707 16.5391494,20.9742915 20.4770798,20.9742915 C24.4151424,20.9742915 27.6070282,17.8601707 27.6070282,14.0182444 C27.6070282,10.1762321 24.4151424,7.06219721 20.4770798,7.06219721 C16.5391053,7.06219721 13.3471755,10.1762321 13.3471755,14.0182444 Z M24.9341894,14.0182444 C24.9341894,16.4193409 22.9381597,18.366558 20.4770798,18.366558 C18.0159999,18.366558 16.0214237,16.4192979 16.0214237,14.0182444 C16.0214237,11.6171478 18.0159999,9.66980181 20.4770798,9.66980181 C22.9381597,9.66980181 24.9341894,11.6171478 24.9341894,14.0182444 Z" id="形状"></path>
                    </g>
                </g>
            </g>
        </g>
    </g>
</svg>