<?xml version="1.0" encoding="UTF-8"?>
<svg width="34px" height="34px" viewBox="0 0 34 34" version="1.1" xmlns="http://www.w3.org/2000/svg" xmlns:xlink="http://www.w3.org/1999/xlink">
    <!-- Generator: Sketch 60 (88103) - https://sketch.com -->
    <title>编组 2</title>
    <desc>Created with Sketch.</desc>
    <g id="页面-1" stroke="none" stroke-width="1" fill="none" fill-rule="evenodd">
        <g id="登录02" transform="translate(-662.000000, -529.000000)">
            <g id="登录信息" transform="translate(65.000000, 517.000000)">
                <g id="用户名" transform="translate(16.000000, 0.000000)">
                    <g id="编组-2" transform="translate(581.000000, 12.000000)">
                        <circle id="椭圆形" fill="#CACCD3" cx="17" cy="17" r="17"></circle>
                        <g id="差-" transform="translate(10.000000, 10.000000)" fill="#FFFFFF" fill-rule="nonzero">
                            <path d="M7.50041039,8.65083642 L1.43838751,14.7104888 L1.4383875,14.7104888 C1.10148898,15.0468233 0.55794323,15.0485485 0.218934469,14.7143594 L0.218934481,14.7143594 C-0.0731920916,14.4205537 -0.0729474656,13.9445562 0.219485002,13.6510583 L6.35309462,7.50014937 L0.261340259,1.39127782 L0.261340214,1.39127778 C-0.0543000334,1.07516825 -0.0550312235,0.561920226 0.259709333,0.244903533 C0.262616485,0.241975358 0.265545923,0.239069565 0.268497377,0.236186425 L0.268497279,0.236186521 C0.594186014,-0.081718439 1.11362131,-0.0782706685 1.43509763,0.243927481 L7.51198626,6.33786859 L13.5883372,0.244467461 L13.5883373,0.244467436 C13.9134884,-0.08152642 14.4401979,-0.0810620375 14.7647791,0.245502982 C14.7649855,0.245710646 14.7651918,0.245918421 14.765398,0.246126302 C15.0792076,0.563512881 15.0781054,1.07664211 14.7626453,1.39236825 L8.66153599,7.4907372 L14.7626453,13.6090044 L14.7626453,13.6090044 C15.0781323,13.9252706 15.0786135,14.4385186 14.7637182,14.7553787 C14.7609943,14.7581196 14.7582509,14.7608408 14.7554882,14.7635422 L14.7554882,14.7635422 C14.4297322,15.0818089 13.9098803,15.0783612 13.5883367,14.755801 L7.50099101,8.65079029 L7.50041039,8.65083642 Z" id="路径"></path>
                        </g>
                    </g>
                </g>
            </g>
        </g>
    </g>
</svg>