<?xml version="1.0" encoding="UTF-8"?>
<svg width="100px" height="100px" viewBox="0 0 100 100" version="1.1" xmlns="http://www.w3.org/2000/svg" xmlns:xlink="http://www.w3.org/1999/xlink">
    <!-- Generator: Sketch 60 (88103) - https://sketch.com -->
    <title>编组 3</title>
    <desc>Created with Sketch.</desc>
    <g id="页面-1" stroke="none" stroke-width="1" fill="none" fill-rule="evenodd">
        <g id="登录01" transform="translate(-43.000000, -111.000000)">
            <g id="编组" transform="translate(43.000000, 101.000000)">
                <g id="编组-3" transform="translate(0.000000, 10.000000)">
                    <circle id="椭圆形" fill="#FFFFFF" cx="50" cy="50" r="50"></circle>
                    <g id="logo" transform="translate(25.000000, 25.000000)" fill="#3B86F7">
                        <path d="M11.6402116,0 L11.6402116,25.3968254 C11.6434473,25.5717675 11.6402116,25.7484688 11.6402116,25.9259259 C11.6402116,33.8157081 18.0361438,40.2116402 25.9259259,40.2116402 C30.4141808,40.2116402 34.4190075,38.141838 37.0379665,34.9046729 L37.037037,51.8518519 L7,51.8518519 C3.13400675,51.8518519 4.91433972e-15,48.7178451 0,44.8518519 L0,7 C-4.73447626e-16,3.13400675 3.13400675,5.15106354e-15 7,0 L11.6402116,0 Z M44.8518519,0 C48.7178451,-4.14386321e-15 51.8518519,3.13400675 51.8518519,7 L51.8518519,44.8518519 C51.8518519,48.7178451 48.7178451,51.8518519 44.8518519,51.8518519 L40.2116402,51.8518519 L40.2116402,26.4550265 L40.2019891,26.4559742 C40.2084046,26.2800844 40.2116402,26.103383 40.2116402,25.9259259 C40.2116402,18.0361438 33.8157081,11.6402116 25.9259259,11.6402116 C21.437671,11.6402116 17.4328443,13.7100139 14.8138853,16.9471789 L14.8148148,0 L44.8518519,0 Z M29.6878307,20.1058201 C30.2401154,20.1058201 30.6878307,20.5535354 30.6878307,21.1058201 L30.6878307,29.6878307 C30.6878307,30.2401154 30.2401154,30.6878307 29.6878307,30.6878307 L21.1058201,30.6878307 C20.5535354,30.6878307 20.1058201,30.2401154 20.1058201,29.6878307 L20.1058201,21.1058201 C20.1058201,20.5535354 20.5535354,20.1058201 21.1058201,20.1058201 L29.6878307,20.1058201 Z" id="形状结合"></path>
                    </g>
                </g>
            </g>
        </g>
    </g>
</svg>