<?xml version="1.0" encoding="UTF-8"?>
<svg width="750px" height="417px" viewBox="0 0 750 417" version="1.1" xmlns="http://www.w3.org/2000/svg" xmlns:xlink="http://www.w3.org/1999/xlink">
    <!-- Generator: Sketch 60 (88103) - https://sketch.com -->
    <title>路径 23</title>
    <desc>Created with Sketch.</desc>
    <defs>
        <linearGradient x1="68.8294794%" y1="104.460255%" x2="68.8294794%" y2="-4.7783188%" id="linearGradient-1">
            <stop stop-color="#5F8DF2" offset="0%"></stop>
            <stop stop-color="#3B86F7" offset="100%"></stop>
        </linearGradient>
        <linearGradient x1="50%" y1="19.262158%" x2="50%" y2="75.7833274%" id="linearGradient-2">
            <stop stop-color="#6195F5" offset="0%"></stop>
            <stop stop-color="#7DAEF2" offset="100%"></stop>
        </linearGradient>
        <linearGradient x1="50%" y1="19.262158%" x2="50%" y2="75.7833274%" id="linearGradient-3">
            <stop stop-color="#6195F5" offset="0%"></stop>
            <stop stop-color="#7DAEF2" offset="100%"></stop>
        </linearGradient>
        <linearGradient x1="50%" y1="19.262158%" x2="50%" y2="75.7833274%" id="linearGradient-4">
            <stop stop-color="#FFFFFF" offset="0%"></stop>
            <stop stop-color="#FFFFFF" stop-opacity="0" offset="100%"></stop>
        </linearGradient>
    </defs>
    <g id="页面-1" stroke="none" stroke-width="1" fill="none" fill-rule="evenodd">
        <g id="登录01" transform="translate(-0.000000, 0.000000)">
            <g id="路径-23" transform="translate(-0.326050, 0.000000)">
                <path d="M0.32605025,0 L750.328221,0.236075863 L751.32605,375.972711 C685.925505,389.990904 628.132024,397 577.945609,397 C481.327443,397 358.840763,339.692137 247.326765,328.57009 C174.085697,321.265261 91.7521258,339.629718 0.32605025,383.663461 L0.32605025,0 Z" id="蒙版" fill="url(#linearGradient-1)"></path>
                <path d="M0.664361185,316.844375 C31.8018553,289.193142 90.7146771,283.730219 177.402827,300.455608 C307.435051,325.543691 419.431448,336.956825 517.756089,306.162175 C583.305849,285.632408 661.495836,294.71107 752.32605,333.398159 L751.732947,417 C669.201871,382.759182 591.209584,365.638773 517.756089,365.638773 C386.737804,365.638773 295.77588,389.122961 201.735107,389.122961 C131.959089,388.608595 64.8227372,380.780532 0.32605025,365.638773 L0.664361185,316.844375 Z" fill="url(#linearGradient-2)" opacity="0.441266741"></path>
                <path d="M1.32605025,327.399855 C95.9927169,275.948331 213.626339,265.416715 354.226916,295.805009 C494.827493,326.193302 627.095874,328.622477 751.032059,303.092534 L752.32605,407 C659.924252,405.854731 588.221793,402.353599 537.218674,396.496606 C465.668137,388.28003 247.877648,345.855541 211.151024,345.855541 C99.4777884,345.855541 29.5361304,360.164701 1.32605025,388.78302 L1.32605025,327.399855 Z" fill="url(#linearGradient-3)" opacity="0.441266741"></path>
                <path d="M0.32605025,342.742944 C55.4118363,355.805819 99.7451697,357.840605 133.32605,348.847303 C255.073938,316.241976 241.317775,275.663694 375.040343,274.007328 C450.770396,273.069292 542.141587,331.567808 612.044936,321.427721 C658.647168,314.667664 704.740873,308.480753 750.32605,302.86699 L750.32605,458 L0.664214501,440.327659 L0.32605025,342.742944 Z" fill="url(#linearGradient-4)" style="mix-blend-mode: soft-light;" opacity="0.2007766"></path>
            </g>
        </g>
    </g>
</svg>