<?xml version="1.0" encoding="UTF-8"?>
<svg width="40px" height="43px" viewBox="0 0 40 43" version="1.1" xmlns="http://www.w3.org/2000/svg" xmlns:xlink="http://www.w3.org/1999/xlink">
    <!-- Generator: Sketch 60 (88103) - https://sketch.com -->
    <title>形状</title>
    <desc>Created with Sketch.</desc>
    <g id="页面-1" stroke="none" stroke-width="1" fill="none" fill-rule="evenodd">
        <g id="登录01" transform="translate(-81.000000, -519.000000)" fill="#CACCD3" fill-rule="nonzero">
            <g id="登录信息" transform="translate(65.000000, 515.000000)">
                <g id="用户名" transform="translate(16.000000, 0.000000)">
                    <path d="M25.9660458,27.3621366 C29.8031597,25.2394778 32.3984752,21.153145 32.3984752,16.460952 C32.3984752,9.57735024 26.821125,4 19.9375232,4 C13.0539214,4 7.4765712,9.57735024 7.4765712,16.460952 C7.4765712,21.153145 10.0718867,25.2394778 13.9090006,27.3621366 C5.8437568,29.9187802 0,37.4598046 0,46.3672368 L2.4921904,46.3672368 C2.4921904,36.7336318 10.3039182,28.921904 19.9375232,28.921904 C29.5711282,28.921904 37.382856,36.7336318 37.382856,46.3672368 L39.8750464,46.3672368 C39.8750464,37.4598046 34.0312896,29.9187802 25.9660458,27.3621366 Z M9.9687616,16.460952 C9.9687616,10.9566487 14.4332199,6.4921904 19.9375232,6.4921904 C25.4418265,6.4921904 29.9062848,10.9566487 29.9062848,16.460952 C29.9062848,21.9652553 25.4418265,26.4297136 19.9375232,26.4297136 C14.4332199,26.4297136 9.9687616,21.9652553 9.9687616,16.460952 Z" id="形状"></path>
                </g>
            </g>
        </g>
    </g>
</svg>