<?xml version="1.0" encoding="UTF-8"?>
<svg width="34px" height="42px" viewBox="0 0 34 42" version="1.1" xmlns="http://www.w3.org/2000/svg" xmlns:xlink="http://www.w3.org/1999/xlink">
    <!-- Generator: Sketch 60 (88103) - https://sketch.com -->
    <title>密码</title>
    <desc>Created with Sketch.</desc>
    <g id="页面-1" stroke="none" stroke-width="1" fill="none" fill-rule="evenodd">
        <g id="登录01" transform="translate(-84.000000, -649.000000)" fill="#CACCD3" fill-rule="nonzero">
            <g id="登录信息" transform="translate(65.000000, 515.000000)">
                <g id="密码" transform="translate(19.000000, 134.000000)">
                    <path d="M28.7692621,42 L5.23077917,42 C2.34211199,42 0,39.6500489 0,36.7510315 L0,21.0000492 C0,18.1001087 2.34206063,15.7484097 5.23077917,15.7484097 L5.23101805,15.7484097 L5.23101801,11.812405 C5.23101801,5.28879805 10.5002646,0 17,0 C23.4999275,0 28.7692208,5.28884491 28.7692208,11.812405 L28.7692208,15.7492719 C31.6579347,15.7492719 34,18.1000852 34,21.0000211 L34,36.7509565 C34,39.6500348 31.657986,42 28.7692675,42 L28.7692621,42 Z M26.15433,11.8124097 C26.15433,6.73850358 22.0558429,2.62519183 17.000058,2.62519183 C11.9447165,2.62519183 7.84648621,6.73856449 7.84648621,11.8124097 L7.84648621,15.7484144 L26.15433,15.7484144 L26.15433,11.8124097 Z M31.384689,21.0000492 C31.384689,19.5494534 30.2137054,18.3735688 28.7693275,18.3735688 L5.23079784,18.3735688 C3.78608378,18.3735688 2.61524487,19.5494534 2.61524487,21.0000492 L2.61524487,36.7509846 C2.61524487,38.199036 3.78608378,39.3739647 5.23079784,39.3739647 L28.7692808,39.3739647 C30.2136634,39.3739647 31.384689,38.199036 31.384689,36.7509846 L31.384689,21.0000492 L31.384689,21.0000492 Z M17.000058,34.1244854 C16.2777009,34.1244854 15.6923515,33.5361847 15.6923515,32.8118919 L15.6923515,24.9368927 C15.6923515,24.2131294 16.2776496,23.6247303 17.000058,23.6247303 C17.7219855,23.6247303 18.3077644,24.2131294 18.3077644,24.9368927 L18.3077644,32.8119387 C18.3077644,33.5362268 17.7219855,34.1244854 17.000058,34.1244854 L17.000058,34.1244854 Z" id="形状"></path>
                </g>
            </g>
        </g>
    </g>
</svg>