<?xml version="1.0" encoding="UTF-8"?>
<svg width="61px" height="61px" viewBox="0 0 61 61" version="1.1" xmlns="http://www.w3.org/2000/svg" xmlns:xlink="http://www.w3.org/1999/xlink">
    <!-- Generator: Sketch 60 (88103) - https://sketch.com -->
    <title>logo</title>
    <desc>Created with Sketch.</desc>
    <g id="首页&amp;登录" stroke="none" stroke-width="1" fill="none" fill-rule="evenodd">
        <g id="选择机构" transform="translate(-75.000000, -630.000000)">
            <g id="卡1" transform="translate(50.000000, 570.000000)">
                <g id="logo" transform="translate(25.000000, 60.000000)">
                    <circle id="椭圆形" fill="#FFFFFF" cx="30.5" cy="30.5" r="30.5"></circle>
                    <path d="M21.9589214,14.000118 L21.9591837,29.1836735 C21.9611155,29.2884074 21.9591837,29.3939781 21.9591837,29.5 C21.9591837,34.2169626 25.7830374,38.0408163 30.5,38.0408163 C33.1834174,38.0408163 35.5777961,36.8032945 37.1435567,34.8678303 L37.1428571,45 L22,45 C18.1340068,45 15,41.8659932 15,38 L15,21 C15,17.1477088 18.1118307,14.0222247 21.9589214,14.000118 Z M39,14 C42.8659932,14 46,17.1340068 46,21 L46,38 C46,41.8525697 42.8877194,44.9782272 39.0402442,44.9998867 L39.0408163,29.8163265 C39.0388845,29.7115926 39.0408163,29.6060219 39.0408163,29.5 C39.0408163,24.7830374 35.2169626,20.9591837 30.5,20.9591837 C27.8165826,20.9591837 25.4222039,22.1967055 23.8564433,24.1321697 L23.8571429,14 L39,14 Z M32.3469388,26.0204082 C32.8992235,26.0204082 33.3469388,26.4681234 33.3469388,27.0204082 L33.3469388,31.3469388 C33.3469388,31.8992235 32.8992235,32.3469388 32.3469388,32.3469388 L28.0204082,32.3469388 C27.4681234,32.3469388 27.0204082,31.8992235 27.0204082,31.3469388 L27.0204082,27.0204082 C27.0204082,26.4681234 27.4681234,26.0204082 28.0204082,26.0204082 L32.3469388,26.0204082 Z" id="形状结合" fill="#3B86F7"></path>
                </g>
            </g>
        </g>
    </g>
</svg>