<?xml version="1.0" encoding="UTF-8"?>
<svg width="386px" height="262px" viewBox="0 0 386 262" version="1.1" xmlns="http://www.w3.org/2000/svg" xmlns:xlink="http://www.w3.org/1999/xlink">
    <!-- Generator: Sketch 60 (88103) - https://sketch.com -->
    <title>无记录-图片</title>
    <desc>Created with Sketch.</desc>
    <defs>
        <linearGradient x1="50%" y1="0%" x2="50%" y2="100%" id="linearGradient-1">
            <stop stop-color="#F5F5F5" offset="0%"></stop>
            <stop stop-color="#FFFFFF" offset="100%"></stop>
        </linearGradient>
        <linearGradient x1="50%" y1="0%" x2="50%" y2="100%" id="linearGradient-2">
            <stop stop-color="#EFEFEF" offset="0%"></stop>
            <stop stop-color="#FFFFFF" offset="100%"></stop>
        </linearGradient>
        <linearGradient x1="50%" y1="0%" x2="50%" y2="100%" id="linearGradient-3">
            <stop stop-color="#F5F5F5" offset="0%"></stop>
            <stop stop-color="#FFFFFF" offset="100%"></stop>
        </linearGradient>
        <linearGradient x1="50%" y1="0%" x2="50%" y2="100%" id="linearGradient-4">
            <stop stop-color="#DEDEDE" offset="0%"></stop>
            <stop stop-color="#FFFFFF" stop-opacity="0" offset="100%"></stop>
        </linearGradient>
        <linearGradient x1="50%" y1="0%" x2="50%" y2="100%" id="linearGradient-5">
            <stop stop-color="#EBEBEB" offset="0%"></stop>
            <stop stop-color="#CBCECF" offset="43.3408995%"></stop>
            <stop stop-color="#DADADA" offset="100%"></stop>
        </linearGradient>
        <filter x="-22.8%" y="-178.1%" width="145.6%" height="456.2%" filterUnits="objectBoundingBox" id="filter-6">
            <feGaussianBlur stdDeviation="10" in="SourceGraphic"></feGaussianBlur>
        </filter>
        <linearGradient x1="50%" y1="0%" x2="50%" y2="100%" id="linearGradient-7">
            <stop stop-color="#E7E7E7" offset="0%"></stop>
            <stop stop-color="#F1F1F1" offset="100%"></stop>
        </linearGradient>
        <path d="M4,0 L144.421053,0 C146.630192,-4.05812251e-16 148.421053,1.790861 148.421053,4 L148.421053,169.684211 C148.421053,171.89335 146.630192,173.684211 144.421053,173.684211 L9,173.684211 C4.02943725,173.684211 1.60603314e-14,169.654773 0,164.684211 L0,4 C-2.705415e-16,1.790861 1.790861,4.05812251e-16 4,0 Z" id="path-8"></path>
        <linearGradient x1="56.2423449%" y1="32.5032219%" x2="19.6230371%" y2="92.1903387%" id="linearGradient-10">
            <stop stop-color="#F6F6F6" stop-opacity="0" offset="0%"></stop>
            <stop stop-color="#FFFFFF" offset="100%"></stop>
        </linearGradient>
        <linearGradient x1="50%" y1="0%" x2="50%" y2="100%" id="linearGradient-11">
            <stop stop-color="#F5F5F5" offset="0%"></stop>
            <stop stop-color="#FCFCFC" offset="72.2841005%"></stop>
            <stop stop-color="#E8E8E8" offset="87.0961782%"></stop>
            <stop stop-color="#FFFFFF" offset="100%"></stop>
        </linearGradient>
        <linearGradient x1="0%" y1="50%" x2="100%" y2="50%" id="linearGradient-12">
            <stop stop-color="#F6F6F6" offset="0%"></stop>
            <stop stop-color="#EAEAEA" offset="100%"></stop>
        </linearGradient>
        <linearGradient x1="0%" y1="50%" x2="100%" y2="50%" id="linearGradient-13">
            <stop stop-color="#F6F6F6" offset="0%"></stop>
            <stop stop-color="#EAEAEA" offset="100%"></stop>
        </linearGradient>
        <linearGradient x1="50%" y1="0%" x2="50%" y2="100%" id="linearGradient-14">
            <stop stop-color="#FFFFFF" offset="0%"></stop>
            <stop stop-color="#E5F0FF" offset="100%"></stop>
        </linearGradient>
        <linearGradient x1="50%" y1="0%" x2="50%" y2="100%" id="linearGradient-15">
            <stop stop-color="#FFFFFF" offset="0%"></stop>
            <stop stop-color="#E5F0FF" offset="100%"></stop>
        </linearGradient>
        <linearGradient x1="50%" y1="0%" x2="50%" y2="100%" id="linearGradient-16">
            <stop stop-color="#FFFFFF" offset="0%"></stop>
            <stop stop-color="#E5F0FF" offset="100%"></stop>
        </linearGradient>
        <linearGradient x1="50%" y1="0%" x2="50%" y2="100%" id="linearGradient-17">
            <stop stop-color="#DEDEDE" offset="0%"></stop>
            <stop stop-color="#FFFFFF" offset="100%"></stop>
        </linearGradient>
    </defs>
    <g id="缺省页" stroke="none" stroke-width="1" fill="none" fill-rule="evenodd">
        <g id="01无记录" transform="translate(-156.000000, -361.000000)">
            <g id="无记录-图片" transform="translate(156.000000, 361.000000)">
                <path d="M93.1473342,10.5263158 C106.102274,25.2188323 112.119431,0 124.036411,0 C131.981065,0 140.214542,7.01754386 148.736842,21.0526316 L54,21.0526316 C71.4615963,4.24007672 84.5107077,0.731304787 93.1473342,10.5263158 Z" id="路径-5" fill="url(#linearGradient-1)"></path>
                <path d="M283.952005,94.5882684 C299.78582,117.888917 307.140124,77.8947368 321.705321,77.8947368 C331.415453,77.8947368 341.478592,89.0237579 351.894737,111.2818 L236.105263,111.2818 C257.447214,84.619013 273.396128,79.0545025 283.952005,94.5882684 Z" id="路径-5备份" fill="url(#linearGradient-2)"></path>
                <path d="M191.155937,183 C283.367771,183 348.315792,209.333333 386,262 L0,262 C35.2254582,209.333333 98.944104,183 191.155937,183 Z" id="路径-5备份-2" fill="url(#linearGradient-3)"></path>
                <g id="树备份" transform="translate(78.000000, 182.000000)">
                    <path d="M3.0269293,36.3543593 C4.74766913,34.9395876 6.56039812,33.569776 8.46511628,32.2449245 C10.8515273,30.5850252 14.5414498,30.5850252 19.5348837,32.2449245 L23.537595,33.6683725 C25.804508,34.4745342 26.9886808,36.9657535 26.1825191,39.2326665 C26.1418949,39.346901 26.0965196,39.4593897 26.0465116,39.569839 L25.8146702,40.0818919 C24.7359104,42.4644781 22.5606245,44.1693049 19.9892708,44.6474053 L9.15409013,46.6620268 C9.03055834,46.6849957 8.90650254,46.7050509 8.78202601,46.7221759 C2.927342,47.5276407 0,46.581709 0,43.8843809 C0,42.842858 0.084533021,41.885635 0.253599063,41.0127119 L0.253596863,41.0127114 C0.607686843,39.1844712 1.58848337,37.5370323 3.0269293,36.3543593 Z" id="矩形" fill="url(#linearGradient-4)"></path>
                    <path d="M15.0861371,0.151103528 C15.2832115,0.259839312 15.4456921,0.4212068 15.5551779,0.616931211 L22.059703,12.2448708 C22.5454106,13.1131555 22.2304156,14.2080858 21.3561418,14.6904661 C21.0871179,14.8389 20.7844426,14.9167938 20.4766903,14.9167938 L20.3850368,14.9167265 L24.7707161,22.7341929 C25.2574832,23.6018922 24.9438247,24.6972009 24.0701403,25.1806334 C23.8006481,25.3297505 23.4972665,25.4080209 23.1887706,25.4080209 L16.0086915,25.4079536 L16.0089206,35 L12.9907515,35 L12.9905223,25.4079536 L5.8109015,25.4080209 C4.81076822,25.4080209 4,24.6028068 4,23.6095248 C4,23.3031423 4.07881033,23.0018389 4.22895594,22.7341929 L8.61417702,14.9167265 L8.52298183,14.9167938 C7.52284854,14.9167938 6.71208033,14.1115797 6.71208033,13.1182977 C6.71208033,12.8126537 6.79051138,12.5120518 6.9399691,12.2448708 L13.4444942,0.616931211 C13.7682993,0.0380747784 14.5032879,-0.17048338 15.0861371,0.151103528 Z" id="路径" fill="url(#linearGradient-5)"></path>
                </g>
                <g id="记事本" transform="translate(83.473684, 10.526316)">
                    <rect id="矩形" fill="#DADADA" opacity="0.425432478" filter="url(#filter-6)" x="37.8947368" y="191.578947" width="131.578947" height="16.8421053" rx="8"></rect>
                    <g id="矩形" transform="translate(37.894737, 27.368421)">
                        <mask id="mask-9" fill="white">
                            <use xlink:href="#path-8"></use>
                        </mask>
                        <use id="蒙版" fill="url(#linearGradient-7)" xlink:href="#path-8"></use>
                        <rect fill="url(#linearGradient-10)" mask="url(#mask-9)" x="9.47368421" y="0" width="148.421053" height="173.684211" rx="4"></rect>
                    </g>
                    <rect id="矩形" fill="#FFFFFF" x="54.7368421" y="36.8421053" width="123.157895" height="143.157895"></rect>
                    <g id="编组" transform="translate(74.736842, 0.000000)">
                        <path d="M60.9943342,22.2478294 L60.9943342,14.642467 C60.9943342,4.6833413 58.1977719,0 48.7525691,0 L32.6657294,0 C23.2214798,0 20.8669493,4.6833413 20.8669493,14.642467 L20.8669493,22.2478294 L4,22.2478294 C1.790861,22.2478294 8.42548995e-15,24.0386904 0,26.2478294 L0,43.1578947 L0,43.1578947 L78.9473684,43.1578947 L78.9473684,26.2478294 C78.9473684,24.0386904 77.1565074,22.2478294 74.9473684,22.2478294 L60.9943342,22.2478294 L60.9943342,22.2478294 Z" id="路径" fill="url(#linearGradient-11)"></path>
                        <ellipse id="椭圆形" fill="#E1E1E1" cx="41.4473684" cy="13.7320574" rx="5.92105263" ry="5.88516746"></ellipse>
                    </g>
                    <rect id="矩形" fill="url(#linearGradient-12)" x="73.6842105" y="78.9473684" width="31.5789474" height="6.31578947"></rect>
                    <rect id="矩形备份-3" fill="url(#linearGradient-12)" x="129.473684" y="78.9473684" width="31.5789474" height="6.31578947"></rect>
                    <path d="M95.7894737,137.894737 L116.315789,132.631579 L136.842105,137.894737 L136.842105,144.210526 C127.829681,140.350877 120.987575,138.421053 116.315789,138.421053 C111.644004,138.421053 104.801898,140.350877 95.7894737,144.210526 L95.7894737,137.894737 Z" id="矩形备份-4" fill="url(#linearGradient-13)"></path>
                    <path d="M25.2631579,86.3157895 C26.9426203,86.3157895 29.4736842,85.5437945 29.4736842,81.3663703 C29.4736842,79.2484226 28.163489,77.2162472 27.9223043,75.0128381 C27.687778,72.8702596 28.5220756,70.5263158 28.5220756,70.5263158 C28.5220756,70.5263158 21.0526316,77.1889461 21.0526316,81.3663703 C21.0526316,85.5437945 23.5836955,86.3157895 25.2631579,86.3157895 Z" id="椭圆形备份" fill="url(#linearGradient-14)" transform="translate(25.263158, 78.421053) rotate(37.000000) translate(-25.263158, -78.421053) "></path>
                    <path d="M28.4210526,104.210526 C29.2607838,104.210526 30.5263158,103.850262 30.5263158,101.900797 C30.5263158,100.912422 29.8712182,99.9640733 29.7506258,98.9358157 C29.6333627,97.9359457 30.0505115,96.8421053 30.0505115,96.8421053 C30.0505115,96.8421053 26.3157895,99.9513327 26.3157895,101.900797 C26.3157895,103.850262 27.5813214,104.210526 28.4210526,104.210526 Z" id="椭圆形备份-3" fill="url(#linearGradient-15)" transform="translate(28.421053, 100.526316) rotate(10.000000) translate(-28.421053, -100.526316) "></path>
                    <path d="M10,130.526316 C12.3092608,130.526316 15.7894737,129.496989 15.7894737,123.92709 C15.7894737,121.10316 13.9879553,118.393593 13.6563262,115.455714 C13.3338526,112.598943 14.4810119,109.473684 14.4810119,109.473684 C14.4810119,109.473684 4.21052632,118.357191 4.21052632,123.92709 C4.21052632,129.496989 7.6907392,130.526316 10,130.526316 Z" id="椭圆形备份-2" fill="url(#linearGradient-16)" transform="translate(10.000000, 120.000000) rotate(20.000000) translate(-10.000000, -120.000000) "></path>
                </g>
                <g id="人" transform="translate(227.684211, 111.578947)">
                    <path d="M18.1237783,131.824691 C21.6291348,130.038523 25.3471573,128.315461 29.2778458,126.655508 C33.6738661,124.799041 40.4710917,124.799041 49.6695226,126.655508 L59.3792244,128.751956 C61.4682643,129.203006 62.7961172,131.262156 62.3450669,133.351196 C62.2280719,133.893058 61.9960221,134.403459 61.6646267,134.847846 L60.1379413,136.895065 C58.8160665,138.667642 56.8194834,139.814048 54.622245,140.06209 L30.2248214,142.816269 C19.1977475,143.771395 13.6842105,142.723745 13.6842105,139.673321 C13.6842105,138.702165 13.7924463,137.796542 14.0089177,136.956452 L14.0089196,136.956453 C14.5813322,134.735015 16.0798319,132.866192 18.1237783,131.824691 Z" id="矩形" fill="url(#linearGradient-17)"></path>
                    <g id="编组-3" transform="translate(31.578947, 0.000000)">
                        <rect id="矩形" fill="#E8CBC1" x="6.01503759" y="16.9473684" width="4.81203008" height="7.26315789"></rect>
                        <path d="M8.42105263,4.84210526 C11.8536297,4.84210526 14.6362832,7.62475877 14.6362832,11.0573358 C14.6362832,11.6926947 14.5388611,12.3242972 14.3474553,12.9301393 C14.0126899,13.9894892 13.8023197,14.6289547 13.7163447,14.8485357 C13.5764997,15.2057009 13.1778114,15.953616 12.5202799,17.0922808 C11.6384967,18.619285 10.2769149,19.8121795 8.64721688,20.4855054 C8.49644071,20.5478 8.42105263,20.5789474 8.42105263,20.5789474 C8.42105263,20.5789474 8.37746865,20.5593206 8.29030069,20.520067 C6.63446616,19.7744029 5.28159249,18.48757 4.45406584,16.8710916 C4.28795579,16.5466147 4.1561124,16.2644302 4.05853566,16.0245381 C3.91057628,15.6607805 3.51013011,14.5798255 2.85719713,12.7816731 C1.74146067,9.70884838 3.32794836,6.31332727 6.40075802,5.19754937 C7.04837101,4.96239251 7.7320669,4.84210526 8.42105263,4.84210526 Z" id="矩形" fill="#F1D5CB"></path>
                        <path d="M12.8871315,7.94014684 C9.92222297,4.25952884 8.8954807,8.87437164 4.45791747,9.92518356 C1.49954199,10.6257248 0.013569499,9.00987439 0,5.07763222 C0.946707519,3.98156724 1.56038045,3.08995028 1.84101879,2.40278132 C2.15522531,1.63341756 6.20095929,0 7.22654251,0 C7.90283785,0 9.68486447,0.167965707 11.0461127,0.943031686 C11.4432465,1.16915127 12.0605631,1.65573448 12.8980624,2.40278132 C14.7254193,2.42373383 15.6390977,3.3153508 15.6390977,5.07763222 C15.6390977,8.09438037 15.1412572,10.436924 14.1455761,12.1052632 C14.2957655,10.5564463 13.876284,9.16807422 12.8871315,7.94014684 Z" id="路径-6" fill="#555555"></path>
                    </g>
                    <g id="编组-2" transform="translate(26.315789, 54.736842)">
                        <polygon id="矩形备份" fill="#F1D5CB" points="9.62406015 66.5449358 12.7499044 66.1654135 13.2330827 70.9774436 10.3783798 70.9774436"></polygon>
                        <rect id="矩形" fill="#F1D5CB" x="14.4360902" y="64.962406" width="3.60902256" height="4.81203008"></rect>
                        <path d="M13.0229868,66.1654135 C12.624238,66.8152579 11.3744461,67.2162604 9.27361103,67.3684211 C3.95919532,51.2546584 1.22588983,41.2855596 1.07369455,37.4611245 C0.193684599,15.3478177 4.28766845,3.17959559 4.28766845,3.17959559 C4.28766845,3.17959559 5.94964931,3.17959559 9.27361103,3.17959559 L23.5728766,0.885976037 C23.9453268,4.54633097 24.1077514,7.34174434 24.0601504,9.27221615 C23.8930172,16.0503483 22.1291136,23.4028817 21.3012929,29.9886758 C20.8246194,33.7808899 21.0061462,41.8774693 20.4511278,51.477327 C20.2824967,54.3940503 19.8426559,58.8242295 19.1316054,64.7678647 C19.0734229,65.2542095 19.0364024,65.8310779 18.9145897,66.1654135 C18.8333812,66.3883039 17.7852719,66.4643843 15.7702616,66.3936546 C14.9215568,66.3672728 14.4363727,66.2911924 14.3147093,66.1654135 C14.1322144,65.9767452 13.8315264,65.4602942 13.8345865,64.962406 C14.0400038,31.5395935 14.1394996,15.683521 12.6315789,15.683521 C11.6264624,15.683521 10.9135455,19.0244991 10.4416543,25.5541625 C10.1950472,28.9665197 7.64495523,36.8411522 7.64495523,38.8113257 C7.64495523,40.7814991 10.4416543,47.4694933 11.4285714,52.5077511 C12.4154885,57.5460089 13.62111,65.1906471 13.0229868,66.1654135 Z" id="路径-8" fill="#434141"></path>
                        <path d="M3.79181887,74.5815378 C2.77160766,74.3318266 4.82198731,71.6963744 8.04796647,70.7172314 C11.2739456,69.7380884 12.8436126,68.0215994 13.748856,68.7441638 C14.3523515,69.2258735 14.5583768,70.450912 14.3669319,72.4192794 C14.3095631,72.9145161 14.0254229,73.3423141 13.5145113,73.7026737 C13.2586718,73.883124 12.1583664,73.5686627 11.4285714,73.7026737 C10.9435005,73.7917463 10.1515486,74.1679381 9.05271548,74.8312491 C8.2303411,74.8312491 7.39827684,74.8312491 6.5565227,74.8312491 C5.29389149,74.8312491 4.81203008,74.8312491 3.79181887,74.5815378 Z" id="路径-9备份-2" fill="#505050"></path>
                        <path d="M7.7945124,74.1515328 C8.61688658,72.6790086 10.510748,71.6509343 13.2371284,70.1342211 C13.6214113,69.9204406 14.0112435,68.9056797 14.4360902,68.9056797 C15.9067301,68.9056797 17.5721697,68.5714286 18.3242907,68.9056797 C19.1067354,69.253407 19.2643831,70.8970271 18.7972338,73.8365401 C18.5817685,73.9986363 18.2504385,74.1036339 17.8032437,74.1515328 C17.3560489,74.1994318 16.7070986,74.1994318 15.8563928,74.1515328 C13.4636615,75.2434934 11.8480321,75.7894737 11.0095048,75.7894737 C9.75171387,75.7894737 6.97213822,75.6240571 7.7945124,74.1515328 Z" id="路径-9备份" fill="#605E5E"></path>
                    </g>
                    <g id="编组-4" transform="translate(0.000000, 23.157895)">
                        <path d="M28.0799582,13.3324548 C22.339399,18.3242267 18.9774804,20.9818987 17.9942025,21.3054708 C17.7212093,21.395306 16.649684,21.7744933 15.9702866,21.7744933 C15.2908892,21.7744933 15.1227687,21.4792698 14.8042694,21.3054708 C14.2039816,20.9779051 8.9431089,12.6751106 7.13132815,11.2569334 C6.89067163,11.0685587 4.42003376,10.8074961 4.10120421,10.6722227 C2.01972794,9.78909151 0.777413443,10.0371513 0.208394674,9.88050334 C-0.447783385,9.69986086 0.624226178,9.3784852 0.971665135,9.20995813 C1.31910409,9.04143105 3.68225583,8.75741345 4.75168944,8.65063531 C4.97345683,8.62849284 5.42570476,8.56032366 6.10843322,8.44612779 C5.64375025,7.83166805 5.48940029,7.45393204 5.64538333,7.31291975 C5.80136637,7.17190747 6.29668131,7.4019434 7.13132815,8.00302756 C11.8853498,13.0769099 14.5690879,15.7594506 15.1825425,16.0506495 C15.7959972,16.3418484 18.499752,13.5945169 23.293807,7.80865509 L28.0799582,13.3324548 Z" id="路径-10" fill="#F1D5CB"></path>
                        <path d="M83.4183041,14.5445761 C77.6777449,19.5363479 74.3158263,22.1940199 73.3325484,22.517592 C73.0595551,22.6074272 71.9880298,22.9866145 71.3086325,22.9866145 C70.6292351,22.9866145 70.4611146,22.691391 70.1426153,22.517592 C69.5423275,22.1900263 64.2814548,13.8872318 62.469674,12.4690546 C62.2290175,12.28068 59.7583796,12.0196173 59.4395501,11.8843439 C57.3580738,11.0012127 56.1157593,11.2492725 55.5467405,11.0926246 C54.8905625,10.9119821 55.962572,10.5906064 56.310011,10.4220793 C56.65745,10.2535523 59.0206017,9.96953466 60.0900353,9.86275653 C60.3118027,9.84061405 60.7640506,9.77244487 61.4467791,9.658249 C60.9820961,9.04378926 60.8277462,8.66605325 60.9837292,8.52504097 C61.1397122,8.38402868 61.6350272,8.61406461 62.469674,9.21514877 C67.2236956,14.2890312 69.9074338,16.9715718 70.5208884,17.2627707 C71.134343,17.5539696 73.8380978,14.8066382 78.6321528,9.0207763 L83.4183041,14.5445761 Z" id="路径-10" fill="#F1D5CB" transform="translate(69.378325, 15.735732) scale(-1, 1) translate(-69.378325, -15.735732) "></path>
                        <path d="M36.5011921,0 C41.3132222,0 43.811944,0 43.9973575,0 C48.1279999,0.816301521 51.3498269,1.88961296 53.6628383,3.21993432 C57.1323554,5.21541635 61.52463,8.92714603 62.3709317,10.5586551 C63.2172333,12.1901641 58.1988654,17.0668244 57.069279,17.0668244 C56.3162214,17.0668244 54.5152427,15.5367002 51.6663427,12.4764518 C52.1970092,27.706932 52.1970092,35.9415959 51.6663427,37.1804436 C50.870343,39.0387152 30.6766917,39.9775139 29.5050548,36.5402314 C28.7239636,34.2487096 28.7239636,26.2274498 29.5050548,12.4764518 C26.726894,15.7540851 24.8685951,17.2842093 23.930158,17.0668244 C22.5225023,16.7407471 19.5186872,12.9135805 19.5186872,11.3986115 C19.5186872,9.88364249 24.1094243,4.73194485 28.8721805,2.61800956 C32.7256572,0.907655242 33.8308331,0 36.5011921,0 Z" id="路径-7" fill="#3B86F7"></path>
                    </g>
                </g>
            </g>
        </g>
    </g>
</svg>