<?xml version="1.0" encoding="UTF-8"?>
<svg width="386px" height="282px" viewBox="0 0 386 282" version="1.1" xmlns="http://www.w3.org/2000/svg" xmlns:xlink="http://www.w3.org/1999/xlink">
    <!-- Generator: Sketch 60 (88103) - https://sketch.com -->
    <title>无搜索记录-图片</title>
    <desc>Created with Sketch.</desc>
    <defs>
        <linearGradient x1="50%" y1="0%" x2="50%" y2="100%" id="linearGradient-1">
            <stop stop-color="#F5F5F5" offset="0%"></stop>
            <stop stop-color="#FFFFFF" offset="100%"></stop>
        </linearGradient>
        <linearGradient x1="50%" y1="0%" x2="50%" y2="100%" id="linearGradient-2">
            <stop stop-color="#EFEFEF" offset="0%"></stop>
            <stop stop-color="#FFFFFF" offset="100%"></stop>
        </linearGradient>
        <linearGradient x1="50%" y1="0%" x2="50%" y2="100%" id="linearGradient-3">
            <stop stop-color="#F5F5F5" offset="0%"></stop>
            <stop stop-color="#FFFFFF" offset="100%"></stop>
        </linearGradient>
        <linearGradient x1="50%" y1="0%" x2="50%" y2="100%" id="linearGradient-4">
            <stop stop-color="#DEDEDE" offset="0%"></stop>
            <stop stop-color="#FFFFFF" stop-opacity="0" offset="100%"></stop>
        </linearGradient>
        <linearGradient x1="50%" y1="0%" x2="50%" y2="100%" id="linearGradient-5">
            <stop stop-color="#EBEBEB" offset="0%"></stop>
            <stop stop-color="#CBCECF" offset="43.3408995%"></stop>
            <stop stop-color="#DADADA" offset="100%"></stop>
        </linearGradient>
        <linearGradient x1="50%" y1="0%" x2="50%" y2="100%" id="linearGradient-6">
            <stop stop-color="#DEDEDE" offset="0%"></stop>
            <stop stop-color="#FFFFFF" stop-opacity="0" offset="100%"></stop>
        </linearGradient>
        <linearGradient x1="50%" y1="0%" x2="50%" y2="100%" id="linearGradient-7">
            <stop stop-color="#EBEBEB" offset="0%"></stop>
            <stop stop-color="#CBCECF" offset="43.3408995%"></stop>
            <stop stop-color="#DADADA" offset="100%"></stop>
        </linearGradient>
        <filter x="-16.0%" y="-124.7%" width="131.9%" height="349.4%" filterUnits="objectBoundingBox" id="filter-8">
            <feGaussianBlur stdDeviation="7" in="SourceGraphic"></feGaussianBlur>
        </filter>
        <linearGradient x1="50%" y1="0%" x2="50%" y2="100%" id="linearGradient-9">
            <stop stop-color="#E7E7E7" offset="0%"></stop>
            <stop stop-color="#F1F1F1" offset="100%"></stop>
        </linearGradient>
        <linearGradient x1="50%" y1="0%" x2="50%" y2="100%" id="linearGradient-10">
            <stop stop-color="#ECECEC" offset="0%"></stop>
            <stop stop-color="#FAFAFA" offset="10.4835304%"></stop>
            <stop stop-color="#F6F6F6" offset="54.6980574%"></stop>
            <stop stop-color="#D8D8D8" offset="100%"></stop>
        </linearGradient>
        <linearGradient x1="50%" y1="0%" x2="50%" y2="100%" id="linearGradient-11">
            <stop stop-color="#D2D2D2" offset="0%"></stop>
            <stop stop-color="#FFFFFF" offset="29.2546453%"></stop>
            <stop stop-color="#D8D8D8" offset="100%"></stop>
        </linearGradient>
        <linearGradient x1="50%" y1="0%" x2="50%" y2="100%" id="linearGradient-12">
            <stop stop-color="#DEDEDE" offset="0%"></stop>
            <stop stop-color="#FFFFFF" offset="100%"></stop>
        </linearGradient>
        <linearGradient x1="10.6470585%" y1="87.3069207%" x2="61.3764981%" y2="36.3018582%" id="linearGradient-13">
            <stop stop-color="#6DBBFC" offset="0%"></stop>
            <stop stop-color="#3B86F7" offset="100%"></stop>
        </linearGradient>
        <linearGradient x1="20.7810786%" y1="87.3069207%" x2="58.4468655%" y2="36.3018582%" id="linearGradient-14">
            <stop stop-color="#6DBBFC" offset="0%"></stop>
            <stop stop-color="#3B86F7" offset="100%"></stop>
        </linearGradient>
    </defs>
    <g id="缺省页" stroke="none" stroke-width="1" fill="none" fill-rule="evenodd">
        <g id="02搜索为空-" transform="translate(-194.000000, -337.000000)">
            <g id="无搜索记录-图片" transform="translate(194.000000, 337.000000)">
                <path d="M273.568387,33.6842105 C286.523327,48.376727 292.540484,23.1578947 304.457464,23.1578947 C312.402117,23.1578947 320.635594,30.1754386 329.157895,44.2105263 L234.421053,44.2105263 C251.882649,27.3979715 264.93176,23.8891995 273.568387,33.6842105 Z" id="路径-5" fill="url(#linearGradient-1)"></path>
                <path d="M94.8993734,16.6935316 C110.733189,39.9941805 118.087492,0 132.65269,0 C142.362822,0 152.42596,11.1290211 162.842105,33.3870632 L47.0526316,33.3870632 C68.3945826,6.72427619 84.3434966,1.15976566 94.8993734,16.6935316 Z" id="路径-5备份" fill="url(#linearGradient-2)"></path>
                <path d="M191.155937,203 C283.367771,203 348.315792,229.333333 386,282 L0,282 C35.2254582,229.333333 98.944104,203 191.155937,203 Z" id="路径-5备份-2" fill="url(#linearGradient-3)"></path>
                <g id="编组-6" transform="translate(64.894737, 195.052632)">
                    <g id="树" transform="translate(202.105263, 13.947368)">
                        <path d="M3.54355726,54.4215106 C6.32569477,52.1300375 9.27629196,49.9193936 12.3953488,47.7895789 C15.8897364,45.4034737 21.2928372,45.4034737 28.6046512,47.7895789 L34.5516663,49.8657752 C37.7857161,50.9948328 39.4921495,54.5318301 38.363092,57.7658799 C38.2974928,57.9537811 38.2228874,58.138416 38.1395349,58.3191436 L37.0193567,60.7479504 C35.9283622,63.1134804 33.7539366,64.7996833 31.1912827,65.26745 L13.3169438,68.5300912 C13.2002691,68.551393 13.0831344,68.5700927 12.9656274,68.5861814 C4.32187579,69.7696508 0,68.4146895 0,64.5212975 C0,61.6642191 0.450757762,59.2484323 1.35227328,57.2739371 L1.35226897,57.2739351 C1.8567069,56.1691174 2.60607571,55.1936557 3.54355726,54.4215106 Z" id="矩形" fill="url(#linearGradient-4)"></path>
                        <path d="M21.3652499,0.22449667 C21.6561694,0.386046977 21.8960216,0.62579296 22.0576435,0.916583514 L31.6595615,18.1923795 C32.3765586,19.4824024 31.9115658,21.109156 30.6209712,21.8258354 C30.2238407,22.0463658 29.7770342,22.1620936 29.3227332,22.1620936 L29.1874352,22.1619936 L35.6615334,33.7765152 C36.3800942,35.0656684 35.9170745,36.6929843 34.6273499,37.4112268 C34.2295282,37.6327721 33.7816791,37.7490596 33.3262804,37.7490596 L22.727116,37.7489596 L22.7274543,52 L18.2720617,52 L18.2717234,37.7489596 L7.67323555,37.7490596 C6.19684832,37.7490596 5,36.5527415 5,35.0770083 C5,34.6218114 5.11633905,34.1741607 5.33798258,33.7765152 L11.8114042,22.1619936 L11.6767827,22.1620936 C10.2003955,22.1620936 9.00354715,20.9657755 9.00354715,19.4900423 C9.00354715,19.0359426 9.11932632,18.5893341 9.33995439,18.1923795 L18.9418724,0.916583514 C19.4198704,0.0565682422 20.5048535,-0.253289593 21.3652499,0.22449667 Z" id="路径" fill="url(#linearGradient-5)"></path>
                    </g>
                    <g id="树备份" transform="translate(0.105263, 0.947368)">
                        <path d="M3.0269293,36.3543593 C4.74766913,34.9395876 6.56039812,33.569776 8.46511628,32.2449245 C10.8515273,30.5850252 14.5414498,30.5850252 19.5348837,32.2449245 L23.537595,33.6683725 C25.804508,34.4745342 26.9886808,36.9657535 26.1825191,39.2326665 C26.1418949,39.346901 26.0965196,39.4593897 26.0465116,39.569839 L25.8146702,40.0818919 C24.7359104,42.4644781 22.5606245,44.1693049 19.9892708,44.6474053 L9.15409013,46.6620268 C9.03055834,46.6849957 8.90650254,46.7050509 8.78202601,46.7221759 C2.927342,47.5276407 0,46.581709 0,43.8843809 C0,42.842858 0.084533021,41.885635 0.253599063,41.0127119 L0.253596863,41.0127114 C0.607686843,39.1844712 1.58848337,37.5370323 3.0269293,36.3543593 Z" id="矩形" fill="url(#linearGradient-6)"></path>
                        <path d="M15.0861371,0.151103528 C15.2832115,0.259839312 15.4456921,0.4212068 15.5551779,0.616931211 L22.059703,12.2448708 C22.5454106,13.1131555 22.2304156,14.2080858 21.3561418,14.6904661 C21.0871179,14.8389 20.7844426,14.9167938 20.4766903,14.9167938 L20.3850368,14.9167265 L24.7707161,22.7341929 C25.2574832,23.6018922 24.9438247,24.6972009 24.0701403,25.1806334 C23.8006481,25.3297505 23.4972665,25.4080209 23.1887706,25.4080209 L16.0086915,25.4079536 L16.0089206,35 L12.9907515,35 L12.9905223,25.4079536 L5.8109015,25.4080209 C4.81076822,25.4080209 4,24.6028068 4,23.6095248 C4,23.3031423 4.07881033,23.0018389 4.22895594,22.7341929 L8.61417702,14.9167265 L8.52298183,14.9167938 C7.52284854,14.9167938 6.71208033,14.1115797 6.71208033,13.1182977 C6.71208033,12.8126537 6.79051138,12.5120518 6.9399691,12.2448708 L13.4444942,0.616931211 C13.7682993,0.0380747784 14.5032879,-0.17048338 15.0861371,0.151103528 Z" id="路径" fill="url(#linearGradient-7)"></path>
                    </g>
                </g>
                <g id="记事本" transform="translate(104.947368, 67.368421)">
                    <rect id="矩形" fill="#DADADA" opacity="0.988885789" filter="url(#filter-8)" x="26.0526316" y="157.631579" width="131.578947" height="16.8421053" rx="8"></rect>
                    <path d="M116,0 L160.842105,0 C169.678661,-9.47168734e-15 176.842105,7.163444 176.842105,16 L176.842105,45.2631579 L176.842105,45.2631579 L100,45.2631579 L100,16 C100,7.163444 107.163444,-1.53107837e-16 116,0 Z" id="矩形" fill="url(#linearGradient-9)"></path>
                    <path d="M33.8947368,4.54747351e-13 L157.627027,4.54747351e-13 L157.627027,4.54747351e-13 C152.191465,4.21052632 149.473684,10.3483247 149.473684,18.4133952 C149.473684,26.0085791 149.473684,71.7304306 149.473684,155.57895 C149.473682,164.415504 142.310239,171.578947 133.473684,171.578947 L33.8947368,171.578947 C25.0581808,171.578947 17.8947368,164.415503 17.8947368,155.578947 L17.8947368,16 C17.8947368,7.163444 25.0581808,4.563706e-13 33.8947368,4.54747351e-13 Z" id="矩形" fill="url(#linearGradient-10)"></path>
                    <path d="M16,126.315789 L132.272076,126.315789 L132.272076,126.315789 C126.165366,129.873818 122.608161,134.549464 121.600462,140.342726 C120.592763,146.135989 120.592763,156.548062 121.600462,171.578947 L-1.13686838e-13,171.578947 L-1.13686838e-13,142.315789 C-1.14769004e-13,133.479233 7.163444,126.315789 16,126.315789 Z" id="矩形备份-2" fill="url(#linearGradient-11)" transform="translate(66.136038, 148.947368) scale(1, -1) translate(-66.136038, -148.947368) "></path>
                    <rect id="矩形" fill="#EAEAEA" x="33.6842105" y="37.8947368" width="98.9473684" height="7.36842105"></rect>
                    <rect id="矩形备份-5" fill="#EAEAEA" x="33.6842105" y="58.9473684" width="98.9473684" height="7.36842105"></rect>
                    <rect id="矩形备份-6" fill="#EAEAEA" x="33.6842105" y="78.9473684" width="98.9473684" height="7.36842105"></rect>
                    <rect id="矩形备份-7" fill="#EAEAEA" x="33.6842105" y="98.9473684" width="98.9473684" height="7.36842105"></rect>
                </g>
                <g id="搜索" transform="translate(209.157895, 130.526316)" fill="#C8CACD" fill-rule="nonzero">
                    <path d="M66.1999452,66.1999452 C64.6419775,67.757913 62.0439609,67.757913 60.7428473,66.1999452 L48.5317486,53.9888465 C36.5732933,63.0840097 19.6840806,62.3050258 8.76988477,51.3866193 C-2.92329492,39.6934396 -2.92329492,20.4630645 8.76988477,8.76988477 C20.4630645,-2.92329492 39.6934396,-2.92329492 51.3866193,8.76988477 C62.3050258,19.6840806 63.0840097,36.577504 53.9888465,48.5317486 L66.1999452,60.7428473 C67.757913,62.0439609 67.757913,64.6419775 66.1999452,66.1999452 Z M45.6726672,13.9659178 L45.6726674,13.965918 C37.0309465,5.2103102 22.9277196,5.11800324 14.1721119,13.7597162 C14.102929,13.827999 14.0341936,13.8967345 13.9659107,13.9659173 C5.13181244,22.8042264 5.13181244,36.8343577 13.9659107,45.4116019 L13.965912,45.4116031 C22.6076329,54.1672109 36.7108598,54.2595179 45.4664675,45.6178023 C45.5356504,45.5495188 45.6043858,45.480784 45.6726687,45.4116012 C54.506767,36.834357 54.506767,22.8000149 45.6726687,13.9659166 L45.6726672,13.9659178 Z" id="形状"></path>
                </g>
                <g id="人" transform="translate(123.894737, 123.157895)">
                    <path d="M4.43956775,131.824691 C7.94492427,130.038523 11.6629468,128.315461 15.5936353,126.655508 C19.9896556,124.799041 26.7868812,124.799041 35.9853121,126.655508 L45.6950139,128.751956 C47.7840538,129.203006 49.1119067,131.262156 48.6608564,133.351196 C48.5438614,133.893058 48.3118116,134.403459 47.9804162,134.847846 L46.4537307,136.895065 C45.1318559,138.667642 43.1352729,139.814048 40.9380344,140.06209 L16.5406108,142.816269 C5.51353695,143.771395 0,142.723745 0,139.673321 C0,138.702165 0.108235737,137.796542 0.32470721,136.956452 L0.324709086,136.956453 C0.897121699,134.735015 2.3956214,132.866192 4.43956775,131.824691 Z" id="矩形" fill="url(#linearGradient-12)"></path>
                    <g id="编组-3" transform="translate(16.842105, 0.000000)">
                        <polygon id="矩形" fill="#E8CBC1" points="7.06766917 16.9473684 12.3308271 15.6102942 13.345294 24.2105263 6.11753267 24.2105263"></polygon>
                        <path d="M8.66009994,5.26315789 L9.47368421,5.26315789 C12.4693982,5.26315789 14.8979042,7.69166389 14.8979042,10.6873779 C14.8979042,11.422234 14.7485858,12.1494275 14.4590465,12.8248389 C14.4015061,12.9590447 14.3589757,13.0612914 14.3314552,13.1315789 C14.1903571,13.4919446 13.7602276,14.2722386 13.0410667,15.4724609 L13.04107,15.4724628 C12.0699784,17.0931375 10.5566292,18.3178214 8.7690768,18.9295907 C7.39029526,19.4014628 6.48854112,19.6373988 6.0638144,19.6373988 C5.40693294,19.6373988 4.92681717,18.6193247 4.62346709,16.5831765 L4.62346829,16.5831763 C4.6167065,16.5377898 4.60955433,16.4924623 4.60201258,16.4471988 C4.30013239,14.6353985 4.00033176,13.3635252 3.70261067,12.6315789 C3.70261067,12.6315789 3.70261067,12.6315789 3.70261067,12.6315789 C2.5889439,9.89363322 3.90568216,6.77128438 6.64362788,5.65761761 C7.28400275,5.39714342 7.96877746,5.26320447 8.66009994,5.26315789 Z" id="矩形" fill="#F1D5CB"></path>
                        <path d="M13.950694,8.63446869 C13.5411172,6.99351278 12.7905067,6.56578947 11.543957,7.36842105 C10.4731884,8.05787032 8.99615836,9.2091729 5.51054905,9.92518356 C1.86767873,10.6734986 0.381706234,9.05764818 1.05263158,5.07763222 C1.9993391,3.98156724 2.61301203,3.08995028 2.89365036,2.40278132 C3.20785689,1.63341756 7.25359086,0 8.27917409,0 C8.95546943,0 10.7374961,0.167965707 12.0987443,0.943031686 C12.4958781,1.16915127 13.1131946,1.65573448 13.950694,2.40278132 C15.7780509,2.42373383 16.6917293,3.3153508 16.6917293,5.07763222 C16.6917293,8.09438037 15.5762509,11.4805099 13.345294,15.2360209 C14.0636928,12.0962175 14.2654928,9.89570009 13.950694,8.63446869 Z" id="路径-6" fill="#555555"></path>
                        <path d="M13.6892789,9.10061503 C13.6301908,8.49655956 14.0877487,8.29520774 15.0619524,8.49655956 C16.5232581,8.7985873 15.385497,9.68661258 15.0619524,11.0047755 C14.8462561,11.8835507 14.3886982,12.4258185 13.6892789,12.6315789 L13.6892789,9.10061503 Z" id="路径-8" fill="#E8CBC1"></path>
                    </g>
                    <g id="编组-2" transform="translate(3.157895, 60.000000)">
                        <g id="编组" transform="translate(36.315789, 46.842105) rotate(-43.000000) translate(-36.315789, -46.842105) translate(30.526316, 42.105263)">
                            <polygon id="矩形备份" fill="#F1D5CB" points="6.09590103 0.379522256 9.22174526 -1.17586809e-13 9.70492358 4.81203008 6.85022069 4.81203008"></polygon>
                            <path d="M0.263659747,8.41612431 C-0.756551459,8.16641308 1.29382818,5.53096087 4.51980735,4.55181785 C7.74578652,3.57267483 9.31545353,1.85618585 10.2206968,2.5787503 C10.8241924,3.06045994 11.0302177,4.28549846 10.8387728,6.25386586 C10.781404,6.74910252 10.4972638,7.17690061 9.98635215,7.53726012 C9.73051271,7.71771046 8.63020732,7.40324921 7.90041231,7.53726012 C7.41534143,7.62633278 6.62338944,8.00252459 5.52455636,8.66583555 C4.70218198,8.66583555 3.87011772,8.66583555 3.02836358,8.66583555 C1.76573237,8.66583555 1.28387095,8.66583555 0.263659747,8.41612431 Z" id="路径-9备份-2" fill="#505050"></path>
                        </g>
                        <g id="编组-5" transform="translate(10.166014, 66.561244) rotate(-3.000000) translate(-10.166014, -66.561244) translate(4.376540, 60.771770)">
                            <rect id="矩形" fill="#F1D5CB" x="6.791135" y="-4.97379915e-14" width="3.60902256" height="4.81203008"></rect>
                            <path d="M0.149557172,9.18912683 C0.971931356,7.71660258 2.86579274,6.68852831 5.59217315,5.17181508 C5.97645609,4.95803456 6.36628827,3.94327364 6.791135,3.94327364 C8.26177484,3.94327364 9.92721445,3.60902256 10.6793354,3.94327364 C11.4617802,4.29100096 11.6194279,5.9346211 11.1522785,8.87413406 C10.9368133,9.03623031 10.6054833,9.1412279 10.1582885,9.18912683 C9.71109372,9.23702575 9.0621434,9.23702575 8.21143755,9.18912683 C5.81870622,10.2810874 4.20307691,10.8270677 3.3645496,10.8270677 C2.10675864,10.8270677 -0.672817011,10.6616511 0.149557172,9.18912683 Z" id="路径-9备份" fill="#605E5E"></path>
                        </g>
                        <path d="M33.7794485,0 C36.9239766,6.24740627 36.6117524,11.0169849 32.8427761,14.308736 C27.1893115,19.2463626 18.6747394,22.0467836 18.6747394,27.1345029 C18.6747394,32.2222222 15.5768516,37.2296267 15.5768516,45.7894737 C15.5768516,51.4960383 15.5768516,56.5837576 15.5768516,61.0526316 L10.3592767,61.0526316 C5.11555915,40.3737419 3.7677301,27.742163 6.31578947,23.1578947 C10.1378785,16.2814924 6.89885438,16.736585 11.237853,9.3711094 C14.1305187,4.46079234 15.2968484,1.33708921 14.7368421,0 L33.7794485,0 Z" id="路径-2" fill="#000000"></path>
                        <path d="M13.1703839,0 C4.71100319,11.164376 0.671752403,19.4369783 1.05263158,24.8178068 C1.62395034,32.8890496 14.2723658,35.2631579 18.5801635,37.3684211 C21.4520286,38.7719298 26.5184569,41.2385493 33.7794485,44.7682795 L36.6535489,40.6595838 C18.8043699,29.9002086 10.9766482,24.0663123 13.1703839,23.1578947 C13.1703839,23.1578947 11.1881884,22.4298043 13.1703839,18.9473684 C13.9964181,17.4961438 18.6647726,11.3680308 20.7518797,7.84321203 C21.3741374,6.79230974 22.8662334,4.84645034 25.2281676,2.00563381 L13.1703839,0 Z" id="路径-3" fill="#323232"></path>
                    </g>
                    <g id="编组-4" transform="translate(5.263158, 23.157895)">
                        <path d="M17.5538237,0 C18.9764017,0 20.259969,1.05263158 21.2781955,1.05263158 C22.895555,1.05263158 24.1528195,0.701754386 25.049989,0 C27.1531085,0.774941802 29.3611739,1.82757338 31.6741853,3.15789474 C33.9871967,4.48821609 33.9871967,8.83078174 31.6741853,16.1855917 C31.7315182,16.7844523 31.7739643,17.2299707 31.8015237,17.5221468 C32.9249905,29.4327971 33.2308073,35.9855627 32.7189743,37.1804436 C31.9229746,39.0387152 11.7293233,39.9775139 10.5576864,36.5402314 C9.77659516,34.2487096 9.77659516,26.2274498 10.5576864,12.4764518 C9.57451233,8.05423386 9.61728392,5.29892536 10.6860012,4.21052632 C13.952399,0.883973724 14.8834647,0 17.5538237,0 Z" id="路径-7" fill="#3B86F7"></path>
                        <path d="M30.8511438,19.7086936 C31.5886097,18.7818937 31.5886097,16.8179204 30.8511438,13.8167736 C29.8841833,9.8816896 26.7667504,8.27024953 26.9847774,6.63450334 C27.5001924,2.76760644 26.748206,1.51581423 30.8511438,2.35264966 C34.9540816,3.18948508 40.8807714,9.89917165 39.890152,20.3461103 C39.2297391,27.310736 31.1961796,28.1813142 15.7894737,22.9578449 C15.8075205,21.304695 17.0054539,20.2216445 19.383274,19.7086936 C21.7610942,19.1957427 25.5837174,19.1957427 30.8511438,19.7086936 Z" id="路径-4" fill="url(#linearGradient-13)"></path>
                        <path d="M30.4378894,23.6343959 C29.3678686,22.5173922 26.1115916,22.1731761 25.0130332,21.2942323 C23.8749112,20.3836341 23.0591604,19.2247853 22.4901416,19.0681374 C21.8339636,18.8874949 22.1427027,18.1034564 22.4901416,17.9349293 C22.8375806,17.7664022 24.5940848,19.379423 25.6635184,19.2726449 C25.8852858,19.2505024 26.3375338,19.1823332 27.0202622,19.0681374 C26.5555792,18.4536776 26.4012293,18.0759416 26.5572123,17.9349293 C26.7131954,17.793917 27.2085103,18.023953 28.0431571,18.6250371 C30.06636,19.9480917 31.3846888,20.7552185 31.9981434,21.0464174 C32.9183253,21.4832157 31.9981434,25.2631579 30.4378894,23.6343959 Z" id="路径-10" fill="#F1D5CB" transform="translate(27.234994, 20.967108) scale(-1, 1) translate(-27.234994, -20.967108) "></path>
                        <path d="M18.8589421,23.6343959 C17.7889212,22.5173922 14.5326442,22.1731761 13.4340858,21.2942323 C12.2959638,20.3836341 11.480213,19.2247853 10.9111943,19.0681374 C10.2550162,18.8874949 10.5637553,18.1034564 10.9111943,17.9349293 C11.2586332,17.7664022 13.0151375,19.379423 14.0845711,19.2726449 C14.3063385,19.2505024 14.7585864,19.1823332 15.4413148,19.0681374 C14.9766319,18.4536776 14.8222819,18.0759416 14.978265,17.9349293 C15.134248,17.793917 15.6295629,18.023953 16.4642098,18.6250371 C18.4874126,19.9480917 19.8057414,20.7552185 20.419196,21.0464174 C21.3393779,21.4832157 20.419196,25.2631579 18.8589421,23.6343959 Z" id="路径-10备份" fill="#F1D5CB"></path>
                        <path d="M0.136090706,24.5888274 C0.136090706,23.2632831 0.136090706,21.7141773 0.136090706,19.9415099 C0.136090706,17.3540207 16.7653859,22.5390536 15.2636917,19.4238695 C13.9200895,16.6366388 11.1342918,10.1620156 6.90629852,0 C11.4813904,1.04075185 15.0575802,3.25709863 17.6348681,6.64904034 C21.5007999,11.7369529 25.9122016,20.8529571 23.5443763,24.5888274 C21.9658261,27.0794077 19.9959901,28.1813775 17.6348681,27.8947368 L0.136090706,24.5888274 Z" id="路径-4备份" fill="url(#linearGradient-14)" transform="translate(12.173309, 13.969557) scale(-1, 1) translate(-12.173309, -13.969557) "></path>
                    </g>
                </g>
            </g>
        </g>
    </g>
</svg>