<?xml version="1.0" encoding="UTF-8"?>
<svg width="386px" height="288px" viewBox="0 0 386 288" version="1.1" xmlns="http://www.w3.org/2000/svg" xmlns:xlink="http://www.w3.org/1999/xlink">
    <!-- Generator: Sketch 60 (88103) - https://sketch.com -->
    <title>升级中-图片</title>
    <desc>Created with Sketch.</desc>
    <defs>
        <linearGradient x1="50%" y1="0%" x2="50%" y2="100%" id="linearGradient-1">
            <stop stop-color="#F5F5F5" offset="0%"></stop>
            <stop stop-color="#FFFFFF" offset="100%"></stop>
        </linearGradient>
        <linearGradient x1="50%" y1="0%" x2="50%" y2="100%" id="linearGradient-2">
            <stop stop-color="#EFEFEF" offset="0%"></stop>
            <stop stop-color="#FFFFFF" offset="100%"></stop>
        </linearGradient>
        <linearGradient x1="50%" y1="0%" x2="50%" y2="100%" id="linearGradient-3">
            <stop stop-color="#F5F5F5" offset="0%"></stop>
            <stop stop-color="#FFFFFF" offset="100%"></stop>
        </linearGradient>
        <linearGradient x1="50%" y1="78.1598533%" x2="50%" y2="5.68293856%" id="linearGradient-4">
            <stop stop-color="#E3E3E3" stop-opacity="0" offset="0.0870988176%"></stop>
            <stop stop-color="#E4E4E4" offset="100%"></stop>
        </linearGradient>
        <linearGradient x1="50%" y1="0%" x2="50%" y2="100%" id="linearGradient-5">
            <stop stop-color="#DEDEDE" offset="0%"></stop>
            <stop stop-color="#FFFFFF" stop-opacity="0" offset="100%"></stop>
        </linearGradient>
        <linearGradient x1="50%" y1="16.9510563%" x2="83.7596879%" y2="69.1962656%" id="linearGradient-6">
            <stop stop-color="#787878" offset="0%"></stop>
            <stop stop-color="#000000" offset="100%"></stop>
        </linearGradient>
        <linearGradient x1="12.5566413%" y1="35.2725495%" x2="100%" y2="35.2725495%" id="linearGradient-7">
            <stop stop-color="#F1F1F1" offset="0%"></stop>
            <stop stop-color="#FCFCFC" offset="22.8198902%"></stop>
            <stop stop-color="#D8D8D8" offset="100%"></stop>
        </linearGradient>
        <linearGradient x1="12.5566413%" y1="35.2725495%" x2="100%" y2="35.2725495%" id="linearGradient-8">
            <stop stop-color="#F1F1F1" offset="0%"></stop>
            <stop stop-color="#FCFCFC" offset="22.8198902%"></stop>
            <stop stop-color="#D8D8D8" offset="100%"></stop>
        </linearGradient>
        <linearGradient x1="50%" y1="5.60071791%" x2="50%" y2="100%" id="linearGradient-9">
            <stop stop-color="#F0F0F0" offset="0%"></stop>
            <stop stop-color="#C4C4C4" offset="100%"></stop>
        </linearGradient>
        <linearGradient x1="50%" y1="5.60071791%" x2="50%" y2="100%" id="linearGradient-10">
            <stop stop-color="#F7F7F7" offset="0%"></stop>
            <stop stop-color="#FCFCFC" offset="16.7493666%"></stop>
            <stop stop-color="#D8D8D8" offset="100%"></stop>
        </linearGradient>
        <linearGradient x1="50%" y1="0%" x2="50%" y2="100%" id="linearGradient-11">
            <stop stop-color="#DEDEDE" offset="0%"></stop>
            <stop stop-color="#FFFFFF" stop-opacity="0" offset="100%"></stop>
        </linearGradient>
        <filter x="-15.0%" y="-35.3%" width="130.1%" height="170.6%" filterUnits="objectBoundingBox" id="filter-12">
            <feGaussianBlur stdDeviation="2" in="SourceGraphic"></feGaussianBlur>
        </filter>
        <linearGradient x1="50%" y1="5.60071791%" x2="50%" y2="100%" id="linearGradient-13">
            <stop stop-color="#FCFCFC" offset="0%"></stop>
            <stop stop-color="#D8D8D8" offset="100%"></stop>
        </linearGradient>
        <linearGradient x1="50%" y1="0%" x2="50%" y2="100%" id="linearGradient-14">
            <stop stop-color="#DEDEDE" offset="0%"></stop>
            <stop stop-color="#FFFFFF" stop-opacity="0" offset="100%"></stop>
        </linearGradient>
        <linearGradient x1="50%" y1="0%" x2="50%" y2="100%" id="linearGradient-15">
            <stop stop-color="#EBEBEB" offset="0%"></stop>
            <stop stop-color="#CBCECF" offset="43.3408995%"></stop>
            <stop stop-color="#DADADA" offset="100%"></stop>
        </linearGradient>
        <linearGradient x1="50%" y1="0%" x2="50%" y2="100%" id="linearGradient-16">
            <stop stop-color="#DEDEDE" offset="0%"></stop>
            <stop stop-color="#FFFFFF" stop-opacity="0" offset="100%"></stop>
        </linearGradient>
        <linearGradient x1="50%" y1="0%" x2="50%" y2="100%" id="linearGradient-17">
            <stop stop-color="#EBEBEB" offset="0%"></stop>
            <stop stop-color="#CBCECF" offset="43.3408995%"></stop>
            <stop stop-color="#DADADA" offset="100%"></stop>
        </linearGradient>
    </defs>
    <g id="缺省页" stroke="none" stroke-width="1" fill="none" fill-rule="evenodd">
        <g id="04网络错误" transform="translate(-168.000000, -342.000000)">
            <g id="升级中-图片" transform="translate(168.000000, 342.000000)">
                <path d="M284.410492,56.9473684 C297.365432,71.6398849 303.382589,46.4210526 315.299569,46.4210526 C323.244223,46.4210526 331.4777,53.4385965 340,67.4736842 L245.263158,67.4736842 C262.724754,50.6611293 275.773866,47.1523574 284.410492,56.9473684 Z" id="路径-5" fill="url(#linearGradient-1)"></path>
                <path d="M121.530952,16.6935316 C137.364768,39.9941805 144.719071,0 159.284269,0 C168.994401,0 179.057539,11.1290211 189.473684,33.3870632 L73.6842105,33.3870632 C95.0261616,6.72427619 110.975076,1.15976566 121.530952,16.6935316 Z" id="路径-5备份" fill="url(#linearGradient-2)"></path>
                <path d="M191.155937,208.421053 C283.367771,208.421053 348.315792,234.754386 386,287.421053 L0,287.421053 C35.2254582,234.754386 98.944104,208.421053 191.155937,208.421053 Z" id="路径-5备份-2" fill="url(#linearGradient-3)"></path>
                <circle id="椭圆形" fill="url(#linearGradient-4)" cx="201.5" cy="214.5" r="10.5"></circle>
                <circle id="椭圆形" fill="url(#linearGradient-4)" cx="164.5" cy="239.5" r="10.5"></circle>
                <g id="人" transform="translate(217.000000, 122.000000)">
                    <path d="M5.45073721,151.792032 C9.64463289,149.725922 14.1023023,147.735016 18.8237454,145.819313 C23.9374833,143.744439 31.8444601,143.744439 42.5446756,145.819313 L53.999427,148.195551 C56.3019892,148.673207 57.7813677,150.927019 57.3037114,153.229582 C57.1718245,153.865348 56.8962841,154.462531 56.498164,154.975457 L54.3938578,157.686582 C53.0634568,159.400631 51.0938883,160.500764 48.9367627,160.734729 L19.9253293,163.881341 C7.09791677,164.948835 0.684210526,163.777932 0.684210526,160.368634 C0.684210526,157.98182 1.29304481,155.94918 2.51071338,154.270713 L2.51071811,154.270717 C3.27461734,153.217738 4.28377657,152.366931 5.45073721,151.792032 Z" id="矩形" fill="url(#linearGradient-5)"></path>
                    <g id="腿" transform="translate(15.421053, 62.105263)">
                        <polygon id="矩形备份" fill="#F1D5CB" transform="translate(10.864172, 78.938992) rotate(7.000000) translate(-10.864172, -78.938992) " points="8.74583248 76.5747503 12.4153018 76.1319744 12.9825111 81.7460095 9.63133817 81.7460095"></polygon>
                        <rect id="矩形" fill="#F1D5CB" x="16.9467146" y="74.7894737" width="4.23667865" height="5.61403509"></rect>
                        <path d="M13.622291,76.1929825 C13.1541946,76.9511342 11.6049351,77.0398946 8.97451266,76.4592637 C6.76149951,64.3693147 5.56566093,56.0934198 5.3869969,51.6315789 C5.04571549,43.1086356 4.05372912,33.8627843 4,26.6611162 C3.89109164,12.0634124 5.03334992,2.70952819 5.03334992,2.70952819 C5.03334992,2.70952819 6.98437093,2.70952819 10.886413,2.70952819 L27.6725073,0.0336387096 C28.1097314,4.3040528 28.3004038,7.5653684 28.2445244,9.81758551 C28.0483246,17.7254063 25.9776551,26.3033619 25.0058656,33.9867884 C24.4462923,38.4110382 24.659389,47.8570475 24.0078457,59.0568815 C23.8098874,62.4597253 23.2935525,67.6282678 22.4588411,74.5625088 C22.3905399,75.1299111 22.3470811,75.8029243 22.2040836,76.1929825 C22.1087519,76.4530212 20.8783626,76.5417817 18.5129158,76.4592637 C17.5166101,76.4284849 16.9470462,76.3397245 16.804224,76.1929825 C16.5899908,75.9728694 16.2370093,75.3703432 16.2406015,74.7894737 C16.4817436,35.7961924 17.7361075,17.4007123 15.9659398,17.4007123 C14.7860203,17.4007123 14.1762502,26.3688478 13.622291,33.9867884 C13.3327958,37.9678719 12.9201464,53.1129322 13.622291,59.0568815 C14.3244357,65.0008308 14.3244357,75.0557549 13.622291,76.1929825 Z" id="路径-8" fill="#434141"></path>
                        <path d="M9.87297207,84.906531 C8.67533283,84.6152012 11.0823002,81.540507 14.8693193,80.3981735 C18.6563383,79.2558399 20.4989909,77.2532695 21.5616678,78.0962613 C22.2701191,78.6582559 22.5119749,80.0874675 22.2872353,82.3838961 C22.2198892,82.9616722 21.8863333,83.46077 21.2865675,83.8811894 C20.9862342,84.0917148 19.6945714,83.7248434 18.8378555,83.8811894 C18.2684245,83.9851075 17.3387417,84.423998 16.0488072,85.1978608 C15.0834112,85.1978608 14.1066401,85.1978608 13.118494,85.1978608 C11.6362747,85.1978608 11.0706113,85.1978608 9.87297207,84.906531 Z" id="路径-9备份-2" fill="#505050" transform="translate(15.965940, 81.546299) rotate(7.000000) translate(-15.965940, -81.546299) "></path>
                        <path d="M1.14466553,85.1882143 C2.11006131,83.4702693 4.33328989,82.2708493 7.53382342,80.5013506 C7.98493817,80.25194 8.44256725,79.0680522 8.94130036,79.0680522 C10.6677037,79.0680522 12.6227849,78.6780926 13.5057096,79.0680522 C14.4242317,79.4737341 14.6092963,81.3912909 14.0609036,84.8207227 C13.8079662,85.009835 13.4190136,85.1323322 12.8940458,85.1882143 C12.369078,85.2440963 11.6072667,85.2440963 10.6086121,85.1882143 C7.79975354,86.4621683 5.90314522,87.0991453 4.91878707,87.0991453 C3.44224986,87.0991453 0.179269746,86.9061592 1.14466553,85.1882143 Z" id="路径-9备份" fill="#605E5E" transform="translate(7.668760, 82.996941) rotate(5.000000) translate(-7.668760, -82.996941) "></path>
                    </g>
                    <g id="头" transform="translate(20.789474, 0.000000)">
                        <polygon id="矩形" fill="#E8CBC1" points="7.89915966 19.8947368 13.3021938 19.0946649 13.7536718 26.6200816 7.89915966 27"></polygon>
                        <path d="M8.46852911,4.94279176 L9.41176471,4.94279176 C12.9801387,4.94279176 15.8728775,7.83553047 15.8728775,11.4039045 C15.8728775,12.1961406 15.7271764,12.9816215 15.4430804,13.721167 C14.8370755,15.2984623 14.4788557,16.235235 14.3684211,16.5314853 C14.1215569,17.1937195 13.9166405,18.1888149 13.7536718,19.5167714 L13.7536718,19.5167714 C9.71799773,20.5776473 7.20579847,21.1080853 6.21707401,21.1080853 C5.47363288,21.1080853 4.79194407,21.2002246 4.60751077,19.8947368 C4.56694409,19.6075907 4.19606733,19.0941842 3.49488049,18.3545173 C3.20912335,17.2028698 3.01344466,16.4393884 2.90784444,16.0640732 C2.72688187,15.4209117 3.07264849,13.4849123 2.90784444,13.0593445 C2.90784444,13.0593445 2.90784444,13.0593445 2.90784444,13.0593445 C1.71854696,9.98826316 3.24403419,6.53454374 6.31511554,5.34524626 C7.00191067,5.0792801 7.73203366,4.94284414 8.46852911,4.94279176 Z" id="矩形" fill="#F1D5CB"></path>
                        <path d="M10.5882353,5.68421053 C14.4059343,5.68421053 17.5007908,8.77906706 17.5007908,12.5967661 C17.5007908,13.3091684 17.3906653,14.0172895 17.1743343,14.6960516 C16.7615595,15.9910519 16.5051358,16.7727789 16.405063,17.0412326 C16.405063,17.0412326 16.405063,17.0412326 16.405063,17.0412326 C15.8358595,18.5681696 14.345639,19.552691 12.7178074,19.477236 C9.36688904,19.321899 7.96181865,18.8714728 8.50259674,18.125946 C8.9059982,17.5698091 9.03740612,17.076196 8.89682048,16.6451066 C8.63564549,15.8442273 8.50259674,15.0071238 8.50259674,14.1647342 C8.50259674,11.9647754 8.50259674,10.7381529 8.50259674,10.4848667 C8.50259674,10.2321163 8.42590865,9.97390362 8.27253247,9.71022868 C7.52856709,8.431302 7.96226852,6.79143181 9.24120863,6.04748953 C9.65025284,5.809554 10.1150224,5.68421053 10.5882353,5.68421053 Z" id="矩形" fill="#060606"></path>
                        <path d="M15.5797352,9.32104195 C12.2660139,5.00031646 11.1184784,10.4177406 6.15884894,11.6513024 C2.85242928,12.473677 1.1916365,10.5768091 1.17647059,5.96069869 C2.23455546,4.67401372 2.92042521,3.62733294 3.23407982,2.82065634 C3.58525181,1.91749018 8.1069545,0 9.25319457,0 C10.0090541,0 12.0007309,0.197177134 13.522126,1.1070372 C13.9659814,1.37248192 14.6559234,1.9436883 15.5919521,2.82065634 C17.6342922,2.84525276 18.6554622,3.89193354 18.6554622,5.96069869 C18.6554622,9.50209869 18.0990521,12.2520412 16.9862321,14.2105263 C17.1540908,12.39235 16.6852585,10.7625219 15.5797352,9.32104195 Z" id="路径-6" fill="url(#linearGradient-6)"></path>
                        <path d="M7.8106182,11.7977472 C7.74457859,11.0886386 8.25596677,10.852269 9.34478276,11.0886386 C10.9780067,11.4431929 9.70639136,12.4856573 9.34478276,14.0330659 C9.10371036,15.0646717 8.59232217,15.7012469 7.8106182,15.9427918 L7.8106182,11.7977472 Z" id="路径-8" fill="#E8CBC1"></path>
                    </g>
                    <path d="M13.3288151,21.8871568 C15.0134382,29.0307598 17.0102474,32.6031862 19.3192429,32.6044362 C21.5507711,32.605638 25.3741814,30.0594733 30.7894737,24.9659421 L24.698861,21.0803465 L20.4961477,25.929873 L13.0139,13.6974098 C10.9954403,10.8444185 9.75909301,8.93196686 9.30485825,7.96005499 C8.5170607,6.27442929 9.59590296,4.79007105 8.77421531,5.02448148 C7.24186457,5.46162935 6.5059309,6.61853515 6.56641432,8.49519889 C6.84933745,9.62342053 7.2237461,10.516825 7.68964027,11.1754122 C8.15553444,11.8339994 9.13526229,12.5344809 10.6288238,13.2768566 L13.3288151,21.8871568 Z" id="路径-2备份" fill="#EDD6CE" transform="translate(18.676221, 18.802218) rotate(80.000000) translate(-18.676221, -18.802218) "></path>
                    <g id="身体" transform="translate(13.000000, 23.315789)">
                        <path d="M32.6990256,40.164086 L43.8464814,50.6264699 C47.6241475,53.073176 49.8522164,53.3192021 50.5306881,51.3645483 C51.2091597,49.4098944 49.8100882,47.408002 46.3334736,45.3588711 L19.7205386,21.8874185 L23.166425,29.0744944 L27.5662936,32.8992419 L32.6990256,40.164086 Z" id="路径-2" fill="#EDD6CE" transform="translate(35.208703, 37.277033) rotate(-131.000000) translate(-35.208703, -37.277033) "></path>
                        <path d="M13.4328632,2 C14.9705301,2 17.2156906,2.82546 18.377709,2.82546 C20.4247658,2.82546 21.8854131,2.55030667 22.7596507,2 C27.5674477,2.94867474 31.317443,4.19603668 34.0096366,5.74208583 C38.0479271,8.06115954 40.1102301,18.2319037 41.0952698,20.1279818 C42.0803094,22.0240598 35.3244011,23.5788988 34.0096366,23.5788988 C33.133127,23.5788988 32.3585303,21.2191526 31.6858467,16.4996602 C32.3035076,34.199948 32.3035076,43.7699628 31.6858467,45.2097047 C30.7593552,47.3693176 7.25526932,48.460354 5.89156081,44.4656743 C4.9824218,41.8025544 4.9824218,32.4805498 5.89156081,16.4996602 L0.263234781,10.7053978 L4.92194135,0.71723614 C8.5238074,1.57241205 11.3607814,2 13.4328632,2 Z" id="路径-7" fill="#3B86F7"></path>
                    </g>
                </g>
                <g id="发射器" transform="translate(83.000000, 85.000000)">
                    <g id="编组-2" transform="translate(56.720597, 91.336688) rotate(-16.000000) translate(-56.720597, -91.336688) translate(42.021523, 64.350021)">
                        <polygon id="矩形" fill="url(#linearGradient-7)" transform="translate(14.939379, 11.998628) rotate(62.000000) translate(-14.939379, -11.998628) " points="9.00618821 0.523710902 19.9309717 -0.0335443208 20.8940642 19.9638063 8.98469465 24.0308011"></polygon>
                        <polygon id="矩形备份-2" fill="url(#linearGradient-8)" transform="translate(5.878835, 32.732052) rotate(1.000000) translate(-5.878835, -32.732052) " points="1.17671775 12.1987044 10.4965382 20.9133374 10.5825354 53.2650368 1.17513435 53.2653987"></polygon>
                    </g>
                    <g id="编组-3" transform="translate(78.526484, 52.281568) rotate(-16.000000) translate(-78.526484, -52.281568) translate(41.484817, 9.454901)">
                        <path d="M41.8048597,78.6788516 C56.089978,78.6876555 61.7608138,62.7787269 61.7498204,44.9549731 C61.7387951,27.1312193 55.84157,7.37588801 41.5564517,7.36707948 C35.9267404,7.36360954 25.5279915,15.9164599 21.2840488,19.7242145 C14.7591936,25.5784516 10.4328796,33.7893371 10.4395425,44.5888167 C10.4461017,55.1953924 12.8859087,61.1696761 19.2208883,67.0563281 C23.5314856,71.0618637 36.0205426,78.6752817 41.8048597,78.6788516 Z" id="椭圆形备份-4" fill="url(#linearGradient-9)" transform="translate(36.094681, 43.022966) rotate(-17.000000) translate(-36.094681, -43.022966) "></path>
                        <ellipse id="椭圆形" fill="url(#linearGradient-10)" transform="translate(42.746280, 40.633807) rotate(-17.000000) translate(-42.746280, -40.633807) " cx="42.7462798" cy="40.6338073" rx="21.1626893" ry="35.7934284"></ellipse>
                    </g>
                    <g id="编组" transform="translate(43.245309, 140.693081) rotate(-16.000000) translate(-43.245309, -140.693081) translate(5.745309, 116.193081)">
                        <path d="M30.1211612,15.1412695 C36.1345382,12.7067506 43.8811001,13.0301694 53.360847,16.1115259 L62.1722948,18.6325973 C64.335612,19.2515572 66.1382506,20.7529387 67.1382437,22.7686437 C68.7695101,26.0568183 68.2909907,28.5120216 65.7026853,30.1342538 C62.3046825,32.2639675 49.4753596,36.5901192 27.2147165,43.1127088 L27.2147165,43.1127088 C7.13494068,50.9115678 -1.7164738,50.6754358 0.660473027,42.4043129 C4.22589327,29.9976286 21.1010957,18.793048 30.1211612,15.1412695 Z" id="矩形" fill="url(#linearGradient-11)"></path>
                        <path d="M55.7749716,27.7978837 C66.8155529,27.7978837 73.7084801,28.5516222 73.7084801,22.2450304 C73.7084801,15.9384387 64.8511323,10.825936 53.8105511,10.825936 C42.7699698,10.825936 33.8198103,15.9384387 33.8198103,22.2450304 C33.8198103,28.5516222 44.7343904,27.7978837 55.7749716,27.7978837 Z" id="椭圆形备份-5" fill="#C7C7C7" filter="url(#filter-12)"></path>
                        <path d="M56.1080978,24.5993408 C67.1743679,24.5993408 74.0833333,25.6918181 74.0833333,16.5509699 C74.0833333,7.41012162 65.2053766,-2.84217094e-12 54.1391064,-2.84217094e-12 C43.0728363,-2.84217094e-12 34.1018519,7.41012162 34.1018519,16.5509699 C34.1018519,25.6918181 45.0418276,24.5993408 56.1080978,24.5993408 Z" id="椭圆形" fill="url(#linearGradient-13)"></path>
                    </g>
                </g>
                <g id="信号" transform="translate(189.000000, 74.000000)">
                    <path d="M35.6008895,15.9125177 C40.0553331,22.8774411 41.6482992,31.4972372 39.6904886,40.045338 C39.4657996,41.0028214 38.7211545,41.7182766 37.8497367,42.0523049 C36.9253609,42.3047849 35.8742103,42.1758415 35.2274813,41.5523877 C34.5277944,40.8473844 34.2212887,40.002987 34.4459777,39.0455037 C36.0641293,32.1501119 34.9975667,25.1457753 31.3603966,19.2261124 Z M3.18268702,28.3683058 C6.45350111,26.2442143 10.7962252,27.2395772 12.8658542,30.4265265 C14.9899458,33.6973406 13.9945828,38.0400647 10.8076335,40.1096937 C7.53681943,42.2337852 3.24856036,41.322291 1.12446629,38.051473 C-0.999625212,34.7806589 -0.00426226018,30.4379349 3.18268702,28.3683058 Z M25.8593468,23.5241632 C28.0267033,27.5800253 28.6406462,32.3577426 27.4728861,37.1007595 C27.2392883,38.0495488 26.4894749,38.7642234 25.6169961,39.1030777 C24.6925041,39.3618387 23.6453445,39.244783 23.0064632,38.6348492 C22.315569,37.9448209 22.0182224,37.1130919 22.2518202,36.1643026 C23.0359758,32.9793364 22.7498733,29.7417853 21.5062811,26.9236258 Z M9.09259575,15.9008739 C9.42630333,14.5454614 10.8778285,13.6028299 12.2517946,13.8492662 C16.3807825,14.5348288 20.1348006,16.5669447 22.9206686,19.472535 L18.6764354,22.7897064 C16.6475721,20.7548292 14.0138706,19.4018089 11.017066,18.8642982 C9.64309997,18.617862 8.75888415,17.256289 9.09259575,15.9008739 Z M11.8652394,4.0879929 C12.1862201,2.72016034 13.6321717,1.78114836 15.0123076,2.04426293 C19.2907427,2.85992749 23.3765724,4.49628297 26.9087248,6.95595269 C29.0259217,8.40759503 30.921198,10.0808294 32.5764988,11.9304615 L28.3475274,15.2338636 C24.5518307,11.0987945 19.5127332,8.30339176 13.824666,7.10524528 C12.4445327,6.84213454 11.5442547,5.45582805 11.8652394,4.0879929 Z" id="形状结合" fill="#D2D4D4" fill-rule="nonzero"></path>
                    <path d="M42.5,24 C44.4329966,24 46,25.3431458 46,27 C46,28.6568542 44.4329966,30 42.5,30 C40.5670034,30 39,28.6568542 39,27 C39,25.3431458 40.5670034,24 42.5,24 Z M43.0833333,0 C44.6941639,0 46,1.17258756 46,2.61904762 L46,19.3809524 C46,20.8274124 44.6941639,22 43.0833333,22 L41.9166667,22 C40.3058361,22 39,20.8274124 39,19.3809524 L39,2.61904762 C39,1.17258756 40.3058361,0 41.9166667,0 L43.0833333,0 Z" id="形状" fill="#EB9595"></path>
                </g>
                <g id="树" transform="translate(281.000000, 204.736842)">
                    <path d="M3.32789375,47.4101322 C5.70718136,45.4803235 8.22579042,43.6167173 10.8837209,41.8193135 C13.9519637,39.7444394 18.6961497,39.7444394 25.1162791,41.8193135 L30.377243,43.6382528 C33.178276,44.6066892 34.6638891,47.662448 33.6954527,50.4634811 C33.635259,50.6375808 33.5661406,50.8084656 33.4883721,50.9754567 L32.7267163,52.6109476 C31.6293491,54.9673062 29.4555612,56.643616 26.897664,57.1060034 L11.7126145,59.8509825 C11.5957796,59.8720975 11.4784899,59.8906139 11.3608317,59.9065131 C3.78694389,60.9299711 0,59.7506781 0,56.368634 C0,54.2573273 0.285835303,52.4231495 0.857505908,50.8661006 L0.857507988,50.8661014 C1.35447111,49.512532 2.20802817,48.3184403 3.32789375,47.4101322 Z" id="矩形" fill="url(#linearGradient-14)"></path>
                    <path d="M19.1323089,0.195412081 C19.3891478,0.336032794 19.6009019,0.544718568 19.7435902,0.797835852 L28.2206655,15.835472 C28.853668,16.9583665 28.4431481,18.3743666 27.3037437,18.9981968 C26.9531361,19.1901564 26.558672,19.2908912 26.1575913,19.2908912 L26.0381432,19.2908042 L31.7538155,29.4006104 C32.3881986,30.5227478 31.9794206,31.9392373 30.8407843,32.5644282 C30.4895665,32.7572713 30.0941819,32.8584932 29.6921321,32.8584932 L20.3346355,32.8584062 L20.3349342,45.2631579 L16.4014806,45.2631579 L16.401182,32.8584062 L7.04428266,32.8584932 C5.74085081,32.8584932 4.68421053,31.8171637 4.68421053,30.5326186 C4.68421053,30.1363945 4.78692073,29.746739 4.98259922,29.4006104 L10.6976743,19.2908042 L10.5788234,19.2908912 C9.27539159,19.2908912 8.2187513,18.2495617 8.2187513,16.9650166 C8.2187513,16.5697476 8.32096721,16.1809993 8.51574921,15.835472 L16.9928246,0.797835852 C17.4148262,0.049239563 18.372706,-0.220474747 19.1323089,0.195412081 Z" id="路径" fill="url(#linearGradient-15)"></path>
                </g>
                <g id="树备份" transform="translate(75.000000, 211.000000)">
                    <path d="M3.16146897,27.4110397 C4.27741189,26.5631958 5.44064316,25.7374137 6.65116279,24.9336934 C8.52620003,23.6887689 11.4254248,23.6887689 15.3488372,24.9336934 L18.6085963,26.0402393 C20.2766279,26.6064633 21.1698195,28.4176853 20.6035956,30.0857169 C20.5640617,30.2021791 20.5178248,30.316257 20.4651163,30.4273793 C19.5021149,32.4576193 17.6163442,33.896477 15.4038675,34.2891514 L7.22497051,35.7407571 C7.10313276,35.7623839 6.9808092,35.7811782 6.85809907,35.7971276 C2.28603302,36.3913868 0,35.6801061 0,33.6632857 C0,33.7526549 0.000869374095,33.8428516 0.00260812229,33.933876 L0.0026072346,33.933876 C-0.0461773224,31.3799799 1.12754315,28.9563264 3.16146897,27.4110397 Z" id="矩形" fill="url(#linearGradient-16)"></path>
                    <path d="M11.9744919,0.116565578 C12.1340284,0.200447469 12.2655602,0.32493096 12.3541916,0.475918363 L17.6197596,9.4460432 C18.0129515,10.1158628 17.7579555,10.9605233 17.05021,11.3326453 C16.8324287,11.4471515 16.5874059,11.5072409 16.3382731,11.5072409 L16.2640774,11.507189 L19.8143893,17.537806 C20.2084388,18.207174 19.9545247,19.0521264 19.2472564,19.4250601 C19.0290961,19.5400932 18.7835014,19.6004733 18.5337667,19.6004733 L12.7213217,19.6004213 L12.7215072,27 L10.2782274,27 L10.2780419,19.6004213 L4.46596788,19.6004733 C3.65633618,19.6004733 3,18.9793081 3,18.213062 C3,17.9767098 3.06379884,17.7442757 3.18534529,17.537806 L6.73528616,11.507189 L6.66146148,11.5072409 C5.85182977,11.5072409 5.1954936,10.8860757 5.1954936,10.1198297 C5.1954936,9.8840471 5.2589854,9.65215424 5.37997499,9.4460432 L10.6455429,0.475918363 C10.9076709,0.0293719719 11.5026616,-0.13151575 11.9744919,0.116565578 Z" id="路径" fill="url(#linearGradient-17)"></path>
                </g>
            </g>
        </g>
    </g>
</svg>