<?xml version="1.0" encoding="UTF-8"?>
<svg width="386px" height="308px" viewBox="0 0 386 308" version="1.1" xmlns="http://www.w3.org/2000/svg" xmlns:xlink="http://www.w3.org/1999/xlink">
    <!-- Generator: Sketch 60 (88103) - https://sketch.com -->
    <title>升级中-图片</title>
    <desc>Created with Sketch.</desc>
    <defs>
        <linearGradient x1="50%" y1="0%" x2="50%" y2="100%" id="linearGradient-1">
            <stop stop-color="#F5F5F5" offset="0%"></stop>
            <stop stop-color="#FFFFFF" offset="100%"></stop>
        </linearGradient>
        <linearGradient x1="50%" y1="0%" x2="50%" y2="100%" id="linearGradient-2">
            <stop stop-color="#EFEFEF" offset="0%"></stop>
            <stop stop-color="#FFFFFF" offset="100%"></stop>
        </linearGradient>
        <linearGradient x1="50%" y1="0%" x2="50%" y2="100%" id="linearGradient-3">
            <stop stop-color="#F5F5F5" offset="0%"></stop>
            <stop stop-color="#FFFFFF" offset="100%"></stop>
        </linearGradient>
        <linearGradient x1="50%" y1="5.60071791%" x2="50%" y2="100%" id="linearGradient-4">
            <stop stop-color="#FCFCFC" offset="0%"></stop>
            <stop stop-color="#D8D8D8" offset="100%"></stop>
        </linearGradient>
        <linearGradient x1="0%" y1="100.000004%" x2="100%" y2="100%" id="linearGradient-5">
            <stop stop-color="#ECECEC" offset="0%"></stop>
            <stop stop-color="#FAFAFA" offset="34.2141118%"></stop>
            <stop stop-color="#F6F6F6" offset="54.6980574%"></stop>
            <stop stop-color="#D8D8D8" offset="100%"></stop>
        </linearGradient>
        <linearGradient x1="50%" y1="106.445047%" x2="50%" y2="0%" id="linearGradient-6">
            <stop stop-color="#ECECEC" offset="0%"></stop>
            <stop stop-color="#FAFAFA" offset="43.9803536%"></stop>
            <stop stop-color="#F6F6F6" offset="77.7999816%"></stop>
            <stop stop-color="#D8D8D8" offset="100%"></stop>
        </linearGradient>
        <linearGradient x1="50%" y1="5.60071791%" x2="50%" y2="100%" id="linearGradient-7">
            <stop stop-color="#E8E8E8" offset="0%"></stop>
            <stop stop-color="#D8D8D8" offset="100%"></stop>
        </linearGradient>
        <linearGradient x1="50%" y1="0%" x2="50%" y2="100%" id="linearGradient-8">
            <stop stop-color="#DEDEDE" offset="0%"></stop>
            <stop stop-color="#FFFFFF" stop-opacity="0" offset="100%"></stop>
        </linearGradient>
        <linearGradient x1="50%" y1="16.9510563%" x2="83.7596879%" y2="69.1962656%" id="linearGradient-9">
            <stop stop-color="#787878" offset="0%"></stop>
            <stop stop-color="#000000" offset="100%"></stop>
        </linearGradient>
        <linearGradient x1="50%" y1="0%" x2="50%" y2="100%" id="linearGradient-10">
            <stop stop-color="#FFFFFF" offset="0%"></stop>
            <stop stop-color="#E5F0FF" offset="100%"></stop>
        </linearGradient>
        <linearGradient x1="50%" y1="0%" x2="50%" y2="100%" id="linearGradient-11">
            <stop stop-color="#FFFFFF" offset="0%"></stop>
            <stop stop-color="#E5F0FF" offset="100%"></stop>
        </linearGradient>
        <linearGradient x1="50%" y1="0%" x2="50%" y2="100%" id="linearGradient-12">
            <stop stop-color="#FFFFFF" offset="0%"></stop>
            <stop stop-color="#E5F0FF" offset="100%"></stop>
        </linearGradient>
        <linearGradient x1="50%" y1="0%" x2="50%" y2="100%" id="linearGradient-13">
            <stop stop-color="#DEDEDE" offset="0%"></stop>
            <stop stop-color="#FFFFFF" stop-opacity="0" offset="100%"></stop>
        </linearGradient>
        <linearGradient x1="50%" y1="0%" x2="50%" y2="100%" id="linearGradient-14">
            <stop stop-color="#EBEBEB" offset="0%"></stop>
            <stop stop-color="#CBCECF" offset="43.3408995%"></stop>
            <stop stop-color="#DADADA" offset="100%"></stop>
        </linearGradient>
    </defs>
    <g id="缺省页" stroke="none" stroke-width="1" fill="none" fill-rule="evenodd">
        <g id="03系统升级中-" transform="translate(-168.000000, -322.000000)">
            <g id="升级中-图片" transform="translate(168.000000, 322.000000)">
                <path d="M284.410492,58.9473684 C297.365432,73.6398849 303.382589,48.4210526 315.299569,48.4210526 C323.244223,48.4210526 331.4777,55.4385965 340,69.4736842 L245.263158,69.4736842 C262.724754,52.6611293 275.773866,49.1523574 284.410492,58.9473684 Z" id="路径-5" fill="url(#linearGradient-1)"></path>
                <path d="M121.530952,16.6935316 C137.364768,39.9941805 144.719071,2.84217094e-14 159.284269,2.84217094e-14 C168.994401,2.84217094e-14 179.057539,11.1290211 189.473684,33.3870632 L73.6842105,33.3870632 C95.0261616,6.72427619 110.975076,1.15976566 121.530952,16.6935316 Z" id="路径-5备份" fill="url(#linearGradient-2)"></path>
                <path d="M191.155937,228.421053 C283.367771,228.421053 348.315792,254.754386 386,307.421053 L0,307.421053 C35.2254582,254.754386 98.944104,228.421053 191.155937,228.421053 Z" id="路径-5备份-2" fill="url(#linearGradient-3)"></path>
                <g id="桌子" transform="translate(87.368421, 142.105263)">
                    <rect id="矩形" fill="url(#linearGradient-4)" x="0" y="0" width="221.052632" height="15.7894737" rx="7.89473684"></rect>
                    <path d="M13.6842105,15.7894737 L26.3157895,15.7894737 L26.3157895,104.715789 C23.7777727,107.185965 21.6725095,108.421053 20,108.421053 C18.3274905,108.421053 16.2222273,107.185965 13.6842105,104.715789 L13.6842105,15.7894737 Z" id="矩形" fill="url(#linearGradient-5)"></path>
                    <rect id="矩形" fill="url(#linearGradient-6)" x="150.526316" y="15.7894737" width="56.8421053" height="93.6842105" rx="3"></rect>
                    <rect id="矩形备份-2" fill="#FCFCFC" x="162.105263" y="26.3157895" width="34.7368421" height="74.7368421"></rect>
                </g>
                <g id="电脑" transform="translate(203.157895, 71.578947)">
                    <path d="M66.0959147,0 L3.37776948,0 C1.50123088,0 0,1.62411824 0,3.6646707 L0,52.5546925 C0,54.595245 1.50123088,56.2193632 3.37776948,56.2193632 L24.6452293,56.2193632 L24.6452293,62.3410273 L20.1832323,67.2133753 L20.1832323,68.4210526 L49.2904519,68.4210526 L49.2904519,67.2133753 L44.8284549,62.3410273 L44.8284549,56.2193632 L66.0959147,56.2193632 C67.930751,56.2193632 69.4736842,54.595245 69.4736842,52.5546925 L69.4736842,3.6646707 C69.4319833,1.62411824 67.930751,0 66.0959147,0 Z" id="形状" fill="url(#linearGradient-7)"></path>
                    <path d="M63.3157895,46.3157895 L6.15789474,46.3157895 C4.50104049,46.3157895 3.15789474,44.9726437 3.15789474,43.3157895 L3.15789474,7.21052632 C3.15789474,5.55367207 4.50104049,4.21052632 6.15789474,4.21052632 L63.3157895,4.21052632 C64.9726437,4.21052632 66.3157895,5.55367207 66.3157895,7.21052632 L66.3157895,43.3157895 C66.3157895,44.9726437 64.9726437,46.3157895 63.3157895,46.3157895 Z" id="路径" fill="#FFFFFF"></path>
                    <rect id="矩形" fill="#D2D2D2" opacity="0.62890625" x="11.5789474" y="13.6842105" width="22.1052632" height="2.10526316"></rect>
                    <rect id="矩形" fill="#D2D2D2" opacity="0.313476562" x="38.9473684" y="13.6842105" width="22.1052632" height="2.10526316"></rect>
                    <rect id="矩形备份-3" fill="#D2D2D2" opacity="0.641322545" x="45.2631579" y="24.2105263" width="13.6842105" height="2.10526316"></rect>
                    <rect id="矩形备份-4" fill="#D2D2D2" opacity="0.498860677" x="28.4210526" y="24.2105263" width="13.6842105" height="2.10526316"></rect>
                    <rect id="矩形备份-5" fill="#D2D2D2" opacity="0.313941592" x="12.6315789" y="24.2105263" width="13.6842105" height="2.10526316"></rect>
                    <circle id="椭圆形" fill="#FFFFFF" cx="34.7368421" cy="51.5789474" r="3.15789474"></circle>
                </g>
                <g id="笔记本" transform="translate(117.894737, 107.368421)">
                    <path d="M1.35851472,0.00969147817 L35.6832812,0.254560171 C36.5851243,0.26099381 37.3710955,0.870211491 37.6022215,1.74195867 L45.2631579,30.637019 L45.2631579,30.637019 L9.90131579,32.6315789 L0.394462156,1.30002146 C0.234103283,0.771529757 0.532533904,0.213106034 1.0610256,0.0527471609 C1.15745292,0.0234884704 1.25774875,0.00897262604 1.35851472,0.00969147817 Z" id="路径-9" fill="#E4E4E4"></path>
                    <polygon id="路径-9" fill="#FFFFFF" points="3.15789474 3.15789474 33.9678942 3.15789474 40 26.0672522 10.8058177 27.3684211"></polygon>
                    <polygon id="路径-11" fill="#C1C1C1" points="10.5263158 32.1804557 17.7109416 34.7368421 61.0526316 33.8524551 45.6140351 30.5263158"></polygon>
                    <polygon id="矩形" fill="#E4E4E4" points="12.6315789 11.5789474 30.6862754 11.5789474 31.5789474 13.6842105 13.4380872 13.6842105"></polygon>
                </g>
                <g id="人" transform="translate(155.789474, 100.000000)">
                    <path d="M18.4507372,152.792032 C22.6446329,150.725922 27.1023023,148.735016 31.8237454,146.819313 C36.9374833,144.744439 44.8444601,144.744439 55.5446756,146.819313 L66.999427,149.195551 C69.3019892,149.673207 70.7813677,151.927019 70.3037114,154.229582 C70.1718245,154.865348 69.8962841,155.462531 69.498164,155.975457 L67.3938578,158.686582 C66.0634568,160.400631 64.0938883,161.500764 61.9367627,161.734729 L32.9253293,164.881341 C20.0979168,165.948835 13.6842105,164.777932 13.6842105,161.368634 C13.6842105,158.98182 14.2930448,156.94918 15.5107134,155.270713 L15.5107181,155.270717 C16.2746173,154.217738 17.2837766,153.366931 18.4507372,152.792032 Z" id="矩形" fill="url(#linearGradient-8)"></path>
                    <g id="头" transform="translate(32.631579, 0.000000)">
                        <rect id="矩形" fill="#E8CBC1" x="7.89915966" y="19.8947368" width="5.37815126" height="8.52631579"></rect>
                        <path d="M8.46852911,4.94279176 L9.41176471,4.94279176 C12.8246264,4.94279176 15.5912974,7.7094628 15.5912974,11.1223245 C15.5912974,11.9383794 15.4296632,12.7463529 15.115774,13.4996253 C14.9816181,13.8215141 14.8900395,14.0481836 14.8410382,14.1796339 C14.6658041,14.6497141 14.0916967,15.7284848 13.1187158,17.415946 L13.1187104,17.4159428 C12.194713,19.0184508 10.7439284,20.2512333 9.01329312,20.9044595 C7.40169924,21.5127536 6.26417944,21.8169007 5.60073375,21.8169007 C4.85729261,21.8169007 4.79194407,21.2002246 4.60751077,19.8947368 C4.56694409,19.6075907 4.40365618,19.0937954 4.11764706,18.3533508 C2.85463166,18.4483689 2.17032384,18.3082204 2.06472362,17.9329052 C1.88376105,17.2897436 3.07264849,13.4849123 2.90784444,13.0593445 C2.90784444,13.0593445 2.90784444,13.0593445 2.90784444,13.0593445 C1.71854696,9.98826316 3.24403419,6.53454374 6.31511554,5.34524626 C7.00191067,5.0792801 7.73203366,4.94284414 8.46852911,4.94279176 Z" id="矩形" fill="#F1D5CB"></path>
                        <path d="M10.5882353,5.68421053 C14.4059343,5.68421053 17.5007908,8.77906706 17.5007908,12.5967661 C17.5007908,13.3091684 17.3906653,14.0172895 17.1743343,14.6960516 C16.7615595,15.9910519 16.5051358,16.7727789 16.405063,17.0412326 C16.2023055,17.585147 15.5922341,18.238966 14.5748489,19.0026895 L14.5748503,19.0026913 C14.09047,19.3663024 13.5663641,19.6737301 13.0126063,19.9190656 C11.4433632,20.6142989 10.6352395,20.6061893 10.5882353,19.8947368 C10.5700913,19.62011 10.583308,19.3608165 10.6278856,19.1168563 L10.6278883,19.1168568 C10.885241,17.7084394 10.759906,16.256765 10.2649606,14.9132997 C10.1712233,14.658862 10.0829031,14.4246042 10,14.2105263 C9.95088666,14.0837027 10.7053194,10.6690043 10.5882353,9.95284758 C10.4356617,9.01961574 8.23529412,10.4309019 8.23529412,9.95284758 C8.23529412,9.7704388 8.19680893,9.58808563 8.11983855,9.40578807 C7.54428485,8.04253508 8.182798,6.47080412 9.54603514,5.89521287 C9.87584966,5.75595731 10.2302273,5.68421053 10.5882353,5.68421053 Z" id="矩形" fill="#060606"></path>
                        <path d="M15.5797352,9.32104195 C12.2660139,5.00031646 11.1184784,10.4177406 6.15884894,11.6513024 C2.85242928,12.473677 1.1916365,10.5768091 1.17647059,5.96069869 C2.23455546,4.67401372 2.92042521,3.62733294 3.23407982,2.82065634 C3.58525181,1.91749018 8.1069545,0 9.25319457,0 C10.0090541,0 12.0007309,0.197177134 13.522126,1.1070372 C13.9659814,1.37248192 14.6559234,1.9436883 15.5919521,2.82065634 C17.6342922,2.84525276 18.6554622,3.89193354 18.6554622,5.96069869 C18.6554622,9.50209869 18.0990521,12.2520412 16.9862321,14.2105263 C17.1540908,12.39235 16.6852585,10.7625219 15.5797352,9.32104195 Z" id="路径-6" fill="url(#linearGradient-9)"></path>
                        <path d="M9.41742935,11.9190286 C9.35138974,11.20992 9.86277792,10.9735505 10.9515939,11.20992 C12.5848179,11.5644743 11.3132025,12.6069388 10.9515939,14.1543474 C10.7105215,15.1859531 10.1991333,15.8225284 9.41742935,16.0640732 L9.41742935,11.9190286 Z" id="路径-8" fill="#E8CBC1"></path>
                    </g>
                    <g id="腿" transform="translate(28.421053, 62.105263)">
                        <polygon id="矩形备份" fill="#F1D5CB" points="11.2978097 77.6357584 14.9672791 77.1929825 15.5344884 82.8070175 12.1833154 82.8070175"></polygon>
                        <rect id="矩形" fill="#F1D5CB" x="16.9467146" y="75.7894737" width="4.23667865" height="5.61403509"></rect>
                        <path d="M15.2878541,77.1929825 C14.8197576,77.9511342 13.3526106,78.4189704 10.886413,78.5964912 C4.64775103,59.7971015 1.43908806,48.1664862 1.26042404,43.7046453 C0.227368877,17.9057874 5.03334992,3.70952819 5.03334992,3.70952819 C5.03334992,3.70952819 6.98437093,3.70952819 10.886413,3.70952819 L27.6725073,1.03363871 C28.1097314,5.3040528 28.3004038,8.5653684 28.2445244,10.8175855 C28.0483246,18.7254063 25.9776551,27.3033619 25.0058656,34.9867884 C24.4462923,39.4110382 24.659389,48.8570475 24.0078457,60.0568815 C23.8098874,63.4597253 23.2935525,68.6282678 22.4588411,75.5625088 C22.3905399,76.1299111 22.3470811,76.8029243 22.2040836,77.1929825 C22.1087519,77.4530212 20.8783626,77.5417817 18.5129158,77.4592637 C17.5166101,77.4284849 16.9470462,77.3397245 16.804224,77.1929825 C16.5899908,76.9728694 16.2370093,76.3703432 16.2406015,75.7894737 C16.4817436,36.7961924 16.598543,18.2974412 14.8283753,18.2974412 C13.6484558,18.2974412 12.8115534,22.195249 12.2575942,29.8131896 C11.9680989,33.794273 8.97451266,42.9813442 8.97451266,45.2798799 C8.97451266,47.5784157 12.2575942,55.3810755 13.4161491,61.259043 C14.5747039,67.1370104 15.9899987,76.0557549 15.2878541,77.1929825 Z" id="路径-8" fill="#434141"></path>
                        <path d="M4.45126563,87.0117942 C3.25362639,86.7204644 5.66059379,83.6457701 9.44761282,82.5034366 C13.2346318,81.3611031 15.0772844,79.3585326 16.1399613,80.2015245 C16.8484126,80.763519 17.0902684,82.1927307 16.8655288,84.4891593 C16.7981828,85.0669354 16.4646269,85.5660332 15.8648611,85.9864526 C15.5645278,86.196978 14.272865,85.8301065 13.4161491,85.9864526 C12.846718,86.0903707 11.9170353,86.5292611 10.6271008,87.3031239 C9.66170477,87.3031239 8.68493368,87.3031239 7.69678752,87.3031239 C6.21456827,87.3031239 5.64890487,87.3031239 4.45126563,87.0117942 Z" id="路径-9备份-2" fill="#505050"></path>
                        <path d="M9.15007977,86.5101216 C10.1154756,84.7921767 12.3387041,83.5927567 15.5392377,81.8232579 C15.9903524,81.5738473 16.4479815,80.3899596 16.9467146,80.3899596 C18.6731179,80.3899596 20.6281992,80 21.5111238,80.3899596 C22.4296459,80.7956415 22.6147106,82.7131983 22.0663179,86.1426301 C21.8133805,86.3317424 21.4244279,86.4542396 20.89946,86.5101216 C20.3744922,86.5660037 19.612681,86.5660037 18.6140263,86.5101216 C15.8051678,87.7840756 13.9085595,88.4210526 12.9242013,88.4210526 C11.4476641,88.4210526 8.18468399,88.2280666 9.15007977,86.5101216 Z" id="路径-9备份" fill="#605E5E"></path>
                    </g>
                    <g id="身体" transform="translate(0.000000, 26.315789)">
                        <path d="M63.9745103,19.8344175 L68.6108714,23.5669577 C71.1995842,24.0824733 72.8331764,23.3629042 73.511648,21.4082504 C74.1901196,19.4535965 72.8628259,16.8030512 69.529767,13.4566145 L57.9921507,5.86623102 L55.133736,7.95374414 L57.9921507,11.8734762 L63.9745103,19.8344175 Z" id="路径-2" fill="#EDD6CE"></path>
                        <path d="M11.7093579,18.7142567 C14.6760395,23.1324511 16.6375091,25.6360863 17.5937667,26.2251624 C18.5500243,26.8142384 19.7427287,26.208113 21.17188,24.4067862 C23.298411,21.6558136 25.1103412,19.1780864 26.6076703,16.9736046 C27.4055135,15.7989592 25.3316459,13.7555415 23.4900236,11.0777961 C23.1067672,10.5205357 20.9045911,13.0660226 16.8834953,18.7142567 L9.75855145,12.2332859 C6.74299647,10.1650333 4.46904361,9.34948087 2.93669287,9.78662873 C1.40434212,10.2237766 0.425444501,10.6541657 -1.97175609e-13,11.0777961 L7.94600391,14.174889 L11.7093579,18.7142567 Z" id="路径-2备份" fill="#EDD6CE"></path>
                        <path d="M40.0346058,0 C45.6354933,0 48.5438416,0 48.7596507,0 C53.5674477,0.948674741 57.317443,2.19603668 60.0096366,3.74208583 C64.0479271,6.06115954 69.1602466,10.3747913 70.1452863,12.2708694 C71.130326,14.1669474 65.2892748,19.8344175 63.9745103,19.8344175 C63.0980006,19.8344175 61.0017794,18.0561651 57.6858467,14.4996602 C58.3035076,32.199948 58.3035076,41.7699628 57.6858467,43.2097047 C56.7593552,45.3693176 33.2552693,46.460354 31.8915608,42.4656743 C30.9824218,39.8025544 30.9824218,30.4805498 31.8915608,14.4996602 C28.6579638,18.3088016 26.4950257,20.087054 25.4027464,19.8344175 C23.7643275,19.4554628 20.2680837,15.0076747 20.2680837,13.247035 C20.2680837,11.4863953 25.6114007,5.49928726 31.1549365,3.04255165 C35.6401308,1.05484258 36.926483,0 40.0346058,0 Z" id="路径-7" fill="#3B86F7"></path>
                    </g>
                    <path d="M33.6842105,6.57796682 C40.9309352,8.49812994 46.0104598,8.33534985 48.9227842,6.08962654 C53.2912708,2.72104158 55.5240144,0.790113761 55.5839814,3.14421338 C55.6007417,3.80216584 52.1558709,5.50710703 52.9037006,6.57796682 C53.4814004,7.40520805 57.054853,8.34137152 60.9480546,9.9469702 C61.4554445,10.1562233 60.1165071,10.3493385 56.9312424,10.5263158 L51.9384011,9.9469702 C48.4593264,9.32874147 45.553467,9.08342366 43.2208228,9.21101679 C40.8881785,9.33860992 38.0130072,9.6878922 34.5953088,10.2588636 C34.3202264,10.0999064 34.1164921,9.75062409 33.9841057,9.21101679 C33.8517194,8.67140949 33.7517543,7.79372617 33.6842105,6.57796682 Z" id="路径-3" fill="#EB9595"></path>
                </g>
                <g id="汗珠" transform="translate(145.263158, 143.157895)">
                    <path d="M14.1725133,10.3427858 C15.1096075,10.3326958 16.5265102,9.88939721 16.5516077,7.57290157 C16.5643321,6.39844183 15.845488,5.27941665 15.7241513,4.05901526 C15.6061644,2.87230605 16.0857619,1.56751292 16.0857619,1.56751292 C16.0857619,1.56751292 11.8779874,5.30699865 11.8528899,7.62349429 C11.8277925,9.93998993 13.2354191,10.3528758 14.1725133,10.3427858 Z" id="椭圆形备份" fill="url(#linearGradient-10)" transform="translate(14.202167, 5.955238) rotate(37.000000) translate(-14.202167, -5.955238) "></path>
                    <path d="M15.9793127,20.1588109 C16.451345,20.1570037 17.1634998,19.9560173 17.1676762,18.883077 C17.1697798,18.3390979 16.8035616,17.8185491 16.7379718,17.2528776 C16.6741929,16.7028229 16.9110201,16.0999067 16.9110201,16.0999067 C16.9110201,16.0999067 14.8050003,17.8191372 14.8008148,18.8920775 C14.7966658,19.9650179 15.5072804,20.1605938 15.9793127,20.1588109 Z" id="椭圆形备份-3" fill="url(#linearGradient-11)" transform="translate(15.984245, 18.129359) rotate(10.000000) translate(-15.984245, -18.129359) "></path>
                    <path d="M5.58672479,34.6422115 C6.88230733,34.6328206 8.83897348,34.0512044 8.86135011,30.9796155 C8.87269504,29.4223247 7.87286066,27.9353382 7.69860691,26.3165414 C7.52916387,24.7424354 8.18531904,23.0143648 8.18531904,23.0143648 C8.18531904,23.0143648 2.38749985,27.9545442 2.36512321,31.0261331 C2.34274658,34.0977219 4.29114224,34.6513752 5.58672479,34.6422115 Z" id="椭圆形备份-2" fill="url(#linearGradient-12)" transform="translate(5.613189, 28.828288) rotate(20.000000) translate(-5.613189, -28.828288) "></path>
                </g>
                <g id="树" transform="translate(69.000000, 214.736842)">
                    <path d="M3.32789375,47.4101322 C5.70718136,45.4803235 8.22579042,43.6167173 10.8837209,41.8193135 C13.9519637,39.7444394 18.6961497,39.7444394 25.1162791,41.8193135 L30.377243,43.6382528 C33.178276,44.6066892 34.6638891,47.662448 33.6954527,50.4634811 C33.635259,50.6375808 33.5661406,50.8084656 33.4883721,50.9754567 L32.7267163,52.6109476 C31.6293491,54.9673062 29.4555612,56.643616 26.897664,57.1060034 L11.7126145,59.8509825 C11.5957796,59.8720975 11.4784899,59.8906139 11.3608317,59.9065131 C3.78694389,60.9299711 0,59.7506781 0,56.368634 C0,54.2573273 0.285835303,52.4231495 0.857505908,50.8661006 L0.857507988,50.8661014 C1.35447111,49.512532 2.20802817,48.3184403 3.32789375,47.4101322 Z" id="矩形" fill="url(#linearGradient-13)"></path>
                    <path d="M19.1323089,0.195412081 C19.3891478,0.336032794 19.6009019,0.544718568 19.7435902,0.797835852 L28.2206655,15.835472 C28.853668,16.9583665 28.4431481,18.3743666 27.3037437,18.9981968 C26.9531361,19.1901564 26.558672,19.2908912 26.1575913,19.2908912 L26.0381432,19.2908042 L31.7538155,29.4006104 C32.3881986,30.5227478 31.9794206,31.9392373 30.8407843,32.5644282 C30.4895665,32.7572713 30.0941819,32.8584932 29.6921321,32.8584932 L20.3346355,32.8584062 L20.3349342,45.2631579 L16.4014806,45.2631579 L16.401182,32.8584062 L7.04428266,32.8584932 C5.74085081,32.8584932 4.68421053,31.8171637 4.68421053,30.5326186 C4.68421053,30.1363945 4.78692073,29.746739 4.98259922,29.4006104 L10.6976743,19.2908042 L10.5788234,19.2908912 C9.27539159,19.2908912 8.2187513,18.2495617 8.2187513,16.9650166 C8.2187513,16.5697476 8.32096721,16.1809993 8.51574921,15.835472 L16.9928246,0.797835852 C17.4148262,0.049239563 18.372706,-0.220474747 19.1323089,0.195412081 Z" id="路径" fill="url(#linearGradient-14)"></path>
                </g>
            </g>
        </g>
    </g>
</svg>