<?xml version="1.0" encoding="UTF-8"?>
<svg width="30px" height="30px" viewBox="0 0 30 30" version="1.1" xmlns="http://www.w3.org/2000/svg" xmlns:xlink="http://www.w3.org/1999/xlink">
    <!-- Generator: Sketch 60 (88103) - https://sketch.com -->
    <title>路径</title>
    <desc>Created with Sketch.</desc>
    <g id="一手房业务" stroke="none" stroke-width="1" fill="none" fill-rule="evenodd">
        <g id="05完善信息-4联系人信息" transform="translate(-690.000000, -339.000000)" fill="#3B86F7">
            <path d="M705,339 C705.828427,339 706.5,339.671573 706.5,340.5 L706.5,352.5 L718.5,352.5 C719.328427,352.5 720,353.171573 720,354 C720,354.828427 719.328427,355.5 718.5,355.5 L706.5,355.5 L706.5,367.5 C706.5,368.328427 705.828427,369 705,369 C704.171573,369 703.5,368.328427 703.5,367.5 L703.499,355.5 L691.5,355.5 C690.671573,355.5 690,354.828427 690,354 C690,353.171573 690.671573,352.5 691.5,352.5 L703.5,352.5 L703.5,340.5 C703.5,339.671573 704.171573,339 705,339 Z" id="路径"></path>
        </g>
    </g>
</svg>