<?xml version="1.0" encoding="UTF-8"?>
<svg width="134px" height="136px" viewBox="0 0 134 136" version="1.1" xmlns="http://www.w3.org/2000/svg" xmlns:xlink="http://www.w3.org/1999/xlink">
    <!-- Generator: Sketch 60 (88103) - https://sketch.com -->
    <title>相机按钮</title>
    <desc>Created with Sketch.</desc>
    <defs>
        <linearGradient x1="50%" y1="0%" x2="50%" y2="100%" id="linearGradient-1">
            <stop stop-color="#6DBBFC" offset="0%"></stop>
            <stop stop-color="#3B86F7" offset="100%"></stop>
        </linearGradient>
        <circle id="path-2" cx="45" cy="45" r="45"></circle>
        <filter x="-43.9%" y="-32.8%" width="187.8%" height="187.8%" filterUnits="objectBoundingBox" id="filter-3">
            <feOffset dx="0" dy="10" in="SourceAlpha" result="shadowOffsetOuter1"></feOffset>
            <feGaussianBlur stdDeviation="11.5" in="shadowOffsetOuter1" result="shadowBlurOuter1"></feGaussianBlur>
            <feColorMatrix values="0 0 0 0 0.231372549   0 0 0 0 0.525490196   0 0 0 0 0.968627451  0 0 0 0.404884178 0" type="matrix" in="shadowBlurOuter1"></feColorMatrix>
        </filter>
    </defs>
    <g id="一手房业务" stroke="none" stroke-width="1" fill="none" fill-rule="evenodd">
        <g id="02进件1" transform="translate(-124.000000, -318.000000)">
            <g id="影像信息" transform="translate(0.000000, 152.000000)">
                <g id="相机按钮" transform="translate(146.000000, 179.000000)">
                    <g id="椭圆形">
                        <use fill="black" fill-opacity="1" filter="url(#filter-3)" xlink:href="#path-2"></use>
                        <use fill="url(#linearGradient-1)" fill-rule="evenodd" xlink:href="#path-2"></use>
                    </g>
                    <g id="相机" transform="translate(23.000000, 26.000000)" fill="#FFFFFF" fill-rule="nonzero">
                        <path d="M21.9865727,13.7415938 C17.4518324,13.7415938 13.7415938,17.4518324 13.7415938,21.9865727 C13.7415938,26.5213129 17.4518324,30.2314764 21.9865727,30.2314764 C26.5213129,30.2314764 30.2314764,26.5213505 30.2314764,21.9865727 C30.2314764,17.4517949 26.5213505,13.7415938 21.9865727,13.7415938 Z M38.4764928,5.49665256 L34.3540222,5.49665256 L32.9798402,2.74832628 C32.1553386,1.099323 31.7431066,0 30.231514,0 L13.7415938,0 C12.2300388,0 11.6803585,1.37414435 10.9932676,2.74832628 L9.6191232,5.49665256 L5.49665256,5.49665256 C2.47350493,5.49665256 0,7.97011992 0,10.99323 L0,32.9798027 C0,36.0029879 2.47350493,38.4764928 5.49665256,38.4764928 L38.4764928,38.4764928 C41.4996404,38.4764928 43.9731454,36.0029879 43.9731454,32.9798402 L43.9731454,10.9932676 C43.9731454,7.97011992 41.4996404,5.49665256 38.4764928,5.49665256 Z M21.9865727,32.9798402 C15.9402774,32.9798402 10.9932676,28.032868 10.9932676,21.9865727 C10.9932676,15.9402774 15.940315,10.99323 21.9865727,10.99323 C28.0328304,10.99323 32.9798402,15.940315 32.9798402,21.9865727 C32.9798402,28.0328304 28.032868,32.9798402 21.9865727,32.9798402 Z" id="形状"></path>
                    </g>
                </g>
            </g>
        </g>
    </g>
</svg>