<?xml version="1.0" encoding="UTF-8"?>
<svg width="32px" height="23px" viewBox="0 0 32 23" version="1.1" xmlns="http://www.w3.org/2000/svg" xmlns:xlink="http://www.w3.org/1999/xlink">
    <!-- Generator: Sketch 60 (88103) - https://sketch.com -->
    <title>路径</title>
    <desc>Created with Sketch.</desc>
    <g id="一手房业务" stroke="none" stroke-width="1" fill="none" fill-rule="evenodd">
        <g id="13_提交选择01" transform="translate(-688.000000, -856.000000)" fill="#3B86F7" fill-rule="nonzero">
            <g id="分组-2" transform="translate(0.000000, 686.000000)">
                <g id="编组-2备份-3" transform="translate(0.000000, 129.000000)">
                    <path d="M719.399525,41.636848 L719.441204,41.6803164 C720.215517,42.48664 720.215517,43.694542 719.249883,44.7001995 L719.249883,44.7059569 L701.83678,62.8367701 C701.232857,63.4843143 700.345554,63.6720325 699.577476,63.3936535 C699.318826,63.6763633 698.833127,63.542981 697.569817,62.3167436 L697.160648,61.9089699 L697.160648,61.9089699 L688.585153,53.2066062 C687.804949,52.0175226 687.804949,50.8281878 688.585153,50.0391515 C689.558164,49.0486779 690.726922,49.0486779 691.699964,50.0391515 L691.70278,50.0391515 L700.118519,58.5822222 L716.347147,41.6803164 C717.178527,40.7905106 718.545077,40.7709994 719.399525,41.636848 Z" id="路径"></path>
                </g>
            </g>
        </g>
    </g>
</svg>