<?xml version="1.0" encoding="UTF-8"?>
<svg width="34px" height="34px" viewBox="0 0 34 34" version="1.1" xmlns="http://www.w3.org/2000/svg" xmlns:xlink="http://www.w3.org/1999/xlink">
    <!-- Generator: Sketch 60 (88103) - https://sketch.com -->
    <title>编组 6</title>
    <desc>Created with Sketch.</desc>
    <g id="一手房业务" stroke="none" stroke-width="1" fill="none" fill-rule="evenodd">
        <g id="05完善信息-8暂存成功" transform="translate(-686.000000, -1192.000000)">
            <g id="编组-5" transform="translate(0.000000, 773.000000)">
                <g id="编组-3" transform="translate(0.000000, 383.000000)">
                    <g id="编组-6" transform="translate(686.000000, 36.000000)">
                        <circle id="椭圆形" fill="#CACCD3" cx="17" cy="17" r="17"></circle>
                        <path d="M17.5004104,18.6508364 L11.4383875,24.7104888 L11.4383875,24.7104888 C11.101489,25.0468233 10.5579432,25.0485485 10.2189345,24.7143594 L10.2189345,24.7143594 C9.92680791,24.4205537 9.92705253,23.9445562 10.219485,23.6510583 L16.3530946,17.5001494 L10.2613403,11.3912778 L10.2613402,11.3912778 C9.94569997,11.0751682 9.94496878,10.5619202 10.2597093,10.2449035 C10.2626165,10.2419754 10.2655459,10.2390696 10.2684974,10.2361864 L10.2684973,10.2361865 C10.594186,9.91828156 11.1136213,9.92172933 11.4350976,10.2439275 L17.5119863,16.3378686 L23.5883372,10.2444675 L23.5883373,10.2444674 C23.9134884,9.91847358 24.4401979,9.91893796 24.7647791,10.245503 C24.7649855,10.2457106 24.7651918,10.2459184 24.765398,10.2461263 C25.0792076,10.5635129 25.0781054,11.0766421 24.7626453,11.3923682 L18.661536,17.4907372 L24.7626453,23.6090044 L24.7626453,23.6090044 C25.0781323,23.9252706 25.0786135,24.4385186 24.7637182,24.7553787 C24.7609943,24.7581196 24.7582509,24.7608408 24.7554882,24.7635422 L24.7554882,24.7635422 C24.4297322,25.0818089 23.9098803,25.0783612 23.5883367,24.755801 L17.500991,18.6507903 L17.5004104,18.6508364 Z" id="路径" fill="#FFFFFF" fill-rule="nonzero"></path>
                    </g>
                </g>
            </g>
        </g>
    </g>
</svg>