<?xml version="1.0" encoding="UTF-8"?>
<svg width="652px" height="442px" viewBox="0 0 652 442" version="1.1" xmlns="http://www.w3.org/2000/svg" xmlns:xlink="http://www.w3.org/1999/xlink">
    <!-- Generator: Sketch 60 (88103) - https://sketch.com -->
    <title>拍身份证-反面框</title>
    <desc>Created with Sketch.</desc>
    <g id="一手房业务" stroke="none" stroke-width="1" fill="none" fill-rule="evenodd">
        <g id="06拍身份证02" transform="translate(-49.000000, -157.000000)">
            <g id="拍身份证-反面框" transform="translate(49.000000, 157.000000)">
                <rect id="矩形" stroke="#E5E5E5" fill-opacity="0.17" fill="#000000" stroke-linecap="square" x="2.5" y="2.5" width="647" height="437" rx="30"></rect>
                <path d="M0,381.5 L5,381.5 L5,409.5 C5,424.535952 17.0671572,436.753469 32.0452372,436.996316 L32.5,437 L65.5,437 L65.5,442 L32.5,442 C14.7302382,442 0.291354763,427.738814 0.00435407145,410.037447 L0,409.5 L0,381.5 Z M652,381.5 L652,409.5 C652,427.449254 637.449254,442 619.5,442 L619.5,442 L580.5,442 L580.5,437 L619.5,437 C634.535952,437 646.753469,424.932843 646.996316,409.954763 L647,409.5 L647,381.5 L652,381.5 Z M619.5,0 C637.449254,0 652,14.5507456 652,32.5 L652,32.5 L652,65.5 L647,65.5 L647,32.5 C647,17.4640477 634.932843,5.24653095 619.954763,5.00368421 L619.5,5 L580.5,5 L580.5,0 Z M65.5,0 L65.5,5 L32.5,5 C17.4640477,5 5.24653095,17.0671572 5.00368421,32.0452372 L5,32.5 L5,65.5 L0,65.5 L0,32.5 C0,14.7302382 14.2611858,0.291354763 31.9625531,0.00435407145 L32.5,0 L65.5,0 Z" id="形状结合" fill="#E5E5E5" fill-rule="nonzero"></path>
                <g id="国徽" transform="translate(50.000000, 61.000000)" fill="#FFFFFF" fill-rule="nonzero" opacity="0.695684524">
                    <path d="M108.903899,83.9467977 C108.677541,82.120171 107.121547,80.7478863 105.275418,80.7467345 L99.1241012,80.7467345 C109.09284,66.2530751 110.981705,47.6993699 104.137151,31.5044483 C93.0230778,5.27649736 62.6862408,-7.00310886 36.3780583,4.07745576 C10.0698758,15.1580204 -2.24689476,45.4023813 8.86717871,71.6306033 C10.2213234,74.8322092 11.9011193,77.8869737 13.8802275,80.7470023 L7.58808837,80.7470023 C5.73544844,80.7470052 4.17525893,82.1277296 3.9555302,83.9617022 L0.0266473279,116.866504 C-0.216665028,118.892462 1.23342224,120.731408 3.26528431,120.973981 C3.39604771,120.989701 3.52735483,120.998103 3.6589338,121 L23.4145379,121 C24.1385061,121 24.8458396,120.783507 25.4469434,120.381236 L31.5993478,116.272133 L81.4009015,116.272133 L87.5481406,120.381236 C88.1492978,120.783388 88.8565987,120.998725 89.5805468,121 L109.340229,121 C111.386499,120.974523 113.024712,119.300093 113.000546,117.259771 C112.997716,117.122945 112.988368,116.986315 112.971428,116.850519 L108.903899,83.9467977 Z M90.9133037,17.0143224 C109.854152,35.9541403 109.855044,66.6626772 90.9153834,85.6036834 C71.9757231,104.54469 41.2674417,104.545581 22.326593,85.6057631 C13.2318134,76.5113387 8.1217535,64.1768376 8.11953448,51.3150883 C8.08417976,38.443626 13.1990724,26.0930815 22.3247301,17.0162357 C41.2641737,-1.92460417 71.972455,-1.92549547 90.9133037,17.0143224 Z M87.0165995,115.205105 L87.0165995,114.390463 C86.362498,113.951715 85.5929042,113.716782 84.8051972,113.715391 L28.1955474,112.715391 C27.4078181,112.71664 26.5472725,114.951585 25.8932287,114.390463 L21.4401974,117.873503 L2.30727889,117.873503 L6.81925038,86.8735032 L16.7569537,86.8735032 C38.7065114,108.815885 74.2939371,108.81618 96.2440864,86.8743903 L106.048384,86.8735032 L109.647379,117.873503 L93.7108536,117.873503 L87.0165995,115.205105 Z M93.2427385,51.5675248 C93.2427385,31.336408 76.7923765,14.9360449 56.4995822,14.9360449 C36.206788,14.9360449 19.756426,31.336408 19.756426,51.5675248 C19.756426,61.2830807 23.6276071,70.6003983 30.518349,77.4700881 C37.394045,84.3621802 46.7495954,88.225566 56.4997604,88.199658 C76.7923765,88.199658 93.2427385,71.7986415 93.2427385,51.5675248 Z M79.8335176,28.23176 C92.7208545,41.1188663 92.7214642,62.0133499 79.8344322,74.900761 C66.9474002,87.7881722 46.053037,87.7887819 33.1657001,74.9016757 C26.9777258,68.7139248 23.5008856,60.321666 23.4993632,51.5706833 C23.4747761,42.8126688 26.9550742,34.4087334 33.1647725,28.2327026 C46.0518175,15.3449586 66.9461807,15.3446537 79.8335176,28.23176 Z M51.827985,45.932246 L56.4995822,42.690443 L61.1711795,45.932246 L59.5237237,40.5007827 L64.0585767,37.0725103 L58.368058,36.9562379 L56.4995822,31.5963268 L54.6311065,36.9562379 L48.9405877,37.0725103 L53.4754407,40.5007827 L51.827985,45.932246 L51.827985,45.932246 Z M61.8377738,55.7294784 L62.6465495,59.1750968 L64.1559017,55.9723223 L67.6922225,56.2707275 L65.1044121,53.8501487 L66.4810979,50.5880183 L63.3715931,52.2955143 L60.6861859,49.9817218 L61.3541395,53.4571536 L58.3164051,55.2874267 L61.8377738,55.7294784 L61.8377738,55.7294784 Z M48.8429909,55.9725933 L50.3523431,59.1750968 L51.1611188,55.7292074 L54.6824875,55.2874267 L51.6461124,53.4571536 L52.3127067,49.9817218 L49.6272995,52.2955143 L46.5177948,50.5880183 L47.8944805,53.8501487 L45.3066701,56.2707275 L48.8429909,55.9725933 Z M69.7001611,45.2717432 L71.0969643,48.5257427 L72.0250854,45.1096666 L75.560047,44.7909341 L72.5886458,42.8552299 L73.377304,39.405275 L70.6119708,41.6244777 L67.5647214,39.8104665 L68.8261396,43.117046 L66.1543253,45.4471004 L69.7001611,45.2717432 L69.7001611,45.2717432 Z M40.9738072,45.0893393 L41.9019283,48.5054153 L43.2987315,45.2514159 L46.8445673,45.4270441 L44.172753,43.0969897 L45.4341712,39.7904102 L42.3869219,41.6030662 L39.6215886,39.3852187 L40.4102468,42.8351736 L37.4391175,44.7708778 L40.9738072,45.0893393 Z M70.1147436,65.2106703 L42.8817023,65.2106703 C40.8612582,65.2106703 39.2235894,66.3300594 39.2235894,67.7106703 C39.2235894,69.0914669 40.8615301,70.2106703 42.8817023,70.2106703 L70.1150155,70.2106703 C72.1354595,70.2106703 73.7731284,69.0912812 73.7731284,67.7106703 C73.7731284,66.3300594 72.1351877,65.2106703 70.1147436,65.2106703 Z" id="形状"></path>
                </g>
            </g>
        </g>
    </g>
</svg>