<?xml version="1.0" encoding="UTF-8"?>
<svg width="310px" height="210px" viewBox="0 0 310 210" version="1.1" xmlns="http://www.w3.org/2000/svg" xmlns:xlink="http://www.w3.org/1999/xlink">
    <!-- Generator: Sketch 60 (88103) - https://sketch.com -->
    <title>身份证正面</title>
    <desc>Created with Sketch.</desc>
    <g id="一手房业务" stroke="none" stroke-width="1" fill="none" fill-rule="evenodd">
        <g id="02进件1" transform="translate(-40.000000, -271.000000)">
            <g id="影像信息" transform="translate(0.000000, 152.000000)">
                <g id="身份证正面" transform="translate(40.000000, 119.000000)">
                    <rect id="矩形" fill="#F4F8FF" x="0" y="0" width="310" height="210" rx="15"></rect>
                    <g id="人头" transform="translate(197.000000, 35.000000)">
                        <polygon id="路径-27" fill="#F9F3E2" points="30.9335087 76 33 42 52 42 54.3628991 76"></polygon>
                        <path d="M0.629954804,101.25916 L84,101.25916 C82.6439146,91.8089956 81.4364674,85.117181 80.3776584,81.183716 C78.2411317,73.2465407 74.80069,68 72.1557706,64.689342 C69.0378276,60.7865982 62.7678894,58.2234842 53.3459559,57 C52.5153772,63.5288424 49.1308722,66.7932636 43.1924408,66.7932636 C37.2540095,66.7932636 33.5305235,63.5288424 32.0219826,57 C22.4107406,58.3880692 15.9641482,60.9511832 12.6822053,64.689342 C10.5768753,67.0873296 6.66734519,72.4166313 4.05822591,81.183716 C3.08611445,84.4501759 1.94335742,91.1419905 0.629954804,101.25916 Z" id="路径-5" fill="#C3D7F5"></path>
                        <path d="M41.5716771,52 C47.6446118,52 56.4814608,40.3511889 56.4814608,28.7323131 C56.4814608,23.3920432 58.040826,19.8220299 55.7512542,16.1121614 C53.0593828,11.7504337 45.4442886,9 41.0596848,9 C37.0740943,9 29.0148605,12.4225186 26.3681154,16.1121614 C23.6265739,19.9339532 25.8526822,23.3434616 25.8526822,29.2551053 C25.8526822,40.8739812 35.4987424,52 41.5716771,52 Z" id="椭圆形" fill="#FEF8E7"></path>
                        <path d="M58.0384621,24.2814847 C57.3719369,21.9133923 56.6929639,20.1449076 56.0015431,18.9760308 C55.3101224,17.807154 54.572839,17.0055959 53.7896931,16.5713566 C47.1895943,18.1744727 42.1824419,18.9760308 38.7682358,18.9760308 C35.3540297,18.9760308 32.2140917,18.1744727 29.3484218,16.5713566 C28.1707117,18.0271227 27.3406165,19.3209519 26.8581362,20.4528443 C26.375656,21.5847367 25.9096462,23.1004553 25.4601069,25 C23.1458603,17.8604407 22.4643895,11.9647526 23.4156945,7.31293572 C24.9580973,-0.229309535 26.8581362,1.0519105 26.8581362,1.0519105 C26.8581362,1.0519105 29.7456566,1.0519105 32.6591836,1.0519105 C34.601535,1.0519105 39.1999844,1.0519105 46.4545318,1.0519105 C51.0773708,0.905584258 54.5605885,2.63919788 56.9041849,6.25275136 C59.2477812,9.86630484 59.6258736,15.8758826 58.0384621,24.2814847 Z" id="路径-28" fill="#677198"></path>
                        <path d="M56.4993088,32 C57.6227538,32 60,29.5509192 60,26.7167619 C60,23.8826045 58.9459385,23 57.8224936,23 C56.6990487,23 56.4993088,23.8826045 56.4993088,26.7167619 C56.4993088,29.5509192 55.3758639,32 56.4993088,32 Z" id="椭圆形" fill="#F9F3E2"></path>
                        <path d="M22.4993088,33 C23.6227538,33 26,30.5509192 26,27.7167619 C26,24.8826045 24.9459385,24 23.8224936,24 C22.6990487,24 22.4993088,24.8826045 22.4993088,27.7167619 C22.4993088,30.5509192 21.3758639,33 22.4993088,33 Z" id="椭圆形" fill="#F9F3E2" transform="translate(24.000000, 28.500000) scale(-1, 1) translate(-24.000000, -28.500000) "></path>
                    </g>
                    <rect id="矩形" fill="#E3ECF9" x="27" y="160" width="256" height="16" rx="3"></rect>
                    <g id="编组" transform="translate(27.000000, 48.000000)" fill="#E3ECF9">
                        <rect id="矩形" x="0" y="0" width="44" height="14" rx="3"></rect>
                        <rect id="矩形备份-3" x="0" y="27" width="44" height="14" rx="3"></rect>
                        <rect id="矩形备份-4" x="0" y="54" width="44" height="14" rx="3"></rect>
                    </g>
                    <g id="编组备份" transform="translate(88.000000, 48.000000)" fill="#E3ECF9">
                        <rect id="矩形" x="0" y="0" width="100" height="14" rx="3"></rect>
                        <rect id="矩形备份-3" x="0" y="27" width="100" height="14" rx="3"></rect>
                        <rect id="矩形备份-4" x="0" y="54" width="100" height="14" rx="3"></rect>
                    </g>
                </g>
            </g>
        </g>
    </g>
</svg>