<?xml version="1.0" encoding="UTF-8"?>
<svg width="62px" height="54px" viewBox="0 0 62 54" version="1.1" xmlns="http://www.w3.org/2000/svg" xmlns:xlink="http://www.w3.org/1999/xlink">
    <!-- Generator: Sketch 60 (88103) - https://sketch.com -->
    <title>图标-02拍身份证</title>
    <desc>Created with Sketch.</desc>
    <defs>
        <linearGradient x1="50%" y1="0%" x2="50%" y2="100%" id="linearGradient-1">
            <stop stop-color="#FFD6A1" offset="0%"></stop>
            <stop stop-color="#FF9A5B" offset="100%"></stop>
        </linearGradient>
        <linearGradient x1="50%" y1="0%" x2="50%" y2="100%" id="linearGradient-2">
            <stop stop-color="#FFD6A1" offset="0%"></stop>
            <stop stop-color="#FF9A5B" offset="100%"></stop>
        </linearGradient>
    </defs>
    <g id="一手房业务" stroke="none" stroke-width="1" fill="none" fill-rule="evenodd">
        <g id="04人员信息" transform="translate(-344.000000, -176.000000)">
            <g id="编组备份-3" transform="translate(0.000000, 130.000000)">
                <g id="图标-02拍身份证" transform="translate(344.000000, 46.483516)">
                    <path d="M32.7225045,9.0306632e-07 C33.4119496,-0.000569789936 34.0729575,0.269368 34.5604436,0.749320815 L38.2369011,4.36865562 C38.7240541,4.84859531 39.3852675,5.11837502 40.0748398,5.11854623 L46.798666,5.11854623 C49.6701913,5.11854623 51.9985177,7.41102002 51.9985177,10.2382332 L51.9988265,21.674862 C50.8150806,21.4325989 49.5888057,21.3053023 48.3324687,21.3053023 C44.3507882,21.3053023 40.6710606,22.5839097 37.6901518,24.7486199 C37.6962311,24.6063409 37.6989256,24.4626659 37.6989256,24.3183711 C37.6989256,17.9562855 32.4607713,12.7983622 25.9992591,12.7983622 C19.5377469,12.7983622 14.2995926,17.9557148 14.2995926,24.3178004 C14.2995926,30.679886 19.5377469,35.8378094 25.9992591,35.8378094 C27.7353747,35.8378094 29.3831736,35.4654899 30.8647812,34.7975197 C30.5166444,36.1773808 30.3324687,37.6211686 30.3324687,39.1075001 C30.3324687,40.6293401 30.5255494,42.1065792 30.888805,43.5165632 L5.19985177,43.5164835 C2.32832649,43.5164835 0,41.2240097 0,38.3967966 L0,10.2388038 C0,7.41102002 2.32832649,5.11911692 5.19985177,5.11911692 L11.9230976,5.11911692 C12.6125423,5.11911692 13.2735502,4.84917913 13.7610363,4.36922631 L17.4374938,0.749891508 C17.9246468,0.269951819 18.5858602,0.000172110967 19.2754325,9.0306632e-07 L32.7225045,9.0306632e-07 Z M25.9992591,16.6385548 C30.3071274,16.6368433 33.8001974,20.0735566 33.8019391,24.314947 C33.8036795,28.5563374 30.3129308,31.9959041 26.0050625,31.9976162 L25.9986787,31.9976162 C21.6908105,31.9976162 18.1989011,28.5591908 18.1989011,24.3178004 C18.1994814,20.0769807 21.6913908,16.6385548 25.9992591,16.6385548 Z M42.8987774,10.2388041 C41.4630147,10.2388041 40.2988515,11.3847556 40.2988515,12.7983622 C40.2988515,14.2119687 41.4630147,15.358491 42.8987774,15.358491 C44.33454,15.3579203 45.4981229,14.2113981 45.4975428,12.7977915 C45.4969622,11.3847556 44.3339597,10.2393748 42.8987774,10.2388041 Z" id="形状结合" fill="url(#linearGradient-1)" fill-rule="nonzero"></path>
                    <ellipse id="椭圆形" fill="url(#linearGradient-2)" fill-rule="nonzero" cx="47.5" cy="39.0659341" rx="14.5" ry="14.3406593"></ellipse>
                    <path d="M48,32.6373626 C49.0309315,32.6373626 49.8666667,33.4639139 49.8666667,34.4835165 L49.8666667,37.7142857 L53.1333333,37.7142857 C54.1642649,37.7142857 55,38.5408369 55,39.5604396 C55,40.5800422 54.1642649,41.4065934 53.1333333,41.4065934 L49.8666667,41.4065934 L49.8666667,44.6373626 C49.8666667,45.6569653 49.0309315,46.4835165 48,46.4835165 C46.9690685,46.4835165 46.1333333,45.6569653 46.1333333,44.6373626 L46.1324,41.4065934 L42.8666667,41.4065934 C41.8357351,41.4065934 41,40.5800422 41,39.5604396 C41,38.5408369 41.8357351,37.7142857 42.8666667,37.7142857 L46.1333333,37.7142857 L46.1333333,34.4835165 C46.1333333,33.4639139 46.9690685,32.6373626 48,32.6373626 Z" id="路径" fill="#FFFFFF"></path>
                </g>
            </g>
        </g>
    </g>
</svg>