<?xml version="1.0" encoding="UTF-8"?>
<svg width="652px" height="442px" viewBox="0 0 652 442" version="1.1" xmlns="http://www.w3.org/2000/svg" xmlns:xlink="http://www.w3.org/1999/xlink">
    <!-- Generator: Sketch 60 (88103) - https://sketch.com -->
    <title>框</title>
    <desc>Created with Sketch.</desc>
    <g id="一手房业务" stroke="none" stroke-width="1" fill="none" fill-rule="evenodd">
        <g id="06拍身份证01" transform="translate(-49.000000, -157.000000)">
            <g id="框" transform="translate(49.000000, 157.000000)">
                <rect id="矩形" stroke="#E5E5E5" fill-opacity="0.17" fill="#000000" stroke-linecap="square" x="2.5" y="2.5" width="647" height="437" rx="30"></rect>
                <path d="M0,381.5 L5,381.5 L5,409.5 C5,424.535952 17.0671572,436.753469 32.0452372,436.996316 L32.5,437 L65.5,437 L65.5,442 L32.5,442 C14.7302382,442 0.291354763,427.738814 0.00435407145,410.037447 L0,409.5 L0,381.5 Z M652,381.5 L652,409.5 C652,427.449254 637.449254,442 619.5,442 L619.5,442 L580.5,442 L580.5,437 L619.5,437 C634.535952,437 646.753469,424.932843 646.996316,409.954763 L647,409.5 L647,381.5 L652,381.5 Z M619.5,0 C637.449254,0 652,14.5507456 652,32.5 L652,32.5 L652,65.5 L647,65.5 L647,32.5 C647,17.4640477 634.932843,5.24653095 619.954763,5.00368421 L619.5,5 L580.5,5 L580.5,0 Z M65.5,0 L65.5,5 L32.5,5 C17.4640477,5 5.24653095,17.0671572 5.00368421,32.0452372 L5,32.5 L5,65.5 L0,65.5 L0,32.5 C0,14.7302382 14.2611858,0.291354763 31.9625531,0.00435407145 L32.5,0 L65.5,0 Z" id="形状结合" fill="#E5E5E5" fill-rule="nonzero"></path>
                <g id="人-(4)" transform="translate(415.000000, 104.000000)" fill-rule="nonzero" opacity="0.702822731" stroke="#FFFFFF" stroke-width="5">
                    <path d="M163.226338,150.117557 L123.900165,133.525793 C123.900165,133.525793 116.400009,130.373643 113.486604,127.27377 C111.614012,125.280893 111.749307,120.579749 113.406559,114.574745 C115.063593,108.569506 135.224029,84.1649504 135.224029,61.9962882 C135.224029,27.7592192 114.432797,0 88.7879223,0 C63.1447872,0 42.3555134,27.7592192 42.3555134,61.998172 C42.3555134,83.2312678 60.3205643,108.544309 62.537266,113.145139 C64.755708,117.745969 64.2156166,124.758125 62.4641808,126.882165 C59.8339818,130.072698 50.2243588,133.271238 50.2243588,133.271238 L14.7719214,150.376115 C6.4895788,153.597732 0,162.054565 0,171.595788 L0,184.131389 C0,194.544364 7.81185631,192.906122 17.4125612,192.906122 L160.585481,192.906122 C170.188144,192.906122 178,194.544599 178,184.131389 L178,171.595788 C178,162.052681 171.510421,153.33729 163.226338,150.117557" id="路径"></path>
                </g>
            </g>
        </g>
    </g>
</svg>