<?xml version="1.0" encoding="UTF-8"?>
<svg width="60px" height="61px" viewBox="0 0 60 61" version="1.1" xmlns="http://www.w3.org/2000/svg" xmlns:xlink="http://www.w3.org/1999/xlink">
    <!-- Generator: Sketch 60 (88103) - https://sketch.com -->
    <title>图标-03分享</title>
    <desc>Created with Sketch.</desc>
    <defs>
        <linearGradient x1="50%" y1="0%" x2="50%" y2="98.2210726%" id="linearGradient-1">
            <stop stop-color="#B4F9FB" offset="0%"></stop>
            <stop stop-color="#36AEBD" offset="100%"></stop>
        </linearGradient>
    </defs>
    <g id="一手房业务" stroke="none" stroke-width="1" fill="none" fill-rule="evenodd">
        <g id="04人员信息" transform="translate(-568.000000, -173.000000)" fill-rule="nonzero">
            <g id="编组备份-3" transform="translate(0.000000, 130.000000)">
                <g id="图标-03分享" transform="translate(568.000000, 43.516484)">
                    <g id="分享">
                        <rect id="矩形" fill="url(#linearGradient-1)" x="0" y="0" width="60" height="60" rx="20"></rect>
                        <path d="M42,33.9999875 C40.7999941,33.9999875 40,34.7999855 40,35.9999867 L40,37.9999859 C40,39.1999844 39.1999953,39.9999852 38,39.9999852 L22,39.9999852 C20.8000074,39.9999852 20,39.1999871 20,37.9999859 L20,22 C20,20.7999992 20.8000047,20 22,20 L24,20 C25.2000035,20 26,19.2000004 26,18 C26,16.8000008 25.2000062,16 24,16 L22,16 C18.6000053,16 16,18.5999971 16,22 L16,38 C16,41.3999947 18.5999971,44 22,44 L38,44 C41.3999947,44 44,41.4000029 44,38 L44,36 C44,34.7999965 43.200002,34 42,34 L42,33.9999875 Z M42.0302869,16 L32.1817203,16 L36.3181215,20.1562519 C32.1817203,23.1249956 29.6210832,27.8750017 29.0301649,32.8229168 C28.8331933,33.8124998 29.6210806,34.8020856 30.8029091,35 L30.9998807,35 C31.9847374,35 32.7726248,34.2083341 32.9695967,33.2187484 C33.5605123,29.0624964 35.7271975,25.3020896 39.2726805,22.729164 L44,27.4791701 L44,17.5833399 C44,16.791674 43.2121152,16 42.030284,16 L42.0302869,16 Z" id="形状" fill="#FFFFFF"></path>
                    </g>
                </g>
            </g>
        </g>
    </g>
</svg>