<?xml version="1.0" encoding="UTF-8"?>
<svg width="80px" height="80px" viewBox="0 0 80 80" version="1.1" xmlns="http://www.w3.org/2000/svg" xmlns:xlink="http://www.w3.org/1999/xlink">
    <!-- Generator: Sketch 60 (88103) - https://sketch.com -->
    <title>图标-03担保合同</title>
    <desc>Created with Sketch.</desc>
    <defs>
        <linearGradient x1="50%" y1="0%" x2="50%" y2="98.2210726%" id="linearGradient-1">
            <stop stop-color="#B4F9FB" offset="0%"></stop>
            <stop stop-color="#36AEBD" offset="100%"></stop>
        </linearGradient>
    </defs>
    <g id="一手房业务" stroke="none" stroke-width="1" fill="none" fill-rule="evenodd">
        <g id="03完善信息" transform="translate(-65.000000, -498.000000)">
            <g id="编组备份" transform="translate(30.000000, 328.000000)">
                <g id="编组备份-2" transform="translate(32.000000, 140.000000)">
                    <g id="图标-03担保合同" transform="translate(3.000000, 30.000000)">
                        <circle id="椭圆形" fill="#E6F9FF" cx="40" cy="40" r="40"></circle>
                        <g id="定价审批-icon" transform="translate(25.000000, 20.000000)">
                            <rect id="矩形" fill="url(#linearGradient-1)" fill-rule="nonzero" x="0" y="2.72340426" width="30.6382979" height="36.7659574" rx="4"></rect>
                            <rect id="矩形" fill="#A4EBEE" style="mix-blend-mode: multiply;" opacity="0.737258185" x="6.12765957" y="0" width="18.3829787" height="6.80851064" rx="3.40425532"></rect>
                            <g id="合同" transform="translate(7.489362, 10.936170)" fill="#FFFFFF" fill-rule="nonzero">
                                <path d="M4.08510638,4.42553257 L4.08510638,4.425532 C4.08510638,6.86968754 6.06648487,8.85106383 8.5106383,8.85106383 C10.9547939,8.85106383 12.9361702,6.86968538 12.9361702,4.425532 C12.9361702,4.42553196 12.9361702,4.42553187 12.9361702,4.42553183 L12.9361702,4.42553183 C12.9361702,1.98137629 10.9547917,0 8.5106383,0 C6.06648271,0 4.08510638,1.98137845 4.08510638,4.42553183 L4.08510638,4.42553257 Z" id="路径"></path>
                                <polygon id="路径" points="6.12765957 6.80851064 10.893617 6.80851064 10.893617 12.2553191 6.12765957 12.2553191"></polygon>
                                <path d="M15.8607354,17.7317269 L1.16055477,17.7317269 C0.541598726,17.7317269 1.36000919e-05,17.1929682 1.36000919e-05,16.5772423 L1.36000919e-05,12.7289527 C1.36000919e-05,12.1132268 0.541598726,11.5744681 1.16055477,11.5744681 L15.8607354,11.5744681 C16.4796915,11.5744681 17.0212766,12.1132268 17.0212766,12.7289527 L17.0212766,16.5772423 C17.0212766,17.1929682 16.4796915,17.7317269 15.8607354,17.7317269 Z M16.2475832,20.4255319 L0.77369336,20.4255319 C0.309476891,20.4255319 0,20.1176701 0,19.6558762 C0,19.1940824 0.309476891,18.8862206 0.77369336,18.8862206 L16.2475832,18.8862206 C16.7117997,18.8862206 17.0212766,19.1940824 17.0212766,19.6558762 C17.0212766,20.0407052 16.7117997,20.4255319 16.2475832,20.4255319 Z" id="形状"></path>
                            </g>
                        </g>
                    </g>
                </g>
            </g>
        </g>
    </g>
</svg>