<?xml version="1.0" encoding="UTF-8"?>
<svg width="80px" height="80px" viewBox="0 0 80 80" version="1.1" xmlns="http://www.w3.org/2000/svg" xmlns:xlink="http://www.w3.org/1999/xlink">
    <!-- Generator: Sketch 60 (88103) - https://sketch.com -->
    <title>图标-04影像信息</title>
    <desc>Created with Sketch.</desc>
    <defs>
        <linearGradient x1="50%" y1="0%" x2="50%" y2="100%" id="linearGradient-1">
            <stop stop-color="#F3AD76" offset="0%"></stop>
            <stop stop-color="#EC6760" offset="100%"></stop>
        </linearGradient>
    </defs>
    <g id="一手房业务" stroke="none" stroke-width="1" fill="none" fill-rule="evenodd">
        <g id="03完善信息" transform="translate(-65.000000, -669.000000)">
            <g id="编组备份-3" transform="translate(30.000000, 639.000000)">
                <g id="图标-04影像信息" transform="translate(35.000000, 30.000000)">
                    <circle id="椭圆形" fill="#FFE7DF" cx="40" cy="40" r="40"></circle>
                    <ellipse id="椭圆形" fill="#FFFFFF" cx="40.5" cy="41.5" rx="10.5" ry="9.5"></ellipse>
                    <ellipse id="椭圆形" fill="#FFFFFF" cx="50.5" cy="34" rx="3.5" ry="3"></ellipse>
                    <g id="影像" transform="translate(22.000000, 25.000000)" fill="url(#linearGradient-1)" fill-rule="nonzero">
                        <path d="M22.6546877,0 C23.1320091,0 23.589643,0.190044643 23.927143,0.527946429 L26.4724555,3.07607143 L26.4724554,3.07607128 C26.8097247,3.41396382 27.2675009,3.60389717 27.7449107,3.60401771 L32.4,3.60401771 C34.3880357,3.60401771 36,5.21799092 36,7.20843735 L36,27.0329463 C36,29.0237945 34.3880357,30.6373659 32.4,30.6373659 L3.6,30.6373659 C1.61196429,30.6373659 0,29.0233927 0,27.0329463 L0,7.20883913 C0,5.21799092 1.61196429,3.60441949 3.6,3.60441949 L8.2546875,3.60441949 C8.73200893,3.60441949 9.18964286,3.41437485 9.52714286,3.07647306 L12.0724554,0.528348063 L12.0724552,0.528348214 C12.4097246,0.19045567 12.8675007,0.000522321429 13.3449106,0.000401785714 L22.6546873,0.000401785714 L22.6546877,0 Z M18.0000002,9.01084821 C13.526518,9.01084821 9.90000015,12.6417857 9.90000015,17.1208929 C9.90000015,21.6 13.526518,25.2313393 18.0000002,25.2313393 C22.4734823,25.2313393 26.1000002,21.6004018 26.1000002,17.1212946 C26.1000002,12.6421875 22.4734823,9.01084821 18.0000002,9.01084821 Z M18.0000002,11.7144638 C20.9824555,11.7132589 23.4008037,14.1328125 23.4020095,17.1188839 C23.4032144,20.1049554 20.9864734,22.5265179 18.004018,22.5277232 L17.9995984,22.5277232 C15.017143,22.5277232 12.5995984,20.1069643 12.5995984,17.1208929 C12.6000002,14.1352232 15.0175448,11.7144638 18.0000002,11.7144638 L18.0000002,11.7144638 Z M29.7000002,7.20883929 C28.7059823,7.20883929 27.9000002,8.015625 27.9000002,9.01084821 C27.9000002,10.0060714 28.7059823,10.8132589 29.7000002,10.8132589 C30.694018,10.8128571 31.4995984,10.0056696 31.4991967,9.01044643 C31.4987948,8.015625 30.6936162,7.20924107 29.7000002,7.20883929 L29.7000002,7.20883929 Z" id="形状"></path>
                    </g>
                </g>
            </g>
        </g>
    </g>
</svg>