<?xml version="1.0" encoding="UTF-8"?>
<svg width="80px" height="80px" viewBox="0 0 80 80" version="1.1" xmlns="http://www.w3.org/2000/svg" xmlns:xlink="http://www.w3.org/1999/xlink">
    <!-- Generator: Sketch 60 (88103) - https://sketch.com -->
    <title>图标-02贷款申请信息</title>
    <desc>Created with Sketch.</desc>
    <defs>
        <linearGradient x1="50%" y1="0%" x2="50%" y2="100%" id="linearGradient-1">
            <stop stop-color="#FFD6A1" offset="0%"></stop>
            <stop stop-color="#FF9A5B" offset="100%"></stop>
        </linearGradient>
    </defs>
    <g id="一手房业务" stroke="none" stroke-width="1" fill="none" fill-rule="evenodd">
        <g id="03完善信息" transform="translate(-65.000000, -361.000000)">
            <g id="编组备份" transform="translate(30.000000, 328.000000)">
                <g id="图标-02贷款申请信息" transform="translate(35.000000, 33.000000)">
                    <circle id="椭圆形" fill="#FFF1E6" cx="40" cy="40" r="40"></circle>
                    <g id="贷款申请" transform="translate(24.000000, 20.000000)">
                        <rect id="矩形" fill="url(#linearGradient-1)" fill-rule="nonzero" x="0" y="3" width="32" height="38" rx="4"></rect>
                        <rect id="矩形" fill="#FFA162" opacity="0.737258185" x="7" y="0" width="19" height="7" rx="3.5"></rect>
                        <path d="M26,3.4 C26,5.3882251 24.3882251,7 22.4,7 L10.6,7 C8.6117749,7 7,5.3882251 7,3.4 C7,3.26479376 7.00745361,3.1313284 7.02197235,2.99999242 L25.9780277,2.99999242 C25.9925464,3.1313284 26,3.26479376 26,3.4 Z" id="形状结合" fill="#FFA061"></path>
                        <circle id="椭圆形" fill="#FFFFFF" cx="16" cy="22" r="11"></circle>
                        <path d="M19.9622473,22.3826792 L17.3969733,22.3826792 L17.3969733,22.3826792 L17.3969733,23.2268139 L19.9603363,23.2268139 C20.632795,23.2268139 21.1779305,23.7719494 21.1779305,24.4444081 C21.1779305,25.1168668 20.632795,25.6620023 19.9603363,25.6620023 L17.3969733,25.6620023 L17.3969733,25.6620023 L17.3969733,26.5919017 C17.3969733,27.3695729 16.7665462,28 15.988875,28 C15.2112038,28 14.5807767,27.3695729 14.5807767,26.5919017 L14.5807767,25.6620023 L14.5807767,25.6620023 L12.1232424,25.6620023 C11.4504298,25.6620023 10.9050075,25.11658 10.9050075,24.4437674 C10.9050075,23.7709548 11.4504298,23.2255324 12.1232424,23.2255324 L14.5807767,23.2255324 L14.5807767,23.2255324 L14.5807767,22.3813977 L12.12005,22.3813977 C11.4490005,22.3813977 10.9050075,21.8374047 10.9050075,21.1663552 C10.9050075,20.4953058 11.4490005,19.9513127 12.12005,19.9513127 L13.052465,19.9513127 L13.052465,19.9513127 L10.8053639,17.1829279 C10.440648,16.7336051 10.5092355,16.0736964 10.9585583,15.7089806 C11.0120787,15.665538 11.0697552,15.6274827 11.1307495,15.5953677 C11.8042832,15.2407355 12.6298359,15.3623919 13.1724401,15.8962385 L16.0035241,18.6816286 L16.0035241,18.6816286 L18.7661899,15.9198383 C19.3144187,15.3717833 20.1538952,15.2406377 20.8431599,15.5953677 C21.3324795,15.847196 21.5250042,16.448015 21.2731759,16.9373346 C21.2330479,17.0153061 21.1828028,17.0876395 21.1237426,17.1524602 L18.5736209,19.9513127 L18.5736209,19.9513127 L19.9622367,19.9513127 C20.6336409,19.9513127 21.1779223,20.4955918 21.1779252,21.166996 C21.1779281,21.8383964 20.6336529,22.3826763 19.9622525,22.3826792 C19.9622508,22.3826792 19.962249,22.3826792 19.9622473,22.3826792 Z" id="路径" fill="#FFA264" opacity="0.970958891"></path>
                    </g>
                </g>
            </g>
        </g>
    </g>
</svg>