<?xml version="1.0" encoding="UTF-8"?>
<svg width="30px" height="30px" viewBox="0 0 30 30" version="1.1" xmlns="http://www.w3.org/2000/svg" xmlns:xlink="http://www.w3.org/1999/xlink">
    <!-- Generator: Sketch 60 (88103) - https://sketch.com -->
    <title>路径</title>
    <desc>Created with Sketch.</desc>
    <g id="一手房业务" stroke="none" stroke-width="1" fill="none" fill-rule="evenodd">
        <g id="05完善信息-8暂存成功" transform="translate(-690.000000, -1088.000000)" fill="#B3B6C1">
            <g id="编组-5" transform="translate(0.000000, 773.000000)">
                <g id="编组-4" transform="translate(0.000000, 277.000000)">
                    <path d="M705,38 C705.828427,38 706.5,38.6715729 706.5,39.5 L706.5,51.5 L718.5,51.5 C719.328427,51.5 720,52.1715729 720,53 C720,53.8284271 719.328427,54.5 718.5,54.5 L706.5,54.5 L706.5,66.5 C706.5,67.3284271 705.828427,68 705,68 C704.171573,68 703.5,67.3284271 703.5,66.5 L703.499,54.5 L691.5,54.5 C690.671573,54.5 690,53.8284271 690,53 C690,52.1715729 690.671573,51.5 691.5,51.5 L703.5,51.5 L703.5,39.5 C703.5,38.6715729 704.171573,38 705,38 Z" id="路径"></path>
                </g>
            </g>
        </g>
    </g>
</svg>