<?xml version="1.0" encoding="UTF-8"?>
<svg width="154px" height="154px" viewBox="0 0 154 154" version="1.1" xmlns="http://www.w3.org/2000/svg" xmlns:xlink="http://www.w3.org/1999/xlink">
    <!-- Generator: Sketch 60 (88103) - https://sketch.com -->
    <title>二维码中间logo</title>
    <desc>Created with Sketch.</desc>
    <g id="一手房业务" stroke="none" stroke-width="1" fill="none" fill-rule="evenodd">
        <g id="01生成二维码" transform="translate(-291.000000, -394.000000)">
            <g id="编组-2" transform="translate(30.000000, 152.000000)">
                <g id="二维码中间logo" transform="translate(261.000000, 242.000000)">
                    <circle id="椭圆形" fill="#FFFFFF" cx="77" cy="77" r="77"></circle>
                    <path d="M56,39 L56,76 L56.0846433,76.0008519 C56.069089,76.331948 56.0612245,76.6650556 56.0612245,77 C56.0612245,88.5641664 65.4358336,97.9387755 77,97.9387755 C83.4169703,97.9387755 89.1597421,95.0521891 93.0006588,90.5066732 L93,115 L46,115 C42.1340068,115 39,111.865993 39,108 L39,46 C39,42.1340068 42.1340068,39 46,39 L56,39 Z M108,39 C111.865993,39 115,42.1340068 115,46 L115,108 C115,111.865993 111.865993,115 108,115 L98,115 L98,78 L97.9153097,78.0001464 C97.9308952,77.6687215 97.9387755,77.335281 97.9387755,77 C97.9387755,65.4358336 88.5641664,56.0612245 77,56.0612245 C70.5835027,56.0612245 64.8411043,58.9473854 61.0001904,63.4923218 L61,39 L108,39 Z M83,68 C83.5522847,68 84,68.4477153 84,69 L84,83 C84,83.5522847 83.5522847,84 83,84 L69,84 C68.4477153,84 68,83.5522847 68,83 L68,69 C68,68.4477153 68.4477153,68 69,68 L83,68 Z" id="形状结合" fill="#3B86F7"></path>
                </g>
            </g>
        </g>
    </g>
</svg>