<?xml version="1.0" encoding="UTF-8"?>
<svg width="70px" height="70px" viewBox="0 0 70 70" version="1.1" xmlns="http://www.w3.org/2000/svg" xmlns:xlink="http://www.w3.org/1999/xlink">
    <!-- Generator: Sketch 60 (88103) - https://sketch.com -->
    <title>关  闭</title>
    <desc>Created with Sketch.</desc>
    <g id="一手房业务" stroke="none" stroke-width="1" fill="none" fill-rule="evenodd">
        <g id="03完善信息2分享" transform="translate(-340.000000, -1197.000000)" fill="#FFFFFF" fill-rule="nonzero">
            <g id="弹出">
                <g id="关--闭" transform="translate(340.000000, 1197.000000)">
                    <path d="M34.9524863,69.9049726 C15.6453986,69.9049726 0,54.259574 0,34.9524863 C0,15.6453986 15.6453986,0 34.9524863,0 C54.259574,0 69.9049726,15.6453986 69.9049726,34.9524863 C69.9049726,54.259574 54.259574,69.9049726 34.9524863,69.9049726 Z M34.9524863,3.32880822 C17.5317233,3.32880822 3.32880822,17.5317233 3.32880822,34.9524863 C3.32880822,52.3732493 17.5317233,66.5761644 34.9524863,66.5761644 C52.3732493,66.5761644 66.5761644,52.3732493 66.5761644,34.9524863 C66.5761644,17.5317233 52.3732493,3.32880822 34.9524863,3.32880822 Z" id="形状"></path>
                    <path d="M36.5217391,34.5809704 L47.284184,23.8185255 C47.8134846,23.289225 47.8134846,22.4070573 47.284184,21.78954 L47.1959672,21.7013233 C46.6666667,21.1720227 45.7844991,21.1720227 45.2551985,21.7013233 L34.4927536,32.5519849 L23.7303088,21.78954 C23.2010082,21.2602394 22.3188406,21.2602394 21.78954,21.78954 L21.7013233,21.8777568 C21.1720227,22.4070573 21.1720227,23.289225 21.7013233,23.9067423 L32.4637681,34.5809704 L21.7013233,45.3434152 C21.1720227,45.8727158 21.1720227,46.7548834 21.7013233,47.3724008 L21.78954,47.4606175 C22.3188406,47.9899181 23.2010082,47.9899181 23.7303088,47.4606175 L34.4927536,36.6099559 L45.2551985,47.3724008 C45.7844991,47.9017013 46.6666667,47.9017013 47.1959672,47.3724008 L47.284184,47.284184 C47.8134846,46.7548834 47.8134846,45.8727158 47.284184,45.2551985 L36.5217391,34.5809704 Z" id="路径"></path>
                </g>
            </g>
        </g>
    </g>
</svg>