<?xml version="1.0" encoding="UTF-8"?>
<svg width="60px" height="60px" viewBox="0 0 60 60" version="1.1" xmlns="http://www.w3.org/2000/svg" xmlns:xlink="http://www.w3.org/1999/xlink">
    <!-- Generator: Sketch 60 (88103) - https://sketch.com -->
    <title>复制链接 </title>
    <desc>Created with Sketch.</desc>
    <g id="一手房业务" stroke="none" stroke-width="1" fill="none" fill-rule="evenodd">
        <g id="03完善信息2分享" transform="translate(-532.000000, -1004.000000)">
            <g id="弹出">
                <g id="复制链接-" transform="translate(532.000000, 1004.000000)">
                    <path d="M30.0000349,60.0000698 C13.4314609,60.0000698 0,46.5686089 0,30.0000349 C0,13.4314609 13.4314609,0 30.0000349,0 C46.5686089,0 60.0000698,13.4314609 60.0000698,30.0000349 C60.0000698,46.5686089 46.5686089,60.0000698 30.0000349,60.0000698 Z" id="路径" fill="#5EACFB" fill-rule="nonzero"></path>
                    <path d="M44.5489386,15.5852525 L44.4143474,15.4506613 C41.312836,12.3497769 36.2334199,12.3497769 33.1318147,15.4506613 L25.9397751,22.6413533 C22.8382637,25.7422378 22.8382637,30.8207573 25.9397751,33.9216008 L26.0743663,34.056192 C26.3300269,34.3117266 26.6058134,34.5471988 26.8883926,34.7624819 L29.5190265,32.1323518 C29.2095293,31.9507796 28.9202212,31.7354959 28.6578322,31.47323 L28.523241,31.3386388 C26.8413523,29.6570665 26.8413523,26.912661 28.523241,25.230995 L35.7153392,18.0404202 C37.3972923,16.3587835 40.1422018,16.3587835 41.8241549,18.0404202 L41.9587461,18.1749487 C43.6406992,19.856521 43.6406992,22.6009265 41.9587461,24.2824753 L38.7091798,27.5314088 C39.2743377,28.923803 39.5434562,30.4103457 39.5165382,31.8968885 L44.5489327,26.8655018 C47.6504441,23.7646173 47.6504441,18.6860977 44.5489327,15.5852543 L44.5489386,15.5852525 Z" id="路径" fill="#FFFFFF"></path>
                    <path d="M33.9189067,25.943995 C33.663246,25.6883971 33.3874596,25.4529255 33.1048803,25.2377051 L30.4743109,27.8677707 C30.7837454,28.049343 31.0730518,28.2646266 31.3354466,28.5268926 L31.4700378,28.6614837 C33.1519265,30.343056 33.1519265,33.0874615 31.4700378,34.7691276 L24.2779982,41.9597023 C22.596045,43.6413391 19.8511356,43.6413391 18.1691825,41.9597023 L18.0345913,41.8251739 C16.3526382,40.1436016 16.3526382,37.3991961 18.0345913,35.7176472 L21.2908841,32.4687138 C20.7257263,31.0763196 20.4566078,29.5897768 20.4835258,28.1032341 L15.4511313,33.1346208 C12.3496198,36.2355053 12.3496198,41.3140248 15.4511313,44.4148683 L15.5857224,44.5494595 C18.6872339,47.6503439 23.7666499,47.6503439 26.8682551,44.5494595 L34.0602947,37.3588261 C37.1618061,34.2579416 37.1618061,29.179422 34.0602947,26.0785786 L33.918974,25.9439874 L33.9189067,25.943995 Z" id="路径" fill="#FFFFFF"></path>
                </g>
            </g>
        </g>
    </g>
</svg>