<?xml version="1.0" encoding="UTF-8"?>
<svg width="32px" height="32px" viewBox="0 0 32 32" version="1.1" xmlns="http://www.w3.org/2000/svg" xmlns:xlink="http://www.w3.org/1999/xlink">
    <!-- Generator: Sketch 60 (88103) - https://sketch.com -->
    <title>编组 2</title>
    <desc>Created with Sketch.</desc>
    <g id="一手房业务" stroke="none" stroke-width="1" fill="none" fill-rule="evenodd">
        <g id="02进件4搜索" transform="translate(-558.000000, -71.000000)">
            <g id="导航栏">
                <g id="编组-2" transform="translate(558.000000, 71.000000)">
                    <circle id="椭圆形" fill="#AFB3B6" cx="16" cy="16" r="16"></circle>
                    <g id="差-" transform="translate(8.000000, 8.000000)" fill="#FFFFFF" fill-rule="nonzero">
                        <path d="M2.29495295,14.7285833 C1.97787198,15.0438968 1.46629951,15.0455142 1.14723244,14.7322119 C0.872289796,14.4567691 0.565228398,13.6581584 0.840458956,13.3830041 L6.59945126,7.96875 L0.840458956,2.24182296 C0.543385782,1.94547027 0.889382378,1.46430021 1.18560878,1.16709706 C1.18834493,1.1643519 1.19110205,1.16162772 1.19387988,1.15892477 C1.50041037,0.860888963 1.99238699,0.635439235 2.29495294,0.9375 L8,6.6342937 L13.7301998,0.9375 C14.2647006,0.886836227 14.6337804,0.963555908 14.8374392,1.16765905 C15.1333718,1.46579333 15.3952088,1.9458297 15.0983051,2.24182296 L9.39796488,7.96875 L14.8380216,13.3830041 C14.9718879,13.97987 14.9400303,14.3773217 14.7424488,14.5753593 C14.435855,14.8737344 13.7699816,15.080721 13.4673524,14.7783208 L8,9.57332944 L2.29495295,14.7285833 Z" id="路径"></path>
                    </g>
                </g>
            </g>
        </g>
    </g>
</svg>