<?xml version="1.0" encoding="UTF-8"?>
<svg width="27px" height="26px" viewBox="0 0 27 26" version="1.1" xmlns="http://www.w3.org/2000/svg" xmlns:xlink="http://www.w3.org/1999/xlink">
    <!-- Generator: Sketch 60 (88103) - https://sketch.com -->
    <title>形状</title>
    <desc>Created with Sketch.</desc>
    <g id="一手房业务" stroke="none" stroke-width="1" fill="none" fill-rule="evenodd">
        <g id="02进件4搜索" transform="translate(-51.000000, -74.000000)" fill="#999999" fill-rule="nonzero">
            <g id="导航栏">
                <path d="M77,97.8118728 L72.2894454,93.0897282 C74.1094458,91.0303237 74.7900001,88.673259 74.7900001,85.8415712 C74.7900001,79.2772098 69.4599884,74 62.8300039,74 C56.1999938,74 51,79.4059402 51,85.9703016 C51,92.534663 56.3300116,97.8118728 62.9599961,97.8118728 C65.820003,97.8118728 68.5499921,96.7821693 70.6299947,95.1089154 L75.1800022,99.7425748 C75.4400018,100 75.7000015,100 75.9600012,100 C76.2200009,100 76.4800006,99.8712871 76.7400003,99.7425748 C77,99.4851495 77.1668053,99.1173643 77.2829577,98.9143022 C77.3991101,98.7112402 77.3991101,98.2651988 77.0811534,97.9103502 L77,97.8118728 Z M63,95 C58.0799899,95 54,90.9200101 54,86 C54,81.0799899 57.9599972,77 63,77 C67.9200101,77 72,81.0799899 72,86 C72,90.9200101 67.9200101,95 63,95 Z" id="形状"></path>
            </g>
        </g>
    </g>
</svg>