<?xml version="1.0" encoding="UTF-8"?>
<svg width="34px" height="34px" viewBox="0 0 34 34" version="1.1" xmlns="http://www.w3.org/2000/svg" xmlns:xlink="http://www.w3.org/1999/xlink">
    <!-- Generator: Sketch 60 (88103) - https://sketch.com -->
    <title>分享</title>
    <desc>Created with Sketch.</desc>
    <g id="一手房业务" stroke="none" stroke-width="1" fill="none" fill-rule="evenodd">
        <g id="03完善信息" transform="translate(-680.000000, -74.000000)" fill="#121314" fill-rule="nonzero">
            <g id="导航栏">
                <g id="分享" transform="translate(680.000000, 74.000000)">
                    <path d="M27.2894491,34 L6.71050442,34 L6.71050455,34 C3.0064306,33.9950417 0.00492104948,30.9935236 0,27.2894638 L0,6.7105123 L0,6.71046832 C0.00495317186,3.00639315 3.00649217,0.0048826054 6.7105815,0 L17,0 L17,0 C17.7412215,0 18.3421009,0.600879564 18.3421009,1.3421052 C18.3421009,2.08333083 17.7412215,2.6842104 17,2.6842104 L6.71054299,2.6842104 L6.71054306,2.6842104 C4.48891221,2.68913095 2.68916139,4.4888944 2.68424034,6.71051446 L2.68424034,27.289466 L2.6842403,27.2894495 C2.68915181,29.5110811 4.48890833,31.3108325 6.71054303,31.315792 L27.2894877,31.315792 L27.2894878,31.315792 C29.5111186,31.3108714 31.3108694,29.511108 31.3157905,27.2894879 L31.3157905,17.0000314 L31.3157905,17.0000312 C31.3157906,16.2588056 31.9166699,15.657926 32.6578952,15.657926 C33.3991206,15.6579261 34,16.2588056 34,17.0000312 L34,27.2894878 L34,27.2895317 C33.9950468,30.9936068 30.9935078,33.9951174 27.2894185,34 L27.2894491,34 Z" id="路径"></path>
                    <path d="M17.0046552,18.3076923 L17.0046552,18.3076923 C16.6575696,18.3064332 16.3249763,18.1683569 16.0790291,17.9234158 L16.0790292,17.9234158 C15.5678188,17.418339 15.5627909,16.5944233 16.0677984,16.0831433 C16.0715191,16.0793764 16.0752627,16.0756323 16.0790291,16.0719111 L31.7971989,0.351600924 L31.7971989,0.351600869 C32.3264535,-0.141628746 33.1552849,-0.112369108 33.6484511,0.416956401 C34.1171832,0.920059315 34.1171832,1.70000487 33.6484495,2.20310778 L17.9302797,17.923418 L17.9302797,17.923418 C17.6843322,18.1683591 17.3517404,18.3064352 17.0046536,18.3076923 L17.0046552,18.3076923 Z" id="路径"></path>
                    <path d="M32.5734273,2.61538462 L24.9650343,2.61538462 L24.9650342,2.61538462 C24.1771584,2.61538462 23.5384615,2.02991219 23.5384615,1.30769231 C23.5384615,0.585472424 24.1771584,0 24.9650342,0 L32.5734273,0 L32.5734273,0 C33.3613031,0 34,0.585472424 34,1.30769231 C34,2.02991219 33.3613031,2.61538462 32.5734273,2.61538462 L32.5734273,2.61538462 Z" id="路径"></path>
                    <path d="M31.3846154,9.0349658 L31.3846154,1.42657284 C31.3846154,0.638696846 31.9700878,0 32.6923077,0 C33.4145276,0 34,0.638696846 34,1.42657266 L34,9.03496562 C34,9.82284144 33.4145276,10.4615385 32.6923077,10.4615385 C31.9700878,10.4615385 31.3846154,9.82284162 31.3846154,9.0349658 Z" id="路径"></path>
                </g>
            </g>
        </g>
    </g>
</svg>