<?xml version="1.0" encoding="UTF-8"?>
<svg width="60px" height="59px" viewBox="0 0 60 59" version="1.1" xmlns="http://www.w3.org/2000/svg" xmlns:xlink="http://www.w3.org/1999/xlink">
    <!-- Generator: Sketch 60 (88103) - https://sketch.com -->
    <title>朋友圈</title>
    <desc>Created with Sketch.</desc>
    <g id="一手房业务" stroke="none" stroke-width="1" fill="none" fill-rule="evenodd" opacity="0.80922154">
        <g id="03完善信息2分享" transform="translate(-345.000000, -1005.000000)" fill-rule="nonzero">
            <g id="弹出">
                <g id="朋友圈" transform="translate(345.000000, 1004.000000)">
                    <path d="M39.9690699,2.73197923 C39.9690699,2.73197923 35.9967958,1.15960761 29.9968708,1.15960761 C23.9972154,1.15960761 20.0249647,2.96066491 20.0249647,2.96066491 L39.9751637,22.8081828 L39.9691192,2.73195631 L39.9690699,2.73197923 Z" id="路径" fill="#FB5453"></path>
                    <path d="M51.2766222,9.90486414 C46.8728456,5.82152189 42.615284,4.36679311 42.615284,4.36679311 L42.4687947,31.6279186 L57.4313707,17.7681889 C57.4313707,17.7740991 55.6866578,13.9882064 51.2766761,9.90495581 L51.2766222,9.90486414 Z" id="路径" fill="#6468F1"></path>
                    <path d="M58.0532316,20.4027722 L37.481235,39.6459196 L58.2931147,39.6459196 C58.2931147,39.6459196 59.9251166,35.8134406 59.9251166,30.0215386 C59.9189299,24.2355319 58.0531847,20.4027722 58.0531847,20.4027722 L58.0532316,20.4027722 Z" id="路径" fill="#5283F0"></path>
                    <path d="M43.1285658,56.4837469 C43.1285658,56.4837469 47.1686037,54.8955066 51.5220131,50.8793962 C55.875651,46.8634978 57.4313754,42.9884912 57.4313754,42.9884912 L28.3374939,42.8531841 L43.1285658,56.4837469 L43.1285658,56.4837469 Z" id="路径" fill="#00B2FE"></path>
                    <path d="M20.0306483,58.1187796 C20.0306483,58.1187796 24.0032037,59.6908762 30.0028474,59.6908762 C36.008538,59.6908762 39.9750465,57.8898877 39.9750465,57.8898877 L20.0249647,38.0422552 L20.0306536,58.1187682 L20.0306483,58.1187796 Z" id="路径" fill="#66D020"></path>
                    <path d="M9.55442518,50.9455681 C13.9586237,55.0292599 18.2161735,56.4837079 18.2161735,56.4837079 L18.3624495,29.2225825 L3.39987349,43.0821975 C3.40584683,43.0766351 5.15055717,46.8622488 9.55439237,50.9456025 L9.55442518,50.9455681 Z" id="路径" fill="#9AD122"></path>
                    <path d="M1.70730667,20.4027722 C1.70730667,20.4027722 0.0748770403,24.2344147 0.0748770403,30.0243459 C0.0748770403,35.8145922 1.94111945,39.6459769 1.94111945,39.6459769 L22.5186825,20.4087305 L1.70727152,20.4087305 L1.70727152,20.4027722 L1.70730667,20.4027722 Z" id="路径" fill="#FFC71A"></path>
                    <path d="M17.7027745,4.36679311 C17.7027745,4.36679311 13.6626604,5.95508611 9.30921005,9.97098453 C4.95564249,13.9869517 3.39984771,17.8623479 3.39984771,17.8623479 L32.4937292,17.997377 L17.7027159,4.36679311 L17.7027745,4.36679311 Z" id="路径" fill="#FF7612"></path>
                </g>
            </g>
        </g>
    </g>
</svg>