<?xml version="1.0" encoding="UTF-8"?>
<svg width="100px" height="100px" viewBox="0 0 100 100" version="1.1" xmlns="http://www.w3.org/2000/svg" xmlns:xlink="http://www.w3.org/1999/xlink">
    <!-- Generator: Sketch 60 (88103) - https://sketch.com -->
    <title>图标-02待提交</title>
    <desc>Created with Sketch.</desc>
    <g id="页面-1" stroke="none" stroke-width="1" fill="none" fill-rule="evenodd">
        <g id="首页02" transform="translate(-325.000000, -376.000000)">
            <g id="功能" transform="translate(30.000000, 326.000000)">
                <g id="图标-02待提交" transform="translate(295.000000, 50.000000)">
                    <rect id="矩形" fill="#F6F8F9" x="0" y="0" width="100" height="100" rx="30"></rect>
                    <g id="待提交-icon" transform="translate(33.000000, 26.000000)">
                        <path d="M4.99137931,0 L31.4913793,0 C33.7005183,-8.49901461e-16 35.4913793,1.790861 35.4913793,4 L35.4913793,36.0454545 C35.4913793,42.1205868 30.5665116,47.0454545 24.4913793,47.0454545 L4.99137931,47.0454545 C2.78224031,47.0454545 0.99137931,45.2545935 0.99137931,43.0454545 L0.99137931,4 C0.99137931,1.790861 2.78224031,4.05812251e-16 4.99137931,0 Z" id="矩形" fill="#599BF8"></path>
                        <rect id="矩形" fill="#FFFFFF" x="5.17319749" y="9.40909091" width="23" height="4.18181818" rx="2.09090909"></rect>
                        <rect id="矩形备份-4" fill="#FFFFFF" x="5.17319749" y="19.8636364" width="18.8181818" height="4.18181818" rx="2.09090909"></rect>
                        <rect id="矩形备份-5" fill="#FFFFFF" x="5.17319749" y="29.2727273" width="18.8181818" height="4.18181818" rx="2.09090909"></rect>
                        <polygon id="三角形" fill="#F5C142" fill-rule="nonzero" points="36.5368339 8.36363636 45.9459248 29.2727273 27.1277429 29.2727273"></polygon>
                        <path d="M23.9913793,47.0454545 C27.5382394,45.8203194 29.6903974,44.2522208 30.4478533,42.3411587 C32.2154285,37.8815645 31.6385432,29.2727273 31.6385432,29.2727273 C31.6385432,29.2727273 35.013731,29.2727273 41.7641066,29.2727273 C41.7392128,34.8488177 39.8895612,39.2049615 36.2151517,42.3411587 C32.5407422,45.4773559 28.4661514,47.0454545 23.9913793,47.0454545 Z" id="路径-2" fill="#F5C142" fill-rule="nonzero"></path>
                    </g>
                </g>
            </g>
        </g>
    </g>
</svg>