<?xml version="1.0" encoding="UTF-8"?>
<svg width="36px" height="39px" viewBox="0 0 36 39" version="1.1" xmlns="http://www.w3.org/2000/svg" xmlns:xlink="http://www.w3.org/1999/xlink">
    <!-- Generator: Sketch 60 (88103) - https://sketch.com -->
    <title>铃铛</title>
    <desc>Created with Sketch.</desc>
    <g id="页面-1" stroke="none" stroke-width="1" fill="none" fill-rule="evenodd">
        <g id="首页02" transform="translate(-679.000000, -75.000000)" fill="#FFFFFF" fill-rule="nonzero">
            <g id="编组-4" transform="translate(679.000000, 65.000000)">
                <g id="铃铛" transform="translate(0.000000, 10.000000)">
                    <path d="M23.3668542,33.7974577 L11.4273715,33.7974577 C11.2452268,33.7974577 11.2977776,34.0277705 11.5821452,34.4861616 C11.8665986,34.944295 12.3007554,35.4478034 12.8846584,35.9988353 C13.46362,36.5496523 14.1545583,37.0530748 14.945571,37.5112941 C15.7390328,37.9696423 16.5874947,38.2000839 17.4856716,38.2000839 C17.5230544,38.2000839 17.5581599,38.1849589 17.5955428,38.1824667 C17.6329686,38.1850448 17.6678163,38.2000839 17.7052851,38.2000839 C18.6035049,38.2000839 19.4494746,37.9671071 20.2478349,37.5112941 C21.0363554,37.0506685 21.7300867,36.5471601 22.3089623,35.9988353 C22.8903302,35.4478464 23.3268502,34.9443809 23.6087685,34.4861616 C23.8933939,34.0253213 23.9482221,33.7974577 23.7635421,33.7974577 L23.3668542,33.7974577 Z M18,0 C19.1045695,-2.02906125e-16 20,0.8954305 20,2 L20.0007058,3.21220867 C20.41849,3.28565511 20.8229375,3.37799478 21.2085314,3.48829744 C22.2266771,3.82130564 23.1923579,4.3072398 24.1055308,4.95091243 C25.0187467,5.59437021 25.8096734,6.3857266 26.4834242,7.33490739 C27.1596242,8.28395927 27.6985819,9.36844882 28.1002113,10.5928877 C28.4995633,11.809979 28.706587,13.1748829 28.706587,14.6724316 C28.706587,16.2049138 28.9311849,17.7049546 29.3802518,19.1900852 C29.8294906,20.6700167 30.3684483,22.0775456 30.9923123,23.4097933 C31.6260591,24.7396347 32.2896263,25.9541908 32.9934552,27.0535475 C33.6994756,28.1529043 34.3357576,29.1019132 34.9047504,29.8982969 C35.1118171,30.1737269 35.2115906,30.4443015 35.1990437,30.7022432 C35.1841765,30.9651263 35.1168015,31.1829351 34.9970904,31.3683455 C34.8773793,31.5485567 34.7275471,31.6963264 34.5453594,31.8040491 C34.540375,31.8065843 34.5379687,31.8040491 34.5329844,31.8065843 C34.43566,31.8667406 34.3132849,31.8841 34.1910387,31.9093657 C34.128605,31.9193344 34.0713276,31.9618735 34.0088509,31.9618735 L34.0088509,31.9618735 L1.19211745,31.9618735 C1.13234785,31.9618735 1.06987121,31.9217837 1.01014458,31.9093657 C0.887726468,31.884143 0.765480232,31.8667406 0.668241837,31.8065843 L0.668241837,31.8065843 L0.658144169,31.8040491 C0.47372208,31.6963693 0.323846905,31.5485996 0.206542081,31.3683025 C0.084338814,31.1804429 0.0170067044,30.9626771 0.00192465557,30.7022432 C-0.0153917708,30.4443444 0.0843817828,30.1737699 0.291491399,29.8982969 L0.291491399,29.8982969 C0.862718626,29.099464 1.49921546,28.1504121 2.20274362,27.0535475 C2.90640069,25.9541908 3.57018271,24.7396347 4.20139439,23.4097933 C4.82504355,22.0776316 5.36413011,20.6727667 5.8157322,19.1925774 C6.26479913,17.7077046 6.48948299,16.2049568 6.48948299,14.6749667 C6.48948299,13.1773751 6.69410041,11.8124712 7.09577275,10.5953799 C7.49748807,9.37089804 8.03635979,8.28645146 8.71526683,7.33748552 C9.38381839,6.38826176 10.1772373,5.5968624 11.0881758,4.95336165 C12.003841,4.30968902 12.9694358,3.82134861 13.9899448,3.48834041 C14.3136467,3.39553342 14.6511397,3.31543898 14.9988679,3.24861358 L15,2 C15,0.8954305 15.8954305,2.02906125e-16 17,0 L18,0 Z" id="形状"></path>
                </g>
            </g>
        </g>
    </g>
</svg>