<?xml version="1.0" encoding="UTF-8"?>
<svg width="100px" height="100px" viewBox="0 0 100 100" version="1.1" xmlns="http://www.w3.org/2000/svg" xmlns:xlink="http://www.w3.org/1999/xlink">
    <!-- Generator: Sketch 60 (88103) - https://sketch.com -->
    <title>图标-04合同待签署</title>
    <desc>Created with Sketch.</desc>
    <g id="页面-1" stroke="none" stroke-width="1" fill="none" fill-rule="evenodd">
        <g id="首页02" transform="translate(-90.000000, -558.000000)">
            <g id="功能" transform="translate(30.000000, 326.000000)">
                <g id="图标-04合同待签署" transform="translate(60.000000, 232.000000)">
                    <rect id="矩形" fill="#F6F8F9" x="0" y="0" width="100" height="100" rx="30"></rect>
                    <g id="签署-icon" transform="translate(23.000000, 28.000000)">
                        <path d="M18.5,33 L26,33 C29.3137085,33 32,35.6862915 32,39 C32,42.3137085 29.3137085,45 26,45 L11,45 L11,45 L11,40.5 C11,36.3578644 14.3578644,33 18.5,33 Z" id="矩形" fill="#F5C142" fill-rule="nonzero"></path>
                        <path d="M49.8469316,0.803345024 C49.033085,0.44661612 48.0847732,0.220217045 47.096027,0.172209271 L47.0758625,0.172209271 C43.9549942,-0.376604427 39.7647217,0.412301839 36.3479666,2.16850567 C36.2000232,2.24400783 36.0251236,2.1136243 36.0654527,1.9489802 C36.4757455,-0.0404426121 32.937898,0.97486273 31.5389116,1.34528513 C26.8778001,2.58011595 22.667363,4.77542444 18.9142342,7.7733327 C18.7864553,7.87622184 18.6048693,7.78707989 18.5913912,7.62243578 C18.5106804,6.05826304 16.0557153,7.25883328 14.2599143,8.77494455 C10.4395528,12.0060718 7.40613437,15.8615686 5.54978714,20.5333586 C3.94225856,24.5809402 3.90866857,28.6764758 5.27401225,32.4976046 C5.32781941,32.6416816 5.50940544,32.6759959 5.61033336,32.5662332 C10.5404281,27.0163412 15.2553469,21.6996145 21.2952276,16.3555009 C27.6109359,10.7644211 35.0700201,6.36011057 39.9261432,5.36537232 C40.1548499,5.31736454 40.2624643,5.63295927 40.0606611,5.74272201 C22.8287845,14.9422788 11.246713,29.7466625 0.000909961784,44.8940817 C-0.0663402211,44.9855507 3.59397309,45.0177765 10.9818499,44.9907593 L10.9869159,43.7689599 L2.7988826,43.7689599 C4.13058364,42.280343 5.22020508,40.572147 6.63266952,39.1589249 C8.408306,37.3821002 8.51592033,37.5261773 10.0427382,37.4850431 C13.0156104,37.402721 16.0220727,37.1831955 18.9411378,36.6412017 C25.1492317,35.4818194 30.4559766,32.5936739 34.5117839,27.5994155 C35.4130276,26.4949145 36.2806813,24.7044501 34.6395628,24.3751082 C34.4512377,24.333974 34.4243341,24.0732606 34.5991811,23.9909386 C35.170948,23.7234053 35.6417344,23.5175733 36.0789308,23.2637336 C40.840865,20.5607993 45.2531053,17.4600019 48.0511306,12.5617591 C48.7438847,11.3543689 49.5308276,9.12479985 47.6811668,9.14536694 C47.4995808,9.14536694 47.4054446,8.92584146 47.5399625,8.79551163 C48.7977445,7.57437431 50.0218312,6.51793479 51.0172637,5.27623037 C52.6583823,3.22499889 52.227925,1.81865037 49.8469316,0.803345024 Z" id="路径" fill="#599BF8"></path>
                    </g>
                </g>
            </g>
        </g>
    </g>
</svg>