<?xml version="1.0" encoding="UTF-8"?>
<svg width="65px" height="60px" viewBox="0 0 65 60" version="1.1" xmlns="http://www.w3.org/2000/svg" xmlns:xlink="http://www.w3.org/1999/xlink">
    <!-- Generator: Sketch 60 (88103) - https://sketch.com -->
    <title>申请图标-03二手商用房</title>
    <desc>Created with Sketch.</desc>
    <defs>
        <linearGradient x1="50%" y1="0.0131960939%" x2="50%" y2="100%" id="linearGradient-1">
            <stop stop-color="#EB536A" offset="0.00263935811%"></stop>
            <stop stop-color="#EC5A5F" offset="100%"></stop>
        </linearGradient>
        <linearGradient x1="50%" y1="0.0712626689%" x2="50%" y2="100%" id="linearGradient-2">
            <stop stop-color="#E65365" offset="0.0712626689%"></stop>
            <stop stop-color="#FEC3CA" offset="100%"></stop>
        </linearGradient>
        <linearGradient x1="50%" y1="0%" x2="50%" y2="100%" id="linearGradient-3">
            <stop stop-color="#FFC7BB" offset="0%"></stop>
            <stop stop-color="#FE9CAF" offset="100%"></stop>
        </linearGradient>
        <linearGradient x1="50%" y1="0%" x2="50%" y2="100%" id="linearGradient-4">
            <stop stop-color="#FFC7BB" offset="0%"></stop>
            <stop stop-color="#FE9CAF" offset="100%"></stop>
        </linearGradient>
    </defs>
    <g id="页面-1" stroke="none" stroke-width="1" fill="none" fill-rule="evenodd">
        <g id="首页02" transform="translate(-430.000000, -975.000000)">
            <g id="申请" transform="translate(36.000000, 836.000000)">
                <g id="申请图标-03二手商用房" transform="translate(394.000000, 139.000000)">
                    <g id="编组-4">
                        <path d="M37.2101053,17.9718918 L63.0642719,33.5489682 C64.2655251,34.2727205 65,35.5727228 65,36.9751587 L65,55.3181818 C65,57.5273208 63.209139,59.3181818 61,59.3181818 L35.1458333,59.3181818 C32.9366943,59.3181818 31.1458333,57.5273208 31.1458333,55.3181818 L31.1458333,21.3980823 C31.1458333,19.1889433 32.9366943,17.3980823 35.1458333,17.3980823 C35.8733005,17.3980823 36.586995,17.5964693 37.2101053,17.9718918 Z" id="矩形" fill="url(#linearGradient-1)" fill-rule="nonzero"></path>
                        <g id="编组-2">
                            <rect id="矩形" fill="url(#linearGradient-2)" fill-rule="nonzero" x="4.41796875" y="15.9663309" width="50.0703125" height="43.5445387" rx="4"></rect>
                            <path d="M42.6633523,43.8670908 L45.0266335,43.8670908 C46.4073454,43.8670908 47.5266335,44.986379 47.5266335,46.3670908 L47.5266335,59.7366561 L47.5266335,59.7366561 L40.1633523,59.7366561 L40.1633523,46.3670908 C40.1633523,44.986379 41.2826404,43.8670908 42.6633523,43.8670908 Z" id="矩形" fill="#FEDDD6"></path>
                            <path d="M29.4491892,20.0812255 L29.453125,20.3207847 L29.453125,20.3207847 C29.453125,24.3289488 26.1564717,27.5782078 22.0898438,27.5782078 C18.0232158,27.5782078 14.7265625,24.3289488 14.7265625,20.3207847 C14.7265625,19.8234161 14.7773245,19.3377331 14.8740208,18.8684942 L29.3056667,18.8684942 C29.386778,19.2621036 29.4355686,19.6672836 29.4491892,20.0812255 Z M44.1757517,20.0812255 L44.1796875,20.3207847 L44.1796875,20.3207847 C44.1796875,24.3289488 40.8830342,27.5782078 36.8164063,27.5782078 C32.7497783,27.5782078 29.453125,24.3289488 29.453125,20.3207847 C29.453125,19.8234161 29.503887,19.3377331 29.6005833,18.8684942 L44.0322292,18.8684942 C44.1133405,19.2621036 44.1621311,19.6672836 44.1757517,20.0812255 Z M58.90625,20.3207847 C58.90625,24.3289488 55.6095967,27.5782078 51.5429688,27.5782078 C47.4763408,27.5782078 44.1796875,24.3289488 44.1796875,20.3207847 C44.1796875,19.8234161 44.2304495,19.3377331 44.3271458,18.8684942 L58.7587917,18.8684942 C58.855488,19.3377331 58.90625,19.8234161 58.90625,20.3207847 Z M14.7226267,20.0812255 L14.7265625,20.3207847 L14.7265625,20.3207847 C14.7265625,24.3289488 11.4299092,27.5782078 7.36328125,27.5782078 C3.29665331,27.5782078 0,24.3289488 0,20.3207847 C0,19.8234161 0.0507620402,19.3377331 0.147458327,18.8684942 L14.5791042,18.8684942 C14.6602155,19.2621036 14.7090061,19.6672836 14.7226267,20.0812255 Z" id="形状结合" fill="url(#linearGradient-3)" fill-rule="nonzero"></path>
                            <path d="M16.1848646,1.42108547e-14 L44.6221571,1.42108547e-14 C46.000239,2.1951311e-14 47.2812747,0.709376471 48.0125423,1.87743356 L58.6495581,18.8679881 L58.6495581,18.8679881 L0.220779434,18.8679881 L12.9682196,1.62235517 C13.7224332,0.602002043 14.9160232,1.73472515e-14 16.1848646,1.42108547e-14 Z" id="矩形" fill="url(#linearGradient-4)" fill-rule="nonzero"></path>
                        </g>
                        <path d="M13.5104167,32.7272727 L17.5852273,32.7272727 C19.0914584,32.7272727 20.3125,33.9483143 20.3125,35.4545455 C20.3125,36.9607766 19.0914584,38.1818182 17.5852273,38.1818182 L13.5104167,38.1818182 C12.4058472,38.1818182 11.5104167,37.2863877 11.5104167,36.1818182 L11.5104167,34.7272727 C11.5104167,33.6227032 12.4058472,32.7272727 13.5104167,32.7272727 Z" id="矩形" fill="#FEDDD6"></path>
                        <path d="M13.5104167,40.2272727 L17.5852273,40.2272727 C19.0914584,40.2272727 20.3125,41.4483143 20.3125,42.9545455 C20.3125,44.4607766 19.0914584,45.6818182 17.5852273,45.6818182 L13.5104167,45.6818182 C12.4058472,45.6818182 11.5104167,44.7863877 11.5104167,43.6818182 L11.5104167,42.2272727 C11.5104167,41.1227032 12.4058472,40.2272727 13.5104167,40.2272727 Z" id="矩形备份" fill="#FEDDD6"></path>
                    </g>
                </g>
            </g>
        </g>
    </g>
</svg>