<?xml version="1.0" encoding="UTF-8"?>
<svg width="750px" height="484px" viewBox="0 0 750 484" version="1.1" xmlns="http://www.w3.org/2000/svg" xmlns:xlink="http://www.w3.org/1999/xlink">
    <!-- Generator: Sketch 60 (88103) - https://sketch.com -->
    <title>编组 7</title>
    <desc>Created with Sketch.</desc>
    <defs>
        <path d="M0,0 L750,0 L750,484 C643.333333,425.385304 518.333333,396.077956 375,396.077956 C231.666667,396.077956 106.666667,425.385304 0,484 L0,0 Z" id="path-1"></path>
        <linearGradient x1="68.8294794%" y1="104.460255%" x2="68.8294794%" y2="-4.7783188%" id="linearGradient-3">
            <stop stop-color="#45C5FF" offset="0%"></stop>
            <stop stop-color="#4454DC" offset="100%"></stop>
        </linearGradient>
        <linearGradient x1="50%" y1="26.6872527%" x2="50%" y2="100%" id="linearGradient-4">
            <stop stop-color="#9CBCF6" offset="0%"></stop>
            <stop stop-color="#6387E9" offset="100%"></stop>
        </linearGradient>
        <linearGradient x1="50%" y1="0%" x2="50%" y2="100%" id="linearGradient-5">
            <stop stop-color="#6884B0" offset="0%"></stop>
            <stop stop-color="#334F88" offset="100%"></stop>
        </linearGradient>
        <linearGradient x1="72.9046563%" y1="17.8524073%" x2="57.0802624%" y2="75.6843117%" id="linearGradient-6">
            <stop stop-color="#FFFFFF" offset="0%"></stop>
            <stop stop-color="#EBF1F8" offset="14.0466639%"></stop>
            <stop stop-color="#E3ECF9" offset="43.396326%"></stop>
            <stop stop-color="#D8E7FE" offset="60.0665118%"></stop>
            <stop stop-color="#FFFFFF" offset="78.4500758%"></stop>
            <stop stop-color="#F7FAFF" offset="100%"></stop>
        </linearGradient>
        <path d="M135.764343,178.850521 C137.06608,157.961462 151.385795,149.54579 178.72349,153.603502 C219.730033,159.690071 275.011244,133.381744 238.821479,71.9501264 C222.659013,44.5145658 240.455344,23.7731596 257.743217,24.353111 C260.621745,24.4496762 239.299104,18.0467129 193.775294,5.14422116 L193.775294,5.14422247 C179.564303,1.11650165 164.334971,6.17814134 155.362261,17.911226 C149.708667,25.3040984 146.88187,33.4899637 146.88187,42.4688219 C146.88187,67.7258101 159.288219,101.214947 146.88187,101.214947 C134.47552,101.214947 91.4933721,96.7997185 73.4381548,104.264665 C45.9918219,115.612377 78.1713897,140.824664 69.5400117,149.567165 C60.9086337,158.309667 46.3892149,142.193423 29.9852225,142.193423 C13.5812301,142.193423 11,153.637231 11,161.120764 C11,163.463172 18.7970899,144.354135 47.4345109,166.023908 C49.1021845,167.285827 80.4226507,193.829655 96.0181159,200.616346 C112.62489,207.84313 125.873632,200.587855 135.764343,178.850521 Z" id="path-7"></path>
        <filter x="-17.0%" y="-13.1%" width="134.0%" height="139.7%" filterUnits="objectBoundingBox" id="filter-8">
            <feOffset dx="0" dy="12" in="SourceAlpha" result="shadowOffsetOuter1"></feOffset>
            <feGaussianBlur stdDeviation="12" in="shadowOffsetOuter1" result="shadowBlurOuter1"></feGaussianBlur>
            <feColorMatrix values="0 0 0 0 0.321922309   0 0 0 0 0.37924655   0 0 0 0 0.701539855  0 0 0 0.321405157 0" type="matrix" in="shadowBlurOuter1"></feColorMatrix>
        </filter>
        <linearGradient x1="76.2835996%" y1="43.2616804%" x2="42.1367978%" y2="60.9227316%" id="linearGradient-9">
            <stop stop-color="#FFFFFF" stop-opacity="0" offset="0%"></stop>
            <stop stop-color="#FFFFFF" stop-opacity="0.955362062" offset="53.469547%"></stop>
            <stop stop-color="#FFFFFF" stop-opacity="0" offset="100%"></stop>
        </linearGradient>
        <linearGradient x1="76.2835996%" y1="43.3074526%" x2="42.1367978%" y2="60.8485355%" id="linearGradient-10">
            <stop stop-color="#FFFFFF" stop-opacity="0" offset="0%"></stop>
            <stop stop-color="#FFFFFF" stop-opacity="0.955362062" offset="53.469547%"></stop>
            <stop stop-color="#FFFFFF" stop-opacity="0" offset="100%"></stop>
        </linearGradient>
        <linearGradient x1="13.188086%" y1="50%" x2="80.5285605%" y2="50%" id="linearGradient-11">
            <stop stop-color="#ECF1FC" offset="0%"></stop>
            <stop stop-color="#D3DFF7" offset="100%"></stop>
        </linearGradient>
        <linearGradient x1="13.188086%" y1="50%" x2="80.5285605%" y2="50%" id="linearGradient-12">
            <stop stop-color="#ECF1FC" offset="0%"></stop>
            <stop stop-color="#D3DFF7" offset="100%"></stop>
        </linearGradient>
        <linearGradient x1="13.188086%" y1="50%" x2="80.5285605%" y2="50%" id="linearGradient-13">
            <stop stop-color="#ECF1FC" offset="0%"></stop>
            <stop stop-color="#D3DFF7" offset="100%"></stop>
        </linearGradient>
        <linearGradient x1="13.188086%" y1="50%" x2="80.5285605%" y2="50%" id="linearGradient-14">
            <stop stop-color="#ECF1FC" offset="0%"></stop>
            <stop stop-color="#D3DFF7" offset="100%"></stop>
        </linearGradient>
        <linearGradient x1="13.188086%" y1="50%" x2="80.5285605%" y2="50%" id="linearGradient-15">
            <stop stop-color="#ECF1FC" offset="0%"></stop>
            <stop stop-color="#D3DFF7" offset="100%"></stop>
        </linearGradient>
        <linearGradient x1="-23.5921572%" y1="100%" x2="95.7361899%" y2="100%" id="linearGradient-16">
            <stop stop-color="#D3E0FA" offset="0%"></stop>
            <stop stop-color="#D3DFF7" offset="100%"></stop>
        </linearGradient>
        <linearGradient x1="13.188086%" y1="50%" x2="80.5285605%" y2="50%" id="linearGradient-17">
            <stop stop-color="#ECF1FC" offset="0%"></stop>
            <stop stop-color="#D3DFF7" offset="100%"></stop>
        </linearGradient>
        <linearGradient x1="13.188086%" y1="50%" x2="80.5285605%" y2="50%" id="linearGradient-18">
            <stop stop-color="#ECF1FC" offset="0%"></stop>
            <stop stop-color="#D3DFF7" offset="100%"></stop>
        </linearGradient>
        <linearGradient x1="13.188086%" y1="50%" x2="80.5285605%" y2="50%" id="linearGradient-19">
            <stop stop-color="#ECF1FC" offset="0%"></stop>
            <stop stop-color="#D3DFF7" offset="100%"></stop>
        </linearGradient>
        <linearGradient x1="13.188086%" y1="50%" x2="80.5285605%" y2="50%" id="linearGradient-20">
            <stop stop-color="#ECF1FC" offset="0%"></stop>
            <stop stop-color="#D3DFF7" offset="100%"></stop>
        </linearGradient>
        <linearGradient x1="13.188086%" y1="50%" x2="80.5285605%" y2="50%" id="linearGradient-21">
            <stop stop-color="#ECF1FC" offset="0%"></stop>
            <stop stop-color="#D3DFF7" offset="100%"></stop>
        </linearGradient>
        <linearGradient x1="12.4480951%" y1="51.2212879%" x2="94.7215574%" y2="51.1218875%" id="linearGradient-22">
            <stop stop-color="#FCE39C" offset="0%"></stop>
            <stop stop-color="#FBAF2A" offset="73.083826%"></stop>
            <stop stop-color="#F8E4BF" offset="100%"></stop>
            <stop stop-color="#F3CE8A" offset="100%"></stop>
        </linearGradient>
        <linearGradient x1="50%" y1="0.158361486%" x2="50%" y2="100%" id="linearGradient-23">
            <stop stop-color="#F9B968" offset="0%"></stop>
            <stop stop-color="#F8E869" offset="100%"></stop>
        </linearGradient>
        <path d="M15.5714302,155.90159 C26.7068527,142.398888 41.6187181,133.94437 60.3070267,130.538036 C78.9953353,127.131701 107.268271,112.080914 145.125833,85.3856725 L154.251771,49.0950525 L157.801969,25.3508503 C114.866787,13.4756753 92.8566504,7.43725041 91.7715603,7.2355756 C90.1439251,6.93306339 51.9548866,0 51.9548866,0 C51.9548866,0 42.6015634,4.92267711 23.8949169,14.7680313 L4.02649152,49.0950525 L2.13162821e-13,77.9507948 L15.5714302,155.90159 Z" id="path-24"></path>
        <filter x="-26.5%" y="-48.8%" width="152.9%" height="197.6%" filterUnits="objectBoundingBox" id="filter-26">
            <feOffset dx="-7" dy="13" in="SourceAlpha" result="shadowOffsetOuter1"></feOffset>
            <feGaussianBlur stdDeviation="4" in="shadowOffsetOuter1" result="shadowBlurOuter1"></feGaussianBlur>
            <feColorMatrix values="0 0 0 0 0.164866319   0 0 0 0 0.283418861   0 0 0 0 0.520776721  0 0 0 0.136582168 0" type="matrix" in="shadowBlurOuter1" result="shadowMatrixOuter1"></feColorMatrix>
            <feMerge>
                <feMergeNode in="shadowMatrixOuter1"></feMergeNode>
                <feMergeNode in="SourceGraphic"></feMergeNode>
            </feMerge>
        </filter>
        <linearGradient x1="71.7549887%" y1="37.6648209%" x2="0%" y2="62.3351791%" id="linearGradient-27">
            <stop stop-color="#5BD9FE" offset="0%"></stop>
            <stop stop-color="#FFFFFF" stop-opacity="0" offset="100%"></stop>
        </linearGradient>
        <linearGradient x1="50%" y1="30.5753704%" x2="55.5208053%" y2="63.754902%" id="linearGradient-28">
            <stop stop-color="#7BDDFD" offset="0%"></stop>
            <stop stop-color="#45B9FB" offset="100%"></stop>
        </linearGradient>
        <linearGradient x1="58.5562894%" y1="11.1907751%" x2="50%" y2="100%" id="linearGradient-29">
            <stop stop-color="#FAE9E3" offset="0%"></stop>
            <stop stop-color="#F3CFC2" offset="100%"></stop>
        </linearGradient>
        <linearGradient x1="54.3382565%" y1="11.1907751%" x2="50%" y2="100%" id="linearGradient-30">
            <stop stop-color="#FAE9E3" offset="0%"></stop>
            <stop stop-color="#F3CFC2" offset="100%"></stop>
        </linearGradient>
        <linearGradient x1="52.6547878%" y1="11.1907751%" x2="50%" y2="100%" id="linearGradient-31">
            <stop stop-color="#FAE9E3" offset="0%"></stop>
            <stop stop-color="#F3CFC2" offset="100%"></stop>
        </linearGradient>
        <linearGradient x1="50%" y1="58.7366705%" x2="50%" y2="100%" id="linearGradient-32">
            <stop stop-color="#1E4394" offset="0%"></stop>
            <stop stop-color="#0D205B" offset="100%"></stop>
        </linearGradient>
        <linearGradient x1="50%" y1="0%" x2="50%" y2="100%" id="linearGradient-33">
            <stop stop-color="#25459A" offset="0%"></stop>
            <stop stop-color="#102161" offset="100%"></stop>
        </linearGradient>
        <linearGradient x1="50%" y1="0%" x2="50%" y2="100%" id="linearGradient-34">
            <stop stop-color="#7BDDFD" offset="0%"></stop>
            <stop stop-color="#45B9FB" offset="100%"></stop>
        </linearGradient>
        <path d="M34.3204183,36.5926147 L38.5996585,66.9389727 C13.3913092,74.7687568 0.787134624,76.650741 0.787134624,72.5849254 C0.787134624,66.4862019 -1.5529438,2.45914283 8.66724013,1.01081622 C18.8874241,-0.437510389 15.5967323,1.01081622 21.5438266,1.01081622 C25.5085561,1.01081622 29.76742,12.8714157 34.3204183,36.5926147 Z" id="path-35"></path>
        <linearGradient x1="50%" y1="0%" x2="50%" y2="100%" id="linearGradient-37">
            <stop stop-color="#5ECAFC" offset="0%"></stop>
            <stop stop-color="#55B5EB" offset="100%"></stop>
        </linearGradient>
        <linearGradient x1="50%" y1="0%" x2="50%" y2="100%" id="linearGradient-38">
            <stop stop-color="#7BDDFD" offset="0%"></stop>
            <stop stop-color="#45B9FB" offset="100%"></stop>
        </linearGradient>
        <path d="M27.54414,33.6536032 C27.54414,33.6536032 30.5786739,22.6453191 36.6477418,0.628750996 L41.5386768,0.628750996 C41.0635598,28.1921358 39.1729278,43.717624 35.8667809,47.2052156 C32.560634,50.6928073 28.9409602,51.0103327 25.0077593,48.1577919 C10.9968364,35.2511994 3.48183442,26.9511028 2.4627535,23.257502 C0.93413212,17.7171008 0.120374881,15.4872175 1.85513889,12.2069396 C2.53156178,11.4907837 6.34202433,9.943537 9.31418679,13.0171794 C17.2964957,21.2720321 27.54414,33.6536032 27.54414,33.6536032 Z" id="path-39"></path>
        <linearGradient x1="71.7549887%" y1="32.4620321%" x2="0%" y2="67.5379679%" id="linearGradient-41">
            <stop stop-color="#5BD9FE" offset="0%"></stop>
            <stop stop-color="#FFFFFF" stop-opacity="0" offset="100%"></stop>
        </linearGradient>
        <linearGradient x1="62.5261988%" y1="22.4925327%" x2="39.4541148%" y2="84.7001987%" id="linearGradient-42">
            <stop stop-color="#E0B9A9" offset="0%"></stop>
            <stop stop-color="#E9CBC1" offset="100%"></stop>
        </linearGradient>
        <linearGradient x1="56.3749483%" y1="11.1907751%" x2="50%" y2="100%" id="linearGradient-43">
            <stop stop-color="#FAE9E3" offset="0%"></stop>
            <stop stop-color="#F3CFC2" offset="100%"></stop>
        </linearGradient>
        <linearGradient x1="50%" y1="58.7366705%" x2="50%" y2="100%" id="linearGradient-44">
            <stop stop-color="#1E4394" offset="0%"></stop>
            <stop stop-color="#0D205B" offset="100%"></stop>
        </linearGradient>
        <linearGradient x1="52.5853855%" y1="10.8478748%" x2="50%" y2="63.9840468%" id="linearGradient-45">
            <stop stop-color="#3154AF" offset="0%"></stop>
            <stop stop-color="#102161" offset="100%"></stop>
        </linearGradient>
        <linearGradient x1="38.9598178%" y1="94.4838737%" x2="57.9849985%" y2="42.2783741%" id="linearGradient-46">
            <stop stop-color="#EFA670" offset="0%"></stop>
            <stop stop-color="#F5AD6B" offset="100%"></stop>
        </linearGradient>
        <path d="M24.5271342,3.06974589 C25.4163732,4.1828558 29.1131861,6.30255546 31.1715351,13.8376674 C31.6732213,15.6742179 32.5053619,21.246942 33.667957,30.5558395 L39.1397204,69.6816165 C13.4785597,75.9232262 0.647979303,77.008922 0.647979303,72.9387039 C0.647979303,68.366282 -1.51525143,32.5563884 2.06332024,13.8376674 C3.26303703,7.56221287 5.73799314,2.47260229 8.31324028,2.10856751 C18.5700557,0.658672648 18.0032318,-7.10542736e-14 18.6361853,-7.10542736e-14 C19.2691387,-7.10542736e-14 22.7056191,0.789654053 24.5271342,3.06974589 Z" id="path-47"></path>
        <linearGradient x1="50%" y1="1.39094172%" x2="50%" y2="100%" id="linearGradient-49">
            <stop stop-color="#E5A06A" offset="0%"></stop>
            <stop stop-color="#EAA464" offset="100%"></stop>
        </linearGradient>
        <linearGradient x1="37.8224411%" y1="94.4838737%" x2="58.8076254%" y2="42.2783741%" id="linearGradient-50">
            <stop stop-color="#EFA670" offset="0%"></stop>
            <stop stop-color="#F5AD6B" offset="100%"></stop>
        </linearGradient>
        <linearGradient x1="0%" y1="50%" x2="100%" y2="50%" id="linearGradient-51">
            <stop stop-color="#F7D97E" offset="0%"></stop>
            <stop stop-color="#EECA5F" offset="52.5193742%"></stop>
            <stop stop-color="#FFE083" offset="69.503192%"></stop>
            <stop stop-color="#EBB148" offset="85.9794836%"></stop>
            <stop stop-color="#EBB148" offset="100%"></stop>
        </linearGradient>
        <linearGradient x1="50%" y1="1.0583826%" x2="50%" y2="100%" id="linearGradient-52">
            <stop stop-color="#EECA5F" offset="0%"></stop>
            <stop stop-color="#E5A83B" offset="100%"></stop>
        </linearGradient>
        <path d="M33.5540264,28.0729736 C35.8541751,41.8991663 41.7931671,51.7308658 51.3710023,57.5680722 C57.6838522,61.4154351 73.0474918,65.7285085 80.0770876,65.7285085 C91.4138925,65.7285085 96.3522979,62.8625124 103.190818,59.0121266 C108.297899,56.136617 112.793693,52.5408675 122.021495,43.0492325 C133.729552,31.0064303 144.061111,26.014344 153.016174,28.0729736 L144.02306,17.0100618 C146.161469,15.2607144 138.827614,17.095403 122.021495,22.5141276 C96.8123166,30.6422145 98.6689728,19.2702952 91.473555,11.9316238 C84.2781371,4.59295246 84.4460372,6.32430643 80.0770876,6.91574336 C76.1980796,7.44085552 70.6809428,8.49492537 68.0722882,13.6629778 C65.6770021,18.4083221 64.5426627,21.2523695 58.6610517,23.827891 C48.7793694,28.1550193 40.4499043,22.7744212 35.7965875,19.9448867 C29.4964331,16.1139624 26.8705683,10.8444464 26.8705683,3.1351398 C26.8705683,-4.57416678 6.82536642,2.84798445 2.14146036,15.460479 C-2.54244571,28.0729736 4.77922477,43.0492325 18.154192,43.0492325 C31.5291592,43.0492325 31.1475162,32.9891294 26.8705683,28.0729736 C25.8011882,26.8437701 17.772549,40.4814177 11.6862103,30.6558308 C8.98263898,26.2912734 9.1064518,21.1321874 11.6862103,17.0100618 C13.8618168,13.5337197 16.8853264,10.8556418 20.7567392,8.975828 C22.2262349,13.707199 23.9201777,17.3635519 25.8385678,19.9448867 C27.7569579,22.5262214 30.3287774,25.2355837 33.5540264,28.0729736 Z" id="path-53"></path>
    </defs>
    <g id="首页&amp;登录" stroke="none" stroke-width="1" fill="none" fill-rule="evenodd">
        <g id="首页02备份">
            <g id="编组-7">
                <mask id="mask-2" fill="white">
                    <use xlink:href="#path-1"></use>
                </mask>
                <use id="蒙版" fill="#FFFFFF" xlink:href="#path-1"></use>
                <g mask="url(#mask-2)">
                    <g transform="translate(-191.000000, -104.000000)">
                        <rect id="矩形" stroke="#979797" stroke-width="1" fill="url(#linearGradient-3)" x="190.0024" y="104" width="750.997826" height="531"></rect>
                        <path d="M176.022603,656 C157.250638,458.285245 208.90977,354.020565 331,343.205958 C514.135344,326.984047 178.724638,415.336143 441,444.450823 C703.275362,473.565503 628.608391,321.868587 821,282.976239 C1013.39161,244.08389 957.618097,280.566085 957.618097,319.69531 C957.618097,345.781459 957.618097,457.883023 957.618097,656 L176.022603,656 Z" id="路径-13" stroke="none" fill="#C4D2F9" style="mix-blend-mode: soft-light;" opacity="0.586286272"></path>
                        <path d="M249.977365,216.444883 C460.686766,235.854682 593.00135,29.6131002 593.00135,48.1843658 C593.00135,60.5652095 593.00135,183.837129 593.00135,418.000123 L28.0027529,418.000123 C35.512893,270.690097 109.50443,203.505017 249.977365,216.444883 Z" id="路径-12备份" stroke="none" fill="url(#linearGradient-4)" style="mix-blend-mode: soft-light;" transform="translate(310.502051, 232.500000) rotate(170.000000) translate(-310.502051, -232.500000) "></path>
                    </g>
                </g>
                <g id="图" mask="url(#mask-2)">
                    <g transform="translate(-44.000000, 53.000000)">
                        <g id="纸张" opacity="0.878813244" stroke-width="1" fill="none" transform="translate(448.000000, 55.000000)">
                            <path d="M260.552582,47.3210587 C263.272341,35.4591725 262.159194,27.6612546 257.21314,23.9273051 C255.0684,22.308166 249.176937,24.259646 246.111367,25.952251 C238.610433,30.0937706 234.573311,34.3266391 234,38.6508565 L260.552582,47.3210587 Z" id="路径-16" fill="url(#linearGradient-5)"></path>
                            <g id="路径-14">
                                <use fill="black" fill-opacity="1" filter="url(#filter-8)" xlink:href="#path-7"></use>
                                <use fill="url(#linearGradient-6)" fill-rule="evenodd" xlink:href="#path-7"></use>
                            </g>
                            <path d="M177.043592,3.32105869 L245,26.6978838 C242.884715,27.9487774 240.066028,30.3839017 236.543939,34.0032565 C233.02185,37.6226114 231.120822,41.7285454 230.840854,46.3210587 L153,21.6374242 C154.713468,16.2088338 158.0429,12.192426 162.988298,9.58820088 C167.933695,6.98397578 172.618793,4.89492839 177.043592,3.32105869 Z" id="路径-25" fill="url(#linearGradient-9)"></path>
                            <path d="M83.0820618,116.543884 L151.022904,139.83345 C148.907956,141.080104 146.089661,143.506878 142.568019,147.113772 C139.046377,150.720666 137.14543,154.812307 136.865177,159.388696 L59.0419979,134.797653 C60.7555211,129.388019 64.0845753,125.385483 69.0291606,122.790044 C73.9737458,120.194605 78.6580463,118.112551 83.0820618,116.543884 Z" id="路径-25备份" fill="url(#linearGradient-10)" transform="translate(105.032451, 137.966290) rotate(14.000000) translate(-105.032451, -137.966290) "></path>
                            <polygon id="矩形" fill="url(#linearGradient-11)" transform="translate(200.802623, 21.660256) rotate(17.000000) translate(-200.802623, -21.660256) " points="164.751202 20.3980533 237.740969 20.5757818 236.757843 22.9224586 163.864277 22.5426756"></polygon>
                            <polygon id="矩形" fill="url(#linearGradient-12)" transform="translate(195.911730, 28.572542) rotate(17.000000) translate(-195.911730, -28.572542) " points="159.587492 27.7671579 232.577258 27.9448864 232.071524 29.3779257 159.246202 29.1055202"></polygon>
                            <path d="M157.639102,33.7142746 L229.24768,33.88864 L229.24768,33.88864 L228.829557,35.5011309 L155.916625,35.0492738 C156.117302,34.2623197 156.826966,33.7122971 157.639102,33.7142746 Z" id="矩形" fill="url(#linearGradient-13)" transform="translate(192.582152, 34.606021) rotate(17.000000) translate(-192.582152, -34.606021) "></path>
                            <polygon id="矩形" fill="url(#linearGradient-14)" opacity="0.655064174" transform="translate(191.496538, 49.088829) rotate(17.000000) translate(-191.496538, -49.088829) " points="154.963235 48.3161445 227.953001 48.493873 228.371131 49.8615135 154.621945 49.6545068"></polygon>
                            <polygon id="矩形" fill="url(#linearGradient-15)" opacity="0.655064174" transform="translate(195.128718, 64.068436) rotate(17.000000) translate(-195.128718, -64.068436) " points="157.49037 63.2158004 232.583669 63.3936908 233.118193 64.9210716 157.139242 64.5541619"></polygon>
                            <polygon id="矩形" fill="url(#linearGradient-16)" opacity="0.655064174" transform="translate(198.370611, 78.391746) rotate(17.000000) translate(-198.370611, -78.391746) " points="155.822929 77.5387304 240.711004 77.717375 241.315234 79.2447612 155.425988 78.8770884"></polygon>
                            <polygon id="矩形" fill="url(#linearGradient-17)" opacity="0.655064174" transform="translate(198.686512, 91.705407) rotate(17.000000) translate(-198.686512, -91.705407) " points="156.466119 90.8524166 240.701209 91.0310109 241.300792 92.5583968 156.072233 92.1907748"></polygon>
                            <polygon id="矩形" fill="url(#linearGradient-18)" opacity="0.655064174" transform="translate(198.628780, 103.987184) rotate(17.000000) translate(-198.628780, -103.987184) " points="157.717543 103.134295 239.340692 103.312688 239.921687 104.840073 157.335873 104.472654"></polygon>
                            <polygon id="矩形" fill="url(#linearGradient-19)" opacity="0.655064174" transform="translate(137.399231, 128.394323) rotate(22.000000) translate(-137.399231, -128.394323) " points="100.814628 127.541089 173.805512 127.72019 174.325103 129.247556 100.473359 128.879424"></polygon>
                            <polygon id="矩形" fill="url(#linearGradient-20)" opacity="0.655064174" transform="translate(93.860848, 139.091115) rotate(25.000000) translate(-93.860848, -139.091115) " points="66.5857545 137.972077 120.689775 138.682748 121.135942 140.210153 66.988265 138.835264"></polygon>
                            <path d="M146.06107,156.208486 C139.368629,158.430866 134.878287,160.288775 132.590046,161.782216 C129.190505,164.000954 126.278514,167.498547 123.854072,172.274995 L105.76,163.833899 C106.671196,161.380601 109.270583,158.386331 113.558163,154.85109 C116.322497,152.571813 120.142236,150.66984 125.017381,149.145172 L146.06107,156.208486 Z" id="路径-18" fill="url(#linearGradient-21)" opacity="0.655064174" transform="translate(125.910535, 160.710084) rotate(-5.000000) translate(-125.910535, -160.710084) "></path>
                            <path d="M0.880925756,145.717888 C2.67031589,135.630861 5.95051256,129.869432 10.7215158,128.4336 C17.8780206,126.279851 10.4761808,132.447277 7.0653163,135.855784 C4.79140666,138.128122 2.72994314,141.41549 0.880925756,145.717888 Z" id="路径-31" fill="#FFFFFF" transform="translate(7.307033, 136.852804) rotate(5.000000) translate(-7.307033, -136.852804) "></path>
                            <path d="M31.3093043,137.112286 C32.057206,131.5145 33.4272783,128.31709 35.4195213,127.520057 C38.4078857,126.324508 35.316787,129.747421 33.8923267,131.639105 C32.9426866,132.900228 32.0816791,134.724621 31.3093043,137.112286 Z" id="路径-31备份" fill="#FFFFFF" transform="translate(33.993165, 132.192399) rotate(53.000000) translate(-33.993165, -132.192399) "></path>
                        </g>
                        <g id="钱币" stroke-width="1" fill="none" transform="translate(648.000000, 207.000000)">
                            <g id="编组-5备份-4" transform="translate(0.000000, 27.555556)">
                                <path d="M0,4.78632479 L24.9999291,4.78632479 L24.9999291,7.39955827 C24.9999351,8.71409014 24.1441485,9.87551329 22.8886167,10.2649152 C19.0682085,11.4498111 15.7619175,12.089426 12.9697439,12.18376 C10.1185627,12.2800875 6.49671634,11.6411064 2.10420478,10.2668165 C0.852270565,9.87512006 1.60646654e-16,8.71545874 0,7.40367926 L0,4.78632479 L0,4.78632479 Z" id="矩形" fill="url(#linearGradient-22)"></path>
                                <ellipse id="椭圆形备份-4" fill="url(#linearGradient-23)" cx="12.4999645" cy="4.78632479" rx="12.4999645" ry="4.78632479"></ellipse>
                            </g>
                            <g id="编组-5备份-4" transform="translate(0.000000, 21.333333)">
                                <path d="M0,4.78632479 L24.9999291,4.78632479 L24.9999291,7.39955827 C24.9999351,8.71409014 24.1441485,9.87551329 22.8886167,10.2649152 C19.0682085,11.4498111 15.7619175,12.089426 12.9697439,12.18376 C10.1185627,12.2800875 6.49671634,11.6411064 2.10420478,10.2668165 C0.852270565,9.87512006 1.60646654e-16,8.71545874 0,7.40367926 L0,4.78632479 L0,4.78632479 Z" id="矩形" fill="url(#linearGradient-22)"></path>
                                <ellipse id="椭圆形备份-4" fill="url(#linearGradient-23)" cx="12.4999645" cy="4.78632479" rx="12.4999645" ry="4.78632479"></ellipse>
                            </g>
                            <g id="编组-5备份-4" transform="translate(0.000000, 14.222222)">
                                <path d="M0,4.78632479 L24.9999291,4.78632479 L24.9999291,7.39955827 C24.9999351,8.71409014 24.1441485,9.87551329 22.8886167,10.2649152 C19.0682085,11.4498111 15.7619175,12.089426 12.9697439,12.18376 C10.1185627,12.2800875 6.49671634,11.6411064 2.10420478,10.2668165 C0.852270565,9.87512006 1.60646654e-16,8.71545874 0,7.40367926 L0,4.78632479 L0,4.78632479 Z" id="矩形" fill="url(#linearGradient-22)"></path>
                                <ellipse id="椭圆形备份-4" fill="url(#linearGradient-23)" cx="12.4999645" cy="4.78632479" rx="12.4999645" ry="4.78632479"></ellipse>
                            </g>
                            <g id="编组-5备份-4" transform="translate(0.000000, 8.000000)">
                                <path d="M0,4.78632479 L24.9999291,4.78632479 L24.9999291,7.39955827 C24.9999351,8.71409014 24.1441485,9.87551329 22.8886167,10.2649152 C19.0682085,11.4498111 15.7619175,12.089426 12.9697439,12.18376 C10.1185627,12.2800875 6.49671634,11.6411064 2.10420478,10.2668165 C0.852270565,9.87512006 1.60646654e-16,8.71545874 0,7.40367926 L0,4.78632479 L0,4.78632479 Z" id="矩形" fill="url(#linearGradient-22)"></path>
                                <ellipse id="椭圆形备份-4" fill="url(#linearGradient-23)" cx="12.4999645" cy="4.78632479" rx="12.4999645" ry="4.78632479"></ellipse>
                            </g>
                            <g id="编组-5备份-4">
                                <path d="M0,4.78632479 L24.9999291,4.78632479 L24.9999291,7.39955827 C24.9999351,8.71409014 24.1441485,9.87551329 22.8886167,10.2649152 C19.0682085,11.4498111 15.7619175,12.089426 12.9697439,12.18376 C10.1185627,12.2800875 6.49671634,11.6411064 2.10420478,10.2668165 C0.852270565,9.87512006 1.60646654e-16,8.71545874 0,7.40367926 L0,4.78632479 L0,4.78632479 Z" id="矩形" fill="url(#linearGradient-22)"></path>
                                <ellipse id="椭圆形备份-4" fill="url(#linearGradient-23)" cx="12.4999645" cy="4.78632479" rx="12.4999645" ry="4.78632479"></ellipse>
                            </g>
                        </g>
                        <g id="1" stroke-width="1" fill="none" transform="translate(0.000000, 171.000000)">
                            <g id="Fill-10-+-Fill-1-+-Fill-20-蒙版" transform="translate(0.323323, 0.006163)">
                                <mask id="mask-25" fill="white">
                                    <use xlink:href="#path-24"></use>
                                </mask>
                                <g id="蒙版"></g>
                                <path d="M34.993093,117.739559 C37.3187545,111.553918 39.9571028,106.477425 43.8398023,102.086317 C47.1911054,98.2957237 50.8646576,95.307026 54.6655097,92.5814094 C60.0114225,88.7471974 65.367327,86.5881852 71.3304813,86.7418495 C74.8929292,86.8335671 79.4171441,88.337822 81.9664415,91.9921149 C84.9688778,96.2964254 86.3261634,102.936442 83.5220931,108.228936 C81.7885363,111.501948 78.8872373,113.515716 76.2944236,115.044461 C73.192583,116.87315 69.9530969,117.76818 66.6333896,118.022294 C61.2181754,118.436951 55.8102279,117.006913 50.4086444,116.756487 C47.8451022,116.637344 45.2848579,116.459857 42.7174237,116.69536 C41.4460956,116.811737 40.1636103,116.989027 38.9755969,117.722473 C38.3401153,118.114963 36.6060376,120.480751 36.1630789,118.744292 C30.2811544,134.897276 33.6577071,155.664328 43.2928071,166.859288 C44.1909502,167.902538 45.1208091,168.889274 46.0439233,169.887158 C46.626873,170.517193 49.0064631,172.229105 49.1111941,173.343342 C49.3425078,175.800946 46.8877877,172.995213 46.5226176,172.622569 C45.5787292,171.659566 44.6406073,170.683942 43.7081666,169.699319 C38.6365306,164.343369 34.8078716,157.007673 33.047057,148.251297 C31.0336485,138.238165 31.4732662,127.101361 34.993093,117.739559 Z" id="Fill-20" fill="#4970E6" mask="url(#mask-25)"></path>
                                <path d="M71.0661265,22.5463231 C68.748701,22.5876359 66.3207858,23.4224922 64.0822662,24.2006279 C52.0657455,28.3052982 41.5410758,40.0322725 35.9341997,55.164489 C31.1610574,68.0468351 31.577172,82.0206389 32.5251512,95.976753 C32.6194602,97.3623823 32.7857186,98.7158278 32.9364732,100.086208 C32.968802,100.380314 32.9882731,100.645619 33.0036746,100.896411 C32.5988884,101.69245 32.4537166,102.515422 32.8894994,103.228061 C32.3318881,106.997859 31.9615349,110.798486 31.7441473,114.665515 C31.1044821,126.047846 30.4569305,137.64519 33.8085726,148.319804 C33.1421181,142.066588 32.8401049,135.550195 32.7224799,129.226688 C32.7158189,128.863619 32.7136788,128.502001 32.7139995,128.140884 C32.7138747,128.102821 32.7132983,128.064903 32.7132242,128.027146 C32.7194137,126.077035 32.8284886,124.152278 33.0300578,122.227478 C33.0320498,122.206494 33.0338668,122.185889 33.0361353,122.165139 C33.062872,121.911773 33.0938757,121.658326 33.1239762,121.40517 C33.1862259,120.881084 33.2524658,120.356683 33.3279168,119.831903 C33.3532439,119.65326 33.3762852,119.473737 33.3970914,119.293642 C33.711087,116.615173 33.5580475,113.760139 33.7830188,111.020858 C33.8418068,110.395523 33.9079489,109.770083 33.9822749,109.145239 C33.9866709,109.108628 33.9912927,109.071944 33.9959145,109.03526 C34.1979849,107.353128 34.4510152,105.674303 34.7355845,104.002124 C34.9753694,103.606608 35.0059791,102.806923 35.1429626,102.045032 C35.1724103,101.894126 35.428128,100.868653 35.4629583,100.313991 C35.637285,99.3699152 35.810432,98.4258957 35.9872702,97.4826265 C35.9786011,97.4905814 35.9699321,97.4985364 35.961263,97.5064913 C36.1438644,96.5965656 36.3279276,95.6897218 36.5100664,94.7870489 C36.5502143,94.5887847 36.5909887,94.3899961 36.6314866,94.1909736 C36.6980069,93.8734684 36.764578,93.5562699 36.831025,93.2397571 C37.4523948,90.2780405 38.146116,87.3482701 38.8882406,84.4365136 C39.1531183,83.3974384 39.9292325,81.7799543 39.9508124,80.7019185 C39.9515115,80.6616527 39.9473004,80.6261953 39.9455444,80.5883338 C41.6535981,74.8597797 43.8064342,69.3901869 46.6939558,64.6762667 C46.3775657,65.4432284 45.8378101,67.8743076 45.6715237,68.3747015 C45.1628106,69.9068227 44.5771286,71.369088 43.9909502,72.8470126 C42.9413058,75.4944071 41.936606,78.2006462 41.1071885,80.9874205 C39.5904387,86.0838591 38.4193993,91.3106384 37.3695833,96.5959457 C37.356772,96.6291284 37.3421264,96.6612865 37.3303197,96.6947919 C36.6719388,98.5621209 36.4872061,101.123774 36.1236831,103.134572 C38.4625666,100.610144 41.1754155,98.5831604 43.6143988,96.2251263 C46.0466941,93.8740871 48.3780264,91.3772756 50.5713744,88.6203414 C53.4866331,84.9563239 56.4713629,80.9179886 59.0830456,76.5943897 C62.1875033,72.3128189 64.5193716,67.0439695 66.4592096,61.678084 C68.754321,55.3292962 70.776217,49.0193048 71.5055609,41.9722669 C71.8636502,38.5094735 72.0104992,34.9715754 71.8676186,31.486181 C71.8614469,31.3341377 71.8582098,31.1682341 71.8559885,30.9955455 C72.0862805,29.7018392 72.2675539,28.3964521 72.3835766,27.0833137 C72.5682447,25.0005574 73.4060151,22.5052681 71.0661265,22.5463231" id="Fill-10" fill="#4970E6" mask="url(#mask-25)"></path>
                                <path d="M136.109697,40.7450131 C137.280736,42.5147908 137.541608,44.5988748 135.591052,45.2958195 C135.006329,45.5048055 134.371796,45.6329981 133.774805,45.7836544 C130.456812,46.6212189 127.125656,47.3265338 123.818465,48.2481033 C117.456036,50.0213351 111.38408,52.9269003 105.282906,55.944128 C100.479307,58.3198889 95.7436791,61.0111212 91.2806742,64.4150014 C85.780926,68.6097303 80.8296728,73.8956848 76.000701,79.384273 C71.0322489,85.0324731 66.0632274,91.2151694 61.686552,97.8461047 C56.7085955,105.387729 52.4842004,113.386721 48.5284542,122.000393 C38.7535214,143.285833 31.5396207,166.452702 26.63074,190.745552 C25.9243515,194.242665 25.2273523,197.743846 24.533696,201.246108 C24.0112423,203.885078 23.5832817,206.558048 23.0711795,209.198301 C22.6472112,211.384675 21.2239937,211.277763 21.3367079,208.979375 C21.4658558,206.340171 22.2730654,203.496361 22.7547301,200.955333 C23.1847487,198.687996 23.6161998,196.421122 24.0469347,194.154017 C24.5523862,191.496129 25.067728,188.843849 25.6167602,186.203841 C28.1719616,173.91986 31.2841324,161.807403 34.9193599,150.058499 C37.6805684,141.134552 41.0651843,132.659599 44.6679105,124.335351 C48.8084941,114.769554 53.2332634,104.698706 59.0176165,96.7551977 C59.0360956,96.5667759 59.0726392,96.3618318 59.1194475,96.1495413 C57.1871493,95.3684289 59.3145155,86.8309483 59.6691674,85.2070717 C60.5698802,81.0832933 61.7271233,77.0266499 62.9906868,73.0924716 C64.0274892,69.8642707 65.2750682,66.8129603 66.8239562,63.9980964 C69.119108,59.827759 71.9663779,56.3314334 75.0233058,53.2370004 C80.3193418,47.8764084 86.1274709,42.9611541 92.2665377,39.6117697 C103.470265,33.4989917 115.698267,30.9193529 127.619697,34.7747472 C130.671925,35.7618387 133.958921,37.494409 136.109697,40.7450131 Z" id="Fill-1" fill="#75DDEE" mask="url(#mask-25)"></path>
                            </g>
                        </g>
                        <g id="卡片" opacity="0.392159598" stroke-width="1" fill="none" transform="translate(553.000000, 12.000000)">
                            <polygon id="矩形" fill="#FFFFFF" opacity="0.302571615" points="-2.32086861e-12 19.2683248 27.219435 0.601658134 27.219435 38.8238804 -2.32086861e-12 57.490547"></polygon>
                            <polygon id="矩形备份-23" fill="#FFFFFF" points="8.78046289 21.9349915 35.9998978 3.2683248 35.9998978 41.490547 8.78046289 63.7127692"></polygon>
                            <polygon id="矩形" fill="#EDEDED" transform="translate(20.882218, 12.149524) rotate(55.000000) translate(-20.882218, -12.149524) " points="19.5923714 -2.89347088 22.2783107 -5.32820069 22.3649508 27.9608903 19.399486 29.6272484"></polygon>
                            <polygon id="路径-19" fill="#F0E6E6" points="5.26827773 20.9597515 5.26827773 61.2373777 8.78046289 63.7127692 8.78046289 22.4326966"></polygon>
                            <g id="审批" transform="translate(15.804833, 14.823880)" fill="#447CE6" fill-rule="nonzero">
                                <path d="M12.9177185,13.3691753 L8.13056671,19.7212969 L8.13056671,19.7212969 C7.96475722,19.94108 7.71849541,20.0770475 7.45179456,20.0960691 L7.44800388,20.0963342 L7.4480039,20.0963342 C7.17994048,20.1133683 6.91689962,20.0104147 6.72376452,19.8128657 L3.97749556,17.000656 L3.97749555,17.000656 C3.60052405,16.6138755 3.59130796,15.9805095 3.9569112,15.5859957 C4.32251444,15.191482 4.92449192,15.1852126 5.30146342,15.5719932 L7.28959054,17.6100487 L11.4241368,12.1219256 L11.4241368,12.1219256 C11.7492818,11.6898697 12.3472112,11.6188242 12.7596484,11.9632431 C13.1720855,12.3076612 13.2428508,12.9371187 12.9177051,13.3691746 C12.9177051,13.3691746 12.9177051,13.3691746 12.9177051,13.3691746 M12.3724635,0.680792656 L12.3724635,2.6418207 C12.3745885,3.36691224 12.6831582,4.84597261 11.9771851,4.85030746 L3.82892072,11.9614186 C3.12265274,11.9587951 2.55176303,11.3685171 2.55431635,10.6418208 L2.55431635,9.34321025 L2.55176204,8.6820994 L1.27204953,8.6820994 C0.569807621,8.68282244 0.000703434788,9.26733038 0,9.98858036 L0,29.8046302 C0,30.52608 0.569613054,31.1111111 1.27204956,31.1111111 L13.6470759,21.4158373 C14.4237974,20.9713135 14.9164434,20.0366956 14.9178488,19.3164693 L14.9267869,1.98595639 C14.9239717,1.26253599 14.3514371,0.678024416 13.6470759,0.679470133 L12.3724635,0.680792656 Z M10.293253,2.66666667 L4.70632444,7.11111111 C4.40252745,7.11174353 4.12212338,7.27874071 3.97068136,7.54922771 C3.89282382,7.68430769 3.85138702,7.83824239 3.85062851,7.99521471 L3.85062851,8.86620151 C3.85062851,9.35547549 4.23377597,9.75161782 4.706324,9.75161782 L10.2932526,5.30717338 C10.766959,5.30428381 11.1490872,4.90829179 11.1476792,4.42175706 L11.1476792,3.55077027 C11.1471193,3.39418336 11.1056597,3.24061589 11.027619,3.10609564 C10.8769243,2.83531081 10.5969288,2.66776729 10.293253,2.66666667 Z" id="形状"></path>
                            </g>
                        </g>
                        <g id="卡片备份-2" opacity="0.392159598" stroke-width="1" fill="none" transform="translate(423.000000, 132.000000)">
                            <polygon id="矩形" fill="#FFFFFF" opacity="0.302571615" points="-1.53477231e-12 11.8125 18 0 18 24.1875 -1.53477231e-12 36"></polygon>
                        </g>
                        <g id="卡片备份" opacity="0.322707403" stroke-width="1" fill="none" transform="translate(719.000000, 120.000000)">
                            <polygon id="矩形" fill="#FFFFFF" opacity="0.302571615" points="-1.31773006e-12 11.1486486 15.4545016 1.78378378 15.4545016 20.9594595 -1.31773006e-12 30.3243243"></polygon>
                            <polygon id="矩形备份-23" fill="#FFFFFF" points="4.54544165 12.0405405 19.9999432 2.67567568 19.9999432 21.8513514 4.54544165 33"></polygon>
                            <polygon id="矩形" fill="#EDEDED" transform="translate(11.363604, 7.135135) rotate(55.000000) translate(-11.363604, -7.135135) " points="11.4358818 -0.959809537 12.6642294 -2.49718058 11.7099406 15.7010821 10.0629788 16.7674509"></polygon>
                            <polygon id="路径-19" fill="#F0E6E6" points="2.72726499 11.5945946 2.72726499 31.7606311 4.54544165 33 4.54544165 12.3320627"></polygon>
                        </g>
                        <g id="草" filter="url(#filter-26)" stroke-width="1" fill="none" transform="translate(747.868181, 241.879443) rotate(59.000000) translate(-747.868181, -241.879443) translate(671.368181, 200.379443)">
                            <path d="M84.2401335,93.8280736 C85.0015369,84.4235471 85.695711,75.0553725 85.5071973,65.5731637 C85.3958374,59.985344 84.9490981,54.4210527 84.6428326,48.8421153 C84.6347271,49.5289764 84.6124199,50.2163194 84.5761669,50.9016053 C84.4202868,49.219704 83.759421,47.4684107 83.5115167,45.7666206 C83.2349653,43.868649 83.0898054,41.9367957 82.9670376,40.0224035 C82.7271223,36.2860229 82.5393436,32.5578992 82.1785839,28.8298857 C81.7764029,24.676342 81.190495,20.5387095 80.6991222,16.3958233 C80.2820807,12.8797517 79.9611994,9.22079422 79.2046506,5.76547273 C78.7923999,3.88217193 78.4794824,1.8955013 78.0868136,-0.0165403022 C77.9553402,-0.656399378 77.1098286,-7.63090576 77.1253891,-7.6265717 C77.4666401,-7.53152338 78.2048897,-4.33032119 78.337332,-3.85333589 C78.724558,-2.46017137 79.0091981,-1.04337405 79.2989853,0.3774672 C79.8164166,-1.06965093 80.4618004,-2.44771874 81.299208,-3.67728747 C81.5576393,-4.05688844 83.4006981,-6.87376142 83.8048395,-6.76119629 C84.0066941,-6.70497392 81.0043672,-1.25247881 80.6687658,-0.793875509 C80.3962048,-0.421342438 79.9346587,0.018626506 79.7234708,0.436967044 C79.3822982,1.11250057 79.5210806,0.958515519 79.5620291,1.66504326 C79.6370483,2.96002483 80.0872611,4.33314471 80.2913817,5.61344499 C80.406709,6.29866362 80.5727459,8.60856031 80.9491894,9.72725056 C81.7610506,13.4347322 82.0177595,17.7511 82.4362421,21.6217904 C83.0057194,19.9359697 83.7352868,18.3607793 84.6142324,16.8700039 C84.8227458,16.5159149 86.58052,13.1811582 86.8876243,13.2666957 C87.2331976,13.3629479 84.8024867,18.8109889 84.527013,19.263369 C84.015423,20.1036535 83.3184947,20.8607314 82.8599334,21.733275 C82.3567066,22.6910031 82.7133537,23.7785986 82.851358,24.9399871 C83.3589787,29.2126932 83.704402,33.4814652 83.9448024,37.7771068 C90.3521802,36.4030259 93.1935666,27.8978576 94.8138824,21.4934755 C95.9814805,16.8776521 96.2722377,11.9270257 96.1684506,7.1050884 C96.0300164,0.66973372 94.9679003,-5.80180096 93.7312931,-12.0919692 C92.2903974,-19.421293 89.7050885,-26.3290885 86.2196551,-32.7238216 C84.3967566,-36.0684239 82.1810796,-39.1441942 79.8957055,-42.0845865 C78.7793728,-43.5210782 77.5923549,-44.7859229 76.1648662,-45.8097305 C75.5212317,-46.2709136 74.8451631,-46.6633437 74.1526776,-47.0125779 C73.6265071,-47.2779003 72.6226303,-48.1850248 72.1396354,-48.160068 C68.2027316,-47.988523 65.0344789,-46.7626356 62.1651023,-43.6424776 C59.4487668,-40.6890392 57.3771429,-36.830628 55.8846158,-32.8952342 C54.2227858,-28.5128666 53.1500057,-23.926494 52.9428716,-19.1078888 C52.784787,-15.431462 53.0129372,-11.7205459 53.2488498,-8.04322879 C54.0877436,5.03596591 57.1390874,19.6575261 65.8080329,29.1185793 C68.6140359,32.1812723 71.9441073,34.4421343 75.4823213,36.1344985 C76.3160366,36.5332494 77.1503503,36.9240752 78.013553,37.2253221 C78.5954512,37.4286404 80.6204041,37.5089604 80.9900308,37.925931 C81.4968074,38.4975212 81.3911513,40.9100269 81.4858713,41.8218223 C82.2051398,48.7517692 82.7059634,55.6970936 83.0354308,62.6555103 C83.3857961,70.0587998 83.3796962,77.4338034 83.1369925,84.8251305 C83.0336648,87.9689071 82.9191783,91.1043551 82.7325558,94.2421597 C82.6893678,94.9722384 82.1733435,97.1626392 82.6409513,97.9483275 C82.9366496,98.4452034 83.4912442,98.4297437 83.803431,98.0092548 C84.3463424,97.2781906 84.1621788,94.7909655 84.2401335,93.8280736" id="Leaf" fill="#80F3FD" transform="translate(74.539214, 25.081473) rotate(-88.000000) translate(-74.539214, -25.081473) "></path>
                            <path d="M122.879062,49.8090658 C122.958329,49.3923924 120.833913,43.0913727 121.605112,42.999193 C121.936271,42.9596103 122.689947,45.4093531 122.776326,45.7486906 C123.117458,47.0912369 123.086053,48.4620947 122.879062,49.8090658 Z M137.227626,53.8150725 C137.183495,53.8364109 136.561109,55.3099556 136.348396,55.7416237 C135.896703,56.6597823 135.40232,57.5620911 134.887373,58.4461382 C135.88402,56.9718589 136.76331,55.5593317 137.227626,53.8150725 Z M84.9277031,18.4391498 C84.1206459,18.013219 84.3043761,16.686171 85.2779959,17.290351 C86.0643815,17.780211 86.0756093,17.7210257 86.9391614,17.5805256 C87.6403932,17.4664317 88.3610651,17.192301 89.0586076,17.0341359 C90.5381572,16.6986719 92.0241328,16.4539495 93.5532856,16.3617793 C96.8310399,16.163862 100.097252,16.4363965 103.270498,17.0881156 C108.808127,18.2256814 114.481628,19.879345 119.181226,22.5647403 C126.653689,26.8345316 133.127916,33.1279464 137.414292,39.6625344 C140.069158,43.7094287 141.827484,47.8795269 140.79269,52.542323 C140.275806,54.8726431 139.22555,57.1569039 137.469797,59.071106 C137.010668,59.5713321 136.366405,59.993365 135.945019,60.5112228 C135.297074,61.3074171 135.434875,61.0607031 136.097944,62.0070351 C136.822092,63.0402875 137.541581,64.0754525 138.257803,65.1125898 C140.132657,67.8283283 141.991208,70.5792301 143.500982,73.4493213 C143.998165,74.3937901 144.420582,75.3625599 144.774045,76.3506434 C145.041793,77.0977156 146.343457,79.9061429 145.757714,80.7726292 C144.78335,82.2147413 143.946852,80.2791424 143.795783,79.6008215 C143.663579,79.0065584 143.502423,78.4144004 143.315236,77.8303245 C142.843886,76.3596939 142.196,74.9381818 141.431194,73.5568553 C140.604841,72.0640355 139.655104,70.6157889 138.710547,69.17212 C137.82937,67.8259423 136.919641,66.4926672 135.997399,65.1656327 C135.485249,64.4283415 134.968747,63.6931521 134.452245,62.9579628 C134.275841,62.7067781 134.115642,62.1572103 133.803242,62.427957 C132.761989,60.8507861 131.253735,59.4150698 129.961544,57.9720559 C128.378593,56.2047613 126.77055,54.4445331 125.013638,52.7904451 C123.746464,51.597505 122.428025,50.4389362 121.016371,49.3586163 C120.191423,48.727402 119.324786,48.1450049 118.415596,47.5961638 C117.916053,47.2948049 116.159259,45.9559032 115.55179,46.0285125 C115.812831,45.9973109 117.312387,47.7851932 117.534084,47.9909708 C118.420133,48.8146217 119.361931,49.5875488 120.319715,50.3551759 C122.097024,51.7797461 123.774992,53.275615 125.33172,54.8641542 C124.995785,55.0911684 123.333408,54.4289991 122.852452,54.3204133 C121.773736,54.0772101 120.675308,53.8903651 119.562918,53.7779448 C117.603476,53.5796841 115.214406,53.3726731 113.349171,53.5956203 C113.898902,53.5299123 115.299469,54.1316395 115.905567,54.2681977 C116.876826,54.4867374 117.866636,54.6736861 118.861293,54.8096687 C119.779575,54.9351225 120.704806,55.0039361 121.633694,55.0580777 C122.563087,55.111933 124.195142,54.9231837 125.083272,55.2291605 C125.136906,55.2476043 125.150065,55.6450591 125.361741,55.7266322 C125.57492,55.8089297 126.129781,55.7073601 126.180118,55.730943 C126.922798,56.0750923 127.596394,57.2490534 128.101098,57.8057967 C129.410498,59.2492391 130.694805,60.7081081 131.988372,62.1611253 C132.389207,62.6112083 132.870274,62.89444 132.654064,63.3240558 C132.423199,63.7820853 131.046341,64.2137308 130.516871,64.4338265 C128.550896,65.2515399 126.494382,65.6903116 124.296572,65.6470744 C120.180021,65.566559 116.445596,64.5198486 112.954343,62.8236137 C99.5820264,56.3266392 88.0393605,47.5195775 82.9236635,35.1969889 C80.8060106,30.095318 78.1059926,22.0667068 84.9277031,18.4391498 Z" id="Leave-the-Leaf!" fill="#4970E6" opacity="0.467680432" transform="translate(113.238005, 48.796199) rotate(-88.000000) translate(-113.238005, -48.796199) "></path>
                            <path d="M86.2627086,-2.21952996 C90.7146534,-1.16850737 95.043222,0.752672515 99.3200372,2.53130844 C106.189425,5.38815566 112.058313,9.07459536 116.623526,15.834008 C124.048288,26.8266517 127.927854,39.5189536 129.400334,53.1173206 C130.167952,60.2054651 130.383434,67.5609127 129.296209,74.5803611 C128.811925,77.7045075 128.150131,80.7835853 127.43129,83.8400622 C126.987635,85.7285023 126.49026,87.5965321 125.977751,89.4595838 C125.668934,90.5810396 125.477612,92.51781 124.71071,93.3459941 C123.789245,94.3410818 122.171793,93.8215281 121.903882,92.3362862 C121.675341,91.0714596 122.511965,89.3291873 122.822033,88.1209086 C123.536174,85.3404845 124.124169,82.5232537 124.656269,79.6858019 C125.486364,75.2557277 125.964157,70.8801844 125.972153,66.3389307 C125.988071,57.1355645 124.605426,47.6866821 122.203401,38.8760527 C116.28637,43.3515458 109.717551,43.6098749 103.10208,40.7451754 C93.6843123,36.6670393 86.1237452,30.7169669 80.2282644,21.1276146 C76.3992735,14.8999679 75.2002195,7.95375953 75.44224,0.496604042 C75.4879469,-0.913544667 75.7205024,-2.87079091 76.9727792,-3.55804082 C78.1781305,-4.21983553 80.0447364,-3.46441464 81.3099554,-3.24510953 C82.9697116,-2.95689997 84.6167701,-2.60810587 86.2627086,-2.21952996 Z" id="Fill-16" fill="#19E5F0" transform="translate(102.728443, 45.016926) rotate(-88.000000) translate(-102.728443, -45.016926) "></path>
                        </g>
                        <g id="人" stroke-width="1" fill="none" transform="translate(442.000000, 82.000000)">
                            <path d="M27.1821555,260.171598 C9.06071851,262.440344 -4.54747351e-13,271.142936 -4.54747351e-13,286.279374 C-4.54747351e-13,308.984031 4.00572417,297.449704 23.0285061,297.449704 C42.051288,297.449704 54.0953281,281.121857 67.7569506,281.121857 C76.8646989,281.121857 87.0503843,274.068258 98.3140067,259.96106 C71.3592196,254.849539 53.6449842,252.061279 45.1713004,251.596281 C36.6976166,251.131283 30.701235,253.989722 27.1821555,260.171598 Z" id="路径-15" fill="url(#linearGradient-27)"></path>
                            <polygon id="路径-6" fill="url(#linearGradient-28)" points="69.9399881 65.1846975 87.2264655 32.03526 88.4373572 29.7131918 84.5162788 25.2027301 61.1141123 53.7947113 61.5418782 69.2680477"></polygon>
                            <path d="M58.6723334,54.1423353 L64.4165334,54.1393165 C65.5211028,54.138736 66.4170037,55.0336957 66.4175842,56.1382651 C66.4175846,56.1389652 66.4175846,56.1396653 66.4175843,56.1403654 L66.4103717,69.8893481 C66.4097926,70.9930974 65.5151723,71.8877186 64.411423,71.8882987 L58.667223,71.8913175 C57.5626537,71.891898 56.6667527,70.9969382 56.6661722,69.8923689 C56.6661718,69.8916688 56.6661718,69.8909687 56.6661722,69.8902686 L56.6733848,56.1412858 C56.6739638,55.0375366 57.5685842,54.1429154 58.6723334,54.1423353 Z" id="矩形" fill="#E5B6B6" transform="translate(61.541878, 63.015317) rotate(-15.000000) translate(-61.541878, -63.015317) "></path>
                            <path d="M56.778798,61.9402252 C61.5299617,61.9390165 64.2180499,60.822502 65.9061865,56.4618969 C66.6514003,54.5369441 67.0841895,50.4834592 66.935633,48.0777644 C66.2481566,36.9449088 65.686108,31.4478834 58.8375827,31.4496246 C51.9890574,31.4513667 44.3842153,39.2110223 44.3821621,47.2989286 C44.38011,55.3868348 49.9302727,61.9419665 56.778798,61.9402252 Z" id="椭圆形" fill="url(#linearGradient-29)" transform="translate(55.673427, 46.694925) rotate(-7.000000) translate(-55.673427, -46.694925) "></path>
                            <path d="M63.5066575,34.7636126 C62.8514481,30.6336148 61.9462331,27.8752189 60.7910124,26.4884252 C57.3610517,22.3709017 52.004601,20.5647707 52.004601,21.7935798 C52.004601,23.6431885 51.0631023,25.8243696 49.1801051,28.337123 C41.7837725,30.4867732 38.0856062,34.3605926 38.0856062,39.9585812 C38.0856062,48.355564 47.3339511,59.8898246 50.5365677,59.2910661 C53.7391843,58.6923077 49.6448118,47.7444167 49.6448118,45.8144334 C49.6448118,43.88445 49.3900313,43.1457695 52.004601,43.1457695 C54.6191706,43.1457695 57.8989944,40.9639264 57.8989944,37.0027297 C57.8989944,34.3619319 59.7682155,33.6155596 63.5066575,34.7636126 Z" id="路径-4" fill="#102060"></path>
                            <g id="手机" transform="translate(92.999736, 0.000000)">
                                <path d="M2.9574891,1.93304386 L18.3077772,10.3004949 C21.2003275,11.8772257 23.0002639,14.9083524 23.0002639,18.2027306 L23.0002639,49.5849836 C23.0002639,51.7941226 21.2094029,53.5849836 19.0002639,53.5849836 C18.3313575,53.5849836 17.6731309,53.4172354 17.0858136,53.0970883 L2.60720098,45.2047882 C1.00022858,44.3288266 0.000263919633,42.6448673 0.000263919633,40.8146572 L0.000263919633,3.68909624 C0.000263919633,2.58452674 0.89569442,1.68909624 2.00026392,1.68909624 C2.33471714,1.68909624 2.66383041,1.77297034 2.9574891,1.93304386 Z" id="矩形" fill="#284197"></path>
                                <path d="M6.01991011,8.11057684 L17.5493794,14.9432298 C19.0686449,15.8435847 20.0002639,17.4786118 20.0002639,19.2446262 L20.0002639,47.810982 C20.0002639,48.9155515 19.1048334,49.810982 18.0002639,49.810982 C17.6414693,49.810982 17.2892813,49.7144623 16.9806177,49.5315405 L5.45114845,42.6988875 C3.93188295,41.7985327 3.00026392,40.1635055 3.00026392,38.3974912 L3.00026392,9.83113537 C3.00026392,8.72656587 3.89569442,7.83113537 5.00026392,7.83113537 C5.35905857,7.83113537 5.71124651,7.92765504 6.01991011,8.11057684 Z" id="矩形备份-19" fill="#E3E9FE"></path>
                                <path d="M6.50026392,16.7584292 L6.56011121,16.7758795 C7.4135209,17.024717 8.00026392,17.8069763 8.00026392,18.6959241 L8.00026392,19.6759546 C8.00026392,20.263224 7.52418805,20.7392998 6.9369187,20.7392998 C6.78636875,20.7392998 6.63753483,20.7073312 6.50026392,20.645509 L6.17897885,20.500813 C5.46157723,20.1777193 5.00026392,19.4640203 5.00026392,18.6772201 L5.00026392,17.8835224 C5.00026392,17.2362751 5.52496153,16.7115775 6.17220883,16.7115775 C6.28322768,16.7115775 6.39368335,16.7273524 6.50026392,16.7584292 Z" id="矩形" fill="#C4DBFB"></path>
                                <path d="M11.5002639,20.7584292 L11.5601112,20.7758795 C12.4135209,21.024717 13.0002639,21.8069763 13.0002639,22.6959241 L13.0002639,23.6759546 C13.0002639,24.263224 12.524188,24.7392998 11.9369187,24.7392998 C11.7863687,24.7392998 11.6375348,24.7073312 11.5002639,24.645509 L11.1789789,24.500813 C10.4615772,24.1777193 10.0002639,23.4640203 10.0002639,22.6772201 L10.0002639,21.8835224 C10.0002639,21.2362751 10.5249615,20.7115775 11.1722088,20.7115775 C11.2832277,20.7115775 11.3936833,20.7273524 11.5002639,20.7584292 Z" id="矩形备份-21" fill="#C4DBFB"></path>
                                <path d="M16.5002639,22.7584292 L16.5601112,22.7758795 C17.4135209,23.024717 18.0002639,23.8069763 18.0002639,24.6959241 L18.0002639,25.6759546 C18.0002639,26.263224 17.524188,26.7392998 16.9369187,26.7392998 C16.7863687,26.7392998 16.6375348,26.7073312 16.5002639,26.645509 L16.1789789,26.500813 C15.4615772,26.1777193 15.0002639,25.4640203 15.0002639,24.6772201 L15.0002639,23.8835224 C15.0002639,23.2362751 15.5249615,22.7115775 16.1722088,22.7115775 C16.2832277,22.7115775 16.3936833,22.7273524 16.5002639,22.7584292 Z" id="矩形备份-22" fill="#C4DBFB"></path>
                                <path d="M7.95012912,28.9130494 L15.9501291,33.2305097 C16.5970213,33.5796262 17.0002639,34.2554679 17.0002639,34.9905541 L17.0002639,40.9690236 C17.0002639,42.0735931 16.1048334,42.9690236 15.0002639,42.9690236 C14.6686452,42.9690236 14.3422306,42.8865645 14.0503987,42.7290679 L6.05039872,38.4116076 C5.40350655,38.0624912 5.00026392,37.3866495 5.00026392,36.6515633 L5.00026392,30.6730938 C5.00026392,29.5685243 5.89569442,28.6730938 7.00026392,28.6730938 C7.33188265,28.6730938 7.65829729,28.7555529 7.95012912,28.9130494 Z" id="矩形" fill="#C4DBFB"></path>
                            </g>
                            <path d="M84.1426184,25.4196813 C85.3741261,23.1242406 86.7543219,20.8686298 88.2832059,18.6528489 C89.8120898,16.437068 91.2950532,14.6947969 92.7320961,13.4260355 L92.7320961,19.4228584 L92.7320961,27.0032106 L88.4373572,29.7131918 L84.1426184,25.4196813 Z" id="路径-7" fill="url(#linearGradient-30)"></path>
                            <path d="M102.08056,59.0096077 C101.218967,57.9558736 100.527217,56.8824771 100.005309,55.7894182 C99.4834018,54.6963594 98.9196343,53.1402571 98.3140067,51.1211115 L101.0835,39.1050716 C101.497605,38.6683582 101.918142,38.6683582 102.345112,39.1050716 C102.772082,39.5417851 102.904567,39.857846 102.742566,40.0532544 C102.742566,40.834103 102.742566,42.3509041 102.742566,44.6036578 C102.742566,47.9827883 104.399116,49.3305192 104.399116,49.3305192 C104.399116,49.3305192 105.0805,45.2822117 106.31907,49.3305192 C107.55764,53.3788267 106.31907,55.9789087 106.31907,58.1611928 C106.31907,59.6160488 104.906233,59.8988538 102.08056,59.0096077 Z" id="路径-8" fill="url(#linearGradient-31)"></path>
                            <g id="腿" transform="translate(67.061207, 197.928308) rotate(5.000000) translate(-67.061207, -197.928308) translate(36.561207, 130.928308)">
                                <path d="M43.7638262,116.505271 L48.4815598,116.507751 C49.585309,116.508331 50.4799294,117.402952 50.4805084,118.506701 L50.4837759,124.735255 C50.484251,125.640856 49.876158,126.433769 49.0014143,126.668155 L44.7843521,127.798114 C43.7174199,128.083997 42.620746,127.450832 42.3348624,126.3839 C42.3014581,126.259234 42.2801997,126.131627 42.2713845,126.002864 L41.7674456,118.641873 C41.6920026,117.539883 42.5241833,116.585384 43.6261734,116.509941 C43.6719905,116.506805 43.717902,116.505247 43.7638262,116.505271 Z" id="矩形" fill="#E5B6B6" transform="translate(46.052838, 122.465569) rotate(15.000000) translate(-46.052838, -122.465569) "></path>
                                <path d="M5.81662955,106.77862 L10.6749931,106.781173 C11.7787423,106.781753 12.6733627,107.676375 12.6739417,108.780124 L12.6769643,114.542064 C12.6775438,115.646633 11.7825832,116.542533 10.6780138,116.543112 C10.6773137,116.543113 10.6766136,116.543113 10.6759135,116.543112 L5.81755003,116.540559 C4.7138008,116.539979 3.81918041,115.645358 3.8186014,114.541609 L3.81557873,108.779669 C3.81499928,107.675099 4.70995993,106.779199 5.81452927,106.77862 C5.81522937,106.77862 5.81592946,106.77862 5.81662955,106.77862 Z" id="矩形备份-20" fill="#E5B6B6" transform="translate(8.246272, 111.660866) rotate(15.000000) translate(-8.246272, -111.660866) "></path>
                                <path d="M6.94366433,2.04548155 C6.94366433,2.04548155 10.1888253,20.6188697 16.6791473,57.7656459 L2.65713532,107.194287 L13.1513913,110.579426 C26.4695326,81.6975627 33.1286033,63.0443822 33.1286033,54.6198844 C33.1286033,46.1953867 30.6936778,29.4144613 25.8238269,4.27710847 C13.2370519,2.78935719 6.94366433,2.04548155 6.94366433,2.04548155 Z" id="路径-9" fill="url(#linearGradient-32)"></path>
                                <path d="M10.8295416,3.88233207 C11.339469,14.7134703 15.1834611,23.5500244 22.361518,30.3919942 C33.1286033,40.654949 41.8246669,59.9969299 41.8246669,74.0379289 C41.8246669,83.398595 41.3731876,98.307102 40.4702292,118.76345 L54.2762561,121.010482 L60.0516918,75.0111884 C58.8626166,58.0785118 57.0779624,45.2351561 54.6977293,36.4811213 C52.3174962,27.7270865 48.3140788,15.5667128 42.6874772,0 L10.8295416,3.88233207 Z" id="路径-10" fill="url(#linearGradient-33)"></path>
                                <path d="M39.7468946,132.749659 C51.9944916,132.85345 58.2826047,132.905346 58.611234,132.905346 C59.104178,132.905346 59.6186223,132.510127 59.6188615,129.241504 C59.6190209,127.062422 56.3715299,125.325344 49.8763884,124.03027 C48.31285,125.151268 47.1155352,125.795459 46.2844438,125.962845 C42.718163,126.68111 40.9197199,125.748531 40.9197628,125.16142 C40.9198049,124.586369 39.4238344,126.23099 39.4236286,129.043879 C39.4236286,129.752472 39.5313839,130.987732 39.7468946,132.749659 Z" id="路径-11" fill="#06103F" transform="translate(49.521245, 128.467808) rotate(-2.000000) translate(-49.521245, -128.467808) "></path>
                                <path d="M1.48462583,122.593918 C13.7333569,122.703859 20.0220516,122.7589 20.3507099,122.759041 C20.8436974,122.759252 21.3579896,122.364361 21.3565978,119.096026 C21.3556661,116.917136 18.1070189,115.178584 11.6106562,113.880371 C10.0475399,115.000487 8.85044128,115.644022 8.01936019,115.810977 C4.45312328,116.527392 2.65405506,115.593995 2.65380455,115.006936 C2.65355919,114.431935 1.15827863,116.075661 1.15947812,118.888303 C1.15978094,119.596834 1.26816351,120.832039 1.48462583,122.593918 Z" id="路径-11备份" fill="#06103F" transform="translate(11.258038, 118.319706) rotate(12.000000) translate(-11.258038, -118.319706) "></path>
                            </g>
                            <g id="路径-22" transform="translate(47.006187, 65.692308)">
                                <mask id="mask-36" fill="white">
                                    <use xlink:href="#path-35"></use>
                                </mask>
                                <use id="蒙版" fill="url(#linearGradient-34)" xlink:href="#path-35"></use>
                                <polygon id="路径-24" fill="url(#linearGradient-37)" mask="url(#mask-36)" points="16.9938132 10.628751 21.617066 76.7033086 41.31596 71.6619818 35.2706188 34.168465 25.427681 10.628751"></polygon>
                            </g>
                            <g id="路径-22" transform="translate(63.000000, 59.321059)">
                                <mask id="mask-40" fill="white">
                                    <use xlink:href="#path-39"></use>
                                </mask>
                                <use id="蒙版" fill="url(#linearGradient-38)" xlink:href="#path-39"></use>
                            </g>
                            <path d="M67,64.5096967 C64.3907897,64.679465 62.5714157,64.7643491 61.5418782,64.7643491 C58.9684149,64.7643491 57.7711248,64.3889135 56.9179574,64.7643491 C55.5350278,65.372906 54.4091191,66.3911141 53.5402312,67.8189736 C56.9807719,67.3140665 61.10216,67.3140665 65.9043954,67.8189736 C70.7066308,68.3238807 73.1765613,68.9391817 73.3141868,69.6648766 C72.6271255,67.8627242 71.8334667,66.6609064 70.9332105,66.0594232 C70.0329543,65.45794 68.7218842,64.9413645 67,64.5096967 Z" id="路径-23" fill="#FFFFFF"></path>
                        </g>
                        <circle id="椭圆形" fill="#FFFFFF" style="mix-blend-mode: soft-light;" opacity="0.254278274" cx="475.5" cy="33.5" r="16.5"></circle>
                        <g id="人" stroke-width="1" fill="none" transform="translate(602.000000, 259.178941) scale(-1, 1) translate(-602.000000, -259.178941) translate(558.000000, 119.678941)">
                            <path d="M28.2737146,237.875488 C10.0873262,240.146691 0.994132013,248.858706 0.994132013,264.011534 C0.994132013,286.740776 5.01421362,275.19396 24.1051775,275.19396 C43.1961415,275.19396 53.1741388,259.719422 69.8368668,252.362245 C80.9453522,247.45746 86.9996467,238.869289 87.9997503,226.597732 C68.7221966,228.85867 54.8313921,229.756388 46.3273367,229.290886 C37.8232813,228.825384 31.8054073,231.686918 28.2737146,237.875488 Z" id="路径-15" fill="url(#linearGradient-41)" transform="translate(44.496941, 252.362245) scale(-1, 1) translate(-44.496941, -252.362245) "></path>
                            <path d="M30.0740307,34.8271616 L33.6338381,35.4115763 C34.6059045,35.5711607 35.3170179,36.4147986 35.3097807,37.3998509 L35.2390216,47.0308328 C35.2309065,48.1353725 34.3289216,49.0242003 33.2243819,49.0160852 C33.0974276,49.0151524 32.9708506,49.0021335 32.8463644,48.9772047 L26.9371831,47.7938675 C25.8541165,47.5769791 25.1519404,46.5231574 25.3688288,45.4400908 C25.3772282,45.3981468 25.3869712,45.3564831 25.3980426,45.3151639 L27.8181757,36.2831045 C28.0842295,35.290178 29.0596563,34.6606315 30.0740307,34.8271616 Z" id="矩形" fill="url(#linearGradient-42)" transform="translate(30.084216, 41.993275) rotate(-15.000000) translate(-30.084216, -41.993275) "></path>
                            <path d="M30.4224251,39.283762 C33.788585,39.283762 36.4413779,38.6457373 36.205547,33.8268051 C36.0093372,29.8174832 38.5683426,29.205563 38.4625438,26.7971205 C38.3318096,23.8210397 36.5861256,20.809106 36.1782622,18.5145945 C35.0207846,12.0029901 34.7373558,9.21971074 31.1918045,8.78437178 C24.2582024,7.93303249 20.0828916,14.142878 19.0184198,22.8123047 C17.9539481,31.4817313 25.5703018,39.283762 30.4224251,39.283762 Z" id="椭圆形" fill="url(#linearGradient-43)" transform="translate(28.691724, 23.995056) rotate(-7.000000) translate(-28.691724, -23.995056) "></path>
                            <path d="M33.5121435,12.4753312 C32.8545857,8.34086135 31.9461261,5.57947874 30.7867649,4.19118336 C27.3445104,0.0692014499 25.7777046,0.197626954 25.7777046,1.42776661 C25.7777046,3.27937815 23.5632169,4.81741694 19.1342414,6.04188299 C11.7113987,8.19386082 7.9999773,12.0718748 7.9999773,17.6759249 C7.9999773,26.082 22.5636091,37.3937463 25.7777046,36.7943396 C28.9918002,36.1949328 28.8154256,25.9461983 28.8154256,24.0141251 C28.8154256,22.082052 28.162824,20.3672043 30.7867649,20.3672043 C33.4107058,20.3672043 29.4315251,18.1820464 29.4315251,14.2165605 C29.4315251,11.5729033 30.7917312,10.9924935 33.5121435,12.4753312 Z" id="路径-4" fill="#102060"></path>
                            <g id="腿" transform="translate(36.976850, 175.734986) rotate(5.000000) translate(-36.976850, -175.734986) translate(6.476850, 108.734986)">
                                <path d="M43.9145477,116.632086 L48.6627967,116.631617 C49.7673661,116.631112 50.6628851,117.526454 50.6629943,118.631024 C50.6629943,118.631155 50.6629943,118.631287 50.662599,118.631419 L50.6619822,124.871066 C50.6618927,125.776204 50.0539163,126.568453 49.1796203,126.80272 L44.9338857,127.940361 C43.8669535,128.226245 42.7702796,127.59308 42.484396,126.526148 C42.4509102,126.401177 42.4296298,126.273252 42.4208539,126.144171 L41.9193516,118.767747 C41.844428,117.665722 42.6770586,116.711616 43.7790841,116.636692 C43.8241736,116.633627 43.8693541,116.63209 43.9145477,116.632086 Z" id="矩形" fill="#E5B6B6" transform="translate(46.218483, 122.600481) rotate(15.000000) translate(-46.218483, -122.600481) "></path>
                                <path d="M5.83199699,106.894942 L10.7206253,106.894459 C11.8251948,106.893955 12.7207138,107.789297 12.7208229,108.893866 C12.7208229,108.893998 12.7208229,108.89413 12.7204276,108.894262 L12.7198568,114.668406 C12.7193523,115.772821 11.8240742,116.668099 10.7196592,116.668603 L5.83103082,116.669086 C4.72646136,116.669591 3.83094238,115.774249 3.83083323,114.669679 C3.83083322,114.669548 3.83083322,114.669416 3.83122853,114.669284 L3.8317993,108.89514 C3.83230384,107.790725 4.72758191,106.895447 5.83199699,106.894942 Z" id="矩形备份-20" fill="#E5B6B6" transform="translate(8.275828, 111.781773) rotate(15.000000) translate(-8.275828, -111.781773) "></path>
                                <path d="M6.96855202,2.0476964 C6.96855202,2.0476964 10.2253444,20.6411958 16.7389292,57.8281947 L2.6666591,107.310358 L13.1985289,110.699162 C26.5644055,81.786025 33.2473438,63.1126468 33.2473438,54.679027 C33.2473438,46.2454071 30.803691,29.4463114 25.9163854,4.28173973 C13.2844965,2.79237751 6.96855202,2.0476964 6.96855202,2.0476964 Z" id="路径-9" fill="url(#linearGradient-44)"></path>
                                <path d="M10.8683571,3.88653587 C11.3801122,14.7294021 15.2378821,23.5755244 22.4416668,30.4249028 C33.2473438,40.6989703 41.9745761,60.0618948 41.9745761,74.1180974 C41.9745761,83.4888992 41.5214786,98.4135492 40.6152837,118.892047 L54.4707947,121.141513 L60.2669308,75.0924108 C59.0735937,58.1413993 57.2825429,45.2841368 54.8937785,36.5206231 C52.5050141,27.7571095 48.4872476,15.5835684 42.8404789,0 L10.8683571,3.88653587 Z" id="路径-10" fill="url(#linearGradient-45)"></path>
                                <path d="M39.8897743,132.892558 C52.1812412,132.99756 58.4918777,133.050061 58.8216839,133.050061 C59.3163932,133.050061 59.8326002,132.6545 59.8326002,129.382328 C59.8326002,127.20088 56.5733278,125.461632 50.054783,124.164585 C48.485743,125.286664 47.2841966,125.931451 46.4501435,126.098945 C42.8711539,126.817679 41.0661888,125.883931 41.0661807,125.296183 C41.0661728,124.720507 39.5650273,126.366783 39.5650273,129.182727 C39.5650273,129.892089 39.6732763,131.1287 39.8897743,132.892558 Z" id="路径-11" fill="#06103F" transform="translate(49.698814, 128.607323) rotate(-2.000000) translate(-49.698814, -128.607323) "></path>
                                <path d="M1.48933653,122.732078 C13.7805895,122.835893 20.0911163,122.8878 20.420917,122.8878 C20.9156181,122.8878 21.4318989,122.492138 21.432162,119.219911 C21.4323375,117.038427 18.173283,115.299457 11.6549986,114.003003 C10.085879,115.125248 8.88429178,115.770159 8.05023684,115.937735 C4.47123889,116.656817 2.66639176,115.723224 2.66643902,115.135465 C2.66648531,114.55978 1.16517083,116.206225 1.16494436,119.022215 C1.16494436,119.73159 1.27307509,120.968211 1.48933653,122.732078 Z" id="路径-11备份" fill="#06103F" transform="translate(11.298553, 118.445402) rotate(12.000000) translate(-11.298553, -118.445402) "></path>
                            </g>
                            <g id="路径-26" transform="translate(17.094508, 43.162333)">
                                <mask id="mask-48" fill="white">
                                    <use xlink:href="#path-47"></use>
                                </mask>
                                <use id="蒙版" fill="url(#linearGradient-46)" xlink:href="#path-47"></use>
                                <polygon fill="url(#linearGradient-49)" mask="url(#mask-48)" points="18.6361853 21.4325272 20.2885384 76 33.6386667 70.6239922 41.4054921 66.2332837 35.1958079 26.1587261"></polygon>
                            </g>
                            <path d="M75.425812,112.187413 L75.0462818,116.528759 L74.0777846,121.860264 C73.442208,122.948813 72.9564669,123.469736 72.6205614,123.423032 C72.284656,123.376329 72.0693196,122.547643 71.9745523,120.936976 L71.8627326,117.91127 L70.6450766,115.334463 L69.6937522,111.742014 L69.6829897,109.494871 L69.2943587,102.825588 L72.2697522,103.135279 L73.5328244,108.983547 L75.425812,112.187413 Z" id="路径-20" fill="#F3CFC2" transform="translate(72.360085, 113.125751) rotate(-30.000000) translate(-72.360085, -113.125751) "></path>
                            <path d="M42.5857802,47.9808917 C38.0750891,46.0301226 35.8197435,47.6864807 35.8197435,52.9499661 C35.8197435,60.8451943 34.9325022,62.5088048 38.7591412,71.0828025 C42.5857802,79.6568003 62.7785384,105.550178 65.3357305,107.279612 C67.0405253,108.432569 68.2119279,107.972278 68.8499384,105.898742 L50.7310486,72.0033635 L50.7310486,64.9467883 C50.0808754,60.9900019 48.9033914,56.9910612 47.1985967,52.9499661 C45.493802,48.9088711 43.9561965,47.252513 42.5857802,47.9808917 Z" id="路径-21" fill="url(#linearGradient-50)"></path>
                            <path d="M36.3636467,41.9932749 C29.806595,42.7726467 25.9368698,43.1623326 24.7544712,43.1623326 C23.5720726,43.1623326 23.0185499,44.5047703 23.0939032,47.1896457 C29.1306078,46.391019 33.8936554,45.9917057 37.3830463,45.9917057 C40.8724371,45.9917057 42.6066701,46.391019 42.5857451,47.1896457 C41.7802525,46.0818963 41.0037069,45.2158345 40.2561084,44.5914603 C39.5085098,43.9670861 38.2110226,43.1010243 36.3636467,41.9932749 Z" id="路径-23" fill="#FFFFFF"></path>
                        </g>
                    </g>
                </g>
                <g id="灯" mask="url(#mask-2)">
                    <g transform="translate(348.000000, 305.500000) rotate(-7.000000) translate(-348.000000, -305.500000) translate(266.000000, 257.000000)">
                        <rect id="矩形" fill="url(#linearGradient-51)" x="64.3110869" y="87.9416267" width="42" height="9"></rect>
                        <g id="路径-29" stroke-width="1" fill="none" transform="translate(81.659242, 46.282873) rotate(-10.000000) translate(-81.659242, -46.282873) translate(4.659242, 13.282873)">
                            <mask id="mask-54" fill="white">
                                <use xlink:href="#path-53"></use>
                            </mask>
                            <use id="蒙版" fill="url(#linearGradient-52)" xlink:href="#path-53"></use>
                            <path d="M29.7300748,27.2167605 C38.8392895,34.4347616 54.6247891,38.6223993 77.0865736,39.7796734 C110.77925,41.5155847 139.863704,21.8034263 146.439939,21.8034263 C150.824096,21.8034263 154.110632,19.4180835 156.299547,14.647398 C139.748224,12.356163 128.80807,12.9760256 123.479087,16.5069858 C118.150104,20.0379461 109.183066,20.9133335 96.5779742,19.133148 L63.7644582,19.133148 L54.0376823,14.647398 L50.8341698,6.29649304 L36.3933618,-2.35814083 L20.1210109,-8.64651639 C9.25029628,-6.55039121 3.81493899,-5.50232861 3.81493899,-5.50232861 C3.81493899,-5.50232861 -6.96078186,5.76792836 -7.05849836,8.975828 C-7.12364269,11.1144278 -8.95029708,19.0772365 -12.5384615,32.8642543 C-11.3318319,38.6318079 -10.728517,41.5155847 -10.728517,41.5155847 C-10.728517,41.5155847 -3.86778958,44.2833409 9.85366532,49.8188534 L26.3476421,46.2747139 L29.7300748,41.5155847 L29.7300748,27.2167605 Z" fill="#EECA5F" mask="url(#mask-54)"></path>
                        </g>
                        <path d="M72.2532243,22.0720424 L78.2519119,10.9747381 L81.8609209,10.9728535 L88.056937,22.0637901 C84.5824879,21.1761421 81.9487674,20.7327862 80.1557753,20.7337224 C78.3627833,20.7346587 75.7285996,21.1807654 72.2532243,22.0720424 Z" id="路径-27" fill="#E5A93C" transform="translate(80.155081, 16.522448) rotate(-10.000000) translate(-80.155081, -16.522448) "></path>
                        <ellipse id="椭圆形" fill="#EECA5F" transform="translate(78.405970, 7.761834) rotate(-10.000000) translate(-78.405970, -7.761834) " cx="78.4059705" cy="7.7618342" rx="3.13490446" ry="3.14389957"></ellipse>
                        <polygon id="路径-28" fill="#E0973C" points="76.4750014 77.916895 72.4771132 87.916895 95.4771132 87.916895 92.4414314 79.4070022 92.4414314 77.916895"></polygon>
                        <circle id="椭圆形" fill="#EECA60" cx="60.4258049" cy="57.001921" r="3.5"></circle>
                        <ellipse id="椭圆形备份-6" fill="#FCE397" transform="translate(78.577790, 38.077118) rotate(-8.000000) translate(-78.577790, -38.077118) " cx="78.5777904" cy="38.077118" rx="3.91850108" ry="1.96500219"></ellipse>
                        <ellipse id="椭圆形备份-7" fill="#FCE397" transform="translate(92.722441, 35.966268) rotate(-9.000000) translate(-92.722441, -35.966268) " cx="92.7224411" cy="35.9662677" rx="3.91856216" ry="1.96497184"></ellipse>
                        <ellipse id="椭圆形备份-8" fill="#FCE397" transform="translate(104.266008, 34.512778) rotate(-15.000000) translate(-104.266008, -34.512778) " cx="104.266008" cy="34.512778" rx="2.7433498" ry="1.5717747"></ellipse>
                        <ellipse id="椭圆形备份-9" fill="#FCE397" transform="translate(67.209702, 38.271165) rotate(5.000000) translate(-67.209702, -38.271165) " cx="67.2097019" cy="38.2711647" rx="2.74285209" ry="1.57205771"></ellipse>
                        <circle id="椭圆形备份" fill="#FFFFFF" cx="49.1108066" cy="46.3028176" r="2"></circle>
                    </g>
                </g>
            </g>
        </g>
    </g>
</svg>