<?xml version="1.0" encoding="UTF-8"?>
<svg width="20px" height="20px" viewBox="0 0 20 20" version="1.1" xmlns="http://www.w3.org/2000/svg" xmlns:xlink="http://www.w3.org/1999/xlink">
    <!-- Generator: Sketch 60 (88103) - https://sketch.com -->
    <title>路径</title>
    <desc>Created with Sketch.</desc>
    <g id="页面-1" stroke="none" stroke-width="1" fill="none" fill-rule="evenodd">
        <g id="首页02-飞屏" transform="translate(-713.000000, -94.000000)" fill="#F7CD73" fill-rule="nonzero">
            <g id="飞屏弹出" transform="translate(156.000000, 60.000000)">
                <path d="M567.000547,45.5344486 L558.91785,53.6139851 L558.91785,53.6139851 C558.468652,54.0624311 557.743924,54.0647314 557.291913,53.6191459 L557.291913,53.6191459 C556.902411,53.227405 556.902737,52.5927416 557.292647,52.2014111 L565.470793,44.0001992 L557.348454,35.8550371 L557.348454,35.855037 C556.9276,35.4335577 556.926625,34.749227 557.346279,34.326538 C557.350155,34.3226338 557.354061,34.3187594 557.357997,34.3149152 L557.357996,34.3149154 C557.792248,33.8910421 558.484828,33.8956391 558.913464,34.3252366 L567.015982,42.4504915 L575.117783,34.3259566 L575.117783,34.3259566 C575.551318,33.8912981 576.253597,33.8919173 576.686372,34.3273373 C576.686647,34.3276142 576.686922,34.3278912 576.687197,34.3281684 C577.10561,34.7513505 577.104141,35.4355228 576.683527,35.856491 L568.548715,43.9876496 L576.683527,52.1453392 L576.683527,52.1453392 C577.104176,52.5670274 577.104818,53.2513581 576.684958,53.6738382 C576.681326,53.6774927 576.677668,53.681121 576.673984,53.6847229 L576.673984,53.6847229 C576.239643,54.1090786 575.546507,54.1044816 575.117782,53.6744013 L567.001321,45.5343871 L567.000547,45.5344486 Z" id="路径"></path>
            </g>
        </g>
    </g>
</svg>