<?xml version="1.0" encoding="UTF-8"?>
<svg width="100px" height="100px" viewBox="0 0 100 100" version="1.1" xmlns="http://www.w3.org/2000/svg" xmlns:xlink="http://www.w3.org/1999/xlink">
    <!-- Generator: Sketch 60 (88103) - https://sketch.com -->
    <title>图标-01待确认</title>
    <desc>Created with Sketch.</desc>
    <g id="页面-1" stroke="none" stroke-width="1" fill="none" fill-rule="evenodd">
        <g id="首页02" transform="translate(-90.000000, -376.000000)">
            <g id="功能" transform="translate(30.000000, 326.000000)">
                <g id="图标-01待确认" transform="translate(60.000000, 50.000000)">
                    <rect id="矩形" fill="#F6F8F9" x="0" y="0" width="100" height="100" rx="30"></rect>
                    <g id="待确认-icon" transform="translate(31.000000, 26.000000)">
                        <path d="M4,0 L37,0 C39.209139,-4.05812251e-16 41,1.790861 41,4 L41,29 C41,38.9411255 32.9411255,47 23,47 L4,47 C1.790861,47 2.705415e-16,45.209139 0,43 L0,4 C-2.705415e-16,1.790861 1.790861,4.05812251e-16 4,0 Z" id="矩形" fill="#599BF8"></path>
                        <rect id="矩形备份" fill="#FFFFFF" x="7" y="18" width="21" height="4" rx="2"></rect>
                        <rect id="矩形备份-2" fill="#FFFFFF" x="7" y="8" width="29" height="4" rx="2"></rect>
                        <g id="编组" transform="translate(21.000000, 26.000000)" fill-rule="nonzero">
                            <path d="M25.9654767,11.7529837 C25.6396508,5.4516447 20.4316075,0.33277916 14.0185254,0.0164156364 C6.53487242,-0.356997048 0.37521054,5.69021392 0.757926727,13.0495556 C1.08375267,19.3508946 6.29179593,24.4697601 12.704878,24.7861237 C20.188531,25.1595364 26.3430211,19.1123254 25.9654767,11.7529837 Z" id="u" fill="#F5C142"></path>
                            <path d="M17.9494651,17.7899166 L10.5397004,17.7899166 C9.51530892,17.7899166 8.69010471,16.9951537 8.69010471,16.0169839 L8.69010471,7.22457154 C8.69010471,6.31865294 9.37303233,5.50721666 10.3120578,5.40161879 C11.4388884,5.27378978 12.389296,6.1074572 12.389296,7.16343593 L12.389296,14.249609 L17.8754812,14.249609 C18.8258889,14.249609 19.6681663,14.9054273 19.7819875,15.8057881 C19.9185731,16.8784402 19.0478403,17.7899166 17.9494651,17.7899166 L17.9494651,17.7899166 Z" id="路径" fill="#FFFFFF"></path>
                        </g>
                    </g>
                </g>
            </g>
        </g>
    </g>
</svg>