<?xml version="1.0" encoding="UTF-8"?>
<svg width="100px" height="100px" viewBox="0 0 100 100" version="1.1" xmlns="http://www.w3.org/2000/svg" xmlns:xlink="http://www.w3.org/1999/xlink">
    <!-- Generator: Sketch 60 (88103) - https://sketch.com -->
    <title>图标-03定价审批</title>
    <desc>Created with Sketch.</desc>
    <g id="首页&amp;登录" stroke="none" stroke-width="1" fill="none" fill-rule="evenodd">
        <g id="首页02备份" transform="translate(-560.000000, -376.000000)">
            <g id="功能" transform="translate(30.000000, 326.000000)">
                <g id="图标-03定价审批" transform="translate(530.000000, 50.000000)">
                    <rect id="矩形" fill="#F6F8F9" x="0" y="0" width="100" height="100" rx="30"></rect>
                    <g id="定价审批-icon" transform="translate(30.000000, 22.000000)">
                        <path d="M36,4.00063158 C38.209139,4.00063158 40,5.79149258 40,8.00063158 L40,33.3690526 C40,43.3101781 31.9411255,51.3690526 22,51.3690526 L4,51.3690526 C1.790861,51.3690526 2.705415e-16,49.5781916 0,47.3690526 L0,8.00063158 C-2.705415e-16,5.79149258 1.790861,4.00063158 4,4.00063158 L7.44314,3.99911221 C7.39411357,4.24935539 7.36842105,4.50795799 7.36842105,4.7725614 L7.36842105,4.7725614 L7.36842105,5.26378947 C7.36842105,7.47292847 9.15928205,9.26378947 11.3684211,9.26378947 L11.3684211,9.26378947 L28.0701754,9.26378947 C30.2793144,9.26378947 32.0701754,7.47292847 32.0701754,5.26378947 L32.0701754,5.26378947 L32.0701754,4.7725614 C32.0701754,4.50795799 32.0444829,4.24935539 31.9954565,3.99911221 L36,4.00063158 Z" id="形状结合" fill="#599BF8"></path>
                        <rect id="矩形" fill="#599BF8" opacity="0.754324777" x="10" y="0" width="20" height="7" rx="3.5"></rect>
                        <path d="M44.224474,42.7529837 C43.8986481,36.4516447 38.6906048,31.3327792 32.2775227,31.0164156 C24.7938697,30.643003 18.6342078,36.6902139 19.016924,44.0495556 C19.34275,50.3508946 24.5507932,55.4697601 30.9638753,55.7861237 C38.4475283,56.1595364 44.6020183,50.1123254 44.224474,42.7529837 Z" id="u" fill="#F5C142" fill-rule="nonzero"></path>
                        <path d="M31.0808446,48.4545507 C30.8806166,48.7738381 30.4753165,49 30.0280332,49 C29.6760195,49 29.2642605,48.9018856 28.9816807,48.6341499 L24.4926996,44.6962591 C23.9096613,44.1279766 23.8345632,43.1991707 24.3183075,42.5394063 C24.9545156,41.8675724 25.832935,41.8210096 26.4368483,42.3398516 L29.8390958,45.2999118 L36.4304576,37.5006522 C37.0214529,36.8820328 37.8998723,36.838796 38.5054003,37.359301 C39.1141578,37.9812462 39.1577558,38.8858938 38.6539565,39.507839 L31.0808446,48.4545507 Z" id="路径" fill="#FFFFFF" fill-rule="nonzero"></path>
                        <path d="M25.2891594,27.2221712 L22.2462166,27.2221712 L22.2462166,27.2221712 L22.2462166,28.3909731 L25.2865134,28.3909731 C26.2176101,28.3909731 26.9724131,29.1457761 26.9724131,30.0768728 C26.9724131,31.0079695 26.2176101,31.7627725 25.2865134,31.7627725 L22.2462166,31.7627725 L22.2462166,31.7627725 L22.2462166,33.2398771 C22.2462166,34.2119661 21.4581827,35 20.4860937,35 C19.5140047,35 18.7259709,34.2119661 18.7259709,33.2398771 L18.7259709,31.7627725 L18.7259709,31.7627725 L15.8180462,31.7627725 C14.8864595,31.7627725 14.1312593,31.0075723 14.1312593,30.0759856 C14.1312593,29.1443989 14.8864595,28.3891987 15.8180462,28.3891987 L18.7259709,28.3891987 L18.7259709,28.3891987 L18.7259709,27.2203968 L15.8136259,27.2203968 C14.8844805,27.2203968 14.1312593,26.4671757 14.1312593,25.5380303 C14.1312593,24.6088849 14.8844805,23.8556638 15.8136259,23.8556638 L16.8155813,23.8556638 L16.8155813,23.8556638 L13.967158,19.9685479 C13.4860542,19.312007 13.6282741,18.3897638 14.284815,17.90866 C14.3261925,17.8783391 14.3691249,17.8501992 14.4134369,17.8243552 C15.2385037,17.3431536 16.287379,17.5018651 16.933142,18.2056268 L20.5044051,22.0976396 L20.5044051,22.0976396 L23.9923059,18.2353432 C24.6437968,17.5139204 25.7094773,17.3429436 26.5539499,17.8243552 C27.2270243,18.2080573 27.461607,19.064744 27.0779049,19.7378184 C27.0384617,19.807008 26.9931981,19.8727129 26.9426046,19.9342211 L23.7170262,23.8556638 L23.7170262,23.8556638 L25.2891462,23.8556638 C26.2187826,23.8556638 26.9724029,24.6092811 26.9724065,25.5389175 C26.9724102,26.4685492 26.2187977,27.2221676 25.289166,27.2221712 C25.2891638,27.2221712 25.2891616,27.2221712 25.2891594,27.2221712 Z" id="路径" fill="#FFFFFF" opacity="0.970958891"></path>
                    </g>
                </g>
            </g>
        </g>
    </g>
</svg>