<?xml version="1.0" encoding="UTF-8"?>
<svg width="100px" height="100px" viewBox="0 0 100 100" version="1.1" xmlns="http://www.w3.org/2000/svg" xmlns:xlink="http://www.w3.org/1999/xlink">
    <!-- Generator: Sketch 60 (88103) - https://sketch.com -->
    <title>图标-05待处理放款</title>
    <desc>Created with Sketch.</desc>
    <defs>
        <linearGradient x1="50%" y1="0%" x2="50%" y2="100%" id="linearGradient-1">
            <stop stop-color="#71CAFA" offset="0%"></stop>
            <stop stop-color="#508FF7" offset="100%"></stop>
        </linearGradient>
    </defs>
    <g id="页面-1" stroke="none" stroke-width="1" fill="none" fill-rule="evenodd">
        <g id="首页02" transform="translate(-325.000000, -558.000000)">
            <g id="功能" transform="translate(30.000000, 326.000000)">
                <g id="图标-05待处理放款" transform="translate(295.000000, 232.000000)">
                    <rect id="矩形" fill="#F6F8F9" x="0" y="0" width="100" height="100" rx="30"></rect>
                    <g id="支付-icon" transform="translate(28.000000, 28.000000)">
                        <path d="M45,8.39987537 L5.07008193e-05,8.39987537 L5.07008193e-05,2.80097742 C5.07008193e-05,1.25234607 1.25951071,0 2.81351336,0 L42.1865373,0 C43.7405364,0 45,1.25387093 45,2.80097742 L45,8.39987537 L45,8.39987537 Z M44.9999497,11.2008528 L44.9999497,32.2005502 C44.9999497,33.7461282 43.7404897,34.9999996 42.186487,34.9999996 L2.81346302,34.9999996 L2.81346308,34.9999996 C1.26047794,35.0008427 0.000848944048,33.7481721 0,32.2020786 C0,32.2015694 0,32.2010602 0,32.2005509 L0,11.2008528 L44.9999497,11.2008528 L44.9999497,11.2008528 Z M8.43712727,16.7997507 L8.43712721,16.7997507 C7.66021217,16.7997507 7.03039768,17.4267703 7.03039768,18.2002377 C7.03039768,18.973705 7.66021217,19.6007246 8.43712721,19.6007246 L16.8744555,19.6007246 L16.8744555,19.6007246 C17.6513706,19.6007246 18.2811851,18.973705 18.2811851,18.2002377 C18.2811851,17.4267703 17.6513706,16.7997507 16.8744555,16.7997507 L8.43712729,16.7997507 L8.43712727,16.7997507 Z M8.43712727,22.4001879 L8.43712732,22.4001879 C7.66063655,22.4257263 7.05195968,23.0731073 7.07760961,23.8461522 C7.10207191,24.5833378 7.69665574,25.175282 8.43712732,25.1996369 L14.0625282,25.1996369 L14.0625282,25.1996369 C14.8390189,25.1740984 15.4476958,24.5267174 15.4220459,23.7536725 C15.3975835,23.0164869 14.8029997,22.4245427 14.0625282,22.4001879 L8.43712731,22.4001879 L8.43712727,22.4001879 Z" id="形状" fill="url(#linearGradient-1)" fill-rule="nonzero"></path>
                        <path d="M21,12 L46,12 C48.209139,12 50,13.790861 50,16 L50,34 C50,36.209139 48.209139,38 46,38 L25,38 C22.790861,38 21,36.209139 21,34 L21,12 L21,12 Z" id="矩形" fill="#F5C142" fill-rule="nonzero"></path>
                        <path d="M45,8.39987537 L5.07008193e-05,8.39987537 L5.07008193e-05,2.80097742 C5.07008193e-05,1.25234607 1.25951071,0 2.81351336,0 L42.1865373,0 C43.7405364,0 45,1.25387093 45,2.80097742 L45,8.39987537 L45,8.39987537 Z M44.9999497,11.2008528 L44.9999497,32.2005502 C44.9999497,33.7461282 43.7404897,34.9999996 42.186487,34.9999996 L2.81346302,34.9999996 L2.81346308,34.9999996 C1.26047794,35.0008427 0.000848944048,33.7481721 0,32.2020786 C0,32.2015694 0,32.2010602 0,32.2005509 L0,11.2008528 L44.9999497,11.2008528 L44.9999497,11.2008528 Z M8.43712727,16.7997507 L8.43712721,16.7997507 C7.66021217,16.7997507 7.03039768,17.4267703 7.03039768,18.2002377 C7.03039768,18.973705 7.66021217,19.6007246 8.43712721,19.6007246 L16.8744555,19.6007246 L16.8744555,19.6007246 C17.6513706,19.6007246 18.2811851,18.973705 18.2811851,18.2002377 C18.2811851,17.4267703 17.6513706,16.7997507 16.8744555,16.7997507 L8.43712729,16.7997507 L8.43712727,16.7997507 Z M8.43712727,22.4001879 L8.43712732,22.4001879 C7.66063655,22.4257263 7.05195968,23.0731073 7.07760961,23.8461522 C7.10207191,24.5833378 7.69665574,25.175282 8.43712732,25.1996369 L14.0625282,25.1996369 L14.0625282,25.1996369 C14.8390189,25.1740984 15.4476958,24.5267174 15.4220459,23.7536725 C15.3975835,23.0164869 14.8029997,22.4245427 14.0625282,22.4001879 L8.43712731,22.4001879 L8.43712727,22.4001879 Z" id="形状" fill="#599BF8"></path>
                    </g>
                </g>
            </g>
        </g>
    </g>
</svg>