<?xml version="1.0" encoding="UTF-8"?>
<svg width="65px" height="60px" viewBox="0 0 65 60" version="1.1" xmlns="http://www.w3.org/2000/svg" xmlns:xlink="http://www.w3.org/1999/xlink">
    <!-- Generator: Sketch 60 (88103) - https://sketch.com -->
    <title>申请图标-04二手商用房</title>
    <desc>Created with Sketch.</desc>
    <defs>
        <linearGradient x1="50%" y1="0.497773491%" x2="50%" y2="100%" id="linearGradient-1">
            <stop stop-color="#FFAB43" offset="0.0712626689%"></stop>
            <stop stop-color="#FFBE84" offset="100%"></stop>
        </linearGradient>
        <linearGradient x1="50%" y1="0%" x2="50%" y2="100%" id="linearGradient-2">
            <stop stop-color="#FFE4BB" offset="0%"></stop>
            <stop stop-color="#FFC88B" offset="100%"></stop>
        </linearGradient>
        <linearGradient x1="50%" y1="0%" x2="50%" y2="100%" id="linearGradient-3">
            <stop stop-color="#FFE4BB" offset="0%"></stop>
            <stop stop-color="#FFB869" offset="100%"></stop>
        </linearGradient>
    </defs>
    <g id="页面-1" stroke="none" stroke-width="1" fill="none" fill-rule="evenodd">
        <g id="首页02" transform="translate(-615.000000, -975.000000)">
            <g id="申请" transform="translate(36.000000, 836.000000)">
                <g id="申请图标-04二手商用房" transform="translate(579.000000, 139.000000)">
                    <g id="编组-4">
                        <path d="M37.4383305,17.9830844 L63.0786814,33.5788791 C64.2717489,34.3045647 65,35.5999119 65,36.9963465 L65,55.4285714 C65,57.6377104 63.209139,59.4285714 61,59.4285714 L35.3596491,59.4285714 C33.1505101,59.4285714 31.3596491,57.6377104 31.3596491,55.4285714 L31.3596491,21.4005518 C31.3596491,19.1914128 33.1505101,17.4005518 35.3596491,17.4005518 C36.0928363,17.4005518 36.8119197,17.6020688 37.4383305,17.9830844 Z" id="矩形" fill="#FC995F" fill-rule="nonzero"></path>
                        <g id="编组-2">
                            <rect id="矩形" fill="url(#linearGradient-1)" fill-rule="nonzero" x="4.40460526" y="15.9663309" width="49.9188596" height="43.5445387" rx="4"></rect>
                            <path d="M42.541866,43.8670908 L44.8828748,43.8670908 C46.2635867,43.8670908 47.3828748,44.986379 47.3828748,46.3670908 L47.3828748,59.7366561 L47.3828748,59.7366561 L40.041866,59.7366561 L40.041866,46.3670908 C40.041866,44.986379 41.1611542,43.8670908 42.541866,43.8670908 Z" id="矩形" fill="#FFE3B8"></path>
                            <path d="M29.3601112,20.0812255 L29.3640351,20.3207847 L29.3640351,20.3207847 C29.3640351,24.3289488 26.0773535,27.5782078 22.0230263,27.5782078 C17.9686991,27.5782078 14.6820175,24.3289488 14.6820175,20.3207847 C14.6820175,19.8237724 14.7325536,19.338429 14.8288227,18.8695026 L29.2172299,18.8695026 C29.2979718,19.2627957 29.3465434,19.6676371 29.3601112,20.0812255 Z M44.0421288,20.0812255 L44.0460526,20.3207847 L44.0460526,20.3207847 C44.0460526,24.3289488 40.7593711,27.5782078 36.7050439,27.5782078 C32.6507167,27.5782078 29.3640351,24.3289488 29.3640351,20.3207847 C29.3640351,19.8237724 29.4145711,19.338429 29.5108403,18.8695026 L43.8992474,18.8695026 C43.9799893,19.2627957 44.028561,19.6676371 44.0421288,20.0812255 Z M58.7280702,20.3207847 C58.7280702,24.3289488 55.4413886,27.5782078 51.3870614,27.5782078 C47.3327342,27.5782078 44.0460526,24.3289488 44.0460526,20.3207847 C44.0460526,19.8237724 44.0965886,19.338429 44.1928578,18.8695026 L58.581265,18.8695026 C58.6775342,19.338429 58.7280702,19.8237724 58.7280702,20.3207847 Z M14.6780937,20.0812255 L14.6820175,20.3207847 L14.6820175,20.3207847 C14.6820175,24.3289488 11.395336,27.5782078 7.34100877,27.5782078 C3.28668158,27.5782078 0,24.3289488 0,20.3207847 C0,19.8237724 0.050536016,19.338429 0.146805193,18.8695026 L14.5352124,18.8695026 C14.6159542,19.2627957 14.6645259,19.6676371 14.6780937,20.0812255 Z" id="形状结合" fill="url(#linearGradient-2)" fill-rule="nonzero"></path>
                            <path d="M16.1456435,1.42108547e-14 L44.4769242,1.42108547e-14 C45.856943,1.04046357e-14 47.1394944,0.711357147 47.8701964,1.88205196 L58.4721547,18.8679881 L58.4721547,18.8679881 L0.22011162,18.8679881 L12.9255605,1.62701346 C13.6795062,0.60392808 14.8747628,9.1152412e-15 16.1456435,1.42108547e-14 Z" id="矩形" fill="url(#linearGradient-3)" fill-rule="nonzero"></path>
                        </g>
                        <path d="M13.4035088,33.1428571 L17.3847118,33.1428571 C18.8048726,33.1428571 19.9561404,34.2941249 19.9561404,35.7142857 C19.9561404,37.1344465 18.8048726,38.2857143 17.3847118,38.2857143 L13.4035088,38.2857143 C12.2989393,38.2857143 11.4035088,37.3902838 11.4035088,36.2857143 L11.4035088,35.1428571 C11.4035088,34.0382876 12.2989393,33.1428571 13.4035088,33.1428571 Z" id="矩形" fill="#FFE3BA"></path>
                        <path d="M13.4035088,40.5714286 L17.3847118,40.5714286 C18.8048726,40.5714286 19.9561404,41.7226964 19.9561404,43.1428571 C19.9561404,44.5630179 18.8048726,45.7142857 17.3847118,45.7142857 L13.4035088,45.7142857 C12.2989393,45.7142857 11.4035088,44.8188552 11.4035088,43.7142857 L11.4035088,42.5714286 C11.4035088,41.4668591 12.2989393,40.5714286 13.4035088,40.5714286 Z" id="矩形备份" fill="#FFE3BA"></path>
                    </g>
                </g>
            </g>
        </g>
    </g>
</svg>