<?xml version="1.0" encoding="UTF-8"?>
<svg width="100px" height="100px" viewBox="0 0 100 100" version="1.1" xmlns="http://www.w3.org/2000/svg" xmlns:xlink="http://www.w3.org/1999/xlink">
    <!-- Generator: Sketch 60 (88103) - https://sketch.com -->
    <title>图标-06待提交放款</title>
    <desc>Created with Sketch.</desc>
    <g id="页面-1" stroke="none" stroke-width="1" fill="none" fill-rule="evenodd">
        <g id="首页02" transform="translate(-560.000000, -558.000000)">
            <g id="功能" transform="translate(30.000000, 326.000000)">
                <g id="图标-06待提交放款" transform="translate(530.000000, 232.000000)">
                    <rect id="矩形" fill="#F6F8F9" x="0" y="0" width="100" height="100" rx="30"></rect>
                    <g id="待放款-icon" transform="translate(27.000000, 28.000000)">
                        <rect id="矩形" fill="#599BF8" x="0" y="0" width="45.8440678" height="22.4542373" rx="4"></rect>
                        <path d="M35.0897859,37.6163764 C39.0676622,38.1116735 42.0588638,36.8157776 44.0633906,33.7286886 C46.5932847,41.5289094 46.5932847,45.6938396 44.0633906,46.2234792 C40.2685495,47.0179386 29.1229715,36.8734307 35.0897859,37.6163764 Z" id="矩形" fill="#F5C142"></path>
                        <rect id="矩形" fill="#FFFFFF" fill-rule="nonzero" x="5.61355932" y="4.6779661" width="35.5525424" height="14.0338983" rx="4"></rect>
                        <path d="M11.4847458,7.48474576 L34.359322,7.48474576 C36.568461,7.48474576 38.359322,9.27560676 38.359322,11.4847458 L38.359322,26.6293231 L38.359322,26.6293231 C38.2794452,33.224749 38.7846034,37.9197979 39.8747967,40.7144699 C40.9649899,43.5091418 42.4833916,45.3074924 44.4300018,46.1095215 C39.6765271,48.4274676 35.4757726,49.5864407 31.8277383,49.5864407 C29.7134075,49.5864407 27.5990766,49.5864407 25.4847458,49.5864407 C15.5436203,49.5864407 7.48474576,41.5275662 7.48474576,31.5864407 L7.48474576,11.4847458 C7.48474576,9.27560676 9.27560676,7.48474576 11.4847458,7.48474576 Z" id="矩形" fill="#599BF8"></path>
                        <path d="M27.402739,31.0824381 L24.5557823,31.0824381 L24.5557823,31.0824381 L24.5557823,32.1759612 L27.4002634,32.1759612 C28.2713912,32.1759612 28.9775797,32.8821498 28.9775797,33.7532776 C28.9775797,34.6244053 28.2713912,35.3305939 27.4002634,35.3305939 L24.5557823,35.3305939 L24.5557823,35.3305939 L24.5557823,36.712563 C24.5557823,37.6220429 23.8185032,38.359322 22.9090233,38.359322 C21.9995434,38.359322 21.2622643,37.6220429 21.2622643,36.712563 L21.2622643,35.3305939 L21.2622643,35.3305939 L18.5416297,35.3305939 C17.6700435,35.3305939 16.9634833,34.6240337 16.9634833,33.7524475 C16.9634833,32.8808613 17.6700435,32.1743011 18.5416297,32.1743011 L21.2622643,32.1743011 L21.2622643,32.1743011 L21.2622643,31.0807781 L18.537494,31.0807781 C17.6681919,31.0807781 16.9634833,30.3760694 16.9634833,29.5067673 C16.9634833,28.6374652 17.6681919,27.9327566 18.537494,27.9327566 L19.4749167,27.9327566 L19.4749167,27.9327566 L16.8099513,24.2959973 C16.3598338,23.6817421 16.4928937,22.8188976 17.1071489,22.3687802 C17.1458615,22.3404121 17.1860287,22.3140847 17.2274867,22.2899052 C17.9994137,21.8396962 18.9807343,21.9881857 19.5849058,22.6466203 L22.9261553,26.2879611 L22.9261553,26.2879611 L26.1894116,22.6744228 C26.7989421,21.9994645 27.7959855,21.8394997 28.5860684,22.2899052 C29.2157923,22.6488943 29.4352662,23.4504045 29.0762771,24.0801284 C29.0393744,24.1448617 28.997026,24.2063348 28.9496911,24.2638814 L25.9318618,27.9327566 L25.9318618,27.9327566 L27.4027266,27.9327566 C28.2724882,27.9327566 28.9775702,28.6378358 28.9775736,29.5075974 C28.977577,30.3773545 28.2725023,31.0824347 27.4027452,31.0824381 C27.4027431,31.0824381 27.402741,31.0824381 27.402739,31.0824381 Z" id="路径" fill="#FFFFFF"></path>
                    </g>
                </g>
            </g>
        </g>
    </g>
</svg>