<?xml version="1.0" encoding="UTF-8"?>
<svg width="44px" height="44px" viewBox="0 0 44 44" version="1.1" xmlns="http://www.w3.org/2000/svg" xmlns:xlink="http://www.w3.org/1999/xlink">
    <!-- Generator: Sketch 60 (88103) - https://sketch.com -->
    <title>我的未点亮</title>
    <desc>Created with Sketch.</desc>
    <g id="页面-1" stroke="none" stroke-width="1" fill="none" fill-rule="evenodd">
        <g id="首页02" transform="translate(-635.000000, -1245.000000)" fill="#333435" fill-rule="nonzero">
            <g id="底部导航" transform="translate(0.000000, 1234.000000)">
                <g id="我的" transform="translate(635.000000, 11.000000)">
                    <g id="未选择" transform="translate(0.000000, 2.000000)">
                        <g id="编组" transform="translate(2.000000, 0.000000)">
                            <path d="M20,3 C10.626625,3 3,10.626625 3,20 C3,29.373375 10.626625,37 20,37 C29.373375,37 37,29.373375 37,20 C37,10.626625 29.373375,3 20,3 M20,40 C8.97222222,40 0,31.0277778 0,20 C0,8.97222222 8.97222222,0 20,0 C31.0277778,0 40,8.97222222 40,20 C40,31.0277778 31.0277778,40 20,40" id="Fill-1"></path>
                            <path d="M15.5555556,16.6666667 C15.5555556,17.8933333 14.8088889,18.8888889 13.8888889,18.8888889 C12.9688889,18.8888889 12.2222222,17.8933333 12.2222222,16.6666667 C12.2222222,15.44 12.9688889,14.4444444 13.8888889,14.4444444 C14.8088889,14.4444444 15.5555556,15.44 15.5555556,16.6666667" id="Fill-3"></path>
                            <path d="M28.8888889,16.6666667 C28.8888889,17.8933333 28.1422222,18.8888889 27.2222222,18.8888889 C26.3022222,18.8888889 25.5555556,17.8933333 25.5555556,16.6666667 C25.5555556,15.44 26.3022222,14.4444444 27.2222222,14.4444444 C28.1422222,14.4444444 28.8888889,15.44 28.8888889,16.6666667" id="Fill-5"></path>
                        </g>
                    </g>
                </g>
            </g>
        </g>
    </g>
</svg>