<?xml version="1.0" encoding="UTF-8"?>
<svg width="44px" height="44px" viewBox="0 0 44 44" version="1.1" xmlns="http://www.w3.org/2000/svg" xmlns:xlink="http://www.w3.org/1999/xlink">
    <!-- Generator: Sketch 60 (88103) - https://sketch.com -->
    <title>产品未点亮</title>
    <desc>Created with Sketch.</desc>
    <g id="页面-1" stroke="none" stroke-width="1" fill="none" fill-rule="evenodd">
        <g id="首页02" transform="translate(-446.000000, -1249.000000)" fill="#333435" fill-rule="nonzero">
            <g id="底部导航" transform="translate(0.000000, 1234.000000)">
                <g id="产品" transform="translate(446.000000, 15.000000)">
                    <g id="未选择" transform="translate(1.000000, 1.000000)">
                        <path d="M15.8378378,4.62162162 L15.8378378,14.8918919 L5.56756757,14.8918919 L5.56756757,4.62162162 L15.8378378,4.62162162 M15.8378378,2.05405405 L5.56756757,2.05405405 C4.02702703,2.05405405 3,3.08108108 3,4.62162162 L3,14.8918919 C3,16.4324324 4.02702703,17.4594595 5.56756757,17.4594595 L15.8378378,17.4594595 C17.3783784,17.4594595 18.4054054,16.4324324 18.4054054,14.8918919 L18.4054054,4.62162162 C18.4054054,3.08108108 17.3783784,2.05405405 15.8378378,2.05405405 Z M15.8378378,25.1621622 L15.8378378,35.4324324 L5.56756757,35.4324324 L5.56756757,25.1621622 L15.8378378,25.1621622 M15.8378378,22.5945946 L5.56756757,22.5945946 C4.02702703,22.5945946 3,23.6216216 3,25.1621622 L3,35.4324324 C3,36.972973 4.02702703,38 5.56756757,38 L15.8378378,38 C17.3783784,38 18.4054054,36.972973 18.4054054,35.4324324 L18.4054054,25.1621622 C18.4054054,23.6216216 17.3783784,22.5945946 15.8378378,22.5945946 Z M36.3783784,25.1621622 L36.3783784,35.4324324 L26.1081081,35.4324324 L26.1081081,25.1621622 L36.3783784,25.1621622 M36.3783784,22.5945946 L26.1081081,22.5945946 C24.5675676,22.5945946 23.5405405,23.6216216 23.5405405,25.1621622 L23.5405405,35.4324324 C23.5405405,36.972973 24.5675676,38 26.1081081,38 L36.3783784,38 C37.9189189,38 38.9459459,36.972973 38.9459459,35.4324324 L38.9459459,25.1621622 C38.9459459,23.6216216 37.9189189,22.5945946 36.3783784,22.5945946 Z M31.2432432,2.56756757 L38.4324324,9.75675676 L31.2432432,16.9459459 L24.0540541,9.75675676 L31.2432432,2.56756757 M31.2432432,0 C30.472973,0 29.9594595,0.256756757 29.4459459,0.77027027 L22.2567568,7.95945946 C21.2297297,8.98648649 21.2297297,10.527027 22.2567568,11.5540541 L29.4459459,18.7432432 C29.9594595,19.2567568 30.7297297,19.5135135 31.2432432,19.5135135 C31.7567568,19.5135135 32.527027,19.2567568 33.0405405,18.7432432 L40.2297297,11.5540541 C41.2567568,10.527027 41.2567568,8.98648649 40.2297297,7.95945946 L33.0405405,0.77027027 C32.527027,0.256756757 32.0135135,0 31.2432432,0 Z" id="产品"></path>
                    </g>
                </g>
            </g>
        </g>
    </g>
</svg>