<?xml version="1.0" encoding="UTF-8"?>
<svg width="44px" height="44px" viewBox="0 0 44 44" version="1.1" xmlns="http://www.w3.org/2000/svg" xmlns:xlink="http://www.w3.org/1999/xlink">
    <!-- Generator: Sketch 60 (88103) - https://sketch.com -->
    <title>首页点亮</title>
    <desc>Created with Sketch.</desc>
    <g id="页面-1" stroke="none" stroke-width="1" fill="none" fill-rule="evenodd">
        <g id="首页02" transform="translate(-72.000000, -1247.000000)" fill="#333435" fill-rule="nonzero">
            <g id="底部导航" transform="translate(0.000000, 1234.000000)">
                <g id="首页" transform="translate(72.000000, 13.000000)">
                    <g id="未选择" transform="translate(0.000000, 3.000000)">
                        <g id="编组" transform="translate(2.000000, 0.000000)">
                            <path d="M18.9156235,3.87934173 L4.08269244,13.6727755 C3.76520968,13.8823933 3.57631313,14.2328833 3.57631313,14.6104207 L3.57631313,32.563171 C3.57631313,33.1841356 4.08610623,33.6901484 4.71424417,33.6901484 L35.4383821,33.6901484 C36.0653821,33.6901484 36.5763131,33.1841356 36.5763131,32.563171 L36.5763131,14.6543728 C36.5763131,14.2621847 36.3760373,13.9049329 36.0403476,13.697569 L20.1491407,3.86131009 C19.7713476,3.62577181 19.2843131,3.63478763 18.9156235,3.87934173 M36.3641919,37.1143909 L3.63691919,37.1143909 C1.63085859,37.1143909 0.000555555556,35.4828757 0.000555555556,33.4780272 L0.000555555556,14.1689363 C0.000555555556,12.9507545 0.60540404,11.8186333 1.61873737,11.1434818 L17.4199495,0.610148436 C18.605404,-0.181366715 20.1544949,-0.204397018 21.3641919,0.553178739 L38.2902525,11.1313606 C39.3605556,11.8004515 40.0005556,12.9543909 40.0005556,14.216209 L40.0005556,33.4780272 C40.0005556,35.4828757 38.3690404,37.1143909 36.3641919,37.1143909" id="Fill-3"></path>
                            <path d="M19.6666667,31.9655556 C18.8371667,31.9655556 18.1666667,31.4677778 18.1666667,30.8544444 C18.8333333,29.1118236 19.1666667,27.8048579 19.1666667,26.9335474 C19.1666667,26.0764628 18.8333333,24.7908359 18.1666667,23.0766667 C18.1666667,22.4633333 18.8371667,21.9655556 19.6666667,21.9655556 C20.4961667,21.9655556 21.1666667,22.4633333 21.1666667,23.0766667 C21.8333333,24.7984388 22.1666667,26.0897678 22.1666667,26.9506539 C22.1666667,27.8181629 21.8333333,29.1194264 21.1666667,30.8544444 C21.1666667,31.4677778 20.4961667,31.9655556 19.6666667,31.9655556" id="Fill-5" transform="translate(20.166667, 26.965556) rotate(90.000000) translate(-20.166667, -26.965556) "></path>
                        </g>
                    </g>
                </g>
            </g>
        </g>
    </g>
</svg>