<?xml version="1.0" encoding="UTF-8"?>
<svg width="44px" height="44px" viewBox="0 0 44 44" version="1.1" xmlns="http://www.w3.org/2000/svg" xmlns:xlink="http://www.w3.org/1999/xlink">
    <!-- Generator: Sketch 60 (88103) - https://sketch.com -->
    <title>产品点亮</title>
    <desc>Created with Sketch.</desc>
    <defs>
        <linearGradient x1="50%" y1="0%" x2="50%" y2="100%" id="linearGradient-1">
            <stop stop-color="#3372F6" offset="0%"></stop>
            <stop stop-color="#49A2F8" offset="100%"></stop>
        </linearGradient>
    </defs>
    <g id="页面-1" stroke="none" stroke-width="1" fill="none" fill-rule="evenodd">
        <g id="首页02" transform="translate(-446.000000, -1249.000000)" fill="url(#linearGradient-1)">
            <g id="底部导航" transform="translate(0.000000, 1234.000000)">
                <g id="产品" transform="translate(446.000000, 15.000000)">
                    <g id="选择" transform="translate(1.000000, 1.000000)">
                        <path d="M15.8378378,22.5945946 C17.3783784,22.5945946 18.4054054,23.6216216 18.4054054,25.1621622 L18.4054054,25.1621622 L18.4054054,35.4324324 C18.4054054,36.972973 17.3783784,38 15.8378378,38 L15.8378378,38 L5.56756757,38 C4.02702703,38 3,36.972973 3,35.4324324 L3,35.4324324 L3,25.1621622 C3,23.6216216 4.02702703,22.5945946 5.56756757,22.5945946 L5.56756757,22.5945946 Z M36.3783784,22.5945946 C37.9189189,22.5945946 38.9459459,23.6216216 38.9459459,25.1621622 L38.9459459,25.1621622 L38.9459459,35.4324324 C38.9459459,36.972973 37.9189189,38 36.3783784,38 L36.3783784,38 L26.1081081,38 C24.5675676,38 23.5405405,36.972973 23.5405405,35.4324324 L23.5405405,35.4324324 L23.5405405,25.1621622 C23.5405405,23.6216216 24.5675676,22.5945946 26.1081081,22.5945946 L26.1081081,22.5945946 Z M31.2432432,0 C32.0135135,0 32.527027,0.256756757 33.0405405,0.77027027 L33.0405405,0.77027027 L40.2297297,7.95945946 C41.2567568,8.98648649 41.2567568,10.527027 40.2297297,11.5540541 L40.2297297,11.5540541 L33.0405405,18.7432432 C32.527027,19.2567568 31.7567568,19.5135135 31.2432432,19.5135135 C30.7297297,19.5135135 29.9594595,19.2567568 29.4459459,18.7432432 L29.4459459,18.7432432 L22.2567568,11.5540541 C21.2297297,10.527027 21.2297297,8.98648649 22.2567568,7.95945946 L22.2567568,7.95945946 L29.4459459,0.77027027 C29.9594595,0.256756757 30.472973,0 31.2432432,0 Z M15.8378378,2.05405405 C17.3783784,2.05405405 18.4054054,3.08108108 18.4054054,4.62162162 L18.4054054,4.62162162 L18.4054054,14.8918919 C18.4054054,16.4324324 17.3783784,17.4594595 15.8378378,17.4594595 L15.8378378,17.4594595 L5.56756757,17.4594595 C4.02702703,17.4594595 3,16.4324324 3,14.8918919 L3,14.8918919 L3,4.62162162 C3,3.08108108 4.02702703,2.05405405 5.56756757,2.05405405 L5.56756757,2.05405405 Z" id="产品"></path>
                    </g>
                </g>
            </g>
        </g>
    </g>
</svg>