<?xml version="1.0" encoding="UTF-8"?>
<svg width="44px" height="44px" viewBox="0 0 44 44" version="1.1" xmlns="http://www.w3.org/2000/svg" xmlns:xlink="http://www.w3.org/1999/xlink">
    <!-- Generator: Sketch 60 (88103) - https://sketch.com -->
    <title>业务未点亮</title>
    <desc>Created with Sketch.</desc>
    <defs>
        <linearGradient x1="50%" y1="0%" x2="50%" y2="100%" id="linearGradient-1">
            <stop stop-color="#3372F6" offset="0%"></stop>
            <stop stop-color="#49A2F8" offset="100%"></stop>
        </linearGradient>
    </defs>
    <g id="页面-1" stroke="none" stroke-width="1" fill="none" fill-rule="evenodd">
        <g id="首页02" transform="translate(-259.000000, -1249.000000)">
            <g id="底部导航" transform="translate(0.000000, 1234.000000)">
                <g id="业务" transform="translate(259.000000, 15.000000)">
                    <g id="选择" transform="translate(0.000000, 1.000000)">
                        <g id="会议" transform="translate(2.000000, 0.000000)">
                            <path d="M27.1160967,0.444502651 C28.215274,0.444502651 29.1161316,1.06519404 29.1161316,1.82256395 L29.115431,3.05750265 L39.2864732,3.0581911 C39.9233231,3.0581911 40.4443724,3.57002613 40.4443724,4.19558227 L40.4443724,12.9135493 L40.438431,13.0185027 L40.444431,13.1248761 L40.444431,40.3071115 L40.444431,40.3071115 C40.444431,40.9326676 39.9233817,41.4445027 39.2865318,41.4445027 L1.60235959,41.4445027 C0.965509629,41.4445027 0.444460333,40.9326676 0.444460333,40.3071115 L0.444431036,4.19558227 C0.444431036,3.57002613 0.965480332,3.0581911 1.6023303,3.0581911 L11.722431,3.05750265 L11.7226329,1.82256395 C11.7226329,1.06518903 12.6234295,0.444502651 13.7226329,0.444502651 C14.8218293,0.444502651 15.7226329,1.06519404 15.7226329,1.82256395 L15.722431,3.05750265 L25.115431,3.05750265 L25.1161316,1.82256395 C25.1161316,1.06518903 26.0169891,0.444502651 27.1160967,0.444502651 Z" id="形状" fill="url(#linearGradient-1)"></path>
                            <g id="编组-3" transform="translate(10.344751, 10.955561)" fill="#FFFFFF" fill-rule="nonzero">
                                <path d="M10.3112674,19.4089244 C8.26555628,19.4089244 6.28785519,18.8276854 4.59913838,17.7195201 C4.08345549,17.3827731 3.94744969,16.7037567 4.30448461,16.2094389 C4.65580039,15.7150733 5.36415251,15.5847346 5.8798354,15.9269586 C7.18888467,16.7852031 8.72458481,17.2361082 10.3112746,17.2361082 C14.640682,17.2361082 18.1654461,13.8572948 18.1654461,9.70721051 C18.1654461,5.557026 14.6407011,2.17831286 10.3112746,2.17831286 C5.98186721,2.17831286 2.45710312,5.557026 2.45710312,9.70721051 C2.45710312,10.6361005 2.63276101,11.5486623 2.984125,12.4178113 C3.21077397,12.9772985 2.91612067,13.6074264 2.33243631,13.8193104 C1.74875291,14.036573 1.09139233,13.7540923 0.870413343,13.1946061 C0.422737171,12.0755887 0.196037124,10.902254 0.196037124,9.70173438 C0.196037124,4.35111617 4.73513225,-1.42108547e-14 10.3169083,-1.42108547e-14 C15.8986509,-1.42108547e-14 20.4377317,4.35111617 20.4377317,9.70173438 C20.4320606,15.0577953 15.8930172,19.4089244 10.3112268,19.4089244 L10.3112674,19.4089244 Z" id="路径"></path>
                                <path d="M2.5767402,14.8973531 L0.0785628118,13.7001135 C-0.0342240816,13.6454557 -0.0229304487,13.486909 0.095478387,13.4486285 L3.83430826,12.2295321 C3.95271738,12.191252 4.05988205,12.3115189 4.00346401,12.4154079 L2.76285927,14.8317441 L2.76285928,14.8317441 C2.72973649,14.9012022 2.64657806,14.9306582 2.57711995,14.8975355 C2.57699295,14.8974749 2.57686605,14.8974142 2.57673923,14.8973532 L2.5767402,14.8973531 Z" id="路径"></path>
                                <path d="M15.423552,11.1956006 L9.91542929,11.1956006 C9.44609541,11.1956006 9.06715834,10.83219 9.06715834,10.381972 L9.06715834,4.67585861 C9.06715834,4.22564012 9.44604767,3.86224916 9.91542929,3.86224916 C10.3847632,3.86224916 10.7637002,4.22564059 10.7637002,4.67585861 L10.7637002,9.56838166 L15.423552,9.56838166 C15.8929346,9.56838166 16.271823,9.9317731 16.271823,10.3819911 C16.271823,10.8322096 15.8929336,11.1956006 15.4235998,11.1956006 L15.423552,11.1956006 Z" id="路径"></path>
                            </g>
                        </g>
                    </g>
                </g>
            </g>
        </g>
    </g>
</svg>