<?xml version="1.0" encoding="UTF-8"?>
<svg width="120px" height="120px" viewBox="0 0 120 120" version="1.1" xmlns="http://www.w3.org/2000/svg" xmlns:xlink="http://www.w3.org/1999/xlink">
    <!-- Generator: Sketch 60 (88103) - https://sketch.com -->
    <title>头像</title>
    <desc>Created with Sketch.</desc>
    <defs>
        <circle id="path-1" cx="60" cy="60" r="60"></circle>
        <polygon id="path-3" points="0 0.776246592 78.6219738 0.776246592 78.6219738 50.3779 0 50.3779"></polygon>
        <polygon id="path-5" points="0.742706238 0.58233437 32.976387 0.58233437 32.976387 30.5888632 0.742706238 30.5888632"></polygon>
    </defs>
    <g id="页面-1" stroke="none" stroke-width="1" fill="none" fill-rule="evenodd">
        <g id="我的2" transform="translate(-47.000000, -178.000000)">
            <g id="信息" transform="translate(47.000000, 178.000000)">
                <g id="头像">
                    <mask id="mask-2" fill="white">
                        <use xlink:href="#path-1"></use>
                    </mask>
                    <use id="蒙版" fill="#A3D1FE" xlink:href="#path-1"></use>
                    <g id="编组" mask="url(#mask-2)">
                        <g transform="translate(21.081081, 28.378378)">
                            <g id="编组" stroke-width="1" fill="none" transform="translate(0.000000, 45.526252)">
                                <mask id="mask-4" fill="white">
                                    <use xlink:href="#path-3"></use>
                                </mask>
                                <g id="Clip-2"></g>
                                <path d="M78.6219738,33.7191239 C68.6767254,43.9910923 54.7414159,50.3779854 39.3109015,50.3779854 C23.8812415,50.3779854 9.94507759,43.9910923 -0.000170880558,33.7191239 C1.43522581,8.66679192 7.1597245,6.96675126 7.1597245,6.96675126 L7.16826853,6.96675126 C8.89501656,5.85758359 30.595993,0.93933437 30.9642406,0.87956398 C31.1513548,0.845409471 31.3393235,0.8104011 31.518748,0.776246592 L47.1030549,0.776246592 C47.3508317,0.828332217 47.6071526,0.871025353 47.8805615,0.913718488 C48.0685301,0.947872997 69.7276408,5.85758359 71.4535344,6.96675126 L71.4620785,6.96675126 C71.4620785,6.96675126 77.1951212,8.66679192 78.6219738,33.7191239" id="Fill-1" fill="#FFFFFF" mask="url(#mask-4)"></path>
                            </g>
                            <path d="M47.4212345,42.991646 C47.4212345,47.4718637 43.7575554,51.1033418 39.2377646,51.1033418 C34.7179738,51.1033418 31.0542947,47.4718637 31.0542947,42.991646 C31.0542947,38.5114284 34.7179738,34.8799503 39.2377646,34.8799503 C43.7575554,34.8799503 47.4212345,38.5114284 47.4212345,42.991646" id="Fill-3" fill="#FBCFCF"></path>
                            <path d="M40.8471177,52.8223382 L43.6504133,49.3291858 L40.892401,49.3291858 C40.6454786,49.6365764 40.2721046,49.8449189 39.7816774,49.8807812 C39.6774403,50.0259378 39.5151037,50.1301091 39.2827062,50.1301091 C39.0280942,50.1301091 38.8614856,50.006299 38.7640837,49.8389419 C38.722218,49.8466266 38.6888963,49.8637039 38.6419041,49.8637039 C38.4812764,49.8637039 38.3608056,49.8099105 38.2634037,49.7330629 C38.2241011,49.7398938 38.1924882,49.7569711 38.1480593,49.7569711 C37.8259494,49.7569711 37.6285824,49.5648519 37.5542493,49.3291858 L34.8244324,49.3291858 L37.627728,52.8223382 L40.8471177,52.8223382 Z" id="Fill-5" fill="#CEE3FC"></path>
                            <polygon id="Fill-7" fill="#CEE3FC" points="40.8471177 52.8223382 39.2374228 52.8223382 37.627728 52.8223382 33.6615902 77.3042899 39.2374228 84.2410706 44.8141099 77.3042899"></polygon>
                            <path d="M46.6902929,39.5066054 C46.6902929,39.5066054 50.3035623,44.7151679 47.4233705,53.4074903 C47.4233705,53.4074903 45.969177,48.1639194 39.310816,50.1662275 C39.310816,50.1662275 47.2943557,45.9430225 46.6902929,39.5066054" id="Fill-9" fill="#FFFFFF"></path>
                            <path d="M31.9318518,39.5066054 C31.9318518,39.5066054 28.3185824,44.7151679 31.1987742,53.4074903 C31.1987742,53.4074903 32.6529677,48.1639194 39.3113287,50.1662275 C39.3113287,50.1662275 31.327789,45.9430225 31.9318518,39.5066054" id="Fill-11" fill="#FFFFFF"></path>
                            <path d="M51.1492502,25.0560036 C51.1492502,25.0560036 56.9139058,18.3839204 54.8684656,26.1677328 C52.8230253,33.9523992 50.6844551,30.9339945 50.6844551,30.9339945 L51.1492502,25.0560036 Z" id="Fill-13" fill="#FBCFCF"></path>
                            <path d="M27.4504237,25.0560036 C27.4504237,25.0560036 21.6866225,18.3839204 23.7312084,26.1677328 C25.7775031,33.9523992 27.9152188,30.9339945 27.9152188,30.9339945 L27.4504237,25.0560036 Z" id="Fill-15" fill="#FBCFCF"></path>
                            <path d="M51.8793374,12.8025613 L51.8793374,28.1259816 C51.8793374,28.5196123 51.8272188,28.9115353 51.7246905,29.2957735 L49.5929555,37.340868 C49.3964429,38.0879978 49.0119616,38.7881653 48.4659983,39.3961155 L45.4431212,42.757773 C44.2708806,44.0616214 42.4569834,44.8258285 40.5328684,44.8258285 L38.0679163,44.8258285 C36.1438012,44.8258285 34.3273409,44.0616214 33.1568091,42.757773 L30.1347864,39.3961155 C29.588823,38.7881653 29.2043418,38.0879978 29.0052659,37.340868 L26.8726765,29.2957735 C26.771857,28.9115353 26.7214473,28.5196123 26.7214473,28.1259816 L26.7214473,12.8025613 L51.8793374,12.8025613 Z" id="Fill-17" fill="#FDE3E3"></path>
                            <path d="M26.7219599,26.8024944 C26.7270863,26.8409182 26.7313583,26.8750727 26.7356303,26.9126427 C26.7296495,26.8597032 26.7245231,26.8204255 26.7219599,26.8024944" id="Fill-19" fill="#324A5E"></path>
                            <path d="M26.7211055,26.7895157 C26.7211055,26.7895157 26.7211055,26.7946388 26.7219599,26.8023236 C26.7219599,26.7980543 26.7211055,26.793785 26.7211055,26.7895157" id="Fill-21" fill="#324A5E"></path>
                            <path d="M26.886347,28.1595384 C26.9145423,28.3926429 26.9239407,28.4703444 26.886347,28.1595384" id="Fill-23" fill="#324A5E"></path>
                            <path d="M51.8667777,28.2275059 C51.8684865,28.3436312 51.8719041,28.4554872 51.8795937,28.56222 C51.8795937,28.56222 51.8753217,28.4384099 51.8667777,28.2275059" id="Fill-25" fill="#324A5E"></path>
                            <g id="编组" stroke-width="1" fill="none" transform="translate(22.214473, 0.271528)">
                                <mask id="mask-6" fill="white">
                                    <use xlink:href="#path-5"></use>
                                </mask>
                                <g id="Clip-28"></g>
                                <path d="M32.7745493,11.0943236 C32.7352467,5.27695695 29.9063191,4.9277271 28.4845929,5.12070007 C24.9670166,-2.86547788 12.6619076,2.11851878 12.6619076,2.11851878 C9.296415,2.11851878 6.1137646,6.46980316 6.1137646,6.46980316 L6.56830689,5.14887754 C1.38464516,7.16911672 2.83969311,9.57871729 2.83969311,9.57871729 C-2.7079442,15.0955243 4.50663296,26.5176458 4.50663296,26.5176458 C4.23835048,24.2941873 5.09702528,22.6154932 5.7771299,21.671121 C6.17015519,21.1255028 6.23679861,20.4620514 5.97791456,19.8609321 C5.96680732,19.8361701 5.95655449,19.8122619 5.94715606,19.7883537 C5.28413949,18.1685762 7.16040802,16.6307694 9.03411334,17.248966 C16.8083243,19.8131158 21.047871,17.5708723 22.8438256,16.0697816 C22.9036338,16.0202576 22.9685684,15.9767106 23.0335031,15.9323097 C30.7812276,14.2749622 28.6776879,27.8445484 28.949388,30.5888632 C29.191184,30.4949383 29.2672258,30.2063327 29.3082371,29.9578586 C29.4338344,29.2192674 29.5423435,28.4781146 29.6423086,27.7361079 C29.6465806,27.8172248 29.6499983,27.8915109 29.6525615,27.9564044 C29.6508527,27.8547948 29.6525615,27.7506235 29.6551247,27.6430368 C29.7687602,26.7977127 29.8695798,25.9506809 29.9516024,25.1019414 C30.6359791,21.2390665 32.2559268,16.3361868 32.2559268,16.3361868 L32.2559268,16.3361868 C33.0770078,13.8949933 33.1146016,12.2308149 32.7745493,11.0943236" id="Fill-27" fill="#102060" mask="url(#mask-6)"></path>
                            </g>
                        </g>
                    </g>
                </g>
            </g>
        </g>
    </g>
</svg>