<?xml version="1.0" encoding="UTF-8"?>
<svg width="80px" height="80px" viewBox="0 0 80 80" version="1.1" xmlns="http://www.w3.org/2000/svg" xmlns:xlink="http://www.w3.org/1999/xlink">
    <!-- Generator: Sketch 60 (88103) - https://sketch.com -->
    <title>我的-图标2</title>
    <desc>Created with Sketch.</desc>
    <defs>
        <linearGradient x1="50%" y1="0%" x2="50%" y2="100%" id="linearGradient-1">
            <stop stop-color="#FFD6A1" offset="0%"></stop>
            <stop stop-color="#FF9A5B" offset="100%"></stop>
        </linearGradient>
    </defs>
    <g id="页面-1" stroke="none" stroke-width="1" fill="none" fill-rule="evenodd">
        <g id="我的2" transform="translate(-79.000000, -593.000000)">
            <g id="列表" transform="translate(30.000000, 355.000000)">
                <g id="我的-图标2" transform="translate(49.000000, 238.000000)">
                    <circle id="椭圆形" fill="#FFF1E6" cx="40" cy="40" r="40"></circle>
                    <g id="修改密码" transform="translate(23.000000, 17.000000)" fill="url(#linearGradient-1)" fill-rule="nonzero">
                        <path d="M29.6052105,17.7304045 L12.0133517,17.7304045 L11.8748332,9.97334494 C11.8748332,7.61852603 14.6452081,5.12517762 18.1081738,5.12517762 C21.5711394,5.12517762 24.3415143,7.75703118 24.3415143,9.97334494 L24.3415143,12.0511251 C24.4800329,13.2977933 25.5881825,14.1289053 26.6963332,14.1289053 C27.804484,14.1289053 28.9126308,13.1592759 29.0511522,12.0511251 L29.0511522,9.83482761 C29.0511522,4.4325991 24.0644797,-1.21744933e-05 17.8311391,-1.21744933e-05 C11.5977985,-1.21744933e-05 6.61112604,4.4325991 6.61112604,9.83482761 L6.61112604,17.5918872 L4.81038456,17.5918872 C2.45556565,17.5918872 0.654824166,19.5311501 0.654824166,21.7474476 L0.654824166,37.4000719 C0.654824166,39.7548908 2.59408703,41.5556323 4.81038456,41.5556323 L29.1896857,41.5556323 C31.5445046,41.5556323 33.3452461,39.6163694 33.3452461,37.4000719 L33.3452461,21.8859933 C33.7608021,19.3926571 31.9600607,17.7304329 29.6052418,17.7304329 L29.6052105,17.7304045 Z M19.4933604,32.1363607 L19.4933604,33.9371022 C19.4933604,35.045253 18.6622483,36.0148824 17.5540975,36.0148824 C16.4459468,36.0148824 15.6148347,35.045253 15.6148347,33.9371022 L15.6148347,32.1363607 C14.0911278,31.443766 12.9829811,29.9200632 12.9829811,28.1193177 C12.9829811,25.6259814 15.0607613,23.5482013 17.5540975,23.5482013 C20.0474338,23.5482013 22.125214,25.6259814 22.125214,28.1193177 C22.125214,29.9200592 21.0170632,31.5822833 19.4933604,32.1363607 Z" id="形状"></path>
                    </g>
                </g>
            </g>
        </g>
    </g>
</svg>