<?xml version="1.0" encoding="UTF-8"?>
<svg width="80px" height="80px" viewBox="0 0 80 80" version="1.1" xmlns="http://www.w3.org/2000/svg" xmlns:xlink="http://www.w3.org/1999/xlink">
    <!-- Generator: Sketch 60 (88103) - https://sketch.com -->
    <title>我的-图标3</title>
    <desc>Created with Sketch.</desc>
    <defs>
        <linearGradient x1="50%" y1="0%" x2="50%" y2="100%" id="linearGradient-1">
            <stop stop-color="#B4F9FB" offset="0%"></stop>
            <stop stop-color="#3E939D" offset="100%"></stop>
        </linearGradient>
        <linearGradient x1="50%" y1="0%" x2="50%" y2="100%" id="linearGradient-2">
            <stop stop-color="#B4F9FB" offset="0%"></stop>
            <stop stop-color="#3E939D" offset="100%"></stop>
        </linearGradient>
    </defs>
    <g id="页面-1" stroke="none" stroke-width="1" fill="none" fill-rule="evenodd">
        <g id="我的2" transform="translate(-79.000000, -747.000000)">
            <g id="列表" transform="translate(30.000000, 355.000000)">
                <g id="我的-图标3" transform="translate(49.000000, 392.000000)">
                    <circle id="椭圆形" fill="#E6F9FF" cx="40" cy="40" r="40"></circle>
                    <g id="缓存" transform="translate(21.000000, 16.000000)" fill="url(#linearGradient-2)" fill-rule="nonzero">
                        <path d="M37.474653,10.5555592 L25.4524515,10.5555592 L25.4524515,5.1110997 L25.4524516,5.1110827 C25.4666427,2.55222816 23.4534766,0.440921016 20.8968603,0.333342766 L19.0746317,0.333342766 L19.0746316,0.333342766 C16.5618474,0.498016009 14.6130248,2.59296649 14.6301733,5.11108271 L14.6301733,10.5555422 L2.49683887,10.5555422 L2.49683872,10.5555422 C1.07387613,10.6002543 -0.0434181382,11.7900397 0.00129285128,13.2130062 C0.00255445822,13.2531566 0.00475441781,13.2932723 0.00789090583,13.33332 L0.00789090583,16.2444562 L0.00789090553,16.2444175 C0.00789111308,17.6189894 1.12218908,18.7333267 2.49676099,18.7333267 L37.0301996,18.7333267 L37.0301994,18.7333267 C38.3591971,18.6185051 39.5063976,17.7559427 39.9857498,16.5110975 L39.9857498,13.3333595 L39.9857497,13.3333604 C40.0140171,11.8894329 38.9141001,10.6726854 37.4746531,10.5555447 L37.474653,10.5555592 Z M19.6968589,8.33333001 L19.6968588,8.33333001 C18.310072,8.32099972 17.1958558,7.18679352 17.2081879,5.80000675 C17.2205182,4.41321998 18.3547244,3.29900384 19.7415111,3.31133588 C21.1108916,3.32351141 22.2180062,4.43062625 22.230182,5.80000675 L22.230182,5.80000686 C22.2183682,7.16103188 21.1243995,8.26487301 19.7635385,8.288916 L19.6968589,8.33333001 Z M2.49683884,30.7778093 L2.49683884,20.5555708 L37.2524262,20.5555708 L37.2524262,30.7778483 L37.2524265,30.7779082 C37.2654228,33.0686609 37.4960994,35.3529917 37.9413453,37.6001037 L37.9413453,37.6001038 C38.1092545,38.0597449 38.0249825,38.5736986 37.7190794,38.9556522 L37.7190795,38.9556521 C37.4050959,39.4025862 36.8872816,39.6615084 36.3413435,39.6445592 L30.6746572,39.6445592 L30.6746572,27.1555602 L30.6746572,27.1555599 C30.6630897,26.7799891 30.3613213,26.4782388 29.9857502,26.4666919 L29.2968822,26.4666919 L29.2968822,26.4666919 C28.9300126,26.4894922 28.640983,26.7881403 28.6302017,27.1555599 L28.6302017,39.6444806 L23.8524618,39.6444806 L23.8524618,27.1333333 L23.8524618,27.1333333 C23.8306513,26.7745497 23.5445282,26.4884615 23.1857423,26.4666919 L22.4968743,26.4666919 L22.4968743,26.4666919 C22.1336739,26.4872704 21.8404634,26.7710048 21.8079672,27.1333333 L21.8079672,39.6444807 L17.0302273,39.6444807 L17.0302273,27.1333333 L17.0302273,27.1333337 C17.0084191,26.7745642 16.722318,26.4884814 16.3635469,26.4666923 L15.6746398,26.4666923 L15.6746398,26.4666923 C15.3114394,26.4872708 15.0182289,26.7710052 14.9857328,27.1333337 L14.9857328,39.6444811 L10.8968608,39.6444811 L10.8968608,27.1333337 L10.8968609,27.1333342 C10.8750526,26.7745646 10.5889515,26.4884819 10.2301804,26.4666928 L9.5413124,26.4666928 L9.54131242,26.4666928 C9.17811199,26.4872712 8.8849015,26.7710056 8.85240536,27.1333342 L8.85240536,39.6444816 L3.4079459,39.6444816 L3.40794593,39.6444816 C2.88301954,39.6022663 2.39592522,39.3547191 2.05239748,38.9555745 C1.83017066,38.5111209 1.58571725,38.0444797 1.83017066,37.6000261 L1.83017053,37.6000268 C2.24264757,35.3485749 2.46565564,33.0665059 2.49685099,30.7777923 L2.49683884,30.7778093 Z" id="形状"></path>
                    </g>
                </g>
            </g>
        </g>
    </g>
</svg>