<?xml version="1.0" encoding="UTF-8"?>
<svg width="80px" height="80px" viewBox="0 0 80 80" version="1.1" xmlns="http://www.w3.org/2000/svg" xmlns:xlink="http://www.w3.org/1999/xlink">
    <!-- Generator: Sketch 60 (88103) - https://sketch.com -->
    <title>编组 4</title>
    <desc>Created with Sketch.</desc>
    <defs>
        <linearGradient x1="50%" y1="0%" x2="50%" y2="100%" id="linearGradient-1">
            <stop stop-color="#71CAFA" offset="0%"></stop>
            <stop stop-color="#2E68F1" offset="100%"></stop>
        </linearGradient>
        <linearGradient x1="50%" y1="0%" x2="50%" y2="100%" id="linearGradient-2">
            <stop stop-color="#71CAFA" offset="0%"></stop>
            <stop stop-color="#2E68F1" offset="100%"></stop>
        </linearGradient>
    </defs>
    <g id="页面-1" stroke="none" stroke-width="1" fill="none" fill-rule="evenodd">
        <g id="我的2" transform="translate(-79.000000, -439.000000)">
            <g id="列表" transform="translate(30.000000, 355.000000)">
                <g id="编组-4" transform="translate(49.000000, 84.000000)">
                    <circle id="椭圆形" fill="#CEE3FC" cx="40" cy="40" r="40"></circle>
                    <g id="图标01" transform="translate(23.000000, 20.000000)" fill-rule="nonzero">
                        <path d="M24.8941204,7.79400964e-05 C25.7760345,-0.00587634272 26.6260881,0.329534374 27.2662635,0.936152946 L27.2662635,0.936152946 L27.4175229,1.09030336 C27.9509149,1.67240442 28.2488871,2.4356835 28.2474094,3.23042166 L28.2474094,3.23042166 L28.2474093,10.6093278 L32.9835425,10.6093278 C34.7980178,10.5750125 36.2979775,12.0156891 36.3368239,13.830071 L36.3368239,13.830071 L36.2973681,20.633284 C34.5580432,19.6754661 32.5593764,19.1305252 30.4334318,19.1305252 C25.6411821,19.1305252 21.4956693,21.8995348 19.5095745,25.9248729 C19.3433082,25.8620373 19.1637504,25.8313541 18.9801353,25.8357726 L18.9801353,25.8357726 L11.6285846,25.8357726 C10.8551686,25.8357726 10.2265986,26.4643426 10.2265986,27.2391224 C10.2265986,28.0152697 10.8538048,28.6438397 11.6285846,28.6438397 L11.6285846,28.6438397 L18.5512038,28.6434912 C18.3602454,29.499951 18.2595188,30.3904316 18.2595188,31.3044382 C18.2595188,33.8909922 19.0661754,36.2891415 20.4416438,38.2610412 L1.43887939,38.2609685 C1.06037284,38.2636655 0.694161338,38.1188203 0.420870055,37.8578271 C0.163974919,37.6132337 0.0136645641,37.2770847 -1.8438584e-12,36.921806 C0.0389783062,36.1599542 0.676194401,35.5669117 1.43887939,35.5826777 L1.43887939,35.5826777 L1.97999477,35.5826777 L1.97999477,3.22089413 C1.96970841,2.36452221 2.30634841,1.54042173 2.91328457,0.936179516 L2.91328457,0.936179516 L3.07706109,0.790665093 C3.69276134,0.277988416 4.47141432,-0.00343955405 5.27725649,7.79400964e-05 L5.27725649,7.79400964e-05 Z M18.9719152,15.7499491 L11.6190194,15.7499454 C11.1106985,15.7417477 10.6365378,16.0013764 10.3673457,16.4331754 C10.1192305,16.8519344 10.1192305,17.3726752 10.3673458,17.7914341 L10.3673458,17.7914341 L10.4408208,17.9144702 C10.704208,18.3097375 11.1475583,18.5535866 11.6285847,18.5593837 L11.6285847,18.5593837 L18.9719152,18.5593837 C19.7453312,18.5593837 20.3725337,17.9308137 20.3725337,17.1546664 C20.3725337,16.3785191 19.7453312,15.7499491 18.9719152,15.7499491 L18.9719152,15.7499491 Z" id="形状结合" fill="url(#linearGradient-1)"></path>
                        <g id="切换" transform="translate(20.868214, 21.739221)">
                            <circle id="椭圆形" fill="url(#linearGradient-2)" cx="9.56521739" cy="9.56521739" r="9.56521739"></circle>
                            <path d="M3.82003028,8.34782609 L13.5107073,8.34782609 C13.8741077,8.34782609 14.3586416,8.10302966 14.6009085,7.73583501 C14.8431754,7.36864037 14.8431754,6.8790475 14.6009085,6.51185286 L13.3895739,4.06388856 C13.0261735,3.5742957 12.2993727,3.32949926 11.8148388,3.5742957 C11.2091715,3.94149034 10.9669046,4.67587963 11.2091715,5.16547249 L11.5725719,5.89986178 L3.82003028,5.89986178 C3.0932295,5.89986178 2.60869565,6.38945464 2.60869565,7.12384394 C2.60869565,7.85823323 3.0932295,8.34782609 3.82003028,8.34782609 Z M13.5712741,10.7826087 L3.88059701,10.7826087 C3.51719663,10.7826087 3.03266277,11.0274051 2.79039585,11.3945998 C2.54812892,11.7617944 2.54812892,12.2513873 2.79039585,12.6185819 L4.00173048,15.0665462 C4.36513087,15.5561391 5.09193165,15.8009355 5.5764655,15.5561391 C6.18213281,15.1889444 6.42439974,14.4545552 6.18213281,13.9649623 L5.81873242,13.230573 L13.5712741,13.230573 C14.2980748,13.230573 14.7826087,12.7409801 14.7826087,12.0065908 C14.7826087,11.2722016 14.2980748,10.7826087 13.5712741,10.7826087 L13.5712741,10.7826087 Z" id="形状" fill="#FFFFFF"></path>
                        </g>
                    </g>
                </g>
            </g>
        </g>
    </g>
</svg>