<?xml version="1.0" encoding="UTF-8"?>
<svg width="42px" height="42px" viewBox="0 0 42 42" version="1.1" xmlns="http://www.w3.org/2000/svg" xmlns:xlink="http://www.w3.org/1999/xlink">
    <!-- Generator: Sketch 60 (88103) - https://sketch.com -->
    <title>加</title>
    <desc>Created with Sketch.</desc>
    <g id="一手房业务" stroke="none" stroke-width="1" fill="none" fill-rule="evenodd">
        <g id="11担保合同01" transform="translate(-235.000000, -182.000000)">
            <g id="编组" transform="translate(30.000000, 158.000000)">
                <g id="加" transform="translate(206.000000, 25.000000)">
                    <circle id="椭圆形" stroke="#3B86F7" stroke-width="2" fill="#FFFFFF" stroke-linecap="square" cx="20" cy="20" r="20"></circle>
                    <path d="M27.0896995,19.0042299 L20.860265,19.0042299 L20.860265,13.045098 C20.860265,12.7638486 20.7573271,12 19.9432206,12 C19.1291141,12 18.8752196,12.6700989 18.8752196,13.045098 L18.8752196,19.0042299 L12.8528187,19.0042299 C12.4778182,18.91048 12,19.6236557 12,19.9986563 C12,20.3736569 12.5032795,21.0036264 12.7845288,21.0036264 L18.8752196,21.0036264 L18.8752196,27.2500003 C18.9689695,27.6250009 19.3047412,28 19.8864412,28 C20.4681411,28 20.860265,27.5312496 20.860265,27.2500003 L20.860265,21.0036264 L26.8127651,21.0036264 C27.1877656,21.0036264 27.8864412,20.671023 27.8864412,19.9986563 C27.8864412,19.5504119 27.6208606,19.2189364 27.0896995,19.0042299 Z" id="路径" fill="#3B86F7" fill-rule="nonzero"></path>
                </g>
            </g>
        </g>
    </g>
</svg>