<?xml version="1.0" encoding="UTF-8"?>
<svg width="32px" height="32px" viewBox="0 0 32 32" version="1.1" xmlns="http://www.w3.org/2000/svg" xmlns:xlink="http://www.w3.org/1999/xlink">
    <!-- Generator: Sketch 60 (88103) - https://sketch.com -->
    <title>编组</title>
    <desc>Created with Sketch.</desc>
    <g id="一手房业务" stroke="none" stroke-width="1" fill="none" fill-rule="evenodd">
        <g id="10合作商搜索" transform="translate(-580.000000, -68.000000)">
            <g id="导航栏">
                <g id="Titlebar-blackelement">
                    <g id="编组-5" transform="translate(104.000000, 51.000000)">
                        <g id="编组" transform="translate(476.000000, 17.000000)">
                            <circle id="椭圆形" fill="#AFB3B6" cx="16" cy="16" r="16"></circle>
                            <path d="M10.2949529,22.7285833 C9.97787198,23.0438968 9.46629951,23.0455142 9.14723244,22.7322119 C8.8722898,22.4567691 8.5652284,21.6581584 8.84045896,21.3830041 L14.5994513,15.96875 L8.84045896,10.241823 C8.54338578,9.94547027 8.88938238,9.46430021 9.18560878,9.16709706 C9.18834493,9.1643519 9.19110205,9.16162772 9.19387988,9.15892477 C9.50041037,8.86088896 9.99238699,8.63543924 10.2949529,8.9375 L16,14.6342937 L21.7301998,8.9375 C22.2647006,8.88683623 22.6337804,8.96355591 22.8374392,9.16765905 C23.1333718,9.46579333 23.3952088,9.9458297 23.0983051,10.241823 L17.3979649,15.96875 L22.8380216,21.3830041 C22.9718879,21.97987 22.9400303,22.3773217 22.7424488,22.5753593 C22.435855,22.8737344 21.7699816,23.080721 21.4673524,22.7783208 L16,17.5733294 L10.2949529,22.7285833 Z" id="路径" fill="#FFFFFF" fill-rule="nonzero"></path>
                        </g>
                    </g>
                </g>
            </g>
        </g>
    </g>
</svg>