<?xml version="1.0" encoding="UTF-8"?>
<svg width="26px" height="15px" viewBox="0 0 26 15" version="1.1" xmlns="http://www.w3.org/2000/svg" xmlns:xlink="http://www.w3.org/1999/xlink">
    <!-- Generator: Sketch 60 (88103) - https://sketch.com -->
    <title>路径</title>
    <desc>Created with Sketch.</desc>
    <g id="一手房业务" stroke="none" stroke-width="1" fill="none" fill-rule="evenodd">
        <g id="12影像信息" transform="translate(-665.000000, -203.000000)" fill="#B3B6C1" fill-rule="nonzero">
            <g id="编组-2" transform="translate(30.000000, 158.000000)">
                <path d="M643.370741,40.3957325 L654.700749,51.5070492 C654.741191,51.538298 654.780276,51.5720239 654.817784,51.6082223 C655.366904,52.1381682 655.366904,53.0167612 654.831864,53.5606521 L643.511536,64.8847332 C643.244016,65.1636524 642.877935,65.3031116 642.525935,65.3031116 C642.173933,65.3031116 641.821931,65.1636525 641.540333,64.8986791 C640.991212,64.3547881 640.991212,63.4901402 641.526253,62.9462493 L651.861,52.608 L641.413618,42.3621082 C640.864497,41.8182173 640.864497,40.9535693 641.399538,40.4096784 C641.934579,39.8657875 642.82162,39.8657875 643.370741,40.3957325 Z" id="路径" transform="translate(648.115701, 52.651556) scale(1, -1) rotate(-270.000000) translate(-648.115701, -52.651556) "></path>
            </g>
        </g>
    </g>
</svg>