<?xml version="1.0" encoding="UTF-8"?>
<svg width="12px" height="21px" viewBox="0 0 12 21" version="1.1" xmlns="http://www.w3.org/2000/svg" xmlns:xlink="http://www.w3.org/1999/xlink">
    <!-- Generator: Sketch 60 (88103) - https://sketch.com -->
    <title>路径</title>
    <desc>Created with Sketch.</desc>
    <g id="一手房业务" stroke="none" stroke-width="1" fill="none" fill-rule="evenodd">
        <g id="12影像信息" transform="translate(-679.000000, -305.000000)" fill="#B3B6C1" fill-rule="nonzero">
            <g id="编组-2" transform="translate(30.000000, 158.000000)">
                <g id="编组" transform="translate(0.000000, 105.000000)">
                    <path d="M650.999022,42.3284332 L660.552551,51.5501311 C660.586651,51.5760657 660.619608,51.604056 660.651235,51.6340985 C661.114257,52.0739204 661.114257,52.8030976 660.663108,53.2544931 L651.117741,62.652772 C650.892168,62.8842576 650.583486,63 650.286678,63 C649.989867,63 649.693057,62.8842576 649.455612,62.6643463 C648.99259,62.2129508 648.99259,61.4953471 649.443739,61.0439517 L658.158058,52.4638514 L649.348765,43.9604021 C648.885743,43.5090066 648.885743,42.7914029 649.336892,42.3400075 C649.788043,41.888612 650.536001,41.888612 650.999022,42.3284332 Z" id="路径" transform="translate(655.000000, 52.500000) scale(1, -1) translate(-655.000000, -52.500000) "></path>
                </g>
            </g>
        </g>
    </g>
</svg>