<?xml version="1.0" encoding="UTF-8"?>
<svg width="40px" height="40px" viewBox="0 0 40 40" version="1.1" xmlns="http://www.w3.org/2000/svg" xmlns:xlink="http://www.w3.org/1999/xlink">
    <!-- Generator: Sketch 60 (88103) - https://sketch.com -->
    <title>关闭-叉</title>
    <desc>Created with Sketch.</desc>
    <g id="一手房业务" stroke="none" stroke-width="1" fill="none" fill-rule="evenodd">
        <g id="12影像信息2" transform="translate(-211.000000, -658.000000)">
            <g id="编组-2备份-2" transform="translate(0.000000, 553.000000)">
                <g id="关闭-叉" transform="translate(211.000000, 105.000000)">
                    <circle id="椭圆形" fill="#000000" opacity="0.65" cx="20" cy="20" r="20"></circle>
                    <path d="M28.4285714,26.0277778 C29,26.5833333 29,27.4166667 28.4285714,27.9722222 C27.8571429,28.5277778 27,28.5277778 26.4285714,27.9722222 L20.4285714,22.1388889 L14.4285714,27.9722222 C13.8571429,28.5277778 13,28.5277778 12.4285714,27.9722222 C11.8571429,27.4166667 11.8571429,26.5833333 12.4285714,26.0277778 L18.4285714,20.1944444 L12.4285714,14.3611111 C11.8571429,13.8055556 11.8571429,12.9722222 12.4285714,12.4166667 C13,11.8611111 13.8571429,11.8611111 14.4285714,12.4166667 L20.4285714,18.25 L26.4285714,12.4166667 C27,11.8611111 27.8571429,11.8611111 28.4285714,12.4166667 C29,12.9722222 29,13.8055556 28.4285714,14.3611111 L22.4285714,20.1944444 L28.4285714,26.0277778 Z" id="路径" fill="#FFFFFF" fill-rule="nonzero"></path>
                </g>
            </g>
        </g>
    </g>
</svg>