<?xml version="1.0" encoding="UTF-8"?>
<svg width="27px" height="26px" viewBox="0 0 27 26" version="1.1" xmlns="http://www.w3.org/2000/svg" xmlns:xlink="http://www.w3.org/1999/xlink">
    <!-- Generator: Sketch 60 (88103) - https://sketch.com -->
    <title>形状</title>
    <desc>Created with Sketch.</desc>
    <g id="一手房业务" stroke="none" stroke-width="1" fill="none" fill-rule="evenodd">
        <g id="10合作商搜索" transform="translate(-125.000000, -71.000000)" fill="#999999" fill-rule="nonzero">
            <g id="导航栏">
                <g id="Titlebar-blackelement">
                    <g id="编组-5" transform="translate(104.000000, 51.000000)">
                        <path d="M47,43.8118728 L42.2894454,39.0897282 C44.1094458,37.0303237 44.7900001,34.673259 44.7900001,31.8415712 C44.7900001,25.2772098 39.4599884,20 32.8300039,20 C26.1999938,20 21,25.4059402 21,31.9703016 C21,38.534663 26.3300116,43.8118728 32.9599961,43.8118728 C35.820003,43.8118728 38.5499921,42.7821693 40.6299947,41.1089154 L45.1800022,45.7425748 C45.4400018,46 45.7000015,46 45.9600012,46 C46.2200009,46 46.4800006,45.8712871 46.7400003,45.7425748 C47,45.4851495 47.1668053,45.1173643 47.2829577,44.9143022 C47.3991101,44.7112402 47.3991101,44.2651988 47.0811534,43.9103502 L47,43.8118728 Z M33,41 C28.0799899,41 24,36.9200101 24,32 C24,27.0799899 27.9599972,23 33,23 C37.9200101,23 42,27.0799899 42,32 C42,36.9200101 37.9200101,41 33,41 Z" id="形状"></path>
                    </g>
                </g>
            </g>
        </g>
    </g>
</svg>