<?xml version="1.0" encoding="UTF-8"?>
<svg width="77px" height="77px" viewBox="0 0 77 77" version="1.1" xmlns="http://www.w3.org/2000/svg" xmlns:xlink="http://www.w3.org/1999/xlink">
    <!-- Generator: Sketch 60 (88103) - https://sketch.com -->
    <title>对勾</title>
    <desc>Created with Sketch.</desc>
    <g id="一手房业务" stroke="none" stroke-width="1" fill="none" fill-rule="evenodd">
        <g id="05完善信息-8暂存成功" transform="translate(-337.000000, -866.000000)" fill="#FFFFFF" fill-rule="nonzero">
            <g id="成功提示" transform="translate(245.000000, 808.000000)">
                <g id="对勾" transform="translate(92.000000, 58.000000)">
                    <path d="M34.4475699,59 C33.5238716,59 32.6001733,58.6486546 31.8957594,57.9460385 L17.0560575,43.166566 C15.6479808,41.7629047 15.6479808,39.4885471 17.0560575,38.0848858 C18.4637588,36.6812993 20.748598,36.6812993 22.1570502,38.0848858 L34.447645,50.3279689 L65.8427245,19.0526899 C67.2519277,17.6491034 69.5360159,17.6491034 70.9450689,19.0526899 C72.3516437,20.4545559 72.3516437,22.7296616 70.9450689,24.1336221 L36.9965267,57.9469361 C36.2928639,58.6485798 35.3684146,59 34.447645,59 L34.4475699,59 Z M38.500188,77 C17.2714441,77 0,59.728915 0,38.5003008 C0,17.2714609 17.2714441,0 38.500188,0 C46.0729501,0 53.4034332,2.19750781 59.695846,6.35483105 C60.9632617,7.19205566 61.3114157,8.89793652 60.475395,10.1652783 C59.6382464,11.4320186 57.932292,11.7819775 56.6649515,10.9447529 C51.273528,7.38260059 44.9917178,5.49986035 38.500188,5.49986035 C20.3030905,5.49986035 5.49985498,20.3031104 5.49985498,38.5002256 C5.49985498,56.6968896 20.3032409,71.50029 38.500188,71.50029 C56.6969094,71.50029 71.5002202,56.6968896 71.5002202,38.5002256 C71.5002202,37.3516924 71.4418687,36.1954141 71.3243385,35.0627471 C71.1679324,33.5515469 72.2665349,32.2007383 73.7770568,32.045084 C75.2861501,31.8883018 76.6390628,32.9872061 76.794717,34.4974287 L76.7947182,34.4974404 C76.9316577,35.8272996 77,37.1633247 77,38.5002147 C77,59.7289041 59.7288564,77 38.5001877,77 L38.500188,77 Z" id="形状"></path>
                </g>
            </g>
        </g>
    </g>
</svg>