<?xml version="1.0" encoding="UTF-8"?>
<svg width="34px" height="34px" viewBox="0 0 34 34" version="1.1" xmlns="http://www.w3.org/2000/svg" xmlns:xlink="http://www.w3.org/1999/xlink">
    <!-- Generator: Sketch 60 (88103) - https://sketch.com -->
    <title>关闭</title>
    <desc>Created with Sketch.</desc>
    <g id="一手房业务" stroke="none" stroke-width="1" fill="none" fill-rule="evenodd">
        <g id="13_提交选择03" transform="translate(-39.000000, -730.000000)">
            <g id="分组-2" transform="translate(0.000000, 686.000000)">
                <g id="标题" transform="translate(34.000000, 38.000000)">
                    <g id="关闭" transform="translate(0.000000, 1.000000)">
                        <rect id="矩形" fill="#000000" opacity="0" x="0" y="0" width="44" height="44"></rect>
                        <path d="M7,38.5 C6.60252764,38.4985608 6.22165184,38.3404614 5.94,38.06 C5.65662795,37.7800661 5.49713896,37.3983249 5.49713896,37 C5.49713896,36.6016751 5.65662795,36.2199339 5.94,35.94 L35.94,5.94 C36.3139412,5.53869366 36.8771111,5.37350167 37.4085778,5.50922895 C37.9400445,5.64495623 38.3550438,6.05995548 38.490771,6.5914222 C38.6264983,7.12288893 38.4613063,7.68605884 38.06,8.06000001 L8.06000001,38.06 C7.77834817,38.3404614 7.39747237,38.4985608 7,38.5 L7,38.5 Z M37,38.5 C36.6025276,38.4985608 36.2216518,38.3404614 35.94,38.06 L5.94,8.06000001 C5.53869366,7.68605884 5.37350167,7.12288893 5.50922895,6.5914222 C5.64495623,6.05995548 6.05995548,5.64495623 6.5914222,5.50922895 C7.12288893,5.37350167 7.68605884,5.53869366 8.06000001,5.94 L38.06,35.94 C38.3433721,36.2199339 38.502861,36.6016751 38.502861,37 C38.502861,37.3983249 38.3433721,37.7800661 38.06,38.06 C37.7783482,38.3404614 37.3974724,38.4985608 37,38.5 L37,38.5 Z" id="形状" fill="#333333" fill-rule="nonzero"></path>
                    </g>
                </g>
            </g>
        </g>
    </g>
</svg>