<?xml version="1.0" encoding="UTF-8"?>
<svg width="112px" height="112px" viewBox="0 0 112 112" version="1.1" xmlns="http://www.w3.org/2000/svg" xmlns:xlink="http://www.w3.org/1999/xlink">
    <!-- Generator: Sketch 60 (88103) - https://sketch.com -->
    <title>对号</title>
    <desc>Created with Sketch.</desc>
    <g id="一手房业务" stroke="none" stroke-width="1" fill="none" fill-rule="evenodd">
        <g id="13_提交成功" transform="translate(-319.000000, -152.000000)">
            <g id="编组-2" transform="translate(303.000000, 152.000000)">
                <g id="对号" transform="translate(16.000000, 0.000000)">
                    <circle id="椭圆形" fill="#72C97A" cx="56" cy="56" r="56"></circle>
                    <path d="M83.2139577,37.19375 C81.6301318,35.6102352 79.4779605,35.5939523 77.910926,37.19375 L47.9883813,68.2559165 L34.0996436,53.4042395 C32.5404367,51.78765 30.7792821,50.8675742 29.1837148,52.4313713 C27.5832237,53.9988576 27.6277905,55.6823408 29.1837148,57.2900256 L45.095705,73.7668225 C45.1037851,73.778653 45.1196928,73.778653 45.1277729,73.7909924 C45.135853,73.7991339 45.1400193,73.8152896 45.1480994,73.8233039 C45.4027488,74.0761981 45.7177465,74.2308859 46.0168365,74.4017295 C46.1746509,74.4874693 46.2997662,74.6298177 46.461242,74.6949494 C46.9455723,74.8963452 47.4644284,75 47.9883813,75 C48.5013414,75 49.0149328,74.8987405 49.4996125,74.703091 C49.657427,74.6378321 49.7782498,74.5073142 49.9279841,74.4260268 C50.2307354,74.255056 50.5463643,74.1048206 50.8048013,73.8482372 C50.8127551,73.8400958 50.8171739,73.823304 50.8287891,73.8152898 C50.8368692,73.803332 50.8491156,73.7990068 50.8616145,73.7909926 L83.2139577,40.838162 C84.2620141,39.7689164 84.2620141,38.5541124 83.2139577,37.19375 Z" id="路径" fill="#FFFFFF" fill-rule="nonzero"></path>
                </g>
            </g>
        </g>
    </g>
</svg>