<?xml version="1.0" encoding="UTF-8"?>
<svg width="112px" height="112px" viewBox="0 0 112 112" version="1.1" xmlns="http://www.w3.org/2000/svg" xmlns:xlink="http://www.w3.org/1999/xlink">
    <!-- Generator: Sketch 60 (88103) - https://sketch.com -->
    <title>错</title>
    <desc>Created with Sketch.</desc>
    <g id="一手房业务" stroke="none" stroke-width="1" fill="none" fill-rule="evenodd">
        <g id="13_提交失败" transform="translate(-319.000000, -152.000000)">
            <g id="编组-2" transform="translate(151.000000, 152.000000)">
                <g id="错" transform="translate(168.000000, 0.000000)">
                    <circle id="椭圆形" fill="#E75E58" cx="56" cy="56" r="56"></circle>
                    <path d="M41.1213203,36.8786797 L55.617,51.374 L70.1126984,36.8786797 C71.2842712,35.7071068 73.1837662,35.7071068 74.3553391,36.8786797 C75.5269119,38.0502525 75.5269119,39.9497475 74.3553391,41.1213203 L59.86,55.617 L74.3553391,70.1126984 C75.5269119,71.2842712 75.5269119,73.1837662 74.3553391,74.3553391 C73.1837662,75.5269119 71.2842712,75.5269119 70.1126984,74.3553391 L55.617,59.86 L41.1213203,74.3553391 C39.9497475,75.5269119 38.0502525,75.5269119 36.8786797,74.3553391 C35.7071068,73.1837662 35.7071068,71.2842712 36.8786797,70.1126984 L51.374,55.617 L36.8786797,41.1213203 C35.7071068,39.9497475 35.7071068,38.0502525 36.8786797,36.8786797 C38.0502525,35.7071068 39.9497475,35.7071068 41.1213203,36.8786797 Z" id="路径" fill="#FFFFFF"></path>
                </g>
            </g>
        </g>
    </g>
</svg>