<?xml version="1.0" encoding="UTF-8"?>
<svg width="30px" height="30px" viewBox="0 0 30 30" version="1.1" xmlns="http://www.w3.org/2000/svg" xmlns:xlink="http://www.w3.org/1999/xlink">
    <!-- Generator: Sketch 60 (88103) - https://sketch.com -->
    <title>路径</title>
    <desc>Created with Sketch.</desc>
    <g id="一手房业务" stroke="none" stroke-width="1" fill="none" fill-rule="evenodd">
        <g id="13_提交失败" transform="translate(-647.000000, -684.000000)" fill="#E75E58" fill-rule="nonzero">
            <g id="错" transform="translate(647.000000, 684.000000)">
                <path d="M2.48411902,0 L0.0167168171,2.07 C4.40989636,5.34 8.50217319,9.09 12.0996322,12.84 C6.58976931,18.3766667 2.27348713,23.82 0,26.01 L4.69408225,29.9266667 C6.3624206,26.4933333 9.98996991,21.2866667 14.847877,15.8266667 C19.7091274,21.3166667 23.3500502,26.55 25.0217319,30 C25.0217319,30 29.595453,25.1533333 30,25.9066667 C28.2413908,23.9266667 23.9384821,18.1666667 18.1611501,12.27 C21.4710799,8.88 25.1855567,5.52 29.1574724,2.56333333 L28.0742227,0.553333333 C23.5773989,2.79 19.2845202,6.10333333 15.4363089,9.63333333 C11.554664,5.95333333 7.16148445,2.46 2.48411902,0 Z" id="路径"></path>
            </g>
        </g>
    </g>
</svg>