<?xml version="1.0" encoding="UTF-8"?>
<svg width="40px" height="40px" viewBox="0 0 40 40" version="1.1" xmlns="http://www.w3.org/2000/svg" xmlns:xlink="http://www.w3.org/1999/xlink">
    <!-- Generator: Sketch 60 (88103) - https://sketch.com -->
    <title>形状</title>
    <desc>Created with Sketch.</desc>
    <g id="一手房业务" stroke="none" stroke-width="1" fill="none" fill-rule="evenodd">
        <g id="13_提交中" transform="translate(-640.000000, -684.000000)" fill="#3B86F7" fill-rule="nonzero">
            <g id="编组-5" transform="translate(30.000000, 386.000000)">
                <g id="编组-3备份" transform="translate(30.000000, 261.000000)">
                    <g id="加载" transform="translate(580.000000, 37.000000)">
                        <g id="形状">
                            <path d="M6.96517647,28.6567059 C5.37313725,30.2487451 5.37313725,32.8357647 6.96517647,34.4278039 C8.55721569,36.0198431 11.1442745,36.0198431 12.7363529,34.4278039 C14.3284314,32.8357647 14.3283922,30.2487451 12.7363529,28.6567059 C11.1442745,27.0646275 8.55721569,27.0646275 6.96517647,28.6567059 Z M35.2238431,10.3482353 C36.0199216,9.55223529 36.0199216,8.35819608 35.2238431,7.36317647 C34.4278824,6.56713725 33.0347843,6.56713725 32.2388235,7.36317647 C31.4427451,8.15921569 31.4427451,9.55223529 32.2388235,10.3482353 C33.0347843,11.1442745 34.4278824,11.1442745 35.2238431,10.3482353 L35.2238431,10.3482353 Z M31.2437647,29.6516471 C30.2487059,30.6467059 30.2487059,32.4378039 31.2437647,33.6318431 C32.2388235,34.6267843 34.0298431,34.6267843 35.2238431,33.6318431 C36.218902,32.6367843 36.218902,30.8456863 35.2238431,29.6516471 C34.0298431,28.4577255 32.2388235,28.4577255 31.2437647,29.6516471 Z M6.96517647,5.37313725 C5.37313725,6.96521569 5.37313725,9.55223529 6.96517647,11.1442745 C8.55721569,12.7363137 11.1442745,12.7363137 12.7363529,11.1442745 C14.3284314,9.55223529 14.3283922,6.96521569 12.7363529,5.37313725 C11.1442745,3.78109804 8.55721569,3.78109804 6.96517647,5.37313725 Z M8.35823529,20.497451 C8.35823529,18.3084706 6.56717647,16.3184314 4.17913725,16.3184314 C1.79101961,16.3184314 0,18.109451 0,20.497451 C0,22.686549 1.79101961,24.6766275 4.17909804,24.6766275 C6.56717647,24.6766275 8.35823529,22.8855294 8.35823529,20.497451 Z M38.0099216,17.9104314 C37.0148627,17.9104314 36.0199216,18.7064706 36.0199216,19.9004706 C36.0199216,20.8955294 36.8158824,21.890549 38.0099216,21.890549 C39.0049804,21.890549 40,21.0945098 40,19.9004706 C40,18.905451 39.2039608,17.9104314 38.0099216,17.9104314 Z M21.4925882,33.0347843 C19.5025098,33.0347843 18.109451,34.6268235 18.109451,36.4179608 C18.109451,38.4079216 19.7014902,39.8009804 21.4925882,39.8009804 C23.4825882,39.8009804 24.8756471,38.2089412 24.8756471,36.4179608 C24.8756471,34.4278039 23.2835686,33.0347843 21.4925882,33.0347843 Z M22.0895294,-9.09494702e-13 C19.701451,-9.09494702e-13 17.9104706,1.79105882 17.9104706,4.17909804 C17.9104706,6.56713725 19.7014902,8.35815686 22.0895294,8.35815686 C24.4776078,8.35815686 26.2685882,6.36811765 26.2685882,4.17909804 C26.2685882,1.79105882 24.4776471,-9.09494702e-13 22.0895294,-9.09494702e-13 Z"></path>
                        </g>
                    </g>
                </g>
            </g>
        </g>
    </g>
</svg>