<?xml version="1.0" encoding="UTF-8"?>
<svg width="11px" height="36px" viewBox="0 0 11 36" version="1.1" xmlns="http://www.w3.org/2000/svg" xmlns:xlink="http://www.w3.org/1999/xlink">
    <!-- Generator: Sketch 60 (88103) - https://sketch.com -->
    <title>形状</title>
    <desc>Created with Sketch.</desc>
    <g id="一手房业务" stroke="none" stroke-width="1" fill="none" fill-rule="evenodd">
        <g id="13_提交成功" transform="translate(-658.000000, -682.000000)" fill="#E89F73" fill-rule="nonzero">
            <g id="编组-5" transform="translate(30.000000, 386.000000)">
                <g id="编组-3备份" transform="translate(30.000000, 261.000000)">
                    <path d="M603.560967,63.8333497 C605.417667,63.8540494 606.918234,65.3189395 606.996769,67.1432018 L606.999777,67.333156 L606.994342,67.5178189 C606.889778,69.2951206 605.2915,70.8331325 603.502321,70.8331325 C601.649013,70.8331325 600,69.1848015 600,67.3331598 C600,65.5408997 601.540911,63.9430947 603.317724,63.8385658 L603.560967,63.8333497 Z M598,35.8220023 C598.00279,34.7410544 608.596468,34.7254689 608.988826,35.7796088 L609,35.8404196 L609,36.0634507 L607.060484,59.0487769 L607.06058,59.0936785 C607.051141,60.0134535 606.35728,60.7607812 605.482443,60.8281816 L605.335047,60.8330324 L601.667544,60.8330324 C600.846751,60.8330324 600.028258,60.0278871 599.94846,59.1824846 L599.942107,59.048777 L598,36.0634508 L598,35.8220023 Z" id="形状"></path>
                </g>
            </g>
        </g>
    </g>
</svg>