<?xml version="1.0" encoding="UTF-8"?>
<svg width="48px" height="52px" viewBox="0 0 48 52" version="1.1" xmlns="http://www.w3.org/2000/svg" xmlns:xlink="http://www.w3.org/1999/xlink">
    <!-- Generator: Sketch 60 (88103) - https://sketch.com -->
    <title>icon-1订单待处理</title>
    <desc>Created with Sketch.</desc>
    <g id="业务" stroke="none" stroke-width="1" fill="none" fill-rule="evenodd">
        <g id="01业务" transform="translate(-80.000000, -252.000000)">
            <g id="订单列表" transform="translate(30.000000, 146.000000)">
                <g id="icon-1订单待处理" transform="translate(50.000000, 106.000000)">
                    <path d="M4,0 L37.8039216,0 C40.0130606,-4.05812251e-16 41.8039216,1.790861 41.8039216,4 L41.8039216,29.9215686 C41.8039216,39.8626941 33.7450471,47.9215686 23.8039216,47.9215686 L4,47.9215686 C1.790861,47.9215686 4.19476067e-15,46.1307076 0,43.9215686 L0,4 C-1.15871992e-15,1.790861 1.790861,4.05812251e-16 4,0 Z" id="矩形" fill="#599BF8"></path>
                    <rect id="矩形备份" fill="#FFFFFF" x="7.1372549" y="18.3529412" width="21.4117647" height="4.07843137" rx="2.03921569"></rect>
                    <rect id="矩形备份-2" fill="#FFFFFF" x="7.1372549" y="8.15686275" width="29.5686275" height="4.07843137" rx="2.03921569"></rect>
                    <g id="编组" transform="translate(21.411765, 26.509804)" fill-rule="nonzero">
                        <path d="M26.4746037,11.9834344 C26.142389,5.5585397 20.8322273,0.339304242 14.2933985,0.0167375116 C6.66300718,-0.36399699 0.382567609,5.80178674 0.772788036,13.3054292 C1.10500272,19.7303239 6.41516447,24.9495594 12.9539932,25.2721261 C20.5843846,25.6528606 26.8595509,19.4870769 26.4746037,11.9834344 Z" id="u" fill="#599BF8" opacity="0.752394903"></path>
                        <path d="M18.3014154,18.1387385 L10.7463611,18.1387385 C9.70188361,18.1387385 8.86049892,17.328392 8.86049892,16.3310424 L8.86049892,7.3662298 C8.86049892,6.4425481 9.55681728,5.6152013 10.514255,5.50753288 C11.6631803,5.37719743 12.6322234,6.22721126 12.6322234,7.30389545 L12.6322234,14.5290131 L18.2259809,14.5290131 C19.1950239,14.5290131 20.0538166,15.1976906 20.1698696,16.1157056 C20.3091333,17.20939 19.4213274,18.1387385 18.3014154,18.1387385 L18.3014154,18.1387385 Z" id="路径" fill="#FFFFFF"></path>
                    </g>
                </g>
            </g>
        </g>
    </g>
</svg>