<?xml version="1.0" encoding="UTF-8"?>
<svg width="49px" height="52px" viewBox="0 0 49 52" version="1.1" xmlns="http://www.w3.org/2000/svg" xmlns:xlink="http://www.w3.org/1999/xlink">
    <!-- Generator: Sketch 60 (88103) - https://sketch.com -->
    <title>icon-2申请待提交</title>
    <desc>Created with Sketch.</desc>
    <defs>
        <linearGradient x1="50%" y1="0%" x2="50%" y2="100%" id="linearGradient-1">
            <stop stop-color="#F0937F" offset="0%"></stop>
            <stop stop-color="#ED738B" offset="100%"></stop>
        </linearGradient>
        <linearGradient x1="50%" y1="0%" x2="50%" y2="100%" id="linearGradient-2">
            <stop stop-color="#F4C99F" offset="0%"></stop>
            <stop stop-color="#E77B7F" offset="100%"></stop>
        </linearGradient>
    </defs>
    <g id="业务" stroke="none" stroke-width="1" fill="none" fill-rule="evenodd">
        <g id="01业务" transform="translate(-80.000000, -478.000000)">
            <g id="订单列表备份-4" transform="translate(30.000000, 373.000000)">
                <g id="编组-6" transform="translate(32.000000, 105.000000)">
                    <g id="icon-2申请待提交" transform="translate(18.000000, 0.000000)">
                        <path d="M4.07758621,0 L33.5775862,0 C35.7867252,-8.49901461e-16 37.5775862,1.790861 37.5775862,4 L37.5775862,40.1363636 C37.5775862,46.2114959 32.6527185,51.1363636 26.5775862,51.1363636 L4.07758621,51.1363636 C1.86844721,51.1363636 0.0775862069,49.3455026 0.0775862069,47.1363636 L0.0775862069,4 C0.0775862069,1.790861 1.86844721,4.05812251e-16 4.07758621,0 Z" id="矩形" fill="url(#linearGradient-1)" fill-rule="nonzero"></path>
                        <rect id="矩形" fill="#FFFFFF" x="4.62304075" y="10.2272727" width="25" height="4.54545455" rx="2.27272727"></rect>
                        <rect id="矩形备份-4" fill="#FFFFFF" x="4.62304075" y="21.5909091" width="20.4545455" height="4.54545455" rx="2.27272727"></rect>
                        <rect id="矩形备份-5" fill="#FFFFFF" x="4.62304075" y="31.8181818" width="20.4545455" height="4.54545455" rx="2.27272727"></rect>
                        <polygon id="三角形" fill="#DF4C4F" opacity="0.717401414" points="38.7139498 9.09090909 48.9412226 31.8181818 28.4866771 31.8181818"></polygon>
                        <path d="M25.0775862,51.1363636 C28.932869,49.804695 31.2721711,48.10024 32.0954927,46.0229986 C34.0167701,41.1756136 33.3897209,31.8181818 33.3897209,31.8181818 C33.3897209,31.8181818 37.0584033,31.8181818 44.395768,31.8181818 C44.3687096,37.8791496 42.3582187,42.6140886 38.3642953,46.0229986 C34.370372,49.4319086 29.9414689,51.1363636 25.0775862,51.1363636 Z" id="路径-2" fill="url(#linearGradient-2)"></path>
                    </g>
                </g>
            </g>
        </g>
    </g>
</svg>