<?xml version="1.0" encoding="UTF-8"?>
<svg width="44px" height="55px" viewBox="0 0 44 55" version="1.1" xmlns="http://www.w3.org/2000/svg" xmlns:xlink="http://www.w3.org/1999/xlink">
    <!-- Generator: Sketch 60 (88103) - https://sketch.com -->
    <title>icon-3定价审批</title>
    <desc>Created with Sketch.</desc>
    <defs>
        <linearGradient x1="50%" y1="0%" x2="50%" y2="98.2210726%" id="linearGradient-1">
            <stop stop-color="#B4F9FB" offset="0%"></stop>
            <stop stop-color="#36AEBD" offset="100%"></stop>
        </linearGradient>
    </defs>
    <g id="业务" stroke="none" stroke-width="1" fill="none" fill-rule="evenodd">
        <g id="01业务" transform="translate(-80.000000, -602.000000)">
            <g id="订单列表备份-4" transform="translate(30.000000, 373.000000)">
                <g id="编组-6备份" transform="translate(32.000000, 229.000000)">
                    <g id="icon-3定价审批" transform="translate(18.000000, -0.000000)">
                        <path d="M35.2857143,3.92919173 C37.4948533,3.92919173 39.2857143,5.72005273 39.2857143,7.92919173 L39.2857143,32.4517481 C39.2857143,42.3928736 31.2268398,50.4517481 21.2857143,50.4517481 L4,50.4517481 C1.790861,50.4517481 2.705415e-16,48.6608871 0,46.4517481 L0,7.92919173 C-2.705415e-16,5.72005273 1.790861,3.92919173 4,3.92919173 L7.32307478,3.92872713 C7.26656459,4.19650808 7.23684211,4.47416584 7.23684211,4.75876566 L7.23684211,4.75876566 L7.23684211,5.09836466 C7.23684211,7.30750366 9.02770311,9.09836466 11.2368421,9.09836466 L11.2368421,9.09836466 L27.4974937,9.09836466 C29.7066327,9.09836466 31.4974937,7.30750366 31.4974937,5.09836466 L31.4974937,5.09836466 L31.4974937,4.75876566 C31.4974937,4.47416584 31.4677713,4.19650808 31.4112611,3.92872713 L35.2857143,3.92919173 Z" id="形状结合" fill="url(#linearGradient-1)" fill-rule="nonzero"></path>
                        <rect id="矩形" fill="#A4F0F3" fill-rule="nonzero" opacity="0.845563616" x="9.82142857" y="0" width="19.6428571" height="6.875" rx="3.4375"></rect>
                        <path d="M43.4347513,41.9895376 C43.1147436,35.8007225 37.9997011,30.7732652 31.7011384,30.4625511 C24.351122,30.0958065 18.3014541,36.0350315 18.6773361,43.2629564 C18.9973437,49.4517715 24.1123862,54.4792287 30.4109489,54.7899429 C37.7609653,55.1566875 43.8055537,49.2174624 43.4347513,41.9895376 Z" id="u" fill="#23A0B0" fill-rule="nonzero" opacity="0.428478423"></path>
                        <path d="M30.5258295,47.5892909 C30.329177,47.9028767 29.9311145,48.125 29.4918183,48.125 C29.1460906,48.125 28.7416844,48.0286377 28.4641507,47.7656829 L24.05533,43.8981116 C23.482703,43.3399771 23.408946,42.427757 23.884052,41.779774 C24.5088993,41.1199372 25.3716326,41.0742059 25.9647617,41.5837829 L29.3062548,44.4909848 L35.7799137,36.8309977 C36.3603556,36.2234251 37.2230888,36.1809604 37.8178039,36.6921706 C38.4156907,37.3030097 38.4585102,38.1915028 37.9637073,38.8023419 L30.5258295,47.5892909 Z" id="路径" fill="#FFFFFF" fill-rule="nonzero"></path>
                        <path d="M24.8375673,26.736061 L21.8489627,26.736061 L21.8489627,26.736061 L21.8489627,27.8839914 L24.8349685,27.8839914 C25.7494385,27.8839914 26.4907629,28.6253158 26.4907629,29.5397857 C26.4907629,30.4542557 25.7494385,31.1955801 24.8349685,31.1955801 L21.8489627,31.1955801 L21.8489627,31.1955801 L21.8489627,32.6463079 C21.8489627,33.6010382 21.0750009,34.375 20.1202706,34.375 C19.1655403,34.375 18.3915785,33.6010382 18.3915785,32.6463079 L18.3915785,31.1955801 L18.3915785,31.1955801 L15.5355811,31.1955801 C14.6206299,31.1955801 13.8789154,30.4538656 13.8789154,29.5389144 C13.8789154,28.6239632 14.6206299,27.8822487 15.5355811,27.8822487 L18.3915785,27.8822487 L18.3915785,27.8822487 L18.3915785,26.7343183 L15.5312397,26.7343183 C14.6186862,26.7343183 13.8789154,25.9945475 13.8789154,25.081994 C13.8789154,24.1694405 14.6186862,23.4296698 15.5312397,23.4296698 L16.515303,23.4296698 L16.515303,23.4296698 L13.7177445,19.6119667 C13.2452318,18.9671497 13.384912,18.0613751 14.029729,17.5888625 C14.0703676,17.559083 14.1125334,17.5314456 14.1560541,17.5060632 C14.9663876,17.0334544 15.996533,17.1893318 16.6307645,17.8805263 L20.1382551,21.7030389 L20.1382551,21.7030389 L23.5638718,17.909712 C24.203729,17.2011718 25.2503795,17.0332481 26.0797722,17.5060632 C26.7408275,17.8829135 26.9712211,18.7243021 26.5943709,19.3853574 C26.5556321,19.4533114 26.5111767,19.517843 26.4614867,19.5782529 L23.2935079,23.4296698 L23.2935079,23.4296698 L24.8375543,23.4296698 C25.7505901,23.4296698 26.4907528,24.1698296 26.4907564,25.0828654 C26.49076,25.9958965 25.7506049,26.7360574 24.8375738,26.736061 C24.8375716,26.736061 24.8375694,26.736061 24.8375673,26.736061 Z" id="路径" fill="#FFFFFF" opacity="0.970958891"></path>
                    </g>
                </g>
            </g>
        </g>
    </g>
</svg>