<?xml version="1.0" encoding="UTF-8"?>
<svg width="49px" height="52px" viewBox="0 0 49 52" version="1.1" xmlns="http://www.w3.org/2000/svg" xmlns:xlink="http://www.w3.org/1999/xlink">
    <!-- Generator: Sketch 60 (88103) - https://sketch.com -->
    <title>icon-5审批通过</title>
    <desc>Created with Sketch.</desc>
    <defs>
        <linearGradient x1="50%" y1="0%" x2="50%" y2="100%" id="linearGradient-1">
            <stop stop-color="#708BF7" offset="0%"></stop>
            <stop stop-color="#4C6DF4" offset="100%"></stop>
        </linearGradient>
    </defs>
    <g id="业务" stroke="none" stroke-width="1" fill="none" fill-rule="evenodd">
        <g id="01业务" transform="translate(-80.000000, -837.000000)">
            <g id="订单列表备份-4" transform="translate(30.000000, 373.000000)">
                <g id="编组-6备份-3" transform="translate(32.000000, 464.000000)">
                    <g id="icon-5审批通过" transform="translate(18.000000, 0.000000)">
                        <path d="M42.1326294,4.77308273 C44.2611227,4.77308273 46.0652084,6.40395214 45.9981907,8.39604379 L45.9981907,38.696473 C45.9981907,39.4891185 44.9109967,44.8374922 42.1326294,47.0943396 C37.9283512,50.5094439 31.2815742,51.0188679 30,51.0188679 L3.74492947,51.0188679 C1.67811333,51.0188679 0,49.3853528 0,47.3932611 L0,8.39599191 C0,6.40390026 1.61643609,4.77303085 3.74492947,4.77303085 L11.9398882,4.77303085 C12.3312612,3.203273 13.8806796,1.99209165 15.6848176,1.99209165 L19.8131094,1.99209165 C20.3251667,0.788847544 21.5555702,0 22.976346,0 C24.3890587,0 25.6168443,0.78355605 26.1342421,1.99209165 L30.1955161,1.99209165 C32.0076126,1.99209165 33.5544131,3.203273 33.9404456,4.77303085 L42.1353519,4.77303085 L42.1326294,4.77308273 Z M27,36.9164565 L27,35.6873171 C27,34.9515075 26.5605136,34.3396226 26.0374574,34.3396226 L11.9625426,34.3396226 C11.4376774,34.3396226 11,34.9515075 11,35.6873171 L11,36.9164565 C11,37.6522661 11.4377128,38.2641509 11.9625426,38.2641509 L26.0338394,38.2641509 C26.5605136,38.2641509 26.996382,37.6522661 26.996382,36.9164565 L27,36.9164565 Z M35,24.1617395 L35,22.9326001 C35,22.1994754 34.3407704,21.5849057 33.5561862,21.5849057 L12.4438138,21.5849057 C11.656516,21.5849057 11,22.1994754 11,22.9326001 L11,24.1617395 C11,24.8975491 11.6565692,25.509434 12.4438138,25.509434 L33.5507591,25.509434 C34.3407704,25.509434 34.9945729,24.8975491 34.9945729,24.1617395 L35,24.1617395 Z" id="形状" fill="url(#linearGradient-1)"></path>
                        <g id="shua" transform="translate(27.000000, 30.415094)" fill-rule="nonzero">
                            <ellipse id="椭圆形" fill="#ACBCFA" style="mix-blend-mode: multiply;" cx="11" cy="10.7924528" rx="11" ry="10.7924528"></ellipse>
                            <path d="M15.8683822,6.39248981 C16.4121617,5.77930557 17.3596255,5.7147246 17.9846017,6.24824416 C18.570517,6.74841875 18.6649888,7.59669957 18.2264485,8.2060291 L18.1316213,8.32453505 L10.8290658,16.5591439 C10.4626272,16.9723524 9.83059847,17.010267 9.41738998,16.6438284 C9.40963497,16.6369512 9.40198736,16.6299538 9.39444991,16.6228388 L4.46001838,11.9649534 L4.46001838,11.9649534 C3.86303086,11.4014235 3.84469327,10.4697695 4.41906023,9.88404594 C4.95752926,9.33493006 5.82576695,9.28479739 6.42409582,9.74501008 L6.53998513,9.84386059 L9.95100175,13.0638787 L15.8683822,6.39248981 Z" id="路径-4" fill="#FFFFFF"></path>
                        </g>
                    </g>
                </g>
            </g>
        </g>
    </g>
</svg>