<?xml version="1.0" encoding="UTF-8"?>
<svg width="49px" height="52px" viewBox="0 0 49 52" version="1.1" xmlns="http://www.w3.org/2000/svg" xmlns:xlink="http://www.w3.org/1999/xlink">
    <!-- Generator: Sketch 60 (88103) - https://sketch.com -->
    <title>icon-6审批否决</title>
    <desc>Created with Sketch.</desc>
    <defs>
        <linearGradient x1="50%" y1="0%" x2="50%" y2="100%" id="linearGradient-1">
            <stop stop-color="#71CAFA" offset="0%"></stop>
            <stop stop-color="#508FF7" offset="100%"></stop>
        </linearGradient>
    </defs>
    <g id="业务" stroke="none" stroke-width="1" fill="none" fill-rule="evenodd">
        <g id="01业务" transform="translate(-83.000000, -956.000000)">
            <g id="订单列表备份-4" transform="translate(30.000000, 373.000000)">
                <g id="编组-6备份-4" transform="translate(32.000000, 583.000000)">
                    <g id="icon-6审批否决" transform="translate(21.000000, 0.000000)">
                        <path d="M41.3376741,4.77308273 C43.4260072,4.77308273 45.1960536,6.40395214 45.1303003,8.39604379 L45.1303003,38.696473 C45.1303003,39.4891185 44.0636194,44.8374922 41.3376741,47.0943396 C37.2127219,50.5094439 30.6913558,51.0188679 29.4339623,51.0188679 L3.67427042,51.0188679 C1.64645082,51.0188679 0,49.3853528 0,47.3932611 L0,8.39599191 C0,6.40390026 1.58593729,4.77303085 3.67427042,4.77303085 L11.7146073,4.77303085 C12.0985959,3.203273 13.6187799,1.99209165 15.3888777,1.99209165 L19.4392772,1.99209165 C19.941673,0.788847544 21.1488614,0 22.54283,0 C23.9288877,0 25.1335076,0.78355605 25.6411432,1.99209165 L29.6257894,1.99209165 C31.4036954,1.99209165 32.9213109,3.203273 33.3000598,4.77303085 L41.3403453,4.77303085 L41.3376741,4.77308273 Z M26.490566,36.9164565 L26.490566,35.6873171 C26.490566,34.9515075 26.0593719,34.3396226 25.5461847,34.3396226 L11.7368342,34.3396226 C11.2218721,34.3396226 10.7924528,34.9515075 10.7924528,35.6873171 L10.7924528,36.9164565 C10.7924528,37.6522661 11.2219069,38.2641509 11.7368342,38.2641509 L25.5426349,38.2641509 C26.0593719,38.2641509 26.4870163,37.6522661 26.4870163,36.9164565 L26.490566,36.9164565 Z M34.3396226,24.1617395 L34.3396226,22.9326001 C34.3396226,22.1994754 33.6928314,21.5849057 32.9230506,21.5849057 L12.2090249,21.5849057 C11.4365818,21.5849057 10.7924528,22.1994754 10.7924528,22.9326001 L10.7924528,24.1617395 C10.7924528,24.8975491 11.436634,25.509434 12.2090249,25.509434 L32.9177259,25.509434 C33.6928314,25.509434 34.334298,24.8975491 34.334298,24.1617395 L34.3396226,24.1617395 Z" id="形状" fill="url(#linearGradient-1)" fill-rule="nonzero"></path>
                        <g id="shua" transform="translate(26.490566, 30.415094)" fill="#9FDBFC">
                            <circle id="椭圆形" style="mix-blend-mode: multiply;" cx="10.7924528" cy="10.7924528" r="10.7924528"></circle>
                        </g>
                        <path d="M38.245283,35.3207547 C38.7975678,35.3207547 39.245283,35.76847 39.245283,36.3207547 L39.2447925,39.7357547 L42.6792453,39.7358491 C43.2211096,39.7358491 43.6603774,40.1751168 43.6603774,40.7169811 L43.6603774,41.6981132 C43.6603774,42.2399775 43.2211096,42.6792453 42.6792453,42.6792453 L39.2447925,42.6787547 L39.245283,46.0943396 C39.245283,46.6466244 38.7975678,47.0943396 38.245283,47.0943396 L37.3018868,47.0943396 C36.749602,47.0943396 36.3018868,46.6466244 36.3018868,46.0943396 L36.3017925,42.6787547 L32.8679245,42.6792453 C32.3260602,42.6792453 31.8867925,42.2399775 31.8867925,41.6981132 L31.8867925,40.7169811 C31.8867925,40.1751168 32.3260602,39.7358491 32.8679245,39.7358491 L36.3017925,39.7357547 L36.3018868,36.3207547 C36.3018868,35.76847 36.749602,35.3207547 37.3018868,35.3207547 L38.245283,35.3207547 Z" id="形状结合" fill="#FFFFFF" transform="translate(37.773585, 41.207547) rotate(-315.000000) translate(-37.773585, -41.207547) "></path>
                    </g>
                </g>
            </g>
        </g>
    </g>
</svg>