<?xml version="1.0" encoding="UTF-8"?>
<svg width="49px" height="52px" viewBox="0 0 49 52" version="1.1" xmlns="http://www.w3.org/2000/svg" xmlns:xlink="http://www.w3.org/1999/xlink">
    <!-- Generator: Sketch 60 (88103) - https://sketch.com -->
    <title>icon-4授信审批中</title>
    <desc>Created with Sketch.</desc>
    <defs>
        <linearGradient x1="50%" y1="0%" x2="50%" y2="100%" id="linearGradient-1">
            <stop stop-color="#F3AD76" offset="0%"></stop>
            <stop stop-color="#EC6760" offset="100%"></stop>
        </linearGradient>
    </defs>
    <g id="业务" stroke="none" stroke-width="1" fill="none" fill-rule="evenodd">
        <g id="01业务" transform="translate(-82.000000, -716.000000)">
            <g id="订单列表备份-4" transform="translate(30.000000, 373.000000)">
                <g id="编组-6备份-2" transform="translate(32.000000, 343.000000)">
                    <g id="icon-4授信审批中" transform="translate(20.000000, 0.000000)">
                        <path d="M39.8344859,5.54492064 C41.8468797,5.54492064 43.5525607,7.11653569 43.4891985,9.03618765 L43.4891985,38.2347831 C43.4891985,38.9986051 42.461306,44.1524925 39.8344859,46.3272727 C35.859532,49.6181914 29.5753065,50.1090909 28.3636364,50.1090909 L3.54066059,50.1090909 C1.58657988,50.1090909 0,48.5349763 0,46.6153243 L0,9.03613766 C0,7.1164857 1.52826684,5.54492064 3.54066059,5.54492064 L11.2886215,5.54492064 C11.8901974,5.54492064 12.9628891,5.54492064 27.4181818,5.54492064 C29.0295934,5.54492064 33.1692195,5.54492064 39.83706,5.54492064 L39.8344859,5.54492064 Z M25.5272727,36.5194945 L25.5272727,35.335051 C25.5272727,34.6259981 25.1117583,34.0363636 24.6172325,34.0363636 L11.3100402,34.0363636 C10.813804,34.0363636 10.4,34.6259981 10.4,35.335051 L10.4,36.5194945 C10.4,37.2285473 10.8138376,37.8181818 11.3100402,37.8181818 L24.6138118,37.8181818 C25.1117583,37.8181818 25.523852,37.2285473 25.523852,36.5194945 L25.5272727,36.5194945 Z M33.0909091,24.2285854 L33.0909091,23.0441419 C33.0909091,22.3376763 32.4676375,21.7454545 31.7258487,21.7454545 L11.7650604,21.7454545 C11.0207061,21.7454545 10.4,22.3376763 10.4,23.0441419 L10.4,24.2285854 C10.4,24.9376382 11.0207564,25.5272727 11.7650604,25.5272727 L31.7207177,25.5272727 C32.4676375,25.5272727 33.085778,24.9376382 33.085778,24.2285854 L33.0909091,24.2285854 Z" id="形状" fill="url(#linearGradient-1)" fill-rule="nonzero"></path>
                        <rect id="矩形" fill="#F2A492" style="mix-blend-mode: multiply;" opacity="0.794735863" x="9.45454545" y="0" width="25.5272727" height="9.45454545" rx="4"></rect>
                        <g id="shua" transform="translate(27.418182, 31.200000)">
                            <circle id="椭圆形" fill="#F2A492" style="mix-blend-mode: multiply;" cx="10.4" cy="10.4" r="10.4"></circle>
                            <path d="M13.7322577,17.4666949 C12.9256438,17.7936301 12.0529139,17.9636364 11.1801841,17.9636364 C8.33720061,17.9636364 5.81157341,16.211264 4.81983498,13.5696279 L4.83305816,13.5696279 C4.76694226,13.4519313 4.74049591,13.3211572 4.72727273,13.1773057 C4.72727273,12.6934417 5.1239681,12.3011195 5.61322573,12.3011195 C5.99669792,12.3011195 6.34050057,12.5495903 6.44628601,12.9157576 L6.45950919,12.9157576 C7.38513172,15.4920066 10.2281152,16.825902 12.8330815,15.923561 C15.4380478,15.0081426 16.786812,12.1965003 15.8744127,9.6202513 C15.1735842,7.64556299 13.2826696,6.32474498 11.1669609,6.32474498 C10.5851411,6.32474498 10.0033212,6.42936423 9.44794766,6.63860272 L10.0826603,7.82864667 C10.1619993,7.90711111 10.2016689,8.01173036 10.2016689,8.12942701 C10.1884457,8.36482032 9.990098,8.56098141 9.75208078,8.57405882 L9.72563442,8.57405882 L5.26942307,8.39097513 C5.01818267,8.37789773 4.83305816,8.16865923 4.84628134,7.93326592 C4.84628134,7.85480149 4.8727277,7.77633705 4.91239723,7.71095002 L7.30579265,3.9838893 C7.43802444,3.7746508 7.7157112,3.72234117 7.92728206,3.85311523 C7.99339796,3.89234745 8.04629068,3.95773448 8.08596021,4.02312151 L8.64133373,5.069314 C12.1058067,3.67003155 16.0595372,5.31778471 17.4744174,8.7571425 C18.8628512,12.1703455 17.1967306,16.0804899 13.7322577,17.4666949 L13.7322577,17.4666949 Z" id="路径" fill="#FFFFFF" fill-rule="nonzero"></path>
                        </g>
                    </g>
                </g>
            </g>
        </g>
    </g>
</svg>