<?xml version="1.0" encoding="UTF-8"?>
<svg width="52px" height="45px" viewBox="0 0 52 45" version="1.1" xmlns="http://www.w3.org/2000/svg" xmlns:xlink="http://www.w3.org/1999/xlink">
    <!-- Generator: Sketch 60 (88103) - https://sketch.com -->
    <title>icon-7合同待签署</title>
    <desc>Created with Sketch.</desc>
    <defs>
        <linearGradient x1="50%" y1="0%" x2="50%" y2="100%" id="linearGradient-1">
            <stop stop-color="#F5C39B" offset="0%"></stop>
            <stop stop-color="#F0948D" offset="100%"></stop>
        </linearGradient>
        <linearGradient x1="50%" y1="0%" x2="50%" y2="100%" id="linearGradient-2">
            <stop stop-color="#F3AD76" offset="0%"></stop>
            <stop stop-color="#EC6760" offset="100%"></stop>
        </linearGradient>
        <linearGradient x1="50%" y1="0%" x2="50%" y2="100%" id="linearGradient-3">
            <stop stop-color="#EE794B" offset="0%"></stop>
            <stop stop-color="#EB5540" offset="100%"></stop>
        </linearGradient>
    </defs>
    <g id="业务" stroke="none" stroke-width="1" fill="none" fill-rule="evenodd">
        <g id="01业务" transform="translate(-77.000000, -1199.000000)" fill-rule="nonzero">
            <g id="订单列表备份-5" transform="translate(30.000000, 1090.000000)">
                <g id="编组-6" transform="translate(32.000000, 109.000000)">
                    <g id="icon-7合同待签署" transform="translate(15.000000, 0.000000)">
                        <path d="M19.1734694,26.5306122 L37.0714286,26.5306122 C41.2135642,26.5306122 44.5714286,29.8884766 44.5714286,34.0306122 L44.5714286,37.0714286 C44.5714286,41.2135642 41.2135642,44.5714286 37.0714286,44.5714286 L11.6734694,44.5714286 L11.6734694,44.5714286 L11.6734694,34.0306122 C11.6734694,29.8884766 15.0313338,26.5306122 19.1734694,26.5306122 Z" id="矩形" fill="url(#linearGradient-1)"></path>
                        <path d="M49.8469316,0.795694119 C49.033085,0.442362634 48.0847732,0.21811974 47.096027,0.170569183 L47.0758625,0.170569183 C43.9549942,-0.373017719 39.7647217,0.408375155 36.3479666,2.14785324 C36.2000232,2.22263633 36.0251236,2.09349455 36.0654527,1.93041848 C36.4757455,-0.0400574443 32.937898,0.965578323 31.5389116,1.33247289 C26.8778001,2.55554342 22.667363,4.72994421 18.9142342,7.69930096 C18.7864553,7.8012102 18.6048693,7.71291722 18.5913912,7.54984115 C18.5106804,6.00056529 16.0557153,7.18970153 14.2599143,8.69137365 C10.4395528,11.8917282 7.40613437,15.710506 5.54978714,20.3378028 C3.94225856,24.346836 3.90866857,28.4033665 5.27401225,32.1881036 C5.32781941,32.3308085 5.50940544,32.364796 5.61033336,32.2560786 C10.5404281,26.7590427 15.2553469,21.4929516 21.2952276,16.1997342 C27.6109359,10.6619028 35.0700201,6.29953809 39.9261432,5.31427353 C40.1548499,5.26672298 40.2624643,5.57931204 40.0606611,5.68802942 C22.8287845,14.7999713 11.246713,29.463361 0.000909961784,44.466519 C-0.0663402211,44.5571168 3.59397309,44.5890358 10.9818499,44.5622759 L10.9869159,43.3521127 L2.7988826,43.3521127 C4.13058364,41.8776731 5.22020508,40.1857456 6.63266952,38.7859827 C8.408306,37.0260802 8.51592033,37.1687851 10.0427382,37.1280427 C13.0156104,37.0465046 16.0220727,36.8290699 18.9411378,36.2922379 C25.1492317,35.1438973 30.4559766,32.2832579 34.5117839,27.3365639 C35.4130276,26.242582 36.2806813,24.4691696 34.6395628,24.1429643 C34.4512377,24.1022219 34.4243341,23.8439915 34.5991811,23.7624535 C35.170948,23.4974681 35.6417344,23.2935965 36.0789308,23.0421742 C40.840865,20.3649821 45.2531053,17.2937161 48.0511306,12.4421233 C48.7438847,11.2462321 49.5308276,9.037897 47.6811668,9.05826821 C47.4995808,9.05826821 47.4054446,8.84083345 47.5399625,8.71174486 C48.7977445,7.50223741 50.0218312,6.45585922 51.0172637,5.22598055 C52.6583823,3.19428462 52.227925,1.80132989 49.8469316,0.795694119 Z" id="路径" fill="url(#linearGradient-2)"></path>
                        <path d="M36.0815654,26.5307615 C35.8799364,26.9780611 35.5588783,27.4356316 35.2334681,27.8098123 C31.152437,32.5249037 25.8126885,35.2516088 19.5659853,36.3461845 C16.9394774,36.8037526 14.2426502,37.0178814 11.5625517,37.1136367 L11.5622947,34.0307368 C11.5622947,29.8886012 14.9201591,26.5307368 19.0622947,26.5307368 Z" id="形状结合" fill="url(#linearGradient-3)"></path>
                    </g>
                </g>
            </g>
        </g>
    </g>
</svg>