<?xml version="1.0" encoding="UTF-8"?>
<svg width="43px" height="52px" viewBox="0 0 43 52" version="1.1" xmlns="http://www.w3.org/2000/svg" xmlns:xlink="http://www.w3.org/1999/xlink">
    <!-- Generator: Sketch 60 (88103) - https://sketch.com -->
    <title>icon-8合同已签署</title>
    <desc>Created with Sketch.</desc>
    <defs>
        <linearGradient x1="50%" y1="0%" x2="50%" y2="100%" id="linearGradient-1">
            <stop stop-color="#71CAFA" offset="0%"></stop>
            <stop stop-color="#508FF7" offset="100%"></stop>
        </linearGradient>
    </defs>
    <g id="业务" stroke="none" stroke-width="1" fill="none" fill-rule="evenodd">
        <g id="01业务" transform="translate(-79.000000, -1311.000000)">
            <g id="订单列表备份-5" transform="translate(30.000000, 1090.000000)">
                <g id="编组-6备份" transform="translate(32.000000, 221.000000)">
                    <g id="icon-8合同已签署" transform="translate(17.000000, 0.000000)">
                        <path d="M4,3.5862069 L36.3448276,3.5862069 C38.5539666,3.5862069 40.3448276,5.3770679 40.3448276,7.5862069 L40.3448276,34 C40.3448276,43.9411255 32.2859531,52 22.3448276,52 L4,52 C1.790861,52 2.705415e-16,50.209139 0,48 L0,7.5862069 C-2.705415e-16,5.3770679 1.790861,3.5862069 4,3.5862069 Z" id="矩形" fill="url(#linearGradient-1)" fill-rule="nonzero"></path>
                        <rect id="矩形" fill="#71D9FB" style="mix-blend-mode: multiply;" opacity="0.737258185" x="8.06896552" y="0" width="24.2068966" height="8.96551724" rx="4"></rect>
                        <rect id="矩形" fill="#75DAFB" style="mix-blend-mode: multiply;" opacity="0.831287202" transform="translate(23.310345, 31.827586) scale(1, -1) translate(-23.310345, -31.827586) " x="4.48275862" y="11.6551724" width="37.6551724" height="40.3448276" rx="9"></rect>
                        <g id="合同" transform="translate(9.862069, 17.034483)" fill="#FFFFFF" fill-rule="nonzero">
                            <path d="M5.37931034,5.82758708 L5.37931034,5.82758631 C5.37931034,9.04607561 7.98841004,11.6551724 11.2068966,11.6551724 C14.4253859,11.6551724 17.0344828,9.04607277 17.0344828,5.82758631 C17.0344828,5.82758627 17.0344828,5.82758615 17.0344828,5.8275861 L17.0344828,5.8275861 C17.0344828,2.6090968 14.4253831,0 11.2068966,0 C7.98840719,0 5.37931034,2.60909965 5.37931034,5.8275861 L5.37931034,5.82758708 Z" id="路径"></path>
                            <polygon id="路径" points="8.06896552 8.96551724 14.3448276 8.96551724 14.3448276 16.137931 8.06896552 16.137931"></polygon>
                            <path d="M20.8855805,23.3493215 L1.52823053,23.3493215 C0.713182805,23.3493215 1.79087417e-05,22.6398784 1.79087417e-05,21.8290842 L1.79087417e-05,16.7616166 C1.79087417e-05,15.9508224 0.713182805,15.2413793 1.52823053,15.2413793 L20.8855805,15.2413793 C21.7006282,15.2413793 22.4137931,15.9508224 22.4137931,16.7616166 L22.4137931,21.8290842 C22.4137931,22.6398784 21.7006282,23.3493215 20.8855805,23.3493215 Z M21.3949857,26.8965517 L1.01880742,26.8965517 C0.407522371,26.8965517 0,26.4911561 0,25.8830612 C0,25.2749663 0.407522371,24.8695706 1.01880742,24.8695706 L21.3949857,24.8695706 C22.0062707,24.8695706 22.4137931,25.2749663 22.4137931,25.8830612 C22.4137931,26.3898079 22.0062707,26.8965517 21.3949857,26.8965517 Z" id="形状"></path>
                        </g>
                    </g>
                </g>
            </g>
        </g>
    </g>
</svg>