<?xml version="1.0" encoding="UTF-8"?>
<svg width="50px" height="49px" viewBox="0 0 50 49" version="1.1" xmlns="http://www.w3.org/2000/svg" xmlns:xlink="http://www.w3.org/1999/xlink">
    <!-- Generator: Sketch 60 (88103) - https://sketch.com -->
    <title>icon-9待处理放款</title>
    <desc>Created with Sketch.</desc>
    <defs>
        <linearGradient x1="50%" y1="0%" x2="50%" y2="100%" id="linearGradient-1">
            <stop stop-color="#71CAFA" offset="0%"></stop>
            <stop stop-color="#508FF7" offset="100%"></stop>
        </linearGradient>
        <linearGradient x1="50%" y1="0%" x2="50%" y2="100%" id="linearGradient-2">
            <stop stop-color="#5B9DFB" offset="0%"></stop>
            <stop stop-color="#2E64F6" offset="100%"></stop>
        </linearGradient>
    </defs>
    <g id="业务" stroke="none" stroke-width="1" fill="none" fill-rule="evenodd">
        <g id="01业务" transform="translate(-82.000000, -1539.000000)">
            <g id="订单列表备份-6" transform="translate(30.000000, 1438.000000)">
                <g id="编组-6" transform="translate(32.000000, 101.000000)">
                    <g id="icon-9待处理放款" transform="translate(20.000000, 0.000000)">
                        <path d="M44.3396226,17.3206237 L4.99567821e-05,17.3206237 L4.99567821e-05,11.4349897 C4.99567821e-05,9.80704843 1.24102733,8.49056604 2.7722249,8.49056604 L41.5674477,8.49056604 C43.0986417,8.49056604 44.3396226,9.80865139 44.3396226,11.4349897 L44.3396226,17.3206237 L44.3396226,17.3206237 Z M44.339573,20.2650474 L44.339573,42.340201 C44.339573,43.9649326 43.0985957,45.2830184 41.5673981,45.2830184 L2.77217531,45.2830184 L2.77217536,45.2830184 C1.24198036,45.2839047 0.00083648575,43.9670812 0,42.3418077 C0,42.3412724 0,42.3407371 0,42.3402018 L0,20.2650474 L44.339573,20.2650474 L44.339573,20.2650474 Z M8.31331198,26.1506814 L8.31331192,26.1506814 C7.54779816,26.1506814 6.92722622,26.8098125 6.92722622,27.6228913 C6.92722622,28.4359702 7.54779816,29.0951013 8.31331192,29.0951013 L16.6268219,29.0951013 L16.626822,29.0951013 C17.3923358,29.0951013 18.0129077,28.4359702 18.0129077,27.6228913 C18.0129077,26.8098125 17.3923358,26.1506814 16.626822,26.1506814 L8.313312,26.1506814 L8.31331198,26.1506814 Z M8.31331198,32.0379333 L8.31331203,32.0379333 C7.54821631,32.0647797 6.94847181,32.7453149 6.97374531,33.5579498 C6.99784864,34.3328888 7.58370691,34.9551482 8.31331203,34.9807503 L13.8561598,34.9807503 L13.8561598,34.9807503 C14.6212555,34.9539039 15.221,34.2733687 15.1957265,33.4607339 C15.1716232,32.6857948 14.5857649,32.0635355 13.8561598,32.0379333 L8.31331203,32.0379333 L8.31331198,32.0379333 Z" id="形状" fill="url(#linearGradient-1)" fill-rule="nonzero"></path>
                        <path d="M20.754717,20.754717 L46,20.754717 C48.209139,20.754717 50,22.545578 50,24.754717 L50,44.1132075 C50,46.3223465 48.209139,48.1132075 46,48.1132075 L24.754717,48.1132075 C22.545578,48.1132075 20.754717,46.3223465 20.754717,44.1132075 L20.754717,20.754717 L20.754717,20.754717 Z" id="矩形" fill="#9FDBFC"></path>
                        <path d="M0,0 L24.3018868,0 C26.5110258,-4.05812251e-16 28.3018868,1.790861 28.3018868,4 L28.3018868,13.9245283 C28.3018868,16.1336673 26.5110258,17.9245283 24.3018868,17.9245283 L4,17.9245283 C1.790861,17.9245283 2.705415e-16,16.1336673 0,13.9245283 L0,0 L0,0 Z" id="矩形备份-6" fill="#9FDBFC" opacity="0.518298921" transform="translate(14.150943, 8.962264) scale(-1, -1) translate(-14.150943, -8.962264) "></path>
                        <path d="M44.3396226,17.3206237 L4.99567821e-05,17.3206237 L4.99567821e-05,11.4349897 C4.99567821e-05,9.80704843 1.24102733,8.49056604 2.7722249,8.49056604 L41.5674477,8.49056604 C43.0986417,8.49056604 44.3396226,9.80865139 44.3396226,11.4349897 L44.3396226,17.3206237 L44.3396226,17.3206237 Z M44.339573,20.2650474 L44.339573,42.340201 C44.339573,43.9649326 43.0985957,45.2830184 41.5673981,45.2830184 L2.77217531,45.2830184 L2.77217536,45.2830184 C1.24198036,45.2839047 0.00083648575,43.9670812 0,42.3418077 C0,42.3412724 0,42.3407371 0,42.3402018 L0,20.2650474 L44.339573,20.2650474 L44.339573,20.2650474 Z M8.31331198,26.1506814 L8.31331192,26.1506814 C7.54779816,26.1506814 6.92722622,26.8098125 6.92722622,27.6228913 C6.92722622,28.4359702 7.54779816,29.0951013 8.31331192,29.0951013 L16.6268219,29.0951013 L16.626822,29.0951013 C17.3923358,29.0951013 18.0129077,28.4359702 18.0129077,27.6228913 C18.0129077,26.8098125 17.3923358,26.1506814 16.626822,26.1506814 L8.313312,26.1506814 L8.31331198,26.1506814 Z M8.31331198,32.0379333 L8.31331203,32.0379333 C7.54821631,32.0647797 6.94847181,32.7453149 6.97374531,33.5579498 C6.99784864,34.3328888 7.58370691,34.9551482 8.31331203,34.9807503 L13.8561598,34.9807503 L13.8561598,34.9807503 C14.6212555,34.9539039 15.221,34.2733687 15.1957265,33.4607339 C15.1716232,32.6857948 14.5857649,32.0635355 13.8561598,32.0379333 L8.31331203,32.0379333 L8.31331198,32.0379333 Z" id="形状" fill="url(#linearGradient-1)" fill-rule="nonzero"></path>
                        <path d="M44.3396226,20.7552918 L44.3396226,42.3978679 C44.3396226,43.9907618 43.065868,45.2830189 41.4942277,45.2830189 L22.8610465,45.2834729 C22.719181,44.8734705 22.6421227,44.4332191 22.6421227,43.9749698 L22.6415094,20.754717 L44.3396226,20.7552918 Z" id="形状结合" fill="url(#linearGradient-2)"></path>
                    </g>
                </g>
            </g>
        </g>
    </g>
</svg>