<?xml version="1.0" encoding="UTF-8"?>
<svg width="50px" height="52px" viewBox="0 0 50 52" version="1.1" xmlns="http://www.w3.org/2000/svg" xmlns:xlink="http://www.w3.org/1999/xlink">
    <!-- Generator: Sketch 60 (88103) - https://sketch.com -->
    <title>icon-11审批中放款</title>
    <desc>Created with Sketch.</desc>
    <defs>
        <linearGradient x1="50%" y1="0%" x2="50%" y2="100%" id="linearGradient-1">
            <stop stop-color="#6BD7EE" offset="0%"></stop>
            <stop stop-color="#76EFCC" offset="100%"></stop>
        </linearGradient>
    </defs>
    <g id="业务" stroke="none" stroke-width="1" fill="none" fill-rule="evenodd">
        <g id="01业务" transform="translate(-84.000000, -1783.000000)">
            <g id="订单列表备份-6" transform="translate(30.000000, 1438.000000)">
                <g id="编组-6备份-2" transform="translate(32.000000, 345.000000)">
                    <g id="icon-11审批中放款" transform="translate(22.000000, 0.000000)">
                        <path d="M40.5721616,4.68464139 C42.6218219,4.68464139 44.3590896,6.28536043 44.294554,8.2405615 L44.294554,37.9798716 C44.294554,38.7578385 43.2476265,44.0071683 40.5721616,46.2222222 C36.5235974,49.5740839 30.1229974,50.0740741 28.8888889,50.0740741 L3.60622838,50.0740741 C1.61596099,50.0740741 0,48.4708092 0,46.5156081 L0,8.24051058 C0,6.28530951 1.55656808,4.68464139 3.60622838,4.68464139 L11.4976701,4.68464139 C12.1103862,4.68464139 13.2029426,4.68464139 27.9259259,4.68464139 C29.5671785,4.68464139 33.7834643,4.68464139 40.5747834,4.68464139 L40.5721616,4.68464139 Z" id="形状" fill="url(#linearGradient-1)"></path>
                        <path d="M26.4319024,28.1055445 L23.2252234,28.1055445 L23.2252234,28.1055445 L23.2252234,29.3372378 L26.4291141,29.3372378 C27.4103117,29.3372378 28.2057296,30.1326557 28.2057296,31.1138533 C28.2057296,32.095051 27.4103117,32.8904688 26.4291141,32.8904688 L23.2252234,32.8904688 L23.2252234,32.8904688 L23.2252234,34.4470543 C23.2252234,35.47145 22.3947866,36.3018868 21.3703909,36.3018868 C20.3459952,36.3018868 19.5155584,35.47145 19.5155584,34.4470543 L19.5155584,32.8904688 L19.5155584,32.8904688 L16.4511626,32.8904688 C15.4694486,32.8904688 14.6736122,32.0946324 14.6736122,31.1129184 C14.6736122,30.1312044 15.4694486,29.335368 16.4511626,29.335368 L19.5155584,29.335368 L19.5155584,29.335368 L19.5155584,28.1036746 L16.4465044,28.1036746 C15.4673631,28.1036746 14.6736122,27.3099238 14.6736122,26.3307824 C14.6736122,25.3516411 15.4673631,24.5578903 16.4465044,24.5578903 L17.5023735,24.5578903 L17.5023735,24.5578903 L14.5006809,20.4616144 C13.9936896,19.769746 14.1435621,18.7978782 14.8354304,18.2908869 C14.8790345,18.2589345 14.924277,18.2292805 14.9709733,18.2020459 C15.8404358,17.6949515 16.9457495,17.8622031 17.6262601,18.6038331 L21.3896876,22.7052694 L21.3896876,22.7052694 L25.0652671,18.6351485 C25.7518138,17.874907 26.874837,17.6947302 27.7647494,18.2020459 C28.474041,18.6063945 28.7212462,19.5091781 28.3168977,20.2184697 C28.2753321,20.2913823 28.227633,20.3606227 28.1743171,20.4254405 L24.775175,24.5578903 L24.775175,24.5578903 L26.4318885,24.5578903 C27.4115473,24.5578903 28.2057188,25.3520586 28.2057226,26.3317174 C28.2057264,27.3113712 27.4115632,28.1055407 26.4319094,28.1055445 C26.4319071,28.1055445 26.4319048,28.1055445 26.4319024,28.1055445 Z" id="路径" fill="#FFFFFF"></path>
                        <rect id="矩形" fill="#68C0DD" opacity="0.737258185" x="9.62962963" y="0" width="26" height="9.62962963" rx="4"></rect>
                        <g id="shua" transform="translate(27.925926, 30.814815)">
                            <circle id="椭圆形" fill="#96E3FC" style="mix-blend-mode: multiply;" cx="10.5925926" cy="10.5925926" r="10.5925926"></circle>
                            <path d="M13.9865587,17.7901522 C13.1650075,18.1231418 12.276116,18.2962963 11.3872246,18.2962963 C8.49159322,18.2962963 5.91919514,16.5114725 4.90909118,13.8209173 L4.92255924,13.8209173 C4.85521897,13.7010411 4.82828287,13.5678453 4.81481481,13.4213299 C4.81481481,12.9285055 5.2188564,12.5289181 5.71717435,12.5289181 C6.10774788,12.5289181 6.45791725,12.7819901 6.56566167,13.1549383 L6.57912973,13.1549383 C7.52189342,15.7788956 10.4175248,17.1374928 13.0707312,16.2184418 C15.7239376,15.2860712 17.0976789,12.4223614 16.1683833,9.7984041 C15.4545765,7.78714749 13.528645,6.44186989 11.3737565,6.44186989 C10.7811622,6.44186989 10.1885679,6.54842653 9.62290965,6.76153981 L10.2693762,7.97362161 C10.3501845,8.05353909 10.3905887,8.16009574 10.3905887,8.27997196 C10.3771206,8.5197244 10.1750998,8.71951811 9.93267486,8.73283769 L9.90573876,8.73283769 L5.36700498,8.54636356 C5.11111198,8.53304398 4.92255924,8.3199307 4.93602729,8.08017825 C4.93602729,8.00026077 4.9629634,7.92034329 5.00336755,7.85374539 L7.4410851,4.05766502 C7.57576563,3.84455174 7.85859474,3.79127342 8.07408358,3.92446922 C8.14142385,3.96442796 8.19529606,4.03102586 8.23570022,4.09762376 L8.80135843,5.16319018 C12.3299883,3.7379951 16.356936,5.41626221 17.7980177,8.91931181 C19.2121632,12.3957223 17.5151886,16.3782767 13.9865587,17.7901522 L13.9865587,17.7901522 Z" id="路径" fill="#FFFFFF" fill-rule="nonzero"></path>
                        </g>
                    </g>
                </g>
            </g>
        </g>
    </g>
</svg>