<?xml version="1.0" encoding="UTF-8"?>
<svg width="49px" height="52px" viewBox="0 0 49 52" version="1.1" xmlns="http://www.w3.org/2000/svg" xmlns:xlink="http://www.w3.org/1999/xlink">
    <!-- Generator: Sketch 60 (88103) - https://sketch.com -->
    <title>icon-13审批否决</title>
    <desc>Created with Sketch.</desc>
    <defs>
        <linearGradient x1="50%" y1="0%" x2="50%" y2="100%" id="linearGradient-1">
            <stop stop-color="#F3AD76" offset="0%"></stop>
            <stop stop-color="#EC6760" offset="100%"></stop>
        </linearGradient>
    </defs>
    <g id="业务" stroke="none" stroke-width="1" fill="none" fill-rule="evenodd">
        <g id="01业务" transform="translate(-80.000000, -2021.000000)">
            <g id="订单列表备份-6" transform="translate(30.000000, 1438.000000)">
                <g id="编组-6备份-3" transform="translate(32.000000, 583.000000)">
                    <g id="icon-13审批否决" transform="translate(18.000000, 0.000000)">
                        <path d="M45.1303003,8.62301294 L45.1303003,38.9234421 C45.1303003,39.7160876 44.0636194,45.0644614 41.3376741,47.3213088 C37.2127219,50.7364131 30.6913558,51.2458371 29.4339623,51.2458371 L3.67427042,51.2458371 C1.64645082,51.2458371 0,49.6123219 0,47.6202303 L0,8.62296106 C0,6.63086941 1.58593729,5 3.67427042,5 L41.3403453,5 C43.9108175,6.08728086 45.1741358,7.29495184 45.1303003,8.62301294 Z" id="路径" fill="url(#linearGradient-1)" fill-rule="nonzero"></path>
                        <path d="M28.1947685,27.9754604 L24.9275861,27.9754604 L24.9275861,27.9754604 L24.9275861,29.2303933 L28.1919276,29.2303933 C29.1916384,29.2303933 30.0020641,30.040819 30.0020641,31.0405298 C30.0020641,32.0402406 29.1916384,32.8506663 28.1919276,32.8506663 L24.9275861,32.8506663 L24.9275861,32.8506663 L24.9275861,34.4366214 C24.9275861,35.4803453 24.0814806,36.3264507 23.0377567,36.3264507 C21.9940328,36.3264507 21.1479274,35.4803453 21.1479274,34.4366214 L21.1479274,32.8506663 L21.1479274,32.8506663 L18.0257129,32.8506663 C17.025476,32.8506663 16.2146238,32.0398141 16.2146238,31.0395773 C16.2146238,30.0393404 17.025476,29.2284882 18.0257129,29.2284882 L21.1479274,29.2284882 L21.1479274,29.2284882 L21.1479274,27.9735553 L18.0209668,27.9735553 C17.0233511,27.9735553 16.2146238,27.164828 16.2146238,26.1672123 C16.2146238,25.1695966 17.0233511,24.3608693 18.0209668,24.3608693 L19.096758,24.3608693 L19.096758,24.3608693 L16.0384296,20.1873052 C15.5218724,19.4823827 15.6745727,18.4921778 16.3794952,17.9756207 C16.4239219,17.9430654 16.4700181,17.9128518 16.5175955,17.8851034 C17.4034629,17.3684412 18.5296316,17.5388484 19.222982,18.2944715 L23.0574176,22.4732934 L23.0574176,22.4732934 L26.8023476,18.3263777 C27.501848,17.5517921 28.6460603,17.3682156 29.5527636,17.8851034 C30.275438,18.2970811 30.5273075,19.2168985 30.1153297,19.9395729 C30.0729799,20.0138612 30.0243807,20.084408 29.9700589,20.1504489 L26.5067821,24.3608693 L26.5067821,24.3608693 L28.1947543,24.3608693 C29.1928973,24.3608693 30.0020531,25.1700219 30.002057,26.1681649 C30.0020609,27.1663027 29.1929135,27.9754565 28.1947756,27.9754604 C28.1947733,27.9754604 28.1947709,27.9754604 28.1947685,27.9754604 Z" id="路径" fill="#FFFFFF"></path>
                        <g id="shua" transform="translate(26.490566, 30.415094)">
                            <circle id="椭圆形" fill="#F2A492" fill-rule="nonzero" style="mix-blend-mode: multiply;" cx="10.7924528" cy="10.7924528" r="10.7924528"></circle>
                            <path d="M11.3063138,5.02329493 C11.8585986,5.02329493 12.3063138,5.47101018 12.3063138,6.02329493 L12.3058232,9.43829493 L15.7402761,9.43838927 C16.2821403,9.43838927 16.7214081,9.87765707 16.7214081,10.4195213 L16.7214081,11.4006534 C16.7214081,11.9425177 16.2821403,12.3817855 15.7402761,12.3817855 L12.3058232,12.3812949 L12.3063138,15.7968798 C12.3063138,16.3491646 11.8585986,16.7968798 11.3063138,16.7968798 L10.3629176,16.7968798 C9.81063282,16.7968798 9.36291757,16.3491646 9.36291757,15.7968798 L9.36282324,12.3812949 L5.92895531,12.3817855 C5.38709103,12.3817855 4.94782324,11.9425177 4.94782324,11.4006534 L4.94782324,10.4195213 C4.94782324,9.87765707 5.38709103,9.43838927 5.92895531,9.43838927 L9.36282324,9.43829493 L9.36291757,6.02329493 C9.36291757,5.47101018 9.81063282,5.02329493 10.3629176,5.02329493 L11.3063138,5.02329493 Z" id="形状结合" fill="#FFFFFF" transform="translate(10.834616, 10.910087) rotate(-315.000000) translate(-10.834616, -10.910087) "></path>
                        </g>
                        <rect id="矩形" fill="#F2A492" style="mix-blend-mode: multiply;" opacity="0.452241443" x="9.81132075" y="0" width="26.490566" height="9.81132075" rx="4"></rect>
                    </g>
                </g>
            </g>
        </g>
    </g>
</svg>