<?xml version="1.0" encoding="UTF-8"?>
<svg width="49px" height="52px" viewBox="0 0 49 52" version="1.1" xmlns="http://www.w3.org/2000/svg" xmlns:xlink="http://www.w3.org/1999/xlink">
    <!-- Generator: Sketch 60 (88103) - https://sketch.com -->
    <title>icon-10待提交放款</title>
    <desc>Created with Sketch.</desc>
    <defs>
        <linearGradient x1="50%" y1="0%" x2="50%" y2="100%" id="linearGradient-1">
            <stop stop-color="#F0937F" offset="0%"></stop>
            <stop stop-color="#ED738B" offset="100%"></stop>
        </linearGradient>
        <linearGradient x1="50%" y1="0%" x2="50%" y2="100%" id="linearGradient-2">
            <stop stop-color="#F4C99F" offset="0%"></stop>
            <stop stop-color="#FFD7D9" offset="100%"></stop>
        </linearGradient>
        <linearGradient x1="50%" y1="0%" x2="50%" y2="100%" id="linearGradient-3">
            <stop stop-color="#D93A36" offset="0%"></stop>
            <stop stop-color="#E05055" offset="100%"></stop>
        </linearGradient>
        <linearGradient x1="50%" y1="0%" x2="50%" y2="100%" id="linearGradient-4">
            <stop stop-color="#F0937F" offset="0%"></stop>
            <stop stop-color="#ED738B" offset="100%"></stop>
        </linearGradient>
    </defs>
    <g id="业务" stroke="none" stroke-width="1" fill="none" fill-rule="evenodd">
        <g id="01业务" transform="translate(-77.000000, -1664.000000)">
            <g id="订单列表备份-6" transform="translate(30.000000, 1438.000000)">
                <g id="编组-6备份" transform="translate(32.000000, 226.000000)">
                    <g id="icon-10待提交放款" transform="translate(15.000000, 0.000000)">
                        <rect id="矩形" fill="url(#linearGradient-1)" fill-rule="nonzero" x="0" y="0" width="48.2496786" height="23.4" rx="4"></rect>
                        <path d="M36.931079,39.2007618 C41.1176895,39.7169206 44.2658507,38.3664421 46.3755626,35.1493263 C49.0382097,43.278089 49.0382097,47.6184443 46.3755626,48.1703921 C42.3815919,48.9983138 30.6511634,38.4265235 36.931079,39.2007618 Z" id="矩形" fill="url(#linearGradient-2)"></path>
                        <rect id="矩形" fill="url(#linearGradient-3)" opacity="0.861165365" x="5.9081239" y="4.875" width="37.4181181" height="14.625" rx="4"></rect>
                        <path d="M11.8774985,14.0758621 L36.37218,14.0758621 C38.581319,14.0758621 40.37218,15.8667231 40.37218,18.0758621 L40.37218,27.7509386 L40.37218,27.7509386 C40.2881117,34.6241609 40.8197775,39.5169633 41.9671773,42.4293456 C43.1145771,45.341728 44.7126551,47.2158243 46.7614112,48.0516345 C41.7585037,50.4672115 37.3373198,51.675 33.4978595,51.675 C30.9577392,51.675 28.4176189,51.675 25.8774985,51.675 C15.936373,51.675 7.87749854,43.6161255 7.87749854,33.675 L7.87749854,18.0758621 C7.87749854,15.8667231 9.66835954,14.0758621 11.8774985,14.0758621 Z" id="矩形" fill="url(#linearGradient-4)" fill-rule="nonzero" style="mix-blend-mode: multiply;"></path>
                        <path d="M28.85697,32.3916169 L25.8443166,32.3916169 L25.8443166,32.3916169 L25.8443166,33.5311987 L28.8543902,33.5311987 C29.7622095,33.5311987 30.4981424,34.2671317 30.4981424,35.1749509 C30.4981424,36.0827702 29.7622095,36.8187032 28.8543902,36.8187032 L25.8443166,36.8187032 L25.8443166,36.8187032 L25.8443166,38.2418293 C25.8443166,39.1990331 25.0683497,39.975 24.1111459,39.975 C23.1539422,39.975 22.3779753,39.1990331 22.3779753,38.2418293 L22.3779753,36.8187032 L22.3779753,36.8187032 L19.4982383,36.8187032 C18.5899413,36.8187032 17.8536211,36.0823829 17.8536211,35.1740859 C17.8536211,34.2657889 18.5899413,33.5294687 19.4982383,33.5294687 L22.3779753,33.5294687 L22.3779753,33.5294687 L22.3779753,32.3898869 L19.4939285,32.3898869 C18.5880117,32.3898869 17.8536211,31.6554963 17.8536211,30.7495795 C17.8536211,29.8436628 18.5880117,29.1092722 19.4939285,29.1092722 L20.4968389,29.1092722 L20.4968389,29.1092722 L17.6957726,25.3243876 C17.2244679,24.6875467 17.3586616,23.7892171 17.9955025,23.3179124 C18.0391053,23.2856435 18.0845033,23.2558736 18.1314778,23.2287464 C18.9455993,22.7585996 19.9766946,22.9142859 20.6157109,23.6038436 L24.129177,27.3951986 L24.129177,27.3951986 L27.5603521,23.6330959 C28.2051299,22.926131 29.2528316,22.7584025 30.0860869,23.2287464 C30.7427598,23.5994155 30.9746117,24.4322407 30.6039426,25.0889136 C30.5637999,25.16003 30.5173578,25.2274014 30.4651748,25.2902179 L27.2926042,29.1092722 L27.2926042,29.1092722 L28.856957,29.1092722 C29.7633525,29.1092722 30.4981323,29.844049 30.4981359,30.7504445 C30.4981395,31.6568354 29.7633674,32.3916133 28.8569765,32.3916169 C28.8569744,32.3916169 28.8569722,32.3916169 28.85697,32.3916169 Z" id="路径" fill="#FFFFFF"></path>
                    </g>
                </g>
            </g>
        </g>
    </g>
</svg>