<?xml version="1.0" encoding="UTF-8"?>
<svg width="15px" height="26px" viewBox="0 0 15 26" version="1.1" xmlns="http://www.w3.org/2000/svg" xmlns:xlink="http://www.w3.org/1999/xlink">
    <!-- Generator: Sketch 60 (88103) - https://sketch.com -->
    <title>箭头</title>
    <desc>Created with Sketch.</desc>
    <g id="业务" stroke="none" stroke-width="1" fill="none" fill-rule="evenodd">
        <g id="01业务" transform="translate(-676.000000, -264.000000)" fill="#B3B6C1" fill-rule="nonzero">
            <g id="订单列表" transform="translate(30.000000, 146.000000)">
                <g id="箭头" transform="translate(646.000000, 118.000000)">
                    <path d="M13.3635124,14.4409995 C13.0115129,14.4409995 12.6595107,14.3015404 12.3779121,14.0365669 L0.944945693,2.82405155 C0.395825054,2.28016064 0.395825054,1.41551268 0.930865685,0.871621764 C1.46590717,0.327730846 2.3529482,0.327730846 2.90206884,0.857675852 L14.3350353,12.0701912 C14.8841559,12.6001371 14.8841559,13.4787301 14.3491153,14.022621 C14.095675,14.3154854 13.7295937,14.4409995 13.363515,14.4409995 L13.3635124,14.4409995 Z" id="路径"></path>
                    <path d="M2.05726097,25.765055 C1.70526142,25.765055 1.35325929,25.6255959 1.07166068,25.3606224 C0.522540045,24.8167315 0.522540045,23.9520836 1.05758068,23.4081926 L12.3779087,12.0841116 C12.9129502,11.5402207 13.7999912,11.5402207 14.3491118,12.0701657 C14.8982325,12.6001115 14.8982325,13.4787046 14.3631919,14.0225955 L3.04286384,25.3466765 C2.77534439,25.6255958 2.4092631,25.765055 2.05726355,25.765055 L2.05726097,25.765055 Z" id="路径"></path>
                </g>
            </g>
        </g>
    </g>
</svg>