<?xml version="1.0" encoding="UTF-8"?>
<svg width="38px" height="36px" viewBox="0 0 38 36" version="1.1" xmlns="http://www.w3.org/2000/svg" xmlns:xlink="http://www.w3.org/1999/xlink">
    <!-- Generator: Sketch 60 (88103) - https://sketch.com -->
    <title>形状</title>
    <desc>Created with Sketch.</desc>
    <g id="业务" stroke="none" stroke-width="1" fill="none" fill-rule="evenodd">
        <g id="03授信业务01" transform="translate(-672.000000, -69.000000)" fill="#666666" fill-rule="nonzero">
            <g id="导航栏">
                <g id="筛选" transform="translate(672.000000, 69.000000)">
                    <path d="M5.32922308,3.66010111 L14.6628337,16.3950924 C14.9021071,16.7112058 15.0304976,17.0983211 15.0304976,17.4951675 L15.0304976,34.8113655 C15.0304976,35.3774526 14.5772389,35.8355733 14.0169883,35.8355733 L12.497699,35.8355733 L12.497699,35.8355733 C11.9352756,35.8328966 11.4815079,35.3747924 11.4841861,34.812369 C11.4841877,34.8120353 11.4841895,34.8117017 11.4841914,34.811368 L11.4841914,18.1098982 L0.365771802,2.93061242 L0.365771817,2.93061244 C-0.0439639711,2.38092321 -0.115131818,1.64937462 0.180967141,1.03101529 L0.180967194,1.03101518 C0.474234888,0.414958686 1.08915584,0.0162931313 1.77125835,0 L36.2178753,0 L36.2178753,0 C36.8981478,0.0139036643 37.5133633,0.407523185 37.8110865,1.01934216 C38.1126098,1.6330886 38.0493871,2.36549985 37.6486529,2.91796837 L25.7063727,19.5435673 C25.3756698,19.9909895 24.7492794,20.0882538 24.3008862,19.7604695 L24.3008862,19.7604695 C24.2906676,19.7618008 24.2806633,19.7567986 24.2755971,19.7478249 L23.0471333,18.8140741 L23.0471332,18.814074 C22.6071826,18.4731765 22.5172058,17.8446327 22.8438481,17.3939944 L32.696861,3.66008337 L5.3302122,3.66008337 L5.32922308,3.66010111 Z M22.4907516,25.8026249 L22.4907516,24.1899623 C22.4907516,23.6248498 22.9440143,23.1657545 23.5032902,23.1657545 L32.4069774,23.1657545 C32.9662534,23.1657545 33.4195121,23.6248498 33.4195121,24.1899623 L33.4195121,25.8026249 C33.4195121,26.0749685 33.3125199,26.3346674 33.1228519,26.5262796 C32.9331838,26.7188655 32.6754296,26.8268304 32.4069756,26.8268304 L23.5032884,26.8268304 C23.2348355,26.8268304 22.9780533,26.7188655 22.7874122,26.5262796 L22.7874121,26.5262795 C22.5971427,26.3335026 22.4905487,26.0734828 22.4907516,25.8026248 L22.4907516,25.8026249 Z M22.4907414,33.7764774 L22.4907414,32.1638148 C22.4907414,31.5977277 22.9440143,31.1396071 23.5032902,31.1396071 L32.4069774,31.1396071 C32.9662534,31.1396071 33.4196155,31.5977277 33.4196155,32.1638148 L33.4196155,33.7764774 C33.4234027,34.048821 33.3173833,34.31144 33.1267425,34.5040231 L33.1267425,34.5040231 C32.9369041,34.6962008 32.6770896,34.8029356 32.4069752,34.7997106 L23.5032881,34.7997106 L23.5032881,34.7997106 C22.9412364,34.796496 22.4880607,34.3385327 22.4907414,33.7764774 L22.4907414,33.7764774 Z" id="形状"></path>
                </g>
            </g>
        </g>
    </g>
</svg>